<svg width="1440" height="720" viewBox="0 0 1440 720" fill="none" xmlns="http://www.w3.org/2000/svg">
<g clip-path="url(#clip0_221_600)">
<rect width="1440" height="720" fill="#080808"/>
<path d="M886 214C890.418 214 894 217.582 894 222L894 473C894 477.418 890.418 481 886 481L610 481C605.582 481 602 477.418 602 473L602 222C602 217.582 605.582 214 610 214L886 214Z" fill="white" fill-opacity="0.05"/>
<path d="M602 222L602.5 222C602.5 221.498 602.549 221.009 602.643 220.536L602.152 220.439L601.662 220.342C601.556 220.878 601.5 221.433 601.5 222L602 222ZM603.347 217.555L603.763 217.833C604.311 217.015 605.015 216.311 605.833 215.763L605.555 215.347L605.277 214.932C604.35 215.552 603.552 216.35 602.932 217.277L603.347 217.555ZM608.439 214.152L608.536 214.643C609.009 214.549 609.498 214.5 610 214.5L610 214L610 213.5C609.433 213.5 608.878 213.556 608.342 213.662L608.439 214.152ZM610 214L610 214.5L611.971 214.5L611.971 214L611.971 213.5L610 213.5L610 214ZM615.914 214L615.914 214.5L619.857 214.5L619.857 214L619.857 213.5L615.914 213.5L615.914 214ZM623.8 214L623.8 214.5L627.743 214.5L627.743 214L627.743 213.5L623.8 213.5L623.8 214ZM631.686 214L631.686 214.5L635.629 214.5L635.629 214L635.629 213.5L631.686 213.5L631.686 214ZM639.571 214L639.571 214.5L643.514 214.5L643.514 214L643.514 213.5L639.571 213.5L639.571 214ZM647.457 214L647.457 214.5L651.4 214.5L651.4 214L651.4 213.5L647.457 213.5L647.457 214ZM655.343 214L655.343 214.5L659.286 214.5L659.286 214L659.286 213.5L655.343 213.5L655.343 214ZM663.229 214L663.229 214.5L667.171 214.5L667.171 214L667.171 213.5L663.229 213.5L663.229 214ZM671.114 214L671.114 214.5L675.057 214.5L675.057 214L675.057 213.5L671.114 213.5L671.114 214ZM679 214L679 214.5L682.943 214.5L682.943 214L682.943 213.5L679 213.5L679 214ZM686.886 214L686.886 214.5L690.829 214.5L690.829 214L690.829 213.5L686.886 213.5L686.886 214ZM694.771 214L694.771 214.5L698.714 214.5L698.714 214L698.714 213.5L694.771 213.5L694.771 214ZM702.657 214L702.657 214.5L706.6 214.5L706.6 214L706.6 213.5L702.657 213.5L702.657 214ZM710.543 214L710.543 214.5L714.486 214.5L714.486 214L714.486 213.5L710.543 213.5L710.543 214ZM718.429 214L718.429 214.5L722.371 214.5L722.371 214L722.371 213.5L718.429 213.5L718.429 214ZM726.314 214L726.314 214.5L730.257 214.5L730.257 214L730.257 213.5L726.314 213.5L726.314 214ZM734.2 214L734.2 214.5L738.143 214.5L738.143 214L738.143 213.5L734.2 213.5L734.2 214ZM742.086 214L742.086 214.5L746.029 214.5L746.029 214L746.029 213.5L742.086 213.5L742.086 214ZM749.971 214L749.971 214.5L753.914 214.5L753.914 214L753.914 213.5L749.971 213.5L749.971 214ZM757.857 214L757.857 214.5L761.8 214.5L761.8 214L761.8 213.5L757.857 213.5L757.857 214ZM765.743 214L765.743 214.5L769.686 214.5L769.686 214L769.686 213.5L765.743 213.5L765.743 214ZM773.629 214L773.629 214.5L777.571 214.5L777.571 214L777.571 213.5L773.629 213.5L773.629 214ZM781.514 214L781.514 214.5L785.457 214.5L785.457 214L785.457 213.5L781.514 213.5L781.514 214ZM789.4 214L789.4 214.5L793.343 214.5L793.343 214L793.343 213.5L789.4 213.5L789.4 214ZM797.286 214L797.286 214.5L801.229 214.5L801.229 214L801.229 213.5L797.286 213.5L797.286 214ZM805.171 214L805.171 214.5L809.114 214.5L809.114 214L809.114 213.5L805.171 213.5L805.171 214ZM813.057 214L813.057 214.5L817 214.5L817 214L817 213.5L813.057 213.5L813.057 214ZM820.943 214L820.943 214.5L824.886 214.5L824.886 214L824.886 213.5L820.943 213.5L820.943 214ZM828.829 214L828.829 214.5L832.771 214.5L832.771 214L832.771 213.5L828.829 213.5L828.829 214ZM836.714 214L836.714 214.5L840.657 214.5L840.657 214L840.657 213.5L836.714 213.5L836.714 214ZM844.6 214L844.6 214.5L848.543 214.5L848.543 214L848.543 213.5L844.6 213.5L844.6 214ZM852.486 214L852.486 214.5L856.429 214.5L856.429 214L856.429 213.5L852.486 213.5L852.486 214ZM860.371 214L860.371 214.5L864.314 214.5L864.314 214L864.314 213.5L860.371 213.5L860.371 214ZM868.257 214L868.257 214.5L872.2 214.5L872.2 214L872.2 213.5L868.257 213.5L868.257 214ZM876.143 214L876.143 214.5L880.086 214.5L880.086 214L880.086 213.5L876.143 213.5L876.143 214ZM884.029 214L884.029 214.5L886 214.5L886 214L886 213.5L884.029 213.5L884.029 214ZM886 214L886 214.5C886.502 214.5 886.991 214.549 887.464 214.643L887.561 214.152L887.658 213.662C887.122 213.556 886.567 213.5 886 213.5L886 214ZM890.445 215.347L890.167 215.763C890.985 216.311 891.689 217.015 892.237 217.833L892.653 217.555L893.068 217.277C892.448 216.35 891.65 215.552 890.723 214.932L890.445 215.347ZM893.848 220.439L893.357 220.536C893.451 221.009 893.5 221.498 893.5 222L894 222L894.5 222C894.5 221.433 894.444 220.878 894.338 220.342L893.848 220.439ZM894 222L893.5 222L893.5 224.024L894 224.024L894.5 224.024L894.5 222L894 222ZM894 228.073L893.5 228.073L893.5 232.121L894 232.121L894.5 232.121L894.5 228.073L894 228.073ZM894 236.169L893.5 236.169L893.5 240.218L894 240.218L894.5 240.218L894.5 236.169L894 236.169ZM894 244.266L893.5 244.266L893.5 248.315L894 248.315L894.5 248.315L894.5 244.266L894 244.266ZM894 252.363L893.5 252.363L893.5 256.411L894 256.411L894.5 256.411L894.5 252.363L894 252.363ZM894 260.46L893.5 260.46L893.5 264.508L894 264.508L894.5 264.508L894.5 260.46L894 260.46ZM894 268.556L893.5 268.556L893.5 272.605L894 272.605L894.5 272.605L894.5 268.556L894 268.556ZM894 276.653L893.5 276.653L893.5 280.702L894 280.702L894.5 280.702L894.5 276.653L894 276.653ZM894 284.75L893.5 284.75L893.5 288.798L894 288.798L894.5 288.798L894.5 284.75L894 284.75ZM894 292.847L893.5 292.847L893.5 296.895L894 296.895L894.5 296.895L894.5 292.847L894 292.847ZM894 300.944L893.5 300.944L893.5 304.992L894 304.992L894.5 304.992L894.5 300.944L894 300.944ZM894 309.04L893.5 309.04L893.5 313.089L894 313.089L894.5 313.089L894.5 309.04L894 309.04ZM894 317.137L893.5 317.137L893.5 321.185L894 321.185L894.5 321.185L894.5 317.137L894 317.137ZM894 325.234L893.5 325.234L893.5 329.282L894 329.282L894.5 329.282L894.5 325.234L894 325.234ZM894 333.331L893.5 333.331L893.5 337.379L894 337.379L894.5 337.379L894.5 333.331L894 333.331ZM894 341.427L893.5 341.427L893.5 345.476L894 345.476L894.5 345.476L894.5 341.427L894 341.427ZM894 349.524L893.5 349.524L893.5 353.573L894 353.573L894.5 353.573L894.5 349.524L894 349.524ZM894 357.621L893.5 357.621L893.5 361.669L894 361.669L894.5 361.669L894.5 357.621L894 357.621ZM894 365.718L893.5 365.718L893.5 369.766L894 369.766L894.5 369.766L894.5 365.718L894 365.718ZM894 373.814L893.5 373.814L893.5 377.863L894 377.863L894.5 377.863L894.5 373.814L894 373.814ZM894 381.911L893.5 381.911L893.5 385.96L894 385.96L894.5 385.96L894.5 381.911L894 381.911ZM894 390.008L893.5 390.008L893.5 394.056L894 394.056L894.5 394.056L894.5 390.008L894 390.008ZM894 398.105L893.5 398.105L893.5 402.153L894 402.153L894.5 402.153L894.5 398.105L894 398.105ZM894 406.202L893.5 406.202L893.5 410.25L894 410.25L894.5 410.25L894.5 406.202L894 406.202ZM894 414.298L893.5 414.298L893.5 418.347L894 418.347L894.5 418.347L894.5 414.298L894 414.298ZM894 422.395L893.5 422.395L893.5 426.444L894 426.444L894.5 426.444L894.5 422.395L894 422.395ZM894 430.492L893.5 430.492L893.5 434.54L894 434.54L894.5 434.54L894.5 430.492L894 430.492ZM894 438.589L893.5 438.589L893.5 442.637L894 442.637L894.5 442.637L894.5 438.589L894 438.589ZM894 446.685L893.5 446.685L893.5 450.734L894 450.734L894.5 450.734L894.5 446.685L894 446.685ZM894 454.782L893.5 454.782L893.5 458.831L894 458.831L894.5 458.831L894.5 454.782L894 454.782ZM894 462.879L893.5 462.879L893.5 466.927L894 466.927L894.5 466.927L894.5 462.879L894 462.879ZM894 470.976L893.5 470.976L893.5 473L894 473L894.5 473L894.5 470.976L894 470.976ZM894 473L893.5 473C893.5 473.502 893.451 473.991 893.357 474.464L893.848 474.561L894.338 474.658C894.444 474.122 894.5 473.567 894.5 473L894 473ZM892.653 477.445L892.237 477.167C891.689 477.985 890.985 478.689 890.167 479.237L890.445 479.653L890.723 480.068C891.65 479.448 892.448 478.65 893.068 477.723L892.653 477.445ZM887.561 480.848L887.464 480.357C886.991 480.451 886.502 480.5 886 480.5L886 481L886 481.5C886.567 481.5 887.122 481.444 887.658 481.338L887.561 480.848ZM886 481L886 480.5L884.029 480.5L884.029 481L884.029 481.5L886 481.5L886 481ZM880.086 481L880.086 480.5L876.143 480.5L876.143 481L876.143 481.5L880.086 481.5L880.086 481ZM872.2 481L872.2 480.5L868.257 480.5L868.257 481L868.257 481.5L872.2 481.5L872.2 481ZM864.314 481L864.314 480.5L860.371 480.5L860.371 481L860.371 481.5L864.314 481.5L864.314 481ZM856.429 481L856.429 480.5L852.486 480.5L852.486 481L852.486 481.5L856.429 481.5L856.429 481ZM848.543 481L848.543 480.5L844.6 480.5L844.6 481L844.6 481.5L848.543 481.5L848.543 481ZM840.657 481L840.657 480.5L836.714 480.5L836.714 481L836.714 481.5L840.657 481.5L840.657 481ZM832.771 481L832.771 480.5L828.829 480.5L828.829 481L828.829 481.5L832.771 481.5L832.771 481ZM824.886 481L824.886 480.5L820.943 480.5L820.943 481L820.943 481.5L824.886 481.5L824.886 481ZM817 481L817 480.5L813.057 480.5L813.057 481L813.057 481.5L817 481.5L817 481ZM809.114 481L809.114 480.5L805.171 480.5L805.171 481L805.171 481.5L809.114 481.5L809.114 481ZM801.229 481L801.229 480.5L797.286 480.5L797.286 481L797.286 481.5L801.229 481.5L801.229 481ZM793.343 481L793.343 480.5L789.4 480.5L789.4 481L789.4 481.5L793.343 481.5L793.343 481ZM785.457 481L785.457 480.5L781.514 480.5L781.514 481L781.514 481.5L785.457 481.5L785.457 481ZM777.571 481L777.571 480.5L773.629 480.5L773.629 481L773.629 481.5L777.571 481.5L777.571 481ZM769.686 481L769.686 480.5L765.743 480.5L765.743 481L765.743 481.5L769.686 481.5L769.686 481ZM761.8 481L761.8 480.5L757.857 480.5L757.857 481L757.857 481.5L761.8 481.5L761.8 481ZM753.914 481L753.914 480.5L749.971 480.5L749.971 481L749.971 481.5L753.914 481.5L753.914 481ZM746.029 481L746.029 480.5L742.086 480.5L742.086 481L742.086 481.5L746.029 481.5L746.029 481ZM738.143 481L738.143 480.5L734.2 480.5L734.2 481L734.2 481.5L738.143 481.5L738.143 481ZM730.257 481L730.257 480.5L726.314 480.5L726.314 481L726.314 481.5L730.257 481.5L730.257 481ZM722.371 481L722.371 480.5L718.429 480.5L718.429 481L718.429 481.5L722.371 481.5L722.371 481ZM714.486 481L714.486 480.5L710.543 480.5L710.543 481L710.543 481.5L714.486 481.5L714.486 481ZM706.6 481L706.6 480.5L702.657 480.5L702.657 481L702.657 481.5L706.6 481.5L706.6 481ZM698.714 481L698.714 480.5L694.771 480.5L694.771 481L694.771 481.5L698.714 481.5L698.714 481ZM690.829 481L690.829 480.5L686.886 480.5L686.886 481L686.886 481.5L690.829 481.5L690.829 481ZM682.943 481L682.943 480.5L679 480.5L679 481L679 481.5L682.943 481.5L682.943 481ZM675.057 481L675.057 480.5L671.114 480.5L671.114 481L671.114 481.5L675.057 481.5L675.057 481ZM667.171 481L667.171 480.5L663.229 480.5L663.229 481L663.229 481.5L667.171 481.5L667.171 481ZM659.286 481L659.286 480.5L655.343 480.5L655.343 481L655.343 481.5L659.286 481.5L659.286 481ZM651.4 481L651.4 480.5L647.457 480.5L647.457 481L647.457 481.5L651.4 481.5L651.4 481ZM643.514 481L643.514 480.5L639.571 480.5L639.571 481L639.571 481.5L643.514 481.5L643.514 481ZM635.629 481L635.629 480.5L631.686 480.5L631.686 481L631.686 481.5L635.629 481.5L635.629 481ZM627.743 481L627.743 480.5L623.8 480.5L623.8 481L623.8 481.5L627.743 481.5L627.743 481ZM619.857 481L619.857 480.5L615.914 480.5L615.914 481L615.914 481.5L619.857 481.5L619.857 481ZM611.971 481L611.971 480.5L610 480.5L610 481L610 481.5L611.971 481.5L611.971 481ZM610 481L610 480.5C609.498 480.5 609.009 480.451 608.536 480.357L608.439 480.848L608.342 481.338C608.878 481.444 609.433 481.5 610 481.5L610 481ZM605.555 479.653L605.833 479.237C605.015 478.689 604.311 477.985 603.763 477.167L603.347 477.445L602.932 477.723C603.552 478.65 604.35 479.448 605.277 480.068L605.555 479.653ZM602.152 474.561L602.643 474.464C602.549 473.991 602.5 473.502 602.5 473L602 473L601.5 473C601.5 473.567 601.556 474.122 601.662 474.658L602.152 474.561ZM602 473L602.5 473L602.5 470.976L602 470.976L601.5 470.976L601.5 473L602 473ZM602 466.927L602.5 466.927L602.5 462.879L602 462.879L601.5 462.879L601.5 466.927L602 466.927ZM602 458.831L602.5 458.831L602.5 454.782L602 454.782L601.5 454.782L601.5 458.831L602 458.831ZM602 450.734L602.5 450.734L602.5 446.685L602 446.685L601.5 446.685L601.5 450.734L602 450.734ZM602 442.637L602.5 442.637L602.5 438.589L602 438.589L601.5 438.589L601.5 442.637L602 442.637ZM602 434.54L602.5 434.54L602.5 430.492L602 430.492L601.5 430.492L601.5 434.54L602 434.54ZM602 426.444L602.5 426.444L602.5 422.395L602 422.395L601.5 422.395L601.5 426.444L602 426.444ZM602 418.347L602.5 418.347L602.5 414.298L602 414.298L601.5 414.298L601.5 418.347L602 418.347ZM602 410.25L602.5 410.25L602.5 406.202L602 406.202L601.5 406.202L601.5 410.25L602 410.25ZM602 402.153L602.5 402.153L602.5 398.105L602 398.105L601.5 398.105L601.5 402.153L602 402.153ZM602 394.056L602.5 394.056L602.5 390.008L602 390.008L601.5 390.008L601.5 394.056L602 394.056ZM602 385.96L602.5 385.96L602.5 381.911L602 381.911L601.5 381.911L601.5 385.96L602 385.96ZM602 377.863L602.5 377.863L602.5 373.815L602 373.815L601.5 373.815L601.5 377.863L602 377.863ZM602 369.766L602.5 369.766L602.5 365.718L602 365.718L601.5 365.718L601.5 369.766L602 369.766ZM602 361.669L602.5 361.669L602.5 357.621L602 357.621L601.5 357.621L601.5 361.669L602 361.669ZM602 353.573L602.5 353.573L602.5 349.524L602 349.524L601.5 349.524L601.5 353.573L602 353.573ZM602 345.476L602.5 345.476L602.5 341.427L602 341.427L601.5 341.427L601.5 345.476L602 345.476ZM602 337.379L602.5 337.379L602.5 333.331L602 333.331L601.5 333.331L601.5 337.379L602 337.379ZM602 329.282L602.5 329.282L602.5 325.234L602 325.234L601.5 325.234L601.5 329.282L602 329.282ZM602 321.185L602.5 321.185L602.5 317.137L602 317.137L601.5 317.137L601.5 321.185L602 321.185ZM602 313.089L602.5 313.089L602.5 309.04L602 309.04L601.5 309.04L601.5 313.089L602 313.089ZM602 304.992L602.5 304.992L602.5 300.944L602 300.944L601.5 300.944L601.5 304.992L602 304.992ZM602 296.895L602.5 296.895L602.5 292.847L602 292.847L601.5 292.847L601.5 296.895L602 296.895ZM602 288.798L602.5 288.798L602.5 284.75L602 284.75L601.5 284.75L601.5 288.798L602 288.798ZM602 280.702L602.5 280.702L602.5 276.653L602 276.653L601.5 276.653L601.5 280.702L602 280.702ZM602 272.605L602.5 272.605L602.5 268.556L602 268.556L601.5 268.556L601.5 272.605L602 272.605ZM602 264.508L602.5 264.508L602.5 260.46L602 260.46L601.5 260.46L601.5 264.508L602 264.508ZM602 256.411L602.5 256.411L602.5 252.363L602 252.363L601.5 252.363L601.5 256.411L602 256.411ZM602 248.315L602.5 248.315L602.5 244.266L602 244.266L601.5 244.266L601.5 248.315L602 248.315ZM602 240.218L602.5 240.218L602.5 236.169L602 236.169L601.5 236.169L601.5 240.218L602 240.218ZM602 232.121L602.5 232.121L602.5 228.073L602 228.073L601.5 228.073L601.5 232.121L602 232.121ZM602 224.024L602.5 224.024L602.5 222L602 222L601.5 222L601.5 224.024L602 224.024Z" fill="white"/>
<path d="M618 336C618 331.582 621.582 328 626 328H870C874.418 328 878 331.582 878 336V359C878 363.418 874.418 367 870 367H626C621.582 367 618 363.418 618 359V336Z" fill="white" fill-opacity="0.2"/>
<path d="M661.768 353L665.208 341.8H667.704L671.144 353H668.984L668.248 350.424H664.6L663.848 353H661.768ZM665.048 348.776H667.784L666.424 344.088L665.048 348.776ZM675.986 353.16C675.229 353.16 674.525 353.064 673.874 352.872C673.223 352.669 672.669 352.376 672.21 351.992L673.186 350.68C673.751 351.032 674.247 351.277 674.674 351.416C675.111 351.555 675.549 351.624 675.986 351.624C676.551 351.624 676.994 351.539 677.314 351.368C677.645 351.197 677.81 350.968 677.81 350.68C677.81 350.445 677.714 350.269 677.522 350.152C677.33 350.024 677.079 349.928 676.77 349.864C676.461 349.8 676.119 349.741 675.746 349.688C675.373 349.635 674.994 349.565 674.61 349.48C674.237 349.384 673.895 349.256 673.586 349.096C673.277 348.925 673.026 348.701 672.834 348.424C672.642 348.136 672.546 347.763 672.546 347.304C672.546 346.771 672.685 346.317 672.962 345.944C673.25 345.571 673.65 345.283 674.162 345.08C674.685 344.877 675.282 344.776 675.954 344.776C676.573 344.776 677.181 344.861 677.778 345.032C678.386 345.192 678.957 345.459 679.49 345.832L678.514 347.112C678.087 346.824 677.655 346.616 677.218 346.488C676.781 346.36 676.343 346.296 675.906 346.296C675.415 346.296 675.031 346.376 674.754 346.536C674.477 346.685 674.338 346.888 674.338 347.144C674.338 347.368 674.429 347.539 674.61 347.656C674.802 347.773 675.058 347.864 675.378 347.928C675.698 347.992 676.045 348.051 676.418 348.104C676.802 348.157 677.181 348.232 677.554 348.328C677.938 348.413 678.29 348.541 678.61 348.712C678.93 348.872 679.186 349.096 679.378 349.384C679.57 349.672 679.666 350.051 679.666 350.52C679.666 351.043 679.501 351.501 679.17 351.896C678.85 352.291 678.413 352.6 677.858 352.824C677.303 353.048 676.679 353.16 675.986 353.16ZM685.58 353.16C684.822 353.16 684.118 353.064 683.468 352.872C682.817 352.669 682.262 352.376 681.804 351.992L682.78 350.68C683.345 351.032 683.841 351.277 684.268 351.416C684.705 351.555 685.142 351.624 685.58 351.624C686.145 351.624 686.588 351.539 686.908 351.368C687.238 351.197 687.404 350.968 687.404 350.68C687.404 350.445 687.308 350.269 687.116 350.152C686.924 350.024 686.673 349.928 686.364 349.864C686.054 349.8 685.713 349.741 685.34 349.688C684.966 349.635 684.588 349.565 684.204 349.48C683.83 349.384 683.489 349.256 683.18 349.096C682.87 348.925 682.62 348.701 682.428 348.424C682.236 348.136 682.14 347.763 682.14 347.304C682.14 346.771 682.278 346.317 682.556 345.944C682.844 345.571 683.244 345.283 683.756 345.08C684.278 344.877 684.876 344.776 685.548 344.776C686.166 344.776 686.774 344.861 687.372 345.032C687.98 345.192 688.55 345.459 689.084 345.832L688.108 347.112C687.681 346.824 687.249 346.616 686.812 346.488C686.374 346.36 685.937 346.296 685.5 346.296C685.009 346.296 684.625 346.376 684.348 346.536C684.07 346.685 683.932 346.888 683.932 347.144C683.932 347.368 684.022 347.539 684.204 347.656C684.396 347.773 684.652 347.864 684.972 347.928C685.292 347.992 685.638 348.051 686.012 348.104C686.396 348.157 686.774 348.232 687.148 348.328C687.532 348.413 687.884 348.541 688.204 348.712C688.524 348.872 688.78 349.096 688.972 349.384C689.164 349.672 689.26 350.051 689.26 350.52C689.26 351.043 689.094 351.501 688.764 351.896C688.444 352.291 688.006 352.6 687.452 352.824C686.897 353.048 686.273 353.16 685.58 353.16ZM695.206 343.432C694.822 343.432 694.496 343.299 694.23 343.032C693.963 342.755 693.83 342.429 693.83 342.056C693.83 341.683 693.963 341.363 694.23 341.096C694.496 340.819 694.822 340.68 695.206 340.68C695.579 340.68 695.899 340.819 696.166 341.096C696.443 341.363 696.582 341.683 696.582 342.056C696.582 342.429 696.443 342.755 696.166 343.032C695.899 343.299 695.579 343.432 695.206 343.432ZM697.286 353.16C696.272 353.16 695.504 352.92 694.982 352.44C694.459 351.96 694.198 351.251 694.198 350.312V346.504H691.318V344.92H696.198V350.104C696.198 350.573 696.31 350.915 696.534 351.128C696.768 351.341 697.126 351.448 697.606 351.448C697.862 351.448 698.112 351.427 698.358 351.384C698.603 351.331 698.875 351.24 699.174 351.112V352.792C698.95 352.888 698.662 352.973 698.31 353.048C697.958 353.123 697.616 353.16 697.286 353.16ZM704.767 353.16C704.01 353.16 703.306 353.064 702.655 352.872C702.005 352.669 701.45 352.376 700.991 351.992L701.967 350.68C702.533 351.032 703.029 351.277 703.455 351.416C703.893 351.555 704.33 351.624 704.767 351.624C705.333 351.624 705.775 351.539 706.095 351.368C706.426 351.197 706.591 350.968 706.591 350.68C706.591 350.445 706.495 350.269 706.303 350.152C706.111 350.024 705.861 349.928 705.551 349.864C705.242 349.8 704.901 349.741 704.527 349.688C704.154 349.635 703.775 349.565 703.391 349.48C703.018 349.384 702.677 349.256 702.367 349.096C702.058 348.925 701.807 348.701 701.615 348.424C701.423 348.136 701.327 347.763 701.327 347.304C701.327 346.771 701.466 346.317 701.743 345.944C702.031 345.571 702.431 345.283 702.943 345.08C703.466 344.877 704.063 344.776 704.735 344.776C705.354 344.776 705.962 344.861 706.559 345.032C707.167 345.192 707.738 345.459 708.271 345.832L707.295 347.112C706.869 346.824 706.437 346.616 705.999 346.488C705.562 346.36 705.125 346.296 704.687 346.296C704.197 346.296 703.813 346.376 703.535 346.536C703.258 346.685 703.119 346.888 703.119 347.144C703.119 347.368 703.21 347.539 703.391 347.656C703.583 347.773 703.839 347.864 704.159 347.928C704.479 347.992 704.826 348.051 705.199 348.104C705.583 348.157 705.962 348.232 706.335 348.328C706.719 348.413 707.071 348.541 707.391 348.712C707.711 348.872 707.967 349.096 708.159 349.384C708.351 349.672 708.447 350.051 708.447 350.52C708.447 351.043 708.282 351.501 707.951 351.896C707.631 352.291 707.194 352.6 706.639 352.824C706.085 353.048 705.461 353.16 704.767 353.16ZM715.881 353.16C714.836 353.16 714.046 352.931 713.513 352.472C712.98 352.013 712.713 351.336 712.713 350.44V346.504H710.185V344.92H712.713V342.696L714.713 342.28V344.92H718.041V346.504H714.713V350.056C714.713 350.557 714.83 350.915 715.065 351.128C715.3 351.341 715.673 351.448 716.185 351.448C716.452 351.448 716.729 351.427 717.017 351.384C717.316 351.331 717.662 351.245 718.057 351.128V352.792C717.726 352.899 717.364 352.984 716.969 353.048C716.585 353.123 716.222 353.16 715.881 353.16ZM723.027 353.144C722.461 353.144 721.96 353.043 721.523 352.84C721.085 352.627 720.744 352.339 720.499 351.976C720.264 351.603 720.147 351.176 720.147 350.696C720.147 350.195 720.275 349.768 720.531 349.416C720.787 349.064 721.149 348.792 721.619 348.6C722.088 348.408 722.643 348.312 723.283 348.312C723.645 348.312 724.003 348.349 724.355 348.424C724.707 348.499 725.064 348.627 725.427 348.808V348.024C725.427 347.501 725.272 347.112 724.963 346.856C724.664 346.589 724.211 346.456 723.603 346.456C723.251 346.456 722.883 346.509 722.499 346.616C722.115 346.723 721.683 346.893 721.203 347.128L720.451 345.672C721.091 345.363 721.699 345.139 722.275 345C722.861 344.861 723.437 344.792 724.003 344.792C725.08 344.792 725.917 345.059 726.515 345.592C727.112 346.115 727.411 346.861 727.411 347.832V353H725.427V352.168C725.064 352.509 724.685 352.76 724.291 352.92C723.907 353.069 723.485 353.144 723.027 353.144ZM722.019 350.648C722.019 350.989 722.157 351.261 722.435 351.464C722.723 351.667 723.107 351.768 723.587 351.768C723.939 351.768 724.264 351.715 724.563 351.608C724.872 351.501 725.16 351.336 725.427 351.112V349.928C725.149 349.8 724.861 349.709 724.563 349.656C724.275 349.603 723.971 349.576 723.651 349.576C723.149 349.576 722.749 349.672 722.451 349.864C722.163 350.056 722.019 350.317 722.019 350.648ZM730.013 353V344.92H732.029V346.104C732.647 345.229 733.469 344.792 734.493 344.792C735.037 344.792 735.517 344.915 735.933 345.16C736.349 345.395 736.674 345.725 736.909 346.152C737.143 346.579 737.26 347.075 737.26 347.64V353H735.261V348.216C735.261 347.661 735.106 347.224 734.797 346.904C734.498 346.573 734.093 346.408 733.581 346.408C733.271 346.408 732.983 346.472 732.717 346.6C732.461 346.728 732.231 346.92 732.029 347.176V353H730.013ZM744.662 353.16C743.617 353.16 742.828 352.931 742.294 352.472C741.761 352.013 741.494 351.336 741.494 350.44V346.504H738.966V344.92H741.494V342.696L743.494 342.28V344.92H746.822V346.504H743.494V350.056C743.494 350.557 743.612 350.915 743.846 351.128C744.081 351.341 744.454 351.448 744.966 351.448C745.233 351.448 745.51 351.427 745.798 351.384C746.097 351.331 746.444 351.245 746.838 351.128V352.792C746.508 352.899 746.145 352.984 745.75 353.048C745.366 353.123 745.004 353.16 744.662 353.16ZM758.794 353V341.8H762.73C763.476 341.8 764.132 341.944 764.698 342.232C765.274 342.52 765.722 342.92 766.042 343.432C766.362 343.944 766.522 344.541 766.522 345.224C766.522 345.949 766.33 346.579 765.946 347.112C765.572 347.645 765.066 348.04 764.426 348.296L766.842 353H764.57L762.41 348.632H760.938V353H758.794ZM760.938 346.92H762.538C763.092 346.92 763.535 346.771 763.866 346.472C764.196 346.163 764.362 345.757 764.362 345.256C764.362 344.744 764.196 344.339 763.866 344.04C763.535 343.741 763.092 343.592 762.538 343.592H760.938V346.92ZM772.212 353.16C771.412 353.16 770.692 352.979 770.052 352.616C769.412 352.243 768.905 351.741 768.532 351.112C768.158 350.472 767.972 349.757 767.972 348.968C767.972 348.179 768.148 347.469 768.5 346.84C768.862 346.211 769.348 345.715 769.956 345.352C770.564 344.979 771.252 344.792 772.02 344.792C772.809 344.792 773.508 344.973 774.116 345.336C774.734 345.699 775.214 346.195 775.556 346.824C775.908 347.453 776.084 348.173 776.084 348.984V349.464H769.94C770.014 349.869 770.158 350.227 770.372 350.536C770.585 350.845 770.857 351.085 771.188 351.256C771.529 351.427 771.902 351.512 772.308 351.512C772.713 351.512 773.086 351.437 773.428 351.288C773.769 351.139 774.057 350.925 774.292 350.648L775.604 351.816C775.124 352.285 774.606 352.627 774.052 352.84C773.497 353.053 772.884 353.16 772.212 353.16ZM769.972 348.248H774.18C774.116 347.864 773.982 347.539 773.78 347.272C773.588 346.995 773.342 346.781 773.044 346.632C772.756 346.483 772.425 346.408 772.052 346.408C771.71 346.408 771.39 346.483 771.092 346.632C770.804 346.781 770.564 346.995 770.372 347.272C770.18 347.539 770.046 347.864 769.972 348.248ZM781.517 353.16C780.76 353.16 780.056 353.064 779.405 352.872C778.755 352.669 778.2 352.376 777.741 351.992L778.717 350.68C779.283 351.032 779.779 351.277 780.205 351.416C780.643 351.555 781.08 351.624 781.517 351.624C782.083 351.624 782.525 351.539 782.845 351.368C783.176 351.197 783.341 350.968 783.341 350.68C783.341 350.445 783.245 350.269 783.053 350.152C782.861 350.024 782.611 349.928 782.301 349.864C781.992 349.8 781.651 349.741 781.277 349.688C780.904 349.635 780.525 349.565 780.141 349.48C779.768 349.384 779.427 349.256 779.117 349.096C778.808 348.925 778.557 348.701 778.365 348.424C778.173 348.136 778.077 347.763 778.077 347.304C778.077 346.771 778.216 346.317 778.493 345.944C778.781 345.571 779.181 345.283 779.693 345.08C780.216 344.877 780.813 344.776 781.485 344.776C782.104 344.776 782.712 344.861 783.309 345.032C783.917 345.192 784.488 345.459 785.021 345.832L784.045 347.112C783.619 346.824 783.187 346.616 782.749 346.488C782.312 346.36 781.875 346.296 781.437 346.296C780.947 346.296 780.563 346.376 780.285 346.536C780.008 346.685 779.869 346.888 779.869 347.144C779.869 347.368 779.96 347.539 780.141 347.656C780.333 347.773 780.589 347.864 780.909 347.928C781.229 347.992 781.576 348.051 781.949 348.104C782.333 348.157 782.712 348.232 783.085 348.328C783.469 348.413 783.821 348.541 784.141 348.712C784.461 348.872 784.717 349.096 784.909 349.384C785.101 349.672 785.197 350.051 785.197 350.52C785.197 351.043 785.032 351.501 784.701 351.896C784.381 352.291 783.944 352.6 783.389 352.824C782.835 353.048 782.211 353.16 781.517 353.16ZM787.527 356.344V344.92H789.463V345.864C789.751 345.523 790.082 345.261 790.455 345.08C790.828 344.899 791.239 344.808 791.687 344.808C792.359 344.808 792.967 344.995 793.511 345.368C794.066 345.731 794.503 346.227 794.823 346.856C795.154 347.475 795.319 348.179 795.319 348.968C795.319 349.747 795.154 350.451 794.823 351.08C794.503 351.709 794.066 352.211 793.511 352.584C792.956 352.947 792.338 353.128 791.655 353.128C791.239 353.128 790.85 353.048 790.487 352.888C790.124 352.717 789.804 352.488 789.527 352.2V356.344H787.527ZM791.207 351.496C791.634 351.496 792.007 351.389 792.327 351.176C792.647 350.963 792.898 350.664 793.079 350.28C793.26 349.896 793.351 349.459 793.351 348.968C793.351 348.467 793.26 348.029 793.079 347.656C792.898 347.272 792.647 346.973 792.327 346.76C792.007 346.547 791.634 346.44 791.207 346.44C790.876 346.44 790.567 346.504 790.279 346.632C789.991 346.76 789.74 346.941 789.527 347.176V350.744C789.74 350.979 789.991 351.165 790.279 351.304C790.567 351.432 790.876 351.496 791.207 351.496ZM800.769 353.16C800.001 353.16 799.307 352.979 798.689 352.616C798.07 352.243 797.579 351.741 797.217 351.112C796.854 350.472 796.673 349.757 796.673 348.968C796.673 348.189 796.854 347.485 797.217 346.856C797.579 346.216 798.07 345.715 798.689 345.352C799.307 344.979 800.001 344.792 800.769 344.792C801.547 344.792 802.241 344.979 802.849 345.352C803.467 345.715 803.958 346.216 804.321 346.856C804.683 347.485 804.865 348.189 804.865 348.968C804.865 349.757 804.683 350.472 804.321 351.112C803.958 351.741 803.467 352.243 802.849 352.616C802.241 352.979 801.547 353.16 800.769 353.16ZM800.769 351.448C801.185 351.448 801.553 351.341 801.873 351.128C802.193 350.915 802.443 350.621 802.625 350.248C802.806 349.875 802.897 349.453 802.897 348.984C802.897 348.504 802.806 348.083 802.625 347.72C802.443 347.347 802.193 347.053 801.873 346.84C801.553 346.627 801.185 346.52 800.769 346.52C800.353 346.52 799.985 346.627 799.665 346.84C799.345 347.053 799.094 347.347 798.913 347.72C798.731 348.083 798.641 348.504 798.641 348.984C798.641 349.453 798.731 349.875 798.913 350.248C799.094 350.621 799.345 350.915 799.665 351.128C799.985 351.341 800.353 351.448 800.769 351.448ZM806.763 353V344.92H808.779V346.104C809.397 345.229 810.219 344.792 811.243 344.792C811.787 344.792 812.267 344.915 812.683 345.16C813.099 345.395 813.424 345.725 813.659 346.152C813.893 346.579 814.01 347.075 814.01 347.64V353H812.011V348.216C812.011 347.661 811.856 347.224 811.547 346.904C811.248 346.573 810.843 346.408 810.331 346.408C810.021 346.408 809.733 346.472 809.467 346.6C809.211 346.728 808.981 346.92 808.779 347.176V353H806.763ZM819.892 353.16C819.135 353.16 818.431 353.064 817.78 352.872C817.13 352.669 816.575 352.376 816.116 351.992L817.092 350.68C817.658 351.032 818.154 351.277 818.58 351.416C819.018 351.555 819.455 351.624 819.892 351.624C820.458 351.624 820.9 351.539 821.22 351.368C821.551 351.197 821.716 350.968 821.716 350.68C821.716 350.445 821.62 350.269 821.428 350.152C821.236 350.024 820.986 349.928 820.676 349.864C820.367 349.8 820.026 349.741 819.652 349.688C819.279 349.635 818.9 349.565 818.516 349.48C818.143 349.384 817.802 349.256 817.492 349.096C817.183 348.925 816.932 348.701 816.74 348.424C816.548 348.136 816.452 347.763 816.452 347.304C816.452 346.771 816.591 346.317 816.868 345.944C817.156 345.571 817.556 345.283 818.068 345.08C818.591 344.877 819.188 344.776 819.86 344.776C820.479 344.776 821.087 344.861 821.684 345.032C822.292 345.192 822.863 345.459 823.396 345.832L822.42 347.112C821.994 346.824 821.562 346.616 821.124 346.488C820.687 346.36 820.25 346.296 819.812 346.296C819.322 346.296 818.938 346.376 818.66 346.536C818.383 346.685 818.244 346.888 818.244 347.144C818.244 347.368 818.335 347.539 818.516 347.656C818.708 347.773 818.964 347.864 819.284 347.928C819.604 347.992 819.951 348.051 820.324 348.104C820.708 348.157 821.087 348.232 821.46 348.328C821.844 348.413 822.196 348.541 822.516 348.712C822.836 348.872 823.092 349.096 823.284 349.384C823.476 349.672 823.572 350.051 823.572 350.52C823.572 351.043 823.407 351.501 823.076 351.896C822.756 352.291 822.319 352.6 821.764 352.824C821.21 353.048 820.586 353.16 819.892 353.16ZM829.774 353.16C828.974 353.16 828.254 352.979 827.614 352.616C826.974 352.243 826.467 351.741 826.094 351.112C825.721 350.472 825.534 349.757 825.534 348.968C825.534 348.179 825.71 347.469 826.062 346.84C826.425 346.211 826.91 345.715 827.518 345.352C828.126 344.979 828.814 344.792 829.582 344.792C830.371 344.792 831.07 344.973 831.678 345.336C832.297 345.699 832.777 346.195 833.118 346.824C833.47 347.453 833.646 348.173 833.646 348.984V349.464H827.502C827.577 349.869 827.721 350.227 827.934 350.536C828.147 350.845 828.419 351.085 828.75 351.256C829.091 351.427 829.465 351.512 829.87 351.512C830.275 351.512 830.649 351.437 830.99 351.288C831.331 351.139 831.619 350.925 831.854 350.648L833.166 351.816C832.686 352.285 832.169 352.627 831.614 352.84C831.059 353.053 830.446 353.16 829.774 353.16ZM827.534 348.248H831.742C831.678 347.864 831.545 347.539 831.342 347.272C831.15 346.995 830.905 346.781 830.606 346.632C830.318 346.483 829.987 346.408 829.614 346.408C829.273 346.408 828.953 346.483 828.654 346.632C828.366 346.781 828.126 346.995 827.934 347.272C827.742 347.539 827.609 347.864 827.534 348.248Z" fill="white"/>
<path d="M618 438C618 433.582 621.582 430 626 430H870C874.418 430 878 433.582 878 438V461C878 465.418 874.418 469 870 469H626C621.582 469 618 465.418 618 461V438Z" fill="white" fill-opacity="0.2"/>
<path d="M661.768 455L665.208 443.8H667.704L671.144 455H668.984L668.248 452.424H664.6L663.848 455H661.768ZM665.048 450.776H667.784L666.424 446.088L665.048 450.776ZM675.986 455.16C675.229 455.16 674.525 455.064 673.874 454.872C673.223 454.669 672.669 454.376 672.21 453.992L673.186 452.68C673.751 453.032 674.247 453.277 674.674 453.416C675.111 453.555 675.549 453.624 675.986 453.624C676.551 453.624 676.994 453.539 677.314 453.368C677.645 453.197 677.81 452.968 677.81 452.68C677.81 452.445 677.714 452.269 677.522 452.152C677.33 452.024 677.079 451.928 676.77 451.864C676.461 451.8 676.119 451.741 675.746 451.688C675.373 451.635 674.994 451.565 674.61 451.48C674.237 451.384 673.895 451.256 673.586 451.096C673.277 450.925 673.026 450.701 672.834 450.424C672.642 450.136 672.546 449.763 672.546 449.304C672.546 448.771 672.685 448.317 672.962 447.944C673.25 447.571 673.65 447.283 674.162 447.08C674.685 446.877 675.282 446.776 675.954 446.776C676.573 446.776 677.181 446.861 677.778 447.032C678.386 447.192 678.957 447.459 679.49 447.832L678.514 449.112C678.087 448.824 677.655 448.616 677.218 448.488C676.781 448.36 676.343 448.296 675.906 448.296C675.415 448.296 675.031 448.376 674.754 448.536C674.477 448.685 674.338 448.888 674.338 449.144C674.338 449.368 674.429 449.539 674.61 449.656C674.802 449.773 675.058 449.864 675.378 449.928C675.698 449.992 676.045 450.051 676.418 450.104C676.802 450.157 677.181 450.232 677.554 450.328C677.938 450.413 678.29 450.541 678.61 450.712C678.93 450.872 679.186 451.096 679.378 451.384C679.57 451.672 679.666 452.051 679.666 452.52C679.666 453.043 679.501 453.501 679.17 453.896C678.85 454.291 678.413 454.6 677.858 454.824C677.303 455.048 676.679 455.16 675.986 455.16ZM685.58 455.16C684.822 455.16 684.118 455.064 683.468 454.872C682.817 454.669 682.262 454.376 681.804 453.992L682.78 452.68C683.345 453.032 683.841 453.277 684.268 453.416C684.705 453.555 685.142 453.624 685.58 453.624C686.145 453.624 686.588 453.539 686.908 453.368C687.238 453.197 687.404 452.968 687.404 452.68C687.404 452.445 687.308 452.269 687.116 452.152C686.924 452.024 686.673 451.928 686.364 451.864C686.054 451.8 685.713 451.741 685.34 451.688C684.966 451.635 684.588 451.565 684.204 451.48C683.83 451.384 683.489 451.256 683.18 451.096C682.87 450.925 682.62 450.701 682.428 450.424C682.236 450.136 682.14 449.763 682.14 449.304C682.14 448.771 682.278 448.317 682.556 447.944C682.844 447.571 683.244 447.283 683.756 447.08C684.278 446.877 684.876 446.776 685.548 446.776C686.166 446.776 686.774 446.861 687.372 447.032C687.98 447.192 688.55 447.459 689.084 447.832L688.108 449.112C687.681 448.824 687.249 448.616 686.812 448.488C686.374 448.36 685.937 448.296 685.5 448.296C685.009 448.296 684.625 448.376 684.348 448.536C684.07 448.685 683.932 448.888 683.932 449.144C683.932 449.368 684.022 449.539 684.204 449.656C684.396 449.773 684.652 449.864 684.972 449.928C685.292 449.992 685.638 450.051 686.012 450.104C686.396 450.157 686.774 450.232 687.148 450.328C687.532 450.413 687.884 450.541 688.204 450.712C688.524 450.872 688.78 451.096 688.972 451.384C689.164 451.672 689.26 452.051 689.26 452.52C689.26 453.043 689.094 453.501 688.764 453.896C688.444 454.291 688.006 454.6 687.452 454.824C686.897 455.048 686.273 455.16 685.58 455.16ZM695.206 445.432C694.822 445.432 694.496 445.299 694.23 445.032C693.963 444.755 693.83 444.429 693.83 444.056C693.83 443.683 693.963 443.363 694.23 443.096C694.496 442.819 694.822 442.68 695.206 442.68C695.579 442.68 695.899 442.819 696.166 443.096C696.443 443.363 696.582 443.683 696.582 444.056C696.582 444.429 696.443 444.755 696.166 445.032C695.899 445.299 695.579 445.432 695.206 445.432ZM697.286 455.16C696.272 455.16 695.504 454.92 694.982 454.44C694.459 453.96 694.198 453.251 694.198 452.312V448.504H691.318V446.92H696.198V452.104C696.198 452.573 696.31 452.915 696.534 453.128C696.768 453.341 697.126 453.448 697.606 453.448C697.862 453.448 698.112 453.427 698.358 453.384C698.603 453.331 698.875 453.24 699.174 453.112V454.792C698.95 454.888 698.662 454.973 698.31 455.048C697.958 455.123 697.616 455.16 697.286 455.16ZM704.767 455.16C704.01 455.16 703.306 455.064 702.655 454.872C702.005 454.669 701.45 454.376 700.991 453.992L701.967 452.68C702.533 453.032 703.029 453.277 703.455 453.416C703.893 453.555 704.33 453.624 704.767 453.624C705.333 453.624 705.775 453.539 706.095 453.368C706.426 453.197 706.591 452.968 706.591 452.68C706.591 452.445 706.495 452.269 706.303 452.152C706.111 452.024 705.861 451.928 705.551 451.864C705.242 451.8 704.901 451.741 704.527 451.688C704.154 451.635 703.775 451.565 703.391 451.48C703.018 451.384 702.677 451.256 702.367 451.096C702.058 450.925 701.807 450.701 701.615 450.424C701.423 450.136 701.327 449.763 701.327 449.304C701.327 448.771 701.466 448.317 701.743 447.944C702.031 447.571 702.431 447.283 702.943 447.08C703.466 446.877 704.063 446.776 704.735 446.776C705.354 446.776 705.962 446.861 706.559 447.032C707.167 447.192 707.738 447.459 708.271 447.832L707.295 449.112C706.869 448.824 706.437 448.616 705.999 448.488C705.562 448.36 705.125 448.296 704.687 448.296C704.197 448.296 703.813 448.376 703.535 448.536C703.258 448.685 703.119 448.888 703.119 449.144C703.119 449.368 703.21 449.539 703.391 449.656C703.583 449.773 703.839 449.864 704.159 449.928C704.479 449.992 704.826 450.051 705.199 450.104C705.583 450.157 705.962 450.232 706.335 450.328C706.719 450.413 707.071 450.541 707.391 450.712C707.711 450.872 707.967 451.096 708.159 451.384C708.351 451.672 708.447 452.051 708.447 452.52C708.447 453.043 708.282 453.501 707.951 453.896C707.631 454.291 707.194 454.6 706.639 454.824C706.085 455.048 705.461 455.16 704.767 455.16ZM715.881 455.16C714.836 455.16 714.046 454.931 713.513 454.472C712.98 454.013 712.713 453.336 712.713 452.44V448.504H710.185V446.92H712.713V444.696L714.713 444.28V446.92H718.041V448.504H714.713V452.056C714.713 452.557 714.83 452.915 715.065 453.128C715.3 453.341 715.673 453.448 716.185 453.448C716.452 453.448 716.729 453.427 717.017 453.384C717.316 453.331 717.662 453.245 718.057 453.128V454.792C717.726 454.899 717.364 454.984 716.969 455.048C716.585 455.123 716.222 455.16 715.881 455.16ZM723.027 455.144C722.461 455.144 721.96 455.043 721.523 454.84C721.085 454.627 720.744 454.339 720.499 453.976C720.264 453.603 720.147 453.176 720.147 452.696C720.147 452.195 720.275 451.768 720.531 451.416C720.787 451.064 721.149 450.792 721.619 450.6C722.088 450.408 722.643 450.312 723.283 450.312C723.645 450.312 724.003 450.349 724.355 450.424C724.707 450.499 725.064 450.627 725.427 450.808V450.024C725.427 449.501 725.272 449.112 724.963 448.856C724.664 448.589 724.211 448.456 723.603 448.456C723.251 448.456 722.883 448.509 722.499 448.616C722.115 448.723 721.683 448.893 721.203 449.128L720.451 447.672C721.091 447.363 721.699 447.139 722.275 447C722.861 446.861 723.437 446.792 724.003 446.792C725.08 446.792 725.917 447.059 726.515 447.592C727.112 448.115 727.411 448.861 727.411 449.832V455H725.427V454.168C725.064 454.509 724.685 454.76 724.291 454.92C723.907 455.069 723.485 455.144 723.027 455.144ZM722.019 452.648C722.019 452.989 722.157 453.261 722.435 453.464C722.723 453.667 723.107 453.768 723.587 453.768C723.939 453.768 724.264 453.715 724.563 453.608C724.872 453.501 725.16 453.336 725.427 453.112V451.928C725.149 451.8 724.861 451.709 724.563 451.656C724.275 451.603 723.971 451.576 723.651 451.576C723.149 451.576 722.749 451.672 722.451 451.864C722.163 452.056 722.019 452.317 722.019 452.648ZM730.013 455V446.92H732.029V448.104C732.647 447.229 733.469 446.792 734.493 446.792C735.037 446.792 735.517 446.915 735.933 447.16C736.349 447.395 736.674 447.725 736.909 448.152C737.143 448.579 737.26 449.075 737.26 449.64V455H735.261V450.216C735.261 449.661 735.106 449.224 734.797 448.904C734.498 448.573 734.093 448.408 733.581 448.408C733.271 448.408 732.983 448.472 732.717 448.6C732.461 448.728 732.231 448.92 732.029 449.176V455H730.013ZM744.662 455.16C743.617 455.16 742.828 454.931 742.294 454.472C741.761 454.013 741.494 453.336 741.494 452.44V448.504H738.966V446.92H741.494V444.696L743.494 444.28V446.92H746.822V448.504H743.494V452.056C743.494 452.557 743.612 452.915 743.846 453.128C744.081 453.341 744.454 453.448 744.966 453.448C745.233 453.448 745.51 453.427 745.798 453.384C746.097 453.331 746.444 453.245 746.838 453.128V454.792C746.508 454.899 746.145 454.984 745.75 455.048C745.366 455.123 745.004 455.16 744.662 455.16ZM758.794 455V443.8H762.73C763.476 443.8 764.132 443.944 764.698 444.232C765.274 444.52 765.722 444.92 766.042 445.432C766.362 445.944 766.522 446.541 766.522 447.224C766.522 447.949 766.33 448.579 765.946 449.112C765.572 449.645 765.066 450.04 764.426 450.296L766.842 455H764.57L762.41 450.632H760.938V455H758.794ZM760.938 448.92H762.538C763.092 448.92 763.535 448.771 763.866 448.472C764.196 448.163 764.362 447.757 764.362 447.256C764.362 446.744 764.196 446.339 763.866 446.04C763.535 445.741 763.092 445.592 762.538 445.592H760.938V448.92ZM772.212 455.16C771.412 455.16 770.692 454.979 770.052 454.616C769.412 454.243 768.905 453.741 768.532 453.112C768.158 452.472 767.972 451.757 767.972 450.968C767.972 450.179 768.148 449.469 768.5 448.84C768.862 448.211 769.348 447.715 769.956 447.352C770.564 446.979 771.252 446.792 772.02 446.792C772.809 446.792 773.508 446.973 774.116 447.336C774.734 447.699 775.214 448.195 775.556 448.824C775.908 449.453 776.084 450.173 776.084 450.984V451.464H769.94C770.014 451.869 770.158 452.227 770.372 452.536C770.585 452.845 770.857 453.085 771.188 453.256C771.529 453.427 771.902 453.512 772.308 453.512C772.713 453.512 773.086 453.437 773.428 453.288C773.769 453.139 774.057 452.925 774.292 452.648L775.604 453.816C775.124 454.285 774.606 454.627 774.052 454.84C773.497 455.053 772.884 455.16 772.212 455.16ZM769.972 450.248H774.18C774.116 449.864 773.982 449.539 773.78 449.272C773.588 448.995 773.342 448.781 773.044 448.632C772.756 448.483 772.425 448.408 772.052 448.408C771.71 448.408 771.39 448.483 771.092 448.632C770.804 448.781 770.564 448.995 770.372 449.272C770.18 449.539 770.046 449.864 769.972 450.248ZM781.517 455.16C780.76 455.16 780.056 455.064 779.405 454.872C778.755 454.669 778.2 454.376 777.741 453.992L778.717 452.68C779.283 453.032 779.779 453.277 780.205 453.416C780.643 453.555 781.08 453.624 781.517 453.624C782.083 453.624 782.525 453.539 782.845 453.368C783.176 453.197 783.341 452.968 783.341 452.68C783.341 452.445 783.245 452.269 783.053 452.152C782.861 452.024 782.611 451.928 782.301 451.864C781.992 451.8 781.651 451.741 781.277 451.688C780.904 451.635 780.525 451.565 780.141 451.48C779.768 451.384 779.427 451.256 779.117 451.096C778.808 450.925 778.557 450.701 778.365 450.424C778.173 450.136 778.077 449.763 778.077 449.304C778.077 448.771 778.216 448.317 778.493 447.944C778.781 447.571 779.181 447.283 779.693 447.08C780.216 446.877 780.813 446.776 781.485 446.776C782.104 446.776 782.712 446.861 783.309 447.032C783.917 447.192 784.488 447.459 785.021 447.832L784.045 449.112C783.619 448.824 783.187 448.616 782.749 448.488C782.312 448.36 781.875 448.296 781.437 448.296C780.947 448.296 780.563 448.376 780.285 448.536C780.008 448.685 779.869 448.888 779.869 449.144C779.869 449.368 779.96 449.539 780.141 449.656C780.333 449.773 780.589 449.864 780.909 449.928C781.229 449.992 781.576 450.051 781.949 450.104C782.333 450.157 782.712 450.232 783.085 450.328C783.469 450.413 783.821 450.541 784.141 450.712C784.461 450.872 784.717 451.096 784.909 451.384C785.101 451.672 785.197 452.051 785.197 452.52C785.197 453.043 785.032 453.501 784.701 453.896C784.381 454.291 783.944 454.6 783.389 454.824C782.835 455.048 782.211 455.16 781.517 455.16ZM787.527 458.344V446.92H789.463V447.864C789.751 447.523 790.082 447.261 790.455 447.08C790.828 446.899 791.239 446.808 791.687 446.808C792.359 446.808 792.967 446.995 793.511 447.368C794.066 447.731 794.503 448.227 794.823 448.856C795.154 449.475 795.319 450.179 795.319 450.968C795.319 451.747 795.154 452.451 794.823 453.08C794.503 453.709 794.066 454.211 793.511 454.584C792.956 454.947 792.338 455.128 791.655 455.128C791.239 455.128 790.85 455.048 790.487 454.888C790.124 454.717 789.804 454.488 789.527 454.2V458.344H787.527ZM791.207 453.496C791.634 453.496 792.007 453.389 792.327 453.176C792.647 452.963 792.898 452.664 793.079 452.28C793.26 451.896 793.351 451.459 793.351 450.968C793.351 450.467 793.26 450.029 793.079 449.656C792.898 449.272 792.647 448.973 792.327 448.76C792.007 448.547 791.634 448.44 791.207 448.44C790.876 448.44 790.567 448.504 790.279 448.632C789.991 448.76 789.74 448.941 789.527 449.176V452.744C789.74 452.979 789.991 453.165 790.279 453.304C790.567 453.432 790.876 453.496 791.207 453.496ZM800.769 455.16C800.001 455.16 799.307 454.979 798.689 454.616C798.07 454.243 797.579 453.741 797.217 453.112C796.854 452.472 796.673 451.757 796.673 450.968C796.673 450.189 796.854 449.485 797.217 448.856C797.579 448.216 798.07 447.715 798.689 447.352C799.307 446.979 800.001 446.792 800.769 446.792C801.547 446.792 802.241 446.979 802.849 447.352C803.467 447.715 803.958 448.216 804.321 448.856C804.683 449.485 804.865 450.189 804.865 450.968C804.865 451.757 804.683 452.472 804.321 453.112C803.958 453.741 803.467 454.243 802.849 454.616C802.241 454.979 801.547 455.16 800.769 455.16ZM800.769 453.448C801.185 453.448 801.553 453.341 801.873 453.128C802.193 452.915 802.443 452.621 802.625 452.248C802.806 451.875 802.897 451.453 802.897 450.984C802.897 450.504 802.806 450.083 802.625 449.72C802.443 449.347 802.193 449.053 801.873 448.84C801.553 448.627 801.185 448.52 800.769 448.52C800.353 448.52 799.985 448.627 799.665 448.84C799.345 449.053 799.094 449.347 798.913 449.72C798.731 450.083 798.641 450.504 798.641 450.984C798.641 451.453 798.731 451.875 798.913 452.248C799.094 452.621 799.345 452.915 799.665 453.128C799.985 453.341 800.353 453.448 800.769 453.448ZM806.763 455V446.92H808.779V448.104C809.397 447.229 810.219 446.792 811.243 446.792C811.787 446.792 812.267 446.915 812.683 447.16C813.099 447.395 813.424 447.725 813.659 448.152C813.893 448.579 814.01 449.075 814.01 449.64V455H812.011V450.216C812.011 449.661 811.856 449.224 811.547 448.904C811.248 448.573 810.843 448.408 810.331 448.408C810.021 448.408 809.733 448.472 809.467 448.6C809.211 448.728 808.981 448.92 808.779 449.176V455H806.763ZM819.892 455.16C819.135 455.16 818.431 455.064 817.78 454.872C817.13 454.669 816.575 454.376 816.116 453.992L817.092 452.68C817.658 453.032 818.154 453.277 818.58 453.416C819.018 453.555 819.455 453.624 819.892 453.624C820.458 453.624 820.9 453.539 821.22 453.368C821.551 453.197 821.716 452.968 821.716 452.68C821.716 452.445 821.62 452.269 821.428 452.152C821.236 452.024 820.986 451.928 820.676 451.864C820.367 451.8 820.026 451.741 819.652 451.688C819.279 451.635 818.9 451.565 818.516 451.48C818.143 451.384 817.802 451.256 817.492 451.096C817.183 450.925 816.932 450.701 816.74 450.424C816.548 450.136 816.452 449.763 816.452 449.304C816.452 448.771 816.591 448.317 816.868 447.944C817.156 447.571 817.556 447.283 818.068 447.08C818.591 446.877 819.188 446.776 819.86 446.776C820.479 446.776 821.087 446.861 821.684 447.032C822.292 447.192 822.863 447.459 823.396 447.832L822.42 449.112C821.994 448.824 821.562 448.616 821.124 448.488C820.687 448.36 820.25 448.296 819.812 448.296C819.322 448.296 818.938 448.376 818.66 448.536C818.383 448.685 818.244 448.888 818.244 449.144C818.244 449.368 818.335 449.539 818.516 449.656C818.708 449.773 818.964 449.864 819.284 449.928C819.604 449.992 819.951 450.051 820.324 450.104C820.708 450.157 821.087 450.232 821.46 450.328C821.844 450.413 822.196 450.541 822.516 450.712C822.836 450.872 823.092 451.096 823.284 451.384C823.476 451.672 823.572 452.051 823.572 452.52C823.572 453.043 823.407 453.501 823.076 453.896C822.756 454.291 822.319 454.6 821.764 454.824C821.21 455.048 820.586 455.16 819.892 455.16ZM829.774 455.16C828.974 455.16 828.254 454.979 827.614 454.616C826.974 454.243 826.467 453.741 826.094 453.112C825.721 452.472 825.534 451.757 825.534 450.968C825.534 450.179 825.71 449.469 826.062 448.84C826.425 448.211 826.91 447.715 827.518 447.352C828.126 446.979 828.814 446.792 829.582 446.792C830.371 446.792 831.07 446.973 831.678 447.336C832.297 447.699 832.777 448.195 833.118 448.824C833.47 449.453 833.646 450.173 833.646 450.984V451.464H827.502C827.577 451.869 827.721 452.227 827.934 452.536C828.147 452.845 828.419 453.085 828.75 453.256C829.091 453.427 829.465 453.512 829.87 453.512C830.275 453.512 830.649 453.437 830.99 453.288C831.331 453.139 831.619 452.925 831.854 452.648L833.166 453.816C832.686 454.285 832.169 454.627 831.614 454.84C831.059 455.053 830.446 455.16 829.774 455.16ZM827.534 450.248H831.742C831.678 449.864 831.545 449.539 831.342 449.272C831.15 448.995 830.905 448.781 830.606 448.632C830.318 448.483 829.987 448.408 829.614 448.408C829.273 448.408 828.953 448.483 828.654 448.632C828.366 448.781 828.126 448.995 827.934 449.272C827.742 449.539 827.609 449.864 827.534 450.248Z" fill="white"/>
<path d="M618 285C618 280.582 621.582 277 626 277H870C874.418 277 878 280.582 878 285V308C878 312.418 874.418 316 870 316H626C621.582 316 618 312.418 618 308V285Z" fill="white" fill-opacity="0.2"/>
<path d="M704.831 302.176C704.021 302.176 703.311 302.005 702.703 301.664C702.106 301.323 701.642 300.843 701.311 300.224C700.981 299.595 700.815 298.859 700.815 298.016V290.8H702.943V298.016C702.943 298.699 703.114 299.243 703.455 299.648C703.797 300.053 704.255 300.256 704.831 300.256C705.407 300.256 705.866 300.053 706.207 299.648C706.549 299.243 706.719 298.699 706.719 298.016V290.8H708.847V298.016C708.847 298.859 708.682 299.595 708.351 300.224C708.021 300.843 707.557 301.323 706.959 301.664C706.362 302.005 705.653 302.176 704.831 302.176ZM714.361 302.16C713.604 302.16 712.9 302.064 712.249 301.872C711.598 301.669 711.044 301.376 710.585 300.992L711.561 299.68C712.126 300.032 712.622 300.277 713.049 300.416C713.486 300.555 713.924 300.624 714.361 300.624C714.926 300.624 715.369 300.539 715.689 300.368C716.02 300.197 716.185 299.968 716.185 299.68C716.185 299.445 716.089 299.269 715.897 299.152C715.705 299.024 715.454 298.928 715.145 298.864C714.836 298.8 714.494 298.741 714.121 298.688C713.748 298.635 713.369 298.565 712.985 298.48C712.612 298.384 712.27 298.256 711.961 298.096C711.652 297.925 711.401 297.701 711.209 297.424C711.017 297.136 710.921 296.763 710.921 296.304C710.921 295.771 711.06 295.317 711.337 294.944C711.625 294.571 712.025 294.283 712.537 294.08C713.06 293.877 713.657 293.776 714.329 293.776C714.948 293.776 715.556 293.861 716.153 294.032C716.761 294.192 717.332 294.459 717.865 294.832L716.889 296.112C716.462 295.824 716.03 295.616 715.593 295.488C715.156 295.36 714.718 295.296 714.281 295.296C713.79 295.296 713.406 295.376 713.129 295.536C712.852 295.685 712.713 295.888 712.713 296.144C712.713 296.368 712.804 296.539 712.985 296.656C713.177 296.773 713.433 296.864 713.753 296.928C714.073 296.992 714.42 297.051 714.793 297.104C715.177 297.157 715.556 297.232 715.929 297.328C716.313 297.413 716.665 297.541 716.985 297.712C717.305 297.872 717.561 298.096 717.753 298.384C717.945 298.672 718.041 299.051 718.041 299.52C718.041 300.043 717.876 300.501 717.545 300.896C717.225 301.291 716.788 301.6 716.233 301.824C715.678 302.048 715.054 302.16 714.361 302.16ZM724.243 302.16C723.443 302.16 722.723 301.979 722.083 301.616C721.443 301.243 720.936 300.741 720.563 300.112C720.189 299.472 720.003 298.757 720.003 297.968C720.003 297.179 720.179 296.469 720.531 295.84C720.893 295.211 721.379 294.715 721.987 294.352C722.595 293.979 723.283 293.792 724.051 293.792C724.84 293.792 725.539 293.973 726.147 294.336C726.765 294.699 727.245 295.195 727.587 295.824C727.939 296.453 728.115 297.173 728.115 297.984V298.464H721.971C722.045 298.869 722.189 299.227 722.403 299.536C722.616 299.845 722.888 300.085 723.219 300.256C723.56 300.427 723.933 300.512 724.339 300.512C724.744 300.512 725.117 300.437 725.459 300.288C725.8 300.139 726.088 299.925 726.323 299.648L727.635 300.816C727.155 301.285 726.637 301.627 726.083 301.84C725.528 302.053 724.915 302.16 724.243 302.16ZM722.003 297.248H726.211C726.147 296.864 726.013 296.539 725.811 296.272C725.619 295.995 725.373 295.781 725.075 295.632C724.787 295.483 724.456 295.408 724.083 295.408C723.741 295.408 723.421 295.483 723.123 295.632C722.835 295.781 722.595 295.995 722.403 296.272C722.211 296.539 722.077 296.864 722.003 297.248ZM729.965 302V300.416H731.901V295.504H729.965V293.92H733.917V295.872C734.194 295.179 734.562 294.661 735.021 294.32C735.479 293.968 736.002 293.792 736.589 293.792C736.834 293.792 737.037 293.813 737.197 293.856C737.367 293.888 737.565 293.947 737.789 294.032V295.856C737.565 295.76 737.319 295.691 737.053 295.648C736.786 295.595 736.525 295.568 736.269 295.568C735.767 295.568 735.309 295.685 734.893 295.92C734.477 296.155 734.151 296.491 733.917 296.928V300.416H735.965V302H729.965ZM748.944 302V300.192H751.744V292.608H748.944V290.8H756.656V292.608H753.872V300.192H756.656V302H748.944ZM758.794 302V293.92H760.81V295.104C761.428 294.229 762.25 293.792 763.274 293.792C763.818 293.792 764.298 293.915 764.714 294.16C765.13 294.395 765.455 294.725 765.69 295.152C765.924 295.579 766.042 296.075 766.042 296.64V302H764.042V297.216C764.042 296.661 763.887 296.224 763.578 295.904C763.279 295.573 762.874 295.408 762.362 295.408C762.052 295.408 761.764 295.472 761.498 295.6C761.242 295.728 761.012 295.92 760.81 296.176V302H758.794ZM768.34 305.344V293.92H770.276V294.864C770.564 294.523 770.894 294.261 771.268 294.08C771.641 293.899 772.052 293.808 772.5 293.808C773.172 293.808 773.78 293.995 774.324 294.368C774.878 294.731 775.316 295.227 775.635 295.856C775.966 296.475 776.132 297.179 776.132 297.968C776.132 298.747 775.966 299.451 775.635 300.08C775.316 300.709 774.878 301.211 774.324 301.584C773.769 301.947 773.15 302.128 772.468 302.128C772.052 302.128 771.662 302.048 771.299 301.888C770.937 301.717 770.617 301.488 770.34 301.2V305.344H768.34ZM772.02 300.496C772.446 300.496 772.82 300.389 773.14 300.176C773.46 299.963 773.71 299.664 773.892 299.28C774.073 298.896 774.164 298.459 774.164 297.968C774.164 297.467 774.073 297.029 773.892 296.656C773.71 296.272 773.46 295.973 773.14 295.76C772.82 295.547 772.446 295.44 772.02 295.44C771.689 295.44 771.38 295.504 771.092 295.632C770.804 295.76 770.553 295.941 770.34 296.176V299.744C770.553 299.979 770.804 300.165 771.092 300.304C771.38 300.432 771.689 300.496 772.02 300.496ZM780.701 302.128C780.157 302.128 779.677 302.011 779.261 301.776C778.845 301.531 778.52 301.195 778.285 300.768C778.051 300.331 777.933 299.835 777.933 299.28V293.92H779.949V298.704C779.949 299.248 780.099 299.691 780.397 300.032C780.696 300.363 781.101 300.528 781.613 300.528C781.933 300.528 782.221 300.464 782.477 300.336C782.733 300.197 782.963 300 783.165 299.744V293.92H785.181V302H783.165V300.816C782.547 301.691 781.725 302.128 780.701 302.128ZM792.631 302.16C791.586 302.16 790.796 301.931 790.263 301.472C789.73 301.013 789.463 300.336 789.463 299.44V295.504H786.935V293.92H789.463V291.696L791.463 291.28V293.92H794.791V295.504H791.463V299.056C791.463 299.557 791.58 299.915 791.815 300.128C792.05 300.341 792.423 300.448 792.935 300.448C793.202 300.448 793.479 300.427 793.767 300.384C794.066 300.331 794.412 300.245 794.807 300.128V301.792C794.476 301.899 794.114 301.984 793.719 302.048C793.335 302.123 792.972 302.16 792.631 302.16Z" fill="white"/>
<path d="M618 387C618 382.582 621.582 379 626 379H870C874.418 379 878 382.582 878 387V410C878 414.418 874.418 418 870 418H626C621.582 418 618 414.418 618 410V387Z" fill="white" fill-opacity="0.2"/>
<path d="M704.831 404.176C704.021 404.176 703.311 404.005 702.703 403.664C702.106 403.323 701.642 402.843 701.311 402.224C700.981 401.595 700.815 400.859 700.815 400.016V392.8H702.943V400.016C702.943 400.699 703.114 401.243 703.455 401.648C703.797 402.053 704.255 402.256 704.831 402.256C705.407 402.256 705.866 402.053 706.207 401.648C706.549 401.243 706.719 400.699 706.719 400.016V392.8H708.847V400.016C708.847 400.859 708.682 401.595 708.351 402.224C708.021 402.843 707.557 403.323 706.959 403.664C706.362 404.005 705.653 404.176 704.831 404.176ZM714.361 404.16C713.604 404.16 712.9 404.064 712.249 403.872C711.598 403.669 711.044 403.376 710.585 402.992L711.561 401.68C712.126 402.032 712.622 402.277 713.049 402.416C713.486 402.555 713.924 402.624 714.361 402.624C714.926 402.624 715.369 402.539 715.689 402.368C716.02 402.197 716.185 401.968 716.185 401.68C716.185 401.445 716.089 401.269 715.897 401.152C715.705 401.024 715.454 400.928 715.145 400.864C714.836 400.8 714.494 400.741 714.121 400.688C713.748 400.635 713.369 400.565 712.985 400.48C712.612 400.384 712.27 400.256 711.961 400.096C711.652 399.925 711.401 399.701 711.209 399.424C711.017 399.136 710.921 398.763 710.921 398.304C710.921 397.771 711.06 397.317 711.337 396.944C711.625 396.571 712.025 396.283 712.537 396.08C713.06 395.877 713.657 395.776 714.329 395.776C714.948 395.776 715.556 395.861 716.153 396.032C716.761 396.192 717.332 396.459 717.865 396.832L716.889 398.112C716.462 397.824 716.03 397.616 715.593 397.488C715.156 397.36 714.718 397.296 714.281 397.296C713.79 397.296 713.406 397.376 713.129 397.536C712.852 397.685 712.713 397.888 712.713 398.144C712.713 398.368 712.804 398.539 712.985 398.656C713.177 398.773 713.433 398.864 713.753 398.928C714.073 398.992 714.42 399.051 714.793 399.104C715.177 399.157 715.556 399.232 715.929 399.328C716.313 399.413 716.665 399.541 716.985 399.712C717.305 399.872 717.561 400.096 717.753 400.384C717.945 400.672 718.041 401.051 718.041 401.52C718.041 402.043 717.876 402.501 717.545 402.896C717.225 403.291 716.788 403.6 716.233 403.824C715.678 404.048 715.054 404.16 714.361 404.16ZM724.243 404.16C723.443 404.16 722.723 403.979 722.083 403.616C721.443 403.243 720.936 402.741 720.563 402.112C720.189 401.472 720.003 400.757 720.003 399.968C720.003 399.179 720.179 398.469 720.531 397.84C720.893 397.211 721.379 396.715 721.987 396.352C722.595 395.979 723.283 395.792 724.051 395.792C724.84 395.792 725.539 395.973 726.147 396.336C726.765 396.699 727.245 397.195 727.587 397.824C727.939 398.453 728.115 399.173 728.115 399.984V400.464H721.971C722.045 400.869 722.189 401.227 722.403 401.536C722.616 401.845 722.888 402.085 723.219 402.256C723.56 402.427 723.933 402.512 724.339 402.512C724.744 402.512 725.117 402.437 725.459 402.288C725.8 402.139 726.088 401.925 726.323 401.648L727.635 402.816C727.155 403.285 726.637 403.627 726.083 403.84C725.528 404.053 724.915 404.16 724.243 404.16ZM722.003 399.248H726.211C726.147 398.864 726.013 398.539 725.811 398.272C725.619 397.995 725.373 397.781 725.075 397.632C724.787 397.483 724.456 397.408 724.083 397.408C723.741 397.408 723.421 397.483 723.123 397.632C722.835 397.781 722.595 397.995 722.403 398.272C722.211 398.539 722.077 398.864 722.003 399.248ZM729.965 404V402.416H731.901V397.504H729.965V395.92H733.917V397.872C734.194 397.179 734.562 396.661 735.021 396.32C735.479 395.968 736.002 395.792 736.589 395.792C736.834 395.792 737.037 395.813 737.197 395.856C737.367 395.888 737.565 395.947 737.789 396.032V397.856C737.565 397.76 737.319 397.691 737.053 397.648C736.786 397.595 736.525 397.568 736.269 397.568C735.767 397.568 735.309 397.685 734.893 397.92C734.477 398.155 734.151 398.491 733.917 398.928V402.416H735.965V404H729.965ZM748.944 404V402.192H751.744V394.608H748.944V392.8H756.656V394.608H753.872V402.192H756.656V404H748.944ZM758.794 404V395.92H760.81V397.104C761.428 396.229 762.25 395.792 763.274 395.792C763.818 395.792 764.298 395.915 764.714 396.16C765.13 396.395 765.455 396.725 765.69 397.152C765.924 397.579 766.042 398.075 766.042 398.64V404H764.042V399.216C764.042 398.661 763.887 398.224 763.578 397.904C763.279 397.573 762.874 397.408 762.362 397.408C762.052 397.408 761.764 397.472 761.498 397.6C761.242 397.728 761.012 397.92 760.81 398.176V404H758.794ZM768.34 407.344V395.92H770.276V396.864C770.564 396.523 770.894 396.261 771.268 396.08C771.641 395.899 772.052 395.808 772.5 395.808C773.172 395.808 773.78 395.995 774.324 396.368C774.878 396.731 775.316 397.227 775.635 397.856C775.966 398.475 776.132 399.179 776.132 399.968C776.132 400.747 775.966 401.451 775.635 402.08C775.316 402.709 774.878 403.211 774.324 403.584C773.769 403.947 773.15 404.128 772.468 404.128C772.052 404.128 771.662 404.048 771.299 403.888C770.937 403.717 770.617 403.488 770.34 403.2V407.344H768.34ZM772.02 402.496C772.446 402.496 772.82 402.389 773.14 402.176C773.46 401.963 773.71 401.664 773.892 401.28C774.073 400.896 774.164 400.459 774.164 399.968C774.164 399.467 774.073 399.029 773.892 398.656C773.71 398.272 773.46 397.973 773.14 397.76C772.82 397.547 772.446 397.44 772.02 397.44C771.689 397.44 771.38 397.504 771.092 397.632C770.804 397.76 770.553 397.941 770.34 398.176V401.744C770.553 401.979 770.804 402.165 771.092 402.304C771.38 402.432 771.689 402.496 772.02 402.496ZM780.701 404.128C780.157 404.128 779.677 404.011 779.261 403.776C778.845 403.531 778.52 403.195 778.285 402.768C778.051 402.331 777.933 401.835 777.933 401.28V395.92H779.949V400.704C779.949 401.248 780.099 401.691 780.397 402.032C780.696 402.363 781.101 402.528 781.613 402.528C781.933 402.528 782.221 402.464 782.477 402.336C782.733 402.197 782.963 402 783.165 401.744V395.92H785.181V404H783.165V402.816C782.547 403.691 781.725 404.128 780.701 404.128ZM792.631 404.16C791.586 404.16 790.796 403.931 790.263 403.472C789.73 403.013 789.463 402.336 789.463 401.44V397.504H786.935V395.92H789.463V393.696L791.463 393.28V395.92H794.791V397.504H791.463V401.056C791.463 401.557 791.58 401.915 791.815 402.128C792.05 402.341 792.423 402.448 792.935 402.448C793.202 402.448 793.479 402.427 793.767 402.384C794.066 402.331 794.412 402.245 794.807 402.128V403.792C794.476 403.899 794.114 403.984 793.719 404.048C793.335 404.123 792.972 404.16 792.631 404.16Z" fill="white"/>
<path d="M618 234C618 229.582 621.582 226 626 226H870C874.418 226 878 229.582 878 234V257C878 261.418 874.418 265 870 265H626C621.582 265 618 261.418 618 257V234Z" fill="white" fill-opacity="0.2"/>
<path d="M656.927 251.176C656.116 251.176 655.353 251.043 654.639 250.776C653.924 250.509 653.215 250.104 652.511 249.56L653.615 247.96C654.308 248.483 654.911 248.856 655.423 249.08C655.935 249.304 656.452 249.416 656.975 249.416C657.391 249.416 657.748 249.352 658.047 249.224C658.345 249.085 658.58 248.899 658.751 248.664C658.921 248.429 659.007 248.163 659.007 247.864C659.007 247.491 658.895 247.197 658.671 246.984C658.447 246.771 658.148 246.605 657.775 246.488C657.412 246.36 657.007 246.253 656.559 246.168C656.121 246.072 655.679 245.965 655.231 245.848C654.793 245.72 654.388 245.544 654.015 245.32C653.652 245.096 653.359 244.797 653.135 244.424C652.911 244.04 652.799 243.549 652.799 242.952C652.799 242.269 652.959 241.683 653.279 241.192C653.599 240.701 654.057 240.317 654.655 240.04C655.252 239.763 655.961 239.624 656.783 239.624C657.54 239.624 658.271 239.741 658.975 239.976C659.689 240.211 660.351 240.557 660.959 241.016L659.871 242.6C659.337 242.195 658.809 241.891 658.287 241.688C657.764 241.485 657.236 241.384 656.703 241.384C656.127 241.384 655.668 241.512 655.327 241.768C654.985 242.024 654.815 242.355 654.815 242.76C654.815 243.123 654.927 243.405 655.151 243.608C655.385 243.811 655.689 243.976 656.062 244.104C656.436 244.221 656.847 244.328 657.295 244.424C657.743 244.509 658.191 244.621 658.639 244.76C659.087 244.888 659.497 245.064 659.871 245.288C660.244 245.512 660.543 245.816 660.767 246.2C660.991 246.584 661.102 247.08 661.102 247.688C661.102 248.371 660.927 248.979 660.575 249.512C660.233 250.035 659.748 250.445 659.119 250.744C658.5 251.032 657.769 251.176 656.927 251.176ZM663.736 254.504C663.534 254.504 663.31 254.488 663.064 254.456C662.83 254.435 662.595 254.397 662.36 254.344V252.6C662.595 252.643 662.787 252.675 662.936 252.696C663.096 252.717 663.283 252.728 663.496 252.728C663.859 252.728 664.158 252.659 664.392 252.52C664.627 252.392 664.803 252.179 664.92 251.88L665.24 251.16L662.12 242.92H664.328L666.376 248.776L668.584 242.92H670.744L666.872 252.28C666.648 252.813 666.398 253.245 666.12 253.576C665.843 253.907 665.512 254.141 665.128 254.28C664.744 254.429 664.28 254.504 663.736 254.504ZM675.986 251.16C675.229 251.16 674.525 251.064 673.874 250.872C673.223 250.669 672.669 250.376 672.21 249.992L673.186 248.68C673.751 249.032 674.247 249.277 674.674 249.416C675.111 249.555 675.549 249.624 675.986 249.624C676.551 249.624 676.994 249.539 677.314 249.368C677.645 249.197 677.81 248.968 677.81 248.68C677.81 248.445 677.714 248.269 677.522 248.152C677.33 248.024 677.079 247.928 676.77 247.864C676.461 247.8 676.119 247.741 675.746 247.688C675.373 247.635 674.994 247.565 674.61 247.48C674.237 247.384 673.895 247.256 673.586 247.096C673.277 246.925 673.026 246.701 672.834 246.424C672.642 246.136 672.546 245.763 672.546 245.304C672.546 244.771 672.685 244.317 672.962 243.944C673.25 243.571 673.65 243.283 674.162 243.08C674.685 242.877 675.282 242.776 675.954 242.776C676.573 242.776 677.181 242.861 677.778 243.032C678.386 243.192 678.957 243.459 679.49 243.832L678.514 245.112C678.087 244.824 677.655 244.616 677.218 244.488C676.781 244.36 676.343 244.296 675.906 244.296C675.415 244.296 675.031 244.376 674.754 244.536C674.477 244.685 674.338 244.888 674.338 245.144C674.338 245.368 674.429 245.539 674.61 245.656C674.802 245.773 675.058 245.864 675.378 245.928C675.698 245.992 676.045 246.051 676.418 246.104C676.802 246.157 677.181 246.232 677.554 246.328C677.938 246.413 678.29 246.541 678.61 246.712C678.93 246.872 679.186 247.096 679.378 247.384C679.57 247.672 679.666 248.051 679.666 248.52C679.666 249.043 679.501 249.501 679.17 249.896C678.85 250.291 678.413 250.6 677.858 250.824C677.303 251.048 676.679 251.16 675.986 251.16ZM687.1 251.16C686.054 251.16 685.265 250.931 684.732 250.472C684.198 250.013 683.932 249.336 683.932 248.44V244.504H681.404V242.92H683.932V240.696L685.932 240.28V242.92H689.26V244.504H685.932V248.056C685.932 248.557 686.049 248.915 686.284 249.128C686.518 249.341 686.892 249.448 687.404 249.448C687.67 249.448 687.948 249.427 688.236 249.384C688.534 249.331 688.881 249.245 689.276 249.128V250.792C688.945 250.899 688.582 250.984 688.188 251.048C687.804 251.123 687.441 251.16 687.1 251.16ZM695.462 251.16C694.662 251.16 693.942 250.979 693.302 250.616C692.662 250.243 692.155 249.741 691.782 249.112C691.408 248.472 691.222 247.757 691.222 246.968C691.222 246.179 691.398 245.469 691.75 244.84C692.112 244.211 692.598 243.715 693.206 243.352C693.814 242.979 694.502 242.792 695.27 242.792C696.059 242.792 696.758 242.973 697.366 243.336C697.984 243.699 698.464 244.195 698.806 244.824C699.158 245.453 699.334 246.173 699.334 246.984V247.464H693.19C693.264 247.869 693.408 248.227 693.622 248.536C693.835 248.845 694.107 249.085 694.438 249.256C694.779 249.427 695.152 249.512 695.558 249.512C695.963 249.512 696.336 249.437 696.678 249.288C697.019 249.139 697.307 248.925 697.542 248.648L698.854 249.816C698.374 250.285 697.856 250.627 697.302 250.84C696.747 251.053 696.134 251.16 695.462 251.16ZM693.222 246.248H697.43C697.366 245.864 697.232 245.539 697.03 245.272C696.838 244.995 696.592 244.781 696.294 244.632C696.006 244.483 695.675 244.408 695.302 244.408C694.96 244.408 694.64 244.483 694.342 244.632C694.054 244.781 693.814 244.995 693.622 245.272C693.43 245.539 693.296 245.864 693.222 246.248ZM700.767 251V242.92H702.463V243.608C702.655 243.341 702.863 243.144 703.087 243.016C703.322 242.877 703.583 242.808 703.871 242.808C704.213 242.808 704.517 242.893 704.783 243.064C705.061 243.224 705.274 243.459 705.423 243.768C705.637 243.448 705.882 243.208 706.159 243.048C706.447 242.888 706.767 242.808 707.119 242.808C707.653 242.808 708.085 243 708.415 243.384C708.746 243.768 708.911 244.269 708.911 244.888V251H707.231V245.416C707.231 245.064 707.157 244.787 707.007 244.584C706.858 244.381 706.645 244.28 706.367 244.28C706.239 244.28 706.117 244.307 705.999 244.36C705.893 244.403 705.786 244.493 705.679 244.632C705.69 244.685 705.695 244.744 705.695 244.808C705.695 244.861 705.695 244.92 705.695 244.984V251H704.015V245.416C704.015 245.064 703.941 244.787 703.791 244.584C703.642 244.381 703.423 244.28 703.135 244.28C703.018 244.28 702.901 244.301 702.783 244.344C702.677 244.387 702.57 244.472 702.463 244.6V251H700.767ZM720.371 251V239.8H724.403C725.171 239.8 725.837 239.949 726.403 240.248C726.979 240.547 727.421 240.963 727.731 241.496C728.04 242.029 728.195 242.643 728.195 243.336C728.195 244.008 728.04 244.611 727.731 245.144C727.421 245.667 726.979 246.077 726.403 246.376C725.837 246.675 725.171 246.824 724.403 246.824H722.515V251H720.371ZM722.515 245.08H724.067C724.707 245.08 725.197 244.92 725.539 244.6C725.88 244.269 726.051 243.848 726.051 243.336C726.051 242.813 725.88 242.392 725.539 242.072C725.197 241.752 724.707 241.592 724.067 241.592H722.515V245.08ZM729.965 251V249.416H731.901V244.504H729.965V242.92H733.917V244.872C734.194 244.179 734.562 243.661 735.021 243.32C735.479 242.968 736.002 242.792 736.589 242.792C736.834 242.792 737.037 242.813 737.197 242.856C737.367 242.888 737.565 242.947 737.789 243.032V244.856C737.565 244.76 737.319 244.691 737.053 244.648C736.786 244.595 736.525 244.568 736.269 244.568C735.767 244.568 735.309 244.685 734.893 244.92C734.477 245.155 734.151 245.491 733.917 245.928V249.416H735.965V251H729.965ZM743.206 251.16C742.438 251.16 741.745 250.979 741.126 250.616C740.508 250.243 740.017 249.741 739.654 249.112C739.292 248.472 739.11 247.757 739.11 246.968C739.11 246.189 739.292 245.485 739.654 244.856C740.017 244.216 740.508 243.715 741.126 243.352C741.745 242.979 742.438 242.792 743.206 242.792C743.985 242.792 744.678 242.979 745.286 243.352C745.905 243.715 746.396 244.216 746.758 244.856C747.121 245.485 747.302 246.189 747.302 246.968C747.302 247.757 747.121 248.472 746.758 249.112C746.396 249.741 745.905 250.243 745.286 250.616C744.678 250.979 743.985 251.16 743.206 251.16ZM743.206 249.448C743.622 249.448 743.99 249.341 744.31 249.128C744.63 248.915 744.881 248.621 745.062 248.248C745.244 247.875 745.334 247.453 745.334 246.984C745.334 246.504 745.244 246.083 745.062 245.72C744.881 245.347 744.63 245.053 744.31 244.84C743.99 244.627 743.622 244.52 743.206 244.52C742.79 244.52 742.422 244.627 742.102 244.84C741.782 245.053 741.532 245.347 741.35 245.72C741.169 246.083 741.078 246.504 741.078 246.984C741.078 247.453 741.169 247.875 741.35 248.248C741.532 248.621 741.782 248.915 742.102 249.128C742.422 249.341 742.79 249.448 743.206 249.448ZM748.736 251V242.92H750.432V243.608C750.624 243.341 750.832 243.144 751.056 243.016C751.291 242.877 751.552 242.808 751.84 242.808C752.181 242.808 752.485 242.893 752.752 243.064C753.029 243.224 753.243 243.459 753.392 243.768C753.605 243.448 753.851 243.208 754.128 243.048C754.416 242.888 754.736 242.808 755.088 242.808C755.621 242.808 756.053 243 756.384 243.384C756.715 243.768 756.88 244.269 756.88 244.888V251H755.2V245.416C755.2 245.064 755.125 244.787 754.976 244.584C754.827 244.381 754.613 244.28 754.336 244.28C754.208 244.28 754.085 244.307 753.968 244.36C753.861 244.403 753.755 244.493 753.648 244.632C753.659 244.685 753.664 244.744 753.664 244.808C753.664 244.861 753.664 244.92 753.664 244.984V251H751.984V245.416C751.984 245.064 751.909 244.787 751.76 244.584C751.611 244.381 751.392 244.28 751.104 244.28C750.987 244.28 750.869 244.301 750.752 244.344C750.645 244.387 750.539 244.472 750.432 244.6V251H748.736ZM758.746 254.344V242.92H760.682V243.864C760.97 243.523 761.3 243.261 761.674 243.08C762.047 242.899 762.458 242.808 762.906 242.808C763.578 242.808 764.186 242.995 764.73 243.368C765.284 243.731 765.722 244.227 766.042 244.856C766.372 245.475 766.538 246.179 766.538 246.968C766.538 247.747 766.372 248.451 766.042 249.08C765.722 249.709 765.284 250.211 764.73 250.584C764.175 250.947 763.556 251.128 762.874 251.128C762.458 251.128 762.068 251.048 761.706 250.888C761.343 250.717 761.023 250.488 760.746 250.2V254.344H758.746ZM762.426 249.496C762.852 249.496 763.226 249.389 763.546 249.176C763.866 248.963 764.116 248.664 764.298 248.28C764.479 247.896 764.57 247.459 764.57 246.968C764.57 246.467 764.479 246.029 764.298 245.656C764.116 245.272 763.866 244.973 763.546 244.76C763.226 244.547 762.852 244.44 762.426 244.44C762.095 244.44 761.786 244.504 761.498 244.632C761.21 244.76 760.959 244.941 760.746 245.176V248.744C760.959 248.979 761.21 249.165 761.498 249.304C761.786 249.432 762.095 249.496 762.426 249.496ZM773.444 251.16C772.398 251.16 771.609 250.931 771.076 250.472C770.542 250.013 770.276 249.336 770.276 248.44V244.504H767.748V242.92H770.276V240.696L772.276 240.28V242.92H775.604V244.504H772.276V248.056C772.276 248.557 772.393 248.915 772.628 249.128C772.862 249.341 773.236 249.448 773.748 249.448C774.014 249.448 774.292 249.427 774.58 249.384C774.878 249.331 775.225 249.245 775.62 249.128V250.792C775.289 250.899 774.926 250.984 774.532 251.048C774.148 251.123 773.785 251.16 773.444 251.16ZM790.279 251.176C789.586 251.176 788.978 251.048 788.455 250.792C787.932 250.525 787.522 250.157 787.223 249.688C786.935 249.208 786.791 248.648 786.791 248.008C786.791 247.4 786.935 246.856 787.223 246.376C787.522 245.885 787.98 245.421 788.599 244.984C788.279 244.515 788.044 244.077 787.895 243.672C787.746 243.256 787.671 242.835 787.671 242.408C787.671 241.875 787.794 241.4 788.039 240.984C788.295 240.568 788.647 240.237 789.095 239.992C789.543 239.747 790.044 239.624 790.599 239.624C791.132 239.624 791.607 239.736 792.023 239.96C792.439 240.173 792.764 240.467 792.999 240.84C793.244 241.203 793.367 241.629 793.367 242.12C793.367 242.504 793.287 242.867 793.127 243.208C792.978 243.549 792.727 243.885 792.375 244.216C792.023 244.547 791.559 244.893 790.983 245.256C791.282 245.587 791.607 245.939 791.959 246.312C792.322 246.685 792.695 247.064 793.079 247.448C793.218 247.139 793.346 246.797 793.463 246.424C793.58 246.051 793.682 245.651 793.767 245.224L795.415 245.496C795.287 246.104 795.127 246.669 794.935 247.192C794.754 247.704 794.546 248.173 794.311 248.6C794.674 248.909 794.983 249.176 795.239 249.4C795.495 249.613 795.735 249.805 795.959 249.976L794.775 251.272C794.519 251.059 794.263 250.851 794.007 250.648C793.751 250.435 793.49 250.211 793.223 249.976C792.818 250.371 792.364 250.669 791.863 250.872C791.372 251.075 790.844 251.176 790.279 251.176ZM789.383 242.376C789.383 242.643 789.436 242.915 789.543 243.192C789.66 243.459 789.831 243.763 790.055 244.104C790.45 243.869 790.764 243.651 790.999 243.448C791.234 243.235 791.399 243.027 791.495 242.824C791.602 242.621 791.655 242.403 791.655 242.168C791.655 241.848 791.548 241.581 791.335 241.368C791.122 241.155 790.86 241.048 790.551 241.048C790.21 241.048 789.927 241.171 789.703 241.416C789.49 241.651 789.383 241.971 789.383 242.376ZM788.551 247.896C788.551 248.44 788.716 248.872 789.047 249.192C789.378 249.512 789.826 249.672 790.391 249.672C790.7 249.672 790.999 249.608 791.287 249.48C791.575 249.341 791.836 249.144 792.071 248.888C791.623 248.451 791.186 248.008 790.759 247.56C790.343 247.101 789.938 246.648 789.543 246.2C789.202 246.467 788.951 246.739 788.791 247.016C788.631 247.293 788.551 247.587 788.551 247.896ZM809.307 251V241.608H805.899V239.8H814.827V241.608H811.435V251H809.307ZM819.956 251.16C819.188 251.16 818.495 250.979 817.876 250.616C817.258 250.243 816.767 249.741 816.404 249.112C816.042 248.472 815.86 247.757 815.86 246.968C815.86 246.189 816.042 245.485 816.404 244.856C816.767 244.216 817.258 243.715 817.876 243.352C818.495 242.979 819.188 242.792 819.956 242.792C820.735 242.792 821.428 242.979 822.036 243.352C822.655 243.715 823.146 244.216 823.508 244.856C823.871 245.485 824.052 246.189 824.052 246.968C824.052 247.757 823.871 248.472 823.508 249.112C823.146 249.741 822.655 250.243 822.036 250.616C821.428 250.979 820.735 251.16 819.956 251.16ZM819.956 249.448C820.372 249.448 820.74 249.341 821.06 249.128C821.38 248.915 821.631 248.621 821.812 248.248C821.994 247.875 822.084 247.453 822.084 246.984C822.084 246.504 821.994 246.083 821.812 245.72C821.631 245.347 821.38 245.053 821.06 244.84C820.74 244.627 820.372 244.52 819.956 244.52C819.54 244.52 819.172 244.627 818.852 244.84C818.532 245.053 818.282 245.347 818.1 245.72C817.919 246.083 817.828 246.504 817.828 246.984C817.828 247.453 817.919 247.875 818.1 248.248C818.282 248.621 818.532 248.915 818.852 249.128C819.172 249.341 819.54 249.448 819.956 249.448ZM829.55 251.16C828.782 251.16 828.089 250.979 827.47 250.616C826.851 250.243 826.361 249.741 825.998 249.112C825.635 248.472 825.454 247.757 825.454 246.968C825.454 246.189 825.635 245.485 825.998 244.856C826.361 244.216 826.851 243.715 827.47 243.352C828.089 242.979 828.782 242.792 829.55 242.792C830.329 242.792 831.022 242.979 831.63 243.352C832.249 243.715 832.739 244.216 833.102 244.856C833.465 245.485 833.646 246.189 833.646 246.968C833.646 247.757 833.465 248.472 833.102 249.112C832.739 249.741 832.249 250.243 831.63 250.616C831.022 250.979 830.329 251.16 829.55 251.16ZM829.55 249.448C829.966 249.448 830.334 249.341 830.654 249.128C830.974 248.915 831.225 248.621 831.406 248.248C831.587 247.875 831.678 247.453 831.678 246.984C831.678 246.504 831.587 246.083 831.406 245.72C831.225 245.347 830.974 245.053 830.654 244.84C830.334 244.627 829.966 244.52 829.55 244.52C829.134 244.52 828.766 244.627 828.446 244.84C828.126 245.053 827.875 245.347 827.694 245.72C827.513 246.083 827.422 246.504 827.422 246.984C827.422 247.453 827.513 247.875 827.694 248.248C827.875 248.621 828.126 248.915 828.446 249.128C828.766 249.341 829.134 249.448 829.55 249.448ZM841.048 251.16C840.034 251.16 839.266 250.92 838.744 250.44C838.221 249.96 837.96 249.251 837.96 248.312V240.952H835.096V239.368H839.976V248.104C839.976 248.573 840.088 248.915 840.312 249.128C840.536 249.341 840.888 249.448 841.368 249.448C841.624 249.448 841.874 249.427 842.12 249.384C842.365 249.331 842.637 249.24 842.936 249.112V250.792C842.712 250.888 842.424 250.973 842.072 251.048C841.72 251.123 841.378 251.16 841.048 251.16Z" fill="white"/>
<path d="M286 311C286 306.582 289.582 303 294 303H538C542.418 303 546 306.582 546 311V385C546 389.418 542.418 393 538 393H294C289.582 393 286 389.418 286 385V311Z" fill="#E66A32"/>
<path d="M374.156 353.5V342.3H381.612V344.108H376.3V346.972H379.708V348.732H376.3V351.692H381.676V353.5H374.156ZM386.23 353.5L382.886 345.42H385.062L387.27 351.132L389.462 345.42H391.558L388.198 353.5H386.23ZM397.04 353.66C396.24 353.66 395.52 353.479 394.88 353.116C394.24 352.743 393.733 352.241 393.36 351.612C392.986 350.972 392.8 350.257 392.8 349.468C392.8 348.679 392.976 347.969 393.328 347.34C393.69 346.711 394.176 346.215 394.784 345.852C395.392 345.479 396.08 345.292 396.848 345.292C397.637 345.292 398.336 345.473 398.944 345.836C399.562 346.199 400.042 346.695 400.384 347.324C400.736 347.953 400.912 348.673 400.912 349.484V349.964H394.768C394.842 350.369 394.986 350.727 395.2 351.036C395.413 351.345 395.685 351.585 396.016 351.756C396.357 351.927 396.73 352.012 397.136 352.012C397.541 352.012 397.914 351.937 398.256 351.788C398.597 351.639 398.885 351.425 399.12 351.148L400.432 352.316C399.952 352.785 399.434 353.127 398.88 353.34C398.325 353.553 397.712 353.66 397.04 353.66ZM394.8 348.748H399.008C398.944 348.364 398.81 348.039 398.608 347.772C398.416 347.495 398.17 347.281 397.872 347.132C397.584 346.983 397.253 346.908 396.88 346.908C396.538 346.908 396.218 346.983 395.92 347.132C395.632 347.281 395.392 347.495 395.2 347.772C395.008 348.039 394.874 348.364 394.8 348.748ZM402.809 353.5V345.42H404.825V346.604C405.444 345.729 406.265 345.292 407.289 345.292C407.833 345.292 408.313 345.415 408.729 345.66C409.145 345.895 409.471 346.225 409.705 346.652C409.94 347.079 410.057 347.575 410.057 348.14V353.5H408.057V348.716C408.057 348.161 407.903 347.724 407.593 347.404C407.295 347.073 406.889 346.908 406.377 346.908C406.068 346.908 405.78 346.972 405.513 347.1C405.257 347.228 405.028 347.42 404.825 347.676V353.5H402.809ZM417.459 353.66C416.414 353.66 415.624 353.431 415.091 352.972C414.558 352.513 414.291 351.836 414.291 350.94V347.004H411.763V345.42H414.291V343.196L416.291 342.78V345.42H419.619V347.004H416.291V350.556C416.291 351.057 416.408 351.415 416.643 351.628C416.878 351.841 417.251 351.948 417.763 351.948C418.03 351.948 418.307 351.927 418.595 351.884C418.894 351.831 419.24 351.745 419.635 351.628V353.292C419.304 353.399 418.942 353.484 418.547 353.548C418.163 353.623 417.8 353.66 417.459 353.66ZM431.687 353.5V342.3H435.447C436.151 342.3 436.769 342.428 437.303 342.684C437.847 342.929 438.268 343.276 438.567 343.724C438.876 344.172 439.031 344.689 439.031 345.276C439.031 345.831 438.865 346.327 438.535 346.764C438.215 347.191 437.783 347.516 437.239 347.74C437.9 347.953 438.423 348.289 438.807 348.748C439.201 349.207 439.399 349.751 439.399 350.38C439.399 350.988 439.239 351.532 438.919 352.012C438.609 352.481 438.172 352.849 437.607 353.116C437.052 353.372 436.407 353.5 435.671 353.5H431.687ZM433.783 346.972H435.223C435.735 346.972 436.145 346.839 436.455 346.572C436.764 346.295 436.919 345.932 436.919 345.484C436.919 345.036 436.764 344.679 436.455 344.412C436.156 344.135 435.745 343.996 435.223 343.996H433.783V346.972ZM433.783 351.804H435.415C435.98 351.804 436.428 351.66 436.759 351.372C437.089 351.073 437.255 350.679 437.255 350.188C437.255 349.687 437.089 349.292 436.759 349.004C436.428 348.716 435.98 348.572 435.415 348.572H433.783V351.804ZM443.904 353.628C443.36 353.628 442.88 353.511 442.464 353.276C442.048 353.031 441.723 352.695 441.488 352.268C441.254 351.831 441.136 351.335 441.136 350.78V345.42H443.152V350.204C443.152 350.748 443.302 351.191 443.6 351.532C443.899 351.863 444.304 352.028 444.816 352.028C445.136 352.028 445.424 351.964 445.68 351.836C445.936 351.697 446.166 351.5 446.368 351.244V345.42H448.384V353.5H446.368V352.316C445.75 353.191 444.928 353.628 443.904 353.628ZM454.314 353.66C453.557 353.66 452.853 353.564 452.202 353.372C451.551 353.169 450.997 352.876 450.538 352.492L451.514 351.18C452.079 351.532 452.575 351.777 453.002 351.916C453.439 352.055 453.877 352.124 454.314 352.124C454.879 352.124 455.322 352.039 455.642 351.868C455.973 351.697 456.138 351.468 456.138 351.18C456.138 350.945 456.042 350.769 455.85 350.652C455.658 350.524 455.407 350.428 455.098 350.364C454.789 350.3 454.447 350.241 454.074 350.188C453.701 350.135 453.322 350.065 452.938 349.98C452.565 349.884 452.223 349.756 451.914 349.596C451.605 349.425 451.354 349.201 451.162 348.924C450.97 348.636 450.874 348.263 450.874 347.804C450.874 347.271 451.013 346.817 451.29 346.444C451.578 346.071 451.978 345.783 452.49 345.58C453.013 345.377 453.61 345.276 454.282 345.276C454.901 345.276 455.509 345.361 456.106 345.532C456.714 345.692 457.285 345.959 457.818 346.332L456.842 347.612C456.415 347.324 455.983 347.116 455.546 346.988C455.109 346.86 454.671 346.796 454.234 346.796C453.743 346.796 453.359 346.876 453.082 347.036C452.805 347.185 452.666 347.388 452.666 347.644C452.666 347.868 452.757 348.039 452.938 348.156C453.13 348.273 453.386 348.364 453.706 348.428C454.026 348.492 454.373 348.551 454.746 348.604C455.13 348.657 455.509 348.732 455.882 348.828C456.266 348.913 456.618 349.041 456.938 349.212C457.258 349.372 457.514 349.596 457.706 349.884C457.898 350.172 457.994 350.551 457.994 351.02C457.994 351.543 457.829 352.001 457.498 352.396C457.178 352.791 456.741 353.1 456.186 353.324C455.631 353.548 455.007 353.66 454.314 353.66Z" fill="#080808"/>
<path d="M229.293 373.707C228.902 373.317 228.902 372.683 229.293 372.293L235.657 365.929C236.047 365.538 236.681 365.538 237.071 365.929C237.462 366.319 237.462 366.953 237.071 367.343L231.414 373L237.071 378.657C237.462 379.047 237.462 379.681 237.071 380.071C236.681 380.462 236.047 380.462 235.657 380.071L229.293 373.707ZM230 373V372H286V373V374H230V373Z" fill="white"/>
<path d="M893.293 373.707C892.902 373.317 892.902 372.683 893.293 372.293L899.657 365.929C900.047 365.538 900.681 365.538 901.071 365.929C901.462 366.319 901.462 366.953 901.071 367.343L895.414 373L901.071 378.657C901.462 379.047 901.462 379.681 901.071 380.071C900.681 380.462 900.047 380.462 899.657 380.071L893.293 373.707ZM894 373V372H950V373V374H894V373Z" fill="white"/>
<path d="M286.707 324.293C287.098 324.683 287.098 325.317 286.707 325.707L280.343 332.071C279.953 332.462 279.319 332.462 278.929 332.071C278.538 331.681 278.538 331.047 278.929 330.657L284.586 325L278.929 319.343C278.538 318.953 278.538 318.319 278.929 317.929C279.319 317.538 279.953 317.538 280.343 317.929L286.707 324.293ZM230 325V324H286V325V326H230V325Z" fill="white"/>
<path d="M618.707 295.293C619.098 295.683 619.098 296.317 618.707 296.707L612.343 303.071C611.953 303.462 611.319 303.462 610.929 303.071C610.538 302.681 610.538 302.047 610.929 301.657L616.586 296L610.929 290.343C610.538 289.953 610.538 289.319 610.929 288.929C611.319 288.538 611.953 288.538 612.343 288.929L618.707 295.293ZM546 325V324H560.345V325V326H546V325ZM568.345 317H567.345V304H568.345H569.345V317H568.345ZM576.345 296V295H618V296V297H576.345V296ZM568.345 304H567.345C567.345 299.029 571.374 295 576.345 295V296V297C572.479 297 569.345 300.134 569.345 304H568.345ZM560.345 325V324C564.211 324 567.345 320.866 567.345 317H568.345H569.345C569.345 321.971 565.315 326 560.345 326V325Z" fill="white"/>
<path d="M545.293 372.293C544.902 372.683 544.902 373.317 545.293 373.707L551.657 380.071C552.047 380.462 552.681 380.462 553.071 380.071C553.462 379.681 553.462 379.047 553.071 378.657L547.414 373L553.071 367.343C553.462 366.953 553.462 366.319 553.071 365.929C552.681 365.538 552.047 365.538 551.657 365.929L545.293 372.293ZM618 450L618 449L603.655 449L603.655 450L603.655 451L618 451L618 450ZM595.655 442L596.655 442L596.655 381L595.655 381L594.655 381L594.655 442L595.655 442ZM587.655 373L587.655 372L546 372L546 373L546 374L587.655 374L587.655 373ZM595.655 381L596.655 381C596.655 376.029 592.626 372 587.655 372L587.655 373L587.655 374C591.521 374 594.655 377.134 594.655 381L595.655 381ZM603.655 450L603.655 449C599.789 449 596.655 445.866 596.655 442L595.655 442L594.655 442C594.655 446.971 598.685 451 603.655 451L603.655 450Z" fill="white"/>
<path d="M545.293 373.707C544.902 373.317 544.902 372.683 545.293 372.293L551.657 365.929C552.047 365.538 552.681 365.538 553.071 365.929C553.462 366.319 553.462 366.953 553.071 367.343L547.414 373L553.071 378.657C553.462 379.047 553.462 379.681 553.071 380.071C552.681 380.462 552.047 380.462 551.657 380.071L545.293 373.707ZM618 347L618 348L603.655 348L603.655 347L603.655 346L618 346L618 347ZM595.655 355L596.655 355L596.655 365L595.655 365L594.655 365L594.655 355L595.655 355ZM587.655 373L587.655 374L546 374L546 373L546 372L587.655 372L587.655 373ZM595.655 365L596.655 365C596.655 369.971 592.626 374 587.655 374L587.655 373L587.655 372C591.521 372 594.655 368.866 594.655 365L595.655 365ZM603.655 347L603.655 348C599.789 348 596.655 351.134 596.655 355L595.655 355L594.655 355C594.655 350.029 598.685 346 603.655 346L603.655 347Z" fill="white"/>
<path d="M618.707 397.707C619.098 397.317 619.098 396.683 618.707 396.293L612.343 389.929C611.953 389.538 611.319 389.538 610.929 389.929C610.538 390.319 610.538 390.953 610.929 391.343L616.586 397L610.929 402.657C610.538 403.047 610.538 403.681 610.929 404.071C611.319 404.462 611.953 404.462 612.343 404.071L618.707 397.707ZM546 325V326H560.345V325V324H546V325ZM568.345 333H567.345V389H568.345H569.345V333H568.345ZM576.345 397V398H618V397V396H576.345V397ZM568.345 389H567.345C567.345 393.971 571.374 398 576.345 398V397V396C572.479 396 569.345 392.866 569.345 389H568.345ZM560.345 325V326C564.211 326 567.345 329.134 567.345 333H568.345H569.345C569.345 328.029 565.315 324 560.345 324V325Z" fill="white"/>
<path d="M950.707 324.293C951.098 324.683 951.098 325.317 950.707 325.707L944.343 332.071C943.953 332.462 943.319 332.462 942.929 332.071C942.538 331.681 942.538 331.047 942.929 330.657L948.586 325L942.929 319.343C942.538 318.953 942.538 318.319 942.929 317.929C943.319 317.538 943.953 317.538 944.343 317.929L950.707 324.293ZM894 325V324H950V325V326H894V325Z" fill="white"/>
<path d="M950 311C950 306.582 953.582 303 958 303H1202C1206.42 303 1210 306.582 1210 311V385C1210 389.418 1206.42 393 1202 393H958C953.582 393 950 389.418 950 385V311Z" fill="white"/>
<path d="M990.235 353.5V342.3H992.379V351.692H997.707V353.5H990.235ZM999.829 353.5V342.3H1001.97V351.692H1007.3V353.5H999.829ZM1008.81 353.5V342.3H1011.15L1012.86 346.524L1014.54 342.3H1016.88V353.5H1015.04V345.228L1012.83 350.524L1010.62 345.228V353.5H1008.81ZM1031.14 353.676C1030.45 353.676 1029.84 353.548 1029.31 353.292C1028.79 353.025 1028.38 352.657 1028.08 352.188C1027.79 351.708 1027.65 351.148 1027.65 350.508C1027.65 349.9 1027.79 349.356 1028.08 348.876C1028.38 348.385 1028.84 347.921 1029.46 347.484C1029.14 347.015 1028.9 346.577 1028.75 346.172C1028.61 345.756 1028.53 345.335 1028.53 344.908C1028.53 344.375 1028.65 343.9 1028.9 343.484C1029.15 343.068 1029.51 342.737 1029.95 342.492C1030.4 342.247 1030.9 342.124 1031.46 342.124C1031.99 342.124 1032.47 342.236 1032.88 342.46C1033.3 342.673 1033.62 342.967 1033.86 343.34C1034.1 343.703 1034.23 344.129 1034.23 344.62C1034.23 345.004 1034.15 345.367 1033.99 345.708C1033.84 346.049 1033.59 346.385 1033.23 346.716C1032.88 347.047 1032.42 347.393 1031.84 347.756C1032.14 348.087 1032.47 348.439 1032.82 348.812C1033.18 349.185 1033.55 349.564 1033.94 349.948C1034.08 349.639 1034.21 349.297 1034.32 348.924C1034.44 348.551 1034.54 348.151 1034.63 347.724L1036.27 347.996C1036.15 348.604 1035.99 349.169 1035.79 349.692C1035.61 350.204 1035.41 350.673 1035.17 351.1C1035.53 351.409 1035.84 351.676 1036.1 351.9C1036.35 352.113 1036.59 352.305 1036.82 352.476L1035.63 353.772C1035.38 353.559 1035.12 353.351 1034.87 353.148C1034.61 352.935 1034.35 352.711 1034.08 352.476C1033.68 352.871 1033.22 353.169 1032.72 353.372C1032.23 353.575 1031.7 353.676 1031.14 353.676ZM1030.24 344.876C1030.24 345.143 1030.3 345.415 1030.4 345.692C1030.52 345.959 1030.69 346.263 1030.91 346.604C1031.31 346.369 1031.62 346.151 1031.86 345.948C1032.09 345.735 1032.26 345.527 1032.35 345.324C1032.46 345.121 1032.51 344.903 1032.51 344.668C1032.51 344.348 1032.41 344.081 1032.19 343.868C1031.98 343.655 1031.72 343.548 1031.41 343.548C1031.07 343.548 1030.79 343.671 1030.56 343.916C1030.35 344.151 1030.24 344.471 1030.24 344.876ZM1029.41 350.396C1029.41 350.94 1029.58 351.372 1029.91 351.692C1030.24 352.012 1030.69 352.172 1031.25 352.172C1031.56 352.172 1031.86 352.108 1032.15 351.98C1032.43 351.841 1032.7 351.644 1032.93 351.388C1032.48 350.951 1032.05 350.508 1031.62 350.06C1031.2 349.601 1030.8 349.148 1030.4 348.7C1030.06 348.967 1029.81 349.239 1029.65 349.516C1029.49 349.793 1029.41 350.087 1029.41 350.396ZM1050.17 353.5V344.108H1046.76V342.3H1055.69V344.108H1052.29V353.5H1050.17ZM1060.82 353.66C1060.05 353.66 1059.35 353.479 1058.74 353.116C1058.12 352.743 1057.63 352.241 1057.26 351.612C1056.9 350.972 1056.72 350.257 1056.72 349.468C1056.72 348.689 1056.9 347.985 1057.26 347.356C1057.63 346.716 1058.12 346.215 1058.74 345.852C1059.35 345.479 1060.05 345.292 1060.82 345.292C1061.59 345.292 1062.29 345.479 1062.9 345.852C1063.51 346.215 1064 346.716 1064.37 347.356C1064.73 347.985 1064.91 348.689 1064.91 349.468C1064.91 350.257 1064.73 350.972 1064.37 351.612C1064 352.241 1063.51 352.743 1062.9 353.116C1062.29 353.479 1061.59 353.66 1060.82 353.66ZM1060.82 351.948C1061.23 351.948 1061.6 351.841 1061.92 351.628C1062.24 351.415 1062.49 351.121 1062.67 350.748C1062.85 350.375 1062.94 349.953 1062.94 349.484C1062.94 349.004 1062.85 348.583 1062.67 348.22C1062.49 347.847 1062.24 347.553 1061.92 347.34C1061.6 347.127 1061.23 347.02 1060.82 347.02C1060.4 347.02 1060.03 347.127 1059.71 347.34C1059.39 347.553 1059.14 347.847 1058.96 348.22C1058.78 348.583 1058.69 349.004 1058.69 349.484C1058.69 349.953 1058.78 350.375 1058.96 350.748C1059.14 351.121 1059.39 351.415 1059.71 351.628C1060.03 351.841 1060.4 351.948 1060.82 351.948ZM1070.41 353.66C1069.64 353.66 1068.95 353.479 1068.33 353.116C1067.71 352.743 1067.22 352.241 1066.86 351.612C1066.49 350.972 1066.31 350.257 1066.31 349.468C1066.31 348.689 1066.49 347.985 1066.86 347.356C1067.22 346.716 1067.71 346.215 1068.33 345.852C1068.95 345.479 1069.64 345.292 1070.41 345.292C1071.19 345.292 1071.88 345.479 1072.49 345.852C1073.11 346.215 1073.6 346.716 1073.96 347.356C1074.32 347.985 1074.51 348.689 1074.51 349.468C1074.51 350.257 1074.32 350.972 1073.96 351.612C1073.6 352.241 1073.11 352.743 1072.49 353.116C1071.88 353.479 1071.19 353.66 1070.41 353.66ZM1070.41 351.948C1070.83 351.948 1071.19 351.841 1071.51 351.628C1071.83 351.415 1072.08 351.121 1072.27 350.748C1072.45 350.375 1072.54 349.953 1072.54 349.484C1072.54 349.004 1072.45 348.583 1072.27 348.22C1072.08 347.847 1071.83 347.553 1071.51 347.34C1071.19 347.127 1070.83 347.02 1070.41 347.02C1069.99 347.02 1069.63 347.127 1069.31 347.34C1068.99 347.553 1068.73 347.847 1068.55 348.22C1068.37 348.583 1068.28 349.004 1068.28 349.484C1068.28 349.953 1068.37 350.375 1068.55 350.748C1068.73 351.121 1068.99 351.415 1069.31 351.628C1069.63 351.841 1069.99 351.948 1070.41 351.948ZM1081.91 353.66C1080.89 353.66 1080.13 353.42 1079.6 352.94C1079.08 352.46 1078.82 351.751 1078.82 350.812V343.452H1075.96V341.868H1080.84V350.604C1080.84 351.073 1080.95 351.415 1081.17 351.628C1081.4 351.841 1081.75 351.948 1082.23 351.948C1082.48 351.948 1082.73 351.927 1082.98 351.884C1083.22 351.831 1083.5 351.74 1083.8 351.612V353.292C1083.57 353.388 1083.28 353.473 1082.93 353.548C1082.58 353.623 1082.24 353.66 1081.91 353.66ZM1095.72 353.5V342.3H1103.17V344.108H1097.86V346.972H1101.27V348.732H1097.86V351.692H1103.24V353.5H1095.72ZM1104.5 353.5L1107.6 349.388L1104.58 345.42H1106.93L1108.82 348.012L1110.74 345.42H1112.99L1109.94 349.404L1113.07 353.5H1110.72L1108.72 350.78L1106.74 353.5H1104.5ZM1118.6 353.66C1117.8 353.66 1117.08 353.479 1116.44 353.116C1115.8 352.743 1115.3 352.241 1114.92 351.612C1114.55 350.972 1114.36 350.257 1114.36 349.468C1114.36 348.679 1114.54 347.969 1114.89 347.34C1115.25 346.711 1115.74 346.215 1116.35 345.852C1116.95 345.479 1117.64 345.292 1118.41 345.292C1119.2 345.292 1119.9 345.473 1120.51 345.836C1121.12 346.199 1121.6 346.695 1121.95 347.324C1122.3 347.953 1122.47 348.673 1122.47 349.484V349.964H1116.33C1116.4 350.369 1116.55 350.727 1116.76 351.036C1116.98 351.345 1117.25 351.585 1117.58 351.756C1117.92 351.927 1118.29 352.012 1118.7 352.012C1119.1 352.012 1119.48 351.937 1119.82 351.788C1120.16 351.639 1120.45 351.425 1120.68 351.148L1121.99 352.316C1121.51 352.785 1121 353.127 1120.44 353.34C1119.89 353.553 1119.27 353.66 1118.6 353.66ZM1116.36 348.748H1120.57C1120.51 348.364 1120.37 348.039 1120.17 347.772C1119.98 347.495 1119.73 347.281 1119.43 347.132C1119.15 346.983 1118.82 346.908 1118.44 346.908C1118.1 346.908 1117.78 346.983 1117.48 347.132C1117.19 347.281 1116.95 347.495 1116.76 347.772C1116.57 348.039 1116.44 348.364 1116.36 348.748ZM1128.21 353.66C1127.4 353.66 1126.67 353.479 1126.02 353.116C1125.38 352.743 1124.87 352.241 1124.5 351.612C1124.13 350.972 1123.94 350.257 1123.94 349.468C1123.94 348.689 1124.13 347.985 1124.5 347.356C1124.87 346.716 1125.38 346.215 1126.02 345.852C1126.67 345.479 1127.4 345.292 1128.21 345.292C1129.01 345.292 1129.74 345.468 1130.39 345.82C1131.04 346.161 1131.55 346.62 1131.91 347.196L1130.37 348.284C1130.17 347.9 1129.88 347.596 1129.49 347.372C1129.11 347.148 1128.68 347.036 1128.21 347.036C1127.77 347.036 1127.39 347.143 1127.04 347.356C1126.7 347.569 1126.43 347.857 1126.23 348.22C1126.03 348.583 1125.92 349.004 1125.92 349.484C1125.92 349.953 1126.03 350.375 1126.23 350.748C1126.43 351.111 1126.7 351.399 1127.04 351.612C1127.39 351.825 1127.77 351.932 1128.21 351.932C1128.68 351.932 1129.11 351.82 1129.49 351.596C1129.88 351.361 1130.17 351.052 1130.37 350.668L1131.91 351.756C1131.55 352.332 1131.04 352.796 1130.39 353.148C1129.74 353.489 1129.01 353.66 1128.21 353.66ZM1139.02 353.66C1137.98 353.66 1137.19 353.431 1136.65 352.972C1136.12 352.513 1135.85 351.836 1135.85 350.94V347.004H1133.33V345.42H1135.85V343.196L1137.85 342.78V345.42H1141.18V347.004H1137.85V350.556C1137.85 351.057 1137.97 351.415 1138.21 351.628C1138.44 351.841 1138.81 351.948 1139.33 351.948C1139.59 351.948 1139.87 351.927 1140.16 351.884C1140.46 351.831 1140.8 351.745 1141.2 351.628V353.292C1140.87 353.399 1140.5 353.484 1140.11 353.548C1139.73 353.623 1139.36 353.66 1139.02 353.66ZM1147.13 343.932C1146.74 343.932 1146.42 343.799 1146.15 343.532C1145.88 343.255 1145.75 342.929 1145.75 342.556C1145.75 342.183 1145.88 341.863 1146.15 341.596C1146.42 341.319 1146.74 341.18 1147.13 341.18C1147.5 341.18 1147.82 341.319 1148.09 341.596C1148.36 341.863 1148.5 342.183 1148.5 342.556C1148.5 342.929 1148.36 343.255 1148.09 343.532C1147.82 343.799 1147.5 343.932 1147.13 343.932ZM1149.21 353.66C1148.19 353.66 1147.43 353.42 1146.9 352.94C1146.38 352.46 1146.12 351.751 1146.12 350.812V347.004H1143.24V345.42H1148.12V350.604C1148.12 351.073 1148.23 351.415 1148.46 351.628C1148.69 351.841 1149.05 351.948 1149.53 351.948C1149.78 351.948 1150.03 351.927 1150.28 351.884C1150.52 351.831 1150.8 351.74 1151.1 351.612V353.292C1150.87 353.388 1150.58 353.473 1150.23 353.548C1149.88 353.623 1149.54 353.66 1149.21 353.66ZM1156.75 353.66C1155.99 353.66 1155.29 353.479 1154.67 353.116C1154.05 352.743 1153.56 352.241 1153.2 351.612C1152.84 350.972 1152.66 350.257 1152.66 349.468C1152.66 348.689 1152.84 347.985 1153.2 347.356C1153.56 346.716 1154.05 346.215 1154.67 345.852C1155.29 345.479 1155.99 345.292 1156.75 345.292C1157.53 345.292 1158.23 345.479 1158.83 345.852C1159.45 346.215 1159.94 346.716 1160.31 347.356C1160.67 347.985 1160.85 348.689 1160.85 349.468C1160.85 350.257 1160.67 350.972 1160.31 351.612C1159.94 352.241 1159.45 352.743 1158.83 353.116C1158.23 353.479 1157.53 353.66 1156.75 353.66ZM1156.75 351.948C1157.17 351.948 1157.54 351.841 1157.86 351.628C1158.18 351.415 1158.43 351.121 1158.61 350.748C1158.79 350.375 1158.88 349.953 1158.88 349.484C1158.88 349.004 1158.79 348.583 1158.61 348.22C1158.43 347.847 1158.18 347.553 1157.86 347.34C1157.54 347.127 1157.17 347.02 1156.75 347.02C1156.34 347.02 1155.97 347.127 1155.65 347.34C1155.33 347.553 1155.08 347.847 1154.9 348.22C1154.72 348.583 1154.63 349.004 1154.63 349.484C1154.63 349.953 1154.72 350.375 1154.9 350.748C1155.08 351.121 1155.33 351.415 1155.65 351.628C1155.97 351.841 1156.34 351.948 1156.75 351.948ZM1162.75 353.5V345.42H1164.76V346.604C1165.38 345.729 1166.2 345.292 1167.23 345.292C1167.77 345.292 1168.25 345.415 1168.67 345.66C1169.08 345.895 1169.41 346.225 1169.64 346.652C1169.88 347.079 1169.99 347.575 1169.99 348.14V353.5H1167.99V348.716C1167.99 348.161 1167.84 347.724 1167.53 347.404C1167.23 347.073 1166.83 346.908 1166.31 346.908C1166.01 346.908 1165.72 346.972 1165.45 347.1C1165.19 347.228 1164.97 347.42 1164.76 347.676V353.5H1162.75Z" fill="#080808"/>
</g>
<defs>
<clipPath id="clip0_221_600">
<rect width="1440" height="720" fill="white"/>
</clipPath>
</defs>
</svg>
