<svg width="1440" height="720" viewBox="0 0 1440 720" fill="none" xmlns="http://www.w3.org/2000/svg">
<g clip-path="url(#clip0_221_59)">
<rect width="1440" height="720" fill="#080808"/>
<path d="M700 221C704.418 221 708 224.582 708 229L708 327C708 331.418 704.418 335 700 335L424 335C419.582 335 416 331.418 416 327L416 229C416 224.582 419.582 221 424 221L700 221Z" fill="white" fill-opacity="0.05"/>
<path d="M416 229L416.5 229C416.5 228.498 416.549 228.009 416.643 227.536L416.152 227.439L415.662 227.342C415.556 227.878 415.5 228.433 415.5 229L416 229ZM417.347 224.555L417.763 224.833C418.311 224.015 419.015 223.311 419.833 222.763L419.555 222.347L419.277 221.932C418.35 222.552 417.552 223.35 416.932 224.277L417.347 224.555ZM422.439 221.152L422.536 221.643C423.009 221.549 423.498 221.5 424 221.5L424 221L424 220.5C423.433 220.5 422.878 220.556 422.342 220.662L422.439 221.152ZM424 221L424 221.5L425.971 221.5L425.971 221L425.971 220.5L424 220.5L424 221ZM429.914 221L429.914 221.5L433.857 221.5L433.857 221L433.857 220.5L429.914 220.5L429.914 221ZM437.8 221L437.8 221.5L441.743 221.5L441.743 221L441.743 220.5L437.8 220.5L437.8 221ZM445.686 221L445.686 221.5L449.629 221.5L449.629 221L449.629 220.5L445.686 220.5L445.686 221ZM453.571 221L453.571 221.5L457.514 221.5L457.514 221L457.514 220.5L453.571 220.5L453.571 221ZM461.457 221L461.457 221.5L465.4 221.5L465.4 221L465.4 220.5L461.457 220.5L461.457 221ZM469.343 221L469.343 221.5L473.286 221.5L473.286 221L473.286 220.5L469.343 220.5L469.343 221ZM477.229 221L477.229 221.5L481.171 221.5L481.171 221L481.171 220.5L477.229 220.5L477.229 221ZM485.114 221L485.114 221.5L489.057 221.5L489.057 221L489.057 220.5L485.114 220.5L485.114 221ZM493 221L493 221.5L496.943 221.5L496.943 221L496.943 220.5L493 220.5L493 221ZM500.886 221L500.886 221.5L504.829 221.5L504.829 221L504.829 220.5L500.886 220.5L500.886 221ZM508.771 221L508.771 221.5L512.714 221.5L512.714 221L512.714 220.5L508.771 220.5L508.771 221ZM516.657 221L516.657 221.5L520.6 221.5L520.6 221L520.6 220.5L516.657 220.5L516.657 221ZM524.543 221L524.543 221.5L528.486 221.5L528.486 221L528.486 220.5L524.543 220.5L524.543 221ZM532.429 221L532.429 221.5L536.371 221.5L536.371 221L536.371 220.5L532.429 220.5L532.429 221ZM540.314 221L540.314 221.5L544.257 221.5L544.257 221L544.257 220.5L540.314 220.5L540.314 221ZM548.2 221L548.2 221.5L552.143 221.5L552.143 221L552.143 220.5L548.2 220.5L548.2 221ZM556.086 221L556.086 221.5L560.029 221.5L560.029 221L560.029 220.5L556.086 220.5L556.086 221ZM563.971 221L563.971 221.5L567.914 221.5L567.914 221L567.914 220.5L563.971 220.5L563.971 221ZM571.857 221L571.857 221.5L575.8 221.5L575.8 221L575.8 220.5L571.857 220.5L571.857 221ZM579.743 221L579.743 221.5L583.686 221.5L583.686 221L583.686 220.5L579.743 220.5L579.743 221ZM587.629 221L587.629 221.5L591.571 221.5L591.571 221L591.571 220.5L587.629 220.5L587.629 221ZM595.514 221L595.514 221.5L599.457 221.5L599.457 221L599.457 220.5L595.514 220.5L595.514 221ZM603.4 221L603.4 221.5L607.343 221.5L607.343 221L607.343 220.5L603.4 220.5L603.4 221ZM611.286 221L611.286 221.5L615.229 221.5L615.229 221L615.229 220.5L611.286 220.5L611.286 221ZM619.171 221L619.171 221.5L623.114 221.5L623.114 221L623.114 220.5L619.171 220.5L619.171 221ZM627.057 221L627.057 221.5L631 221.5L631 221L631 220.5L627.057 220.5L627.057 221ZM634.943 221L634.943 221.5L638.886 221.5L638.886 221L638.886 220.5L634.943 220.5L634.943 221ZM642.829 221L642.829 221.5L646.771 221.5L646.771 221L646.771 220.5L642.829 220.5L642.829 221ZM650.714 221L650.714 221.5L654.657 221.5L654.657 221L654.657 220.5L650.714 220.5L650.714 221ZM658.6 221L658.6 221.5L662.543 221.5L662.543 221L662.543 220.5L658.6 220.5L658.6 221ZM666.486 221L666.486 221.5L670.429 221.5L670.429 221L670.429 220.5L666.486 220.5L666.486 221ZM674.371 221L674.371 221.5L678.314 221.5L678.314 221L678.314 220.5L674.371 220.5L674.371 221ZM682.257 221L682.257 221.5L686.2 221.5L686.2 221L686.2 220.5L682.257 220.5L682.257 221ZM690.143 221L690.143 221.5L694.086 221.5L694.086 221L694.086 220.5L690.143 220.5L690.143 221ZM698.029 221L698.029 221.5L700 221.5L700 221L700 220.5L698.029 220.5L698.029 221ZM700 221L700 221.5C700.502 221.5 700.991 221.549 701.464 221.643L701.561 221.152L701.658 220.662C701.122 220.556 700.567 220.5 700 220.5L700 221ZM704.445 222.347L704.167 222.763C704.985 223.311 705.689 224.015 706.237 224.833L706.653 224.555L707.068 224.277C706.448 223.35 705.65 222.552 704.723 221.932L704.445 222.347ZM707.848 227.439L707.357 227.536C707.451 228.009 707.5 228.498 707.5 229L708 229L708.5 229C708.5 228.433 708.444 227.878 708.338 227.342L707.848 227.439ZM708 229L707.5 229L707.5 231.042L708 231.042L708.5 231.042L708.5 229L708 229ZM708 235.125L707.5 235.125L707.5 239.208L708 239.208L708.5 239.208L708.5 235.125L708 235.125ZM708 243.292L707.5 243.292L707.5 247.375L708 247.375L708.5 247.375L708.5 243.292L708 243.292ZM708 251.458L707.5 251.458L707.5 255.542L708 255.542L708.5 255.542L708.5 251.458L708 251.458ZM708 259.625L707.5 259.625L707.5 263.708L708 263.708L708.5 263.708L708.5 259.625L708 259.625ZM708 267.792L707.5 267.792L707.5 271.875L708 271.875L708.5 271.875L708.5 267.792L708 267.792ZM708 275.958L707.5 275.958L707.5 280.042L708 280.042L708.5 280.042L708.5 275.958L708 275.958ZM708 284.125L707.5 284.125L707.5 288.208L708 288.208L708.5 288.208L708.5 284.125L708 284.125ZM708 292.292L707.5 292.292L707.5 296.375L708 296.375L708.5 296.375L708.5 292.292L708 292.292ZM708 300.458L707.5 300.458L707.5 304.542L708 304.542L708.5 304.542L708.5 300.458L708 300.458ZM708 308.625L707.5 308.625L707.5 312.708L708 312.708L708.5 312.708L708.5 308.625L708 308.625ZM708 316.792L707.5 316.792L707.5 320.875L708 320.875L708.5 320.875L708.5 316.792L708 316.792ZM708 324.958L707.5 324.958L707.5 327L708 327L708.5 327L708.5 324.958L708 324.958ZM708 327L707.5 327C707.5 327.502 707.451 327.991 707.357 328.464L707.848 328.561L708.338 328.658C708.444 328.122 708.5 327.567 708.5 327L708 327ZM706.653 331.445L706.237 331.167C705.689 331.985 704.985 332.689 704.167 333.237L704.445 333.653L704.723 334.068C705.65 333.448 706.448 332.65 707.068 331.723L706.653 331.445ZM701.561 334.848L701.464 334.357C700.991 334.451 700.502 334.5 700 334.5L700 335L700 335.5C700.567 335.5 701.122 335.444 701.658 335.338L701.561 334.848ZM700 335L700 334.5L698.029 334.5L698.029 335L698.029 335.5L700 335.5L700 335ZM694.086 335L694.086 334.5L690.143 334.5L690.143 335L690.143 335.5L694.086 335.5L694.086 335ZM686.2 335L686.2 334.5L682.257 334.5L682.257 335L682.257 335.5L686.2 335.5L686.2 335ZM678.314 335L678.314 334.5L674.371 334.5L674.371 335L674.371 335.5L678.314 335.5L678.314 335ZM670.429 335L670.429 334.5L666.486 334.5L666.486 335L666.486 335.5L670.429 335.5L670.429 335ZM662.543 335L662.543 334.5L658.6 334.5L658.6 335L658.6 335.5L662.543 335.5L662.543 335ZM654.657 335L654.657 334.5L650.714 334.5L650.714 335L650.714 335.5L654.657 335.5L654.657 335ZM646.771 335L646.771 334.5L642.829 334.5L642.829 335L642.829 335.5L646.771 335.5L646.771 335ZM638.886 335L638.886 334.5L634.943 334.5L634.943 335L634.943 335.5L638.886 335.5L638.886 335ZM631 335L631 334.5L627.057 334.5L627.057 335L627.057 335.5L631 335.5L631 335ZM623.114 335L623.114 334.5L619.171 334.5L619.171 335L619.171 335.5L623.114 335.5L623.114 335ZM615.229 335L615.229 334.5L611.286 334.5L611.286 335L611.286 335.5L615.229 335.5L615.229 335ZM607.343 335L607.343 334.5L603.4 334.5L603.4 335L603.4 335.5L607.343 335.5L607.343 335ZM599.457 335L599.457 334.5L595.514 334.5L595.514 335L595.514 335.5L599.457 335.5L599.457 335ZM591.571 335L591.571 334.5L587.629 334.5L587.629 335L587.629 335.5L591.571 335.5L591.571 335ZM583.686 335L583.686 334.5L579.743 334.5L579.743 335L579.743 335.5L583.686 335.5L583.686 335ZM575.8 335L575.8 334.5L571.857 334.5L571.857 335L571.857 335.5L575.8 335.5L575.8 335ZM567.914 335L567.914 334.5L563.971 334.5L563.971 335L563.971 335.5L567.914 335.5L567.914 335ZM560.029 335L560.029 334.5L556.086 334.5L556.086 335L556.086 335.5L560.029 335.5L560.029 335ZM552.143 335L552.143 334.5L548.2 334.5L548.2 335L548.2 335.5L552.143 335.5L552.143 335ZM544.257 335L544.257 334.5L540.314 334.5L540.314 335L540.314 335.5L544.257 335.5L544.257 335ZM536.371 335L536.371 334.5L532.429 334.5L532.429 335L532.429 335.5L536.371 335.5L536.371 335ZM528.486 335L528.486 334.5L524.543 334.5L524.543 335L524.543 335.5L528.486 335.5L528.486 335ZM520.6 335L520.6 334.5L516.657 334.5L516.657 335L516.657 335.5L520.6 335.5L520.6 335ZM512.714 335L512.714 334.5L508.771 334.5L508.771 335L508.771 335.5L512.714 335.5L512.714 335ZM504.829 335L504.829 334.5L500.886 334.5L500.886 335L500.886 335.5L504.829 335.5L504.829 335ZM496.943 335L496.943 334.5L493 334.5L493 335L493 335.5L496.943 335.5L496.943 335ZM489.057 335L489.057 334.5L485.114 334.5L485.114 335L485.114 335.5L489.057 335.5L489.057 335ZM481.171 335L481.171 334.5L477.229 334.5L477.229 335L477.229 335.5L481.171 335.5L481.171 335ZM473.286 335L473.286 334.5L469.343 334.5L469.343 335L469.343 335.5L473.286 335.5L473.286 335ZM465.4 335L465.4 334.5L461.457 334.5L461.457 335L461.457 335.5L465.4 335.5L465.4 335ZM457.514 335L457.514 334.5L453.571 334.5L453.571 335L453.571 335.5L457.514 335.5L457.514 335ZM449.629 335L449.629 334.5L445.686 334.5L445.686 335L445.686 335.5L449.629 335.5L449.629 335ZM441.743 335L441.743 334.5L437.8 334.5L437.8 335L437.8 335.5L441.743 335.5L441.743 335ZM433.857 335L433.857 334.5L429.914 334.5L429.914 335L429.914 335.5L433.857 335.5L433.857 335ZM425.971 335L425.971 334.5L424 334.5L424 335L424 335.5L425.971 335.5L425.971 335ZM424 335L424 334.5C423.498 334.5 423.009 334.451 422.536 334.357L422.439 334.848L422.342 335.338C422.878 335.444 423.433 335.5 424 335.5L424 335ZM419.555 333.653L419.833 333.237C419.015 332.689 418.311 331.985 417.763 331.167L417.347 331.445L416.932 331.723C417.552 332.65 418.35 333.448 419.277 334.068L419.555 333.653ZM416.152 328.561L416.643 328.464C416.549 327.991 416.5 327.502 416.5 327L416 327L415.5 327C415.5 327.567 415.556 328.122 415.662 328.658L416.152 328.561ZM416 327L416.5 327L416.5 324.958L416 324.958L415.5 324.958L415.5 327L416 327ZM416 320.875L416.5 320.875L416.5 316.792L416 316.792L415.5 316.792L415.5 320.875L416 320.875ZM416 312.708L416.5 312.708L416.5 308.625L416 308.625L415.5 308.625L415.5 312.708L416 312.708ZM416 304.542L416.5 304.542L416.5 300.458L416 300.458L415.5 300.458L415.5 304.542L416 304.542ZM416 296.375L416.5 296.375L416.5 292.292L416 292.292L415.5 292.292L415.5 296.375L416 296.375ZM416 288.208L416.5 288.208L416.5 284.125L416 284.125L415.5 284.125L415.5 288.208L416 288.208ZM416 280.042L416.5 280.042L416.5 275.958L416 275.958L415.5 275.958L415.5 280.042L416 280.042ZM416 271.875L416.5 271.875L416.5 267.792L416 267.792L415.5 267.792L415.5 271.875L416 271.875ZM416 263.708L416.5 263.708L416.5 259.625L416 259.625L415.5 259.625L415.5 263.708L416 263.708ZM416 255.542L416.5 255.542L416.5 251.458L416 251.458L415.5 251.458L415.5 255.542L416 255.542ZM416 247.375L416.5 247.375L416.5 243.292L416 243.292L415.5 243.292L415.5 247.375L416 247.375ZM416 239.208L416.5 239.208L416.5 235.125L416 235.125L415.5 235.125L415.5 239.208L416 239.208ZM416 231.042L416.5 231.042L416.5 229L416 229L415.5 229L415.5 231.042L416 231.042Z" fill="white"/>
<path d="M700 221C704.418 221 708 224.582 708 229L708 441C708 445.418 704.418 449 700 449L424 449C419.582 449 416 445.418 416 441L416 229C416 224.582 419.582 221 424 221L700 221Z" fill="white" fill-opacity="0.05"/>
<path d="M416 229L416.5 229C416.5 228.498 416.549 228.009 416.643 227.536L416.152 227.439L415.662 227.342C415.556 227.878 415.5 228.433 415.5 229L416 229ZM417.347 224.555L417.763 224.833C418.311 224.015 419.015 223.311 419.833 222.763L419.555 222.347L419.277 221.932C418.35 222.552 417.552 223.35 416.932 224.277L417.347 224.555ZM422.439 221.152L422.536 221.643C423.009 221.549 423.498 221.5 424 221.5L424 221L424 220.5C423.433 220.5 422.878 220.556 422.342 220.662L422.439 221.152ZM424 221L424 221.5L425.971 221.5L425.971 221L425.971 220.5L424 220.5L424 221ZM429.914 221L429.914 221.5L433.857 221.5L433.857 221L433.857 220.5L429.914 220.5L429.914 221ZM437.8 221L437.8 221.5L441.743 221.5L441.743 221L441.743 220.5L437.8 220.5L437.8 221ZM445.686 221L445.686 221.5L449.629 221.5L449.629 221L449.629 220.5L445.686 220.5L445.686 221ZM453.571 221L453.571 221.5L457.514 221.5L457.514 221L457.514 220.5L453.571 220.5L453.571 221ZM461.457 221L461.457 221.5L465.4 221.5L465.4 221L465.4 220.5L461.457 220.5L461.457 221ZM469.343 221L469.343 221.5L473.286 221.5L473.286 221L473.286 220.5L469.343 220.5L469.343 221ZM477.229 221L477.229 221.5L481.171 221.5L481.171 221L481.171 220.5L477.229 220.5L477.229 221ZM485.114 221L485.114 221.5L489.057 221.5L489.057 221L489.057 220.5L485.114 220.5L485.114 221ZM493 221L493 221.5L496.943 221.5L496.943 221L496.943 220.5L493 220.5L493 221ZM500.886 221L500.886 221.5L504.829 221.5L504.829 221L504.829 220.5L500.886 220.5L500.886 221ZM508.771 221L508.771 221.5L512.714 221.5L512.714 221L512.714 220.5L508.771 220.5L508.771 221ZM516.657 221L516.657 221.5L520.6 221.5L520.6 221L520.6 220.5L516.657 220.5L516.657 221ZM524.543 221L524.543 221.5L528.486 221.5L528.486 221L528.486 220.5L524.543 220.5L524.543 221ZM532.429 221L532.429 221.5L536.371 221.5L536.371 221L536.371 220.5L532.429 220.5L532.429 221ZM540.314 221L540.314 221.5L544.257 221.5L544.257 221L544.257 220.5L540.314 220.5L540.314 221ZM548.2 221L548.2 221.5L552.143 221.5L552.143 221L552.143 220.5L548.2 220.5L548.2 221ZM556.086 221L556.086 221.5L560.029 221.5L560.029 221L560.029 220.5L556.086 220.5L556.086 221ZM563.971 221L563.971 221.5L567.914 221.5L567.914 221L567.914 220.5L563.971 220.5L563.971 221ZM571.857 221L571.857 221.5L575.8 221.5L575.8 221L575.8 220.5L571.857 220.5L571.857 221ZM579.743 221L579.743 221.5L583.686 221.5L583.686 221L583.686 220.5L579.743 220.5L579.743 221ZM587.629 221L587.629 221.5L591.571 221.5L591.571 221L591.571 220.5L587.629 220.5L587.629 221ZM595.514 221L595.514 221.5L599.457 221.5L599.457 221L599.457 220.5L595.514 220.5L595.514 221ZM603.4 221L603.4 221.5L607.343 221.5L607.343 221L607.343 220.5L603.4 220.5L603.4 221ZM611.286 221L611.286 221.5L615.229 221.5L615.229 221L615.229 220.5L611.286 220.5L611.286 221ZM619.171 221L619.171 221.5L623.114 221.5L623.114 221L623.114 220.5L619.171 220.5L619.171 221ZM627.057 221L627.057 221.5L631 221.5L631 221L631 220.5L627.057 220.5L627.057 221ZM634.943 221L634.943 221.5L638.886 221.5L638.886 221L638.886 220.5L634.943 220.5L634.943 221ZM642.829 221L642.829 221.5L646.771 221.5L646.771 221L646.771 220.5L642.829 220.5L642.829 221ZM650.714 221L650.714 221.5L654.657 221.5L654.657 221L654.657 220.5L650.714 220.5L650.714 221ZM658.6 221L658.6 221.5L662.543 221.5L662.543 221L662.543 220.5L658.6 220.5L658.6 221ZM666.486 221L666.486 221.5L670.429 221.5L670.429 221L670.429 220.5L666.486 220.5L666.486 221ZM674.371 221L674.371 221.5L678.314 221.5L678.314 221L678.314 220.5L674.371 220.5L674.371 221ZM682.257 221L682.257 221.5L686.2 221.5L686.2 221L686.2 220.5L682.257 220.5L682.257 221ZM690.143 221L690.143 221.5L694.086 221.5L694.086 221L694.086 220.5L690.143 220.5L690.143 221ZM698.029 221L698.029 221.5L700 221.5L700 221L700 220.5L698.029 220.5L698.029 221ZM700 221L700 221.5C700.502 221.5 700.991 221.549 701.464 221.643L701.561 221.152L701.658 220.662C701.122 220.556 700.567 220.5 700 220.5L700 221ZM704.445 222.347L704.167 222.763C704.985 223.311 705.689 224.015 706.237 224.833L706.653 224.555L707.068 224.277C706.448 223.35 705.65 222.552 704.723 221.932L704.445 222.347ZM707.848 227.439L707.357 227.536C707.451 228.009 707.5 228.498 707.5 229L708 229L708.5 229C708.5 228.433 708.444 227.878 708.338 227.342L707.848 227.439ZM708 229L707.5 229L707.5 230.963L708 230.963L708.5 230.963L708.5 229L708 229ZM708 234.889L707.5 234.889L707.5 238.815L708 238.815L708.5 238.815L708.5 234.889L708 234.889ZM708 242.741L707.5 242.741L707.5 246.667L708 246.667L708.5 246.667L708.5 242.741L708 242.741ZM708 250.593L707.5 250.593L707.5 254.519L708 254.519L708.5 254.519L708.5 250.593L708 250.593ZM708 258.444L707.5 258.444L707.5 262.37L708 262.37L708.5 262.37L708.5 258.444L708 258.444ZM708 266.296L707.5 266.296L707.5 270.222L708 270.222L708.5 270.222L708.5 266.296L708 266.296ZM708 274.148L707.5 274.148L707.5 278.074L708 278.074L708.5 278.074L708.5 274.148L708 274.148ZM708 282L707.5 282L707.5 285.926L708 285.926L708.5 285.926L708.5 282L708 282ZM708 289.852L707.5 289.852L707.5 293.778L708 293.778L708.5 293.778L708.5 289.852L708 289.852ZM708 297.704L707.5 297.704L707.5 301.63L708 301.63L708.5 301.63L708.5 297.704L708 297.704ZM708 305.556L707.5 305.556L707.5 309.481L708 309.481L708.5 309.481L708.5 305.556L708 305.556ZM708 313.407L707.5 313.407L707.5 317.333L708 317.333L708.5 317.333L708.5 313.407L708 313.407ZM708 321.259L707.5 321.259L707.5 325.185L708 325.185L708.5 325.185L708.5 321.259L708 321.259ZM708 329.111L707.5 329.111L707.5 333.037L708 333.037L708.5 333.037L708.5 329.111L708 329.111ZM708 336.963L707.5 336.963L707.5 340.889L708 340.889L708.5 340.889L708.5 336.963L708 336.963ZM708 344.815L707.5 344.815L707.5 348.741L708 348.741L708.5 348.741L708.5 344.815L708 344.815ZM708 352.667L707.5 352.667L707.5 356.593L708 356.593L708.5 356.593L708.5 352.667L708 352.667ZM708 360.519L707.5 360.519L707.5 364.444L708 364.444L708.5 364.444L708.5 360.519L708 360.519ZM708 368.37L707.5 368.37L707.5 372.296L708 372.296L708.5 372.296L708.5 368.37L708 368.37ZM708 376.222L707.5 376.222L707.5 380.148L708 380.148L708.5 380.148L708.5 376.222L708 376.222ZM708 384.074L707.5 384.074L707.5 388L708 388L708.5 388L708.5 384.074L708 384.074ZM708 391.926L707.5 391.926L707.5 395.852L708 395.852L708.5 395.852L708.5 391.926L708 391.926ZM708 399.778L707.5 399.778L707.5 403.704L708 403.704L708.5 403.704L708.5 399.778L708 399.778ZM708 407.63L707.5 407.63L707.5 411.556L708 411.556L708.5 411.556L708.5 407.63L708 407.63ZM708 415.482L707.5 415.482L707.5 419.408L708 419.408L708.5 419.408L708.5 415.482L708 415.482ZM708 423.333L707.5 423.333L707.5 427.259L708 427.259L708.5 427.259L708.5 423.333L708 423.333ZM708 431.185L707.5 431.185L707.5 435.111L708 435.111L708.5 435.111L708.5 431.185L708 431.185ZM708 439.037L707.5 439.037L707.5 441L708 441L708.5 441L708.5 439.037L708 439.037ZM708 441L707.5 441C707.5 441.502 707.451 441.991 707.357 442.464L707.848 442.561L708.338 442.658C708.444 442.122 708.5 441.567 708.5 441L708 441ZM706.653 445.445L706.237 445.167C705.689 445.985 704.985 446.689 704.167 447.237L704.445 447.653L704.723 448.068C705.65 447.448 706.448 446.65 707.068 445.723L706.653 445.445ZM701.561 448.848L701.464 448.357C700.991 448.451 700.502 448.5 700 448.5L700 449L700 449.5C700.567 449.5 701.122 449.444 701.658 449.338L701.561 448.848ZM700 449L700 448.5L698.029 448.5L698.029 449L698.029 449.5L700 449.5L700 449ZM694.086 449L694.086 448.5L690.143 448.5L690.143 449L690.143 449.5L694.086 449.5L694.086 449ZM686.2 449L686.2 448.5L682.257 448.5L682.257 449L682.257 449.5L686.2 449.5L686.2 449ZM678.314 449L678.314 448.5L674.371 448.5L674.371 449L674.371 449.5L678.314 449.5L678.314 449ZM670.429 449L670.429 448.5L666.486 448.5L666.486 449L666.486 449.5L670.429 449.5L670.429 449ZM662.543 449L662.543 448.5L658.6 448.5L658.6 449L658.6 449.5L662.543 449.5L662.543 449ZM654.657 449L654.657 448.5L650.714 448.5L650.714 449L650.714 449.5L654.657 449.5L654.657 449ZM646.771 449L646.771 448.5L642.829 448.5L642.829 449L642.829 449.5L646.771 449.5L646.771 449ZM638.886 449L638.886 448.5L634.943 448.5L634.943 449L634.943 449.5L638.886 449.5L638.886 449ZM631 449L631 448.5L627.057 448.5L627.057 449L627.057 449.5L631 449.5L631 449ZM623.114 449L623.114 448.5L619.171 448.5L619.171 449L619.171 449.5L623.114 449.5L623.114 449ZM615.229 449L615.229 448.5L611.286 448.5L611.286 449L611.286 449.5L615.229 449.5L615.229 449ZM607.343 449L607.343 448.5L603.4 448.5L603.4 449L603.4 449.5L607.343 449.5L607.343 449ZM599.457 449L599.457 448.5L595.514 448.5L595.514 449L595.514 449.5L599.457 449.5L599.457 449ZM591.571 449L591.571 448.5L587.629 448.5L587.629 449L587.629 449.5L591.571 449.5L591.571 449ZM583.686 449L583.686 448.5L579.743 448.5L579.743 449L579.743 449.5L583.686 449.5L583.686 449ZM575.8 449L575.8 448.5L571.857 448.5L571.857 449L571.857 449.5L575.8 449.5L575.8 449ZM567.914 449L567.914 448.5L563.971 448.5L563.971 449L563.971 449.5L567.914 449.5L567.914 449ZM560.029 449L560.029 448.5L556.086 448.5L556.086 449L556.086 449.5L560.029 449.5L560.029 449ZM552.143 449L552.143 448.5L548.2 448.5L548.2 449L548.2 449.5L552.143 449.5L552.143 449ZM544.257 449L544.257 448.5L540.314 448.5L540.314 449L540.314 449.5L544.257 449.5L544.257 449ZM536.371 449L536.371 448.5L532.429 448.5L532.429 449L532.429 449.5L536.371 449.5L536.371 449ZM528.486 449L528.486 448.5L524.543 448.5L524.543 449L524.543 449.5L528.486 449.5L528.486 449ZM520.6 449L520.6 448.5L516.657 448.5L516.657 449L516.657 449.5L520.6 449.5L520.6 449ZM512.714 449L512.714 448.5L508.771 448.5L508.771 449L508.771 449.5L512.714 449.5L512.714 449ZM504.829 449L504.829 448.5L500.886 448.5L500.886 449L500.886 449.5L504.829 449.5L504.829 449ZM496.943 449L496.943 448.5L493 448.5L493 449L493 449.5L496.943 449.5L496.943 449ZM489.057 449L489.057 448.5L485.114 448.5L485.114 449L485.114 449.5L489.057 449.5L489.057 449ZM481.171 449L481.171 448.5L477.229 448.5L477.229 449L477.229 449.5L481.171 449.5L481.171 449ZM473.286 449L473.286 448.5L469.343 448.5L469.343 449L469.343 449.5L473.286 449.5L473.286 449ZM465.4 449L465.4 448.5L461.457 448.5L461.457 449L461.457 449.5L465.4 449.5L465.4 449ZM457.514 449L457.514 448.5L453.571 448.5L453.571 449L453.571 449.5L457.514 449.5L457.514 449ZM449.629 449L449.629 448.5L445.686 448.5L445.686 449L445.686 449.5L449.629 449.5L449.629 449ZM441.743 449L441.743 448.5L437.8 448.5L437.8 449L437.8 449.5L441.743 449.5L441.743 449ZM433.857 449L433.857 448.5L429.914 448.5L429.914 449L429.914 449.5L433.857 449.5L433.857 449ZM425.971 449L425.971 448.5L424 448.5L424 449L424 449.5L425.971 449.5L425.971 449ZM424 449L424 448.5C423.498 448.5 423.009 448.451 422.536 448.357L422.439 448.848L422.342 449.338C422.878 449.444 423.433 449.5 424 449.5L424 449ZM419.555 447.653L419.833 447.237C419.015 446.689 418.311 445.985 417.763 445.167L417.347 445.445L416.932 445.723C417.552 446.65 418.35 447.448 419.277 448.068L419.555 447.653ZM416.152 442.561L416.643 442.464C416.549 441.991 416.5 441.502 416.5 441L416 441L415.5 441C415.5 441.567 415.556 442.122 415.662 442.658L416.152 442.561ZM416 441L416.5 441L416.5 439.037L416 439.037L415.5 439.037L415.5 441L416 441ZM416 435.111L416.5 435.111L416.5 431.185L416 431.185L415.5 431.185L415.5 435.111L416 435.111ZM416 427.259L416.5 427.259L416.5 423.333L416 423.333L415.5 423.333L415.5 427.259L416 427.259ZM416 419.407L416.5 419.407L416.5 415.481L416 415.481L415.5 415.481L415.5 419.407L416 419.407ZM416 411.556L416.5 411.556L416.5 407.63L416 407.63L415.5 407.63L415.5 411.556L416 411.556ZM416 403.704L416.5 403.704L416.5 399.778L416 399.778L415.5 399.778L415.5 403.704L416 403.704ZM416 395.852L416.5 395.852L416.5 391.926L416 391.926L415.5 391.926L415.5 395.852L416 395.852ZM416 388L416.5 388L416.5 384.074L416 384.074L415.5 384.074L415.5 388L416 388ZM416 380.148L416.5 380.148L416.5 376.222L416 376.222L415.5 376.222L415.5 380.148L416 380.148ZM416 372.296L416.5 372.296L416.5 368.37L416 368.37L415.5 368.37L415.5 372.296L416 372.296ZM416 364.444L416.5 364.444L416.5 360.519L416 360.519L415.5 360.519L415.5 364.444L416 364.444ZM416 356.593L416.5 356.593L416.5 352.667L416 352.667L415.5 352.667L415.5 356.593L416 356.593ZM416 348.741L416.5 348.741L416.5 344.815L416 344.815L415.5 344.815L415.5 348.741L416 348.741ZM416 340.889L416.5 340.889L416.5 336.963L416 336.963L415.5 336.963L415.5 340.889L416 340.889ZM416 333.037L416.5 333.037L416.5 329.111L416 329.111L415.5 329.111L415.5 333.037L416 333.037ZM416 325.185L416.5 325.185L416.5 321.259L416 321.259L415.5 321.259L415.5 325.185L416 325.185ZM416 317.333L416.5 317.333L416.5 313.407L416 313.407L415.5 313.407L415.5 317.333L416 317.333ZM416 309.481L416.5 309.481L416.5 305.556L416 305.556L415.5 305.556L415.5 309.481L416 309.481ZM416 301.63L416.5 301.63L416.5 297.704L416 297.704L415.5 297.704L415.5 301.63L416 301.63ZM416 293.778L416.5 293.778L416.5 289.852L416 289.852L415.5 289.852L415.5 293.778L416 293.778ZM416 285.926L416.5 285.926L416.5 282L416 282L415.5 282L415.5 285.926L416 285.926ZM416 278.074L416.5 278.074L416.5 274.148L416 274.148L415.5 274.148L415.5 278.074L416 278.074ZM416 270.222L416.5 270.222L416.5 266.296L416 266.296L415.5 266.296L415.5 270.222L416 270.222ZM416 262.37L416.5 262.37L416.5 258.444L416 258.444L415.5 258.444L415.5 262.37L416 262.37ZM416 254.518L416.5 254.518L416.5 250.592L416 250.592L415.5 250.592L415.5 254.518L416 254.518ZM416 246.667L416.5 246.667L416.5 242.741L416 242.741L415.5 242.741L415.5 246.667L416 246.667ZM416 238.815L416.5 238.815L416.5 234.889L416 234.889L415.5 234.889L415.5 238.815L416 238.815ZM416 230.963L416.5 230.963L416.5 229L416 229L415.5 229L415.5 230.963L416 230.963Z" fill="white"/>
<path d="M432 292C432 287.582 435.582 284 440 284H684C688.418 284 692 287.582 692 292V315C692 319.418 688.418 323 684 323H440C435.582 323 432 319.418 432 315V292Z" fill="#E66A32" fill-opacity="0.25"/>
<path d="M518.831 309.176C518.021 309.176 517.311 309.005 516.703 308.664C516.106 308.323 515.642 307.843 515.311 307.224C514.981 306.595 514.815 305.859 514.815 305.016V297.8H516.943V305.016C516.943 305.699 517.114 306.243 517.455 306.648C517.797 307.053 518.255 307.256 518.831 307.256C519.407 307.256 519.866 307.053 520.207 306.648C520.549 306.243 520.719 305.699 520.719 305.016V297.8H522.847V305.016C522.847 305.859 522.682 306.595 522.351 307.224C522.021 307.843 521.557 308.323 520.959 308.664C520.362 309.005 519.653 309.176 518.831 309.176ZM528.361 309.16C527.604 309.16 526.9 309.064 526.249 308.872C525.598 308.669 525.044 308.376 524.585 307.992L525.561 306.68C526.126 307.032 526.622 307.277 527.049 307.416C527.486 307.555 527.924 307.624 528.361 307.624C528.926 307.624 529.369 307.539 529.689 307.368C530.02 307.197 530.185 306.968 530.185 306.68C530.185 306.445 530.089 306.269 529.897 306.152C529.705 306.024 529.454 305.928 529.145 305.864C528.836 305.8 528.494 305.741 528.121 305.688C527.748 305.635 527.369 305.565 526.985 305.48C526.612 305.384 526.27 305.256 525.961 305.096C525.652 304.925 525.401 304.701 525.209 304.424C525.017 304.136 524.921 303.763 524.921 303.304C524.921 302.771 525.06 302.317 525.337 301.944C525.625 301.571 526.025 301.283 526.537 301.08C527.06 300.877 527.657 300.776 528.329 300.776C528.948 300.776 529.556 300.861 530.153 301.032C530.761 301.192 531.332 301.459 531.865 301.832L530.889 303.112C530.462 302.824 530.03 302.616 529.593 302.488C529.156 302.36 528.718 302.296 528.281 302.296C527.79 302.296 527.406 302.376 527.129 302.536C526.852 302.685 526.713 302.888 526.713 303.144C526.713 303.368 526.804 303.539 526.985 303.656C527.177 303.773 527.433 303.864 527.753 303.928C528.073 303.992 528.42 304.051 528.793 304.104C529.177 304.157 529.556 304.232 529.929 304.328C530.313 304.413 530.665 304.541 530.985 304.712C531.305 304.872 531.561 305.096 531.753 305.384C531.945 305.672 532.041 306.051 532.041 306.52C532.041 307.043 531.876 307.501 531.545 307.896C531.225 308.291 530.788 308.6 530.233 308.824C529.678 309.048 529.054 309.16 528.361 309.16ZM538.243 309.16C537.443 309.16 536.723 308.979 536.083 308.616C535.443 308.243 534.936 307.741 534.563 307.112C534.189 306.472 534.003 305.757 534.003 304.968C534.003 304.179 534.179 303.469 534.531 302.84C534.893 302.211 535.379 301.715 535.987 301.352C536.595 300.979 537.283 300.792 538.051 300.792C538.84 300.792 539.539 300.973 540.147 301.336C540.765 301.699 541.245 302.195 541.587 302.824C541.939 303.453 542.115 304.173 542.115 304.984V305.464H535.971C536.045 305.869 536.189 306.227 536.403 306.536C536.616 306.845 536.888 307.085 537.219 307.256C537.56 307.427 537.933 307.512 538.339 307.512C538.744 307.512 539.117 307.437 539.459 307.288C539.8 307.139 540.088 306.925 540.323 306.648L541.635 307.816C541.155 308.285 540.637 308.627 540.083 308.84C539.528 309.053 538.915 309.16 538.243 309.16ZM536.003 304.248H540.211C540.147 303.864 540.013 303.539 539.811 303.272C539.619 302.995 539.373 302.781 539.075 302.632C538.787 302.483 538.456 302.408 538.083 302.408C537.741 302.408 537.421 302.483 537.123 302.632C536.835 302.781 536.595 302.995 536.403 303.272C536.211 303.539 536.077 303.864 536.003 304.248ZM543.965 309V307.416H545.901V302.504H543.965V300.92H547.917V302.872C548.194 302.179 548.562 301.661 549.021 301.32C549.479 300.968 550.002 300.792 550.589 300.792C550.834 300.792 551.037 300.813 551.197 300.856C551.367 300.888 551.565 300.947 551.789 301.032V302.856C551.565 302.76 551.319 302.691 551.053 302.648C550.786 302.595 550.525 302.568 550.269 302.568C549.767 302.568 549.309 302.685 548.893 302.92C548.477 303.155 548.151 303.491 547.917 303.928V307.416H549.965V309H543.965ZM562.944 309V307.192H565.744V299.608H562.944V297.8H570.656V299.608H567.872V307.192H570.656V309H562.944ZM572.794 309V300.92H574.81V302.104C575.428 301.229 576.25 300.792 577.274 300.792C577.818 300.792 578.298 300.915 578.714 301.16C579.13 301.395 579.455 301.725 579.69 302.152C579.924 302.579 580.042 303.075 580.042 303.64V309H578.042V304.216C578.042 303.661 577.887 303.224 577.578 302.904C577.279 302.573 576.874 302.408 576.362 302.408C576.052 302.408 575.764 302.472 575.498 302.6C575.242 302.728 575.012 302.92 574.81 303.176V309H572.794ZM582.34 312.344V300.92H584.276V301.864C584.564 301.523 584.894 301.261 585.268 301.08C585.641 300.899 586.052 300.808 586.5 300.808C587.172 300.808 587.78 300.995 588.324 301.368C588.878 301.731 589.316 302.227 589.635 302.856C589.966 303.475 590.132 304.179 590.132 304.968C590.132 305.747 589.966 306.451 589.635 307.08C589.316 307.709 588.878 308.211 588.324 308.584C587.769 308.947 587.15 309.128 586.468 309.128C586.052 309.128 585.662 309.048 585.299 308.888C584.937 308.717 584.617 308.488 584.34 308.2V312.344H582.34ZM586.02 307.496C586.446 307.496 586.82 307.389 587.14 307.176C587.46 306.963 587.71 306.664 587.892 306.28C588.073 305.896 588.164 305.459 588.164 304.968C588.164 304.467 588.073 304.029 587.892 303.656C587.71 303.272 587.46 302.973 587.14 302.76C586.82 302.547 586.446 302.44 586.02 302.44C585.689 302.44 585.38 302.504 585.092 302.632C584.804 302.76 584.553 302.941 584.34 303.176V306.744C584.553 306.979 584.804 307.165 585.092 307.304C585.38 307.432 585.689 307.496 586.02 307.496ZM594.701 309.128C594.157 309.128 593.677 309.011 593.261 308.776C592.845 308.531 592.52 308.195 592.285 307.768C592.051 307.331 591.933 306.835 591.933 306.28V300.92H593.949V305.704C593.949 306.248 594.099 306.691 594.397 307.032C594.696 307.363 595.101 307.528 595.613 307.528C595.933 307.528 596.221 307.464 596.477 307.336C596.733 307.197 596.963 307 597.165 306.744V300.92H599.181V309H597.165V307.816C596.547 308.691 595.725 309.128 594.701 309.128ZM606.631 309.16C605.586 309.16 604.796 308.931 604.263 308.472C603.73 308.013 603.463 307.336 603.463 306.44V302.504H600.935V300.92H603.463V298.696L605.463 298.28V300.92H608.791V302.504H605.463V306.056C605.463 306.557 605.58 306.915 605.815 307.128C606.05 307.341 606.423 307.448 606.935 307.448C607.202 307.448 607.479 307.427 607.767 307.384C608.066 307.331 608.412 307.245 608.807 307.128V308.792C608.476 308.899 608.114 308.984 607.719 309.048C607.335 309.123 606.972 309.16 606.631 309.16Z" fill="white"/>
<path d="M432 406C432 401.582 435.582 398 440 398H684C688.418 398 692 401.582 692 406V429C692 433.418 688.418 437 684 437H440C435.582 437 432 433.418 432 429V406Z" fill="#E66A32" fill-opacity="0.25"/>
<path d="M518.831 423.176C518.021 423.176 517.311 423.005 516.703 422.664C516.106 422.323 515.642 421.843 515.311 421.224C514.981 420.595 514.815 419.859 514.815 419.016V411.8H516.943V419.016C516.943 419.699 517.114 420.243 517.455 420.648C517.797 421.053 518.255 421.256 518.831 421.256C519.407 421.256 519.866 421.053 520.207 420.648C520.549 420.243 520.719 419.699 520.719 419.016V411.8H522.847V419.016C522.847 419.859 522.682 420.595 522.351 421.224C522.021 421.843 521.557 422.323 520.959 422.664C520.362 423.005 519.653 423.176 518.831 423.176ZM528.361 423.16C527.604 423.16 526.9 423.064 526.249 422.872C525.598 422.669 525.044 422.376 524.585 421.992L525.561 420.68C526.126 421.032 526.622 421.277 527.049 421.416C527.486 421.555 527.924 421.624 528.361 421.624C528.926 421.624 529.369 421.539 529.689 421.368C530.02 421.197 530.185 420.968 530.185 420.68C530.185 420.445 530.089 420.269 529.897 420.152C529.705 420.024 529.454 419.928 529.145 419.864C528.836 419.8 528.494 419.741 528.121 419.688C527.748 419.635 527.369 419.565 526.985 419.48C526.612 419.384 526.27 419.256 525.961 419.096C525.652 418.925 525.401 418.701 525.209 418.424C525.017 418.136 524.921 417.763 524.921 417.304C524.921 416.771 525.06 416.317 525.337 415.944C525.625 415.571 526.025 415.283 526.537 415.08C527.06 414.877 527.657 414.776 528.329 414.776C528.948 414.776 529.556 414.861 530.153 415.032C530.761 415.192 531.332 415.459 531.865 415.832L530.889 417.112C530.462 416.824 530.03 416.616 529.593 416.488C529.156 416.36 528.718 416.296 528.281 416.296C527.79 416.296 527.406 416.376 527.129 416.536C526.852 416.685 526.713 416.888 526.713 417.144C526.713 417.368 526.804 417.539 526.985 417.656C527.177 417.773 527.433 417.864 527.753 417.928C528.073 417.992 528.42 418.051 528.793 418.104C529.177 418.157 529.556 418.232 529.929 418.328C530.313 418.413 530.665 418.541 530.985 418.712C531.305 418.872 531.561 419.096 531.753 419.384C531.945 419.672 532.041 420.051 532.041 420.52C532.041 421.043 531.876 421.501 531.545 421.896C531.225 422.291 530.788 422.6 530.233 422.824C529.678 423.048 529.054 423.16 528.361 423.16ZM538.243 423.16C537.443 423.16 536.723 422.979 536.083 422.616C535.443 422.243 534.936 421.741 534.563 421.112C534.189 420.472 534.003 419.757 534.003 418.968C534.003 418.179 534.179 417.469 534.531 416.84C534.893 416.211 535.379 415.715 535.987 415.352C536.595 414.979 537.283 414.792 538.051 414.792C538.84 414.792 539.539 414.973 540.147 415.336C540.765 415.699 541.245 416.195 541.587 416.824C541.939 417.453 542.115 418.173 542.115 418.984V419.464H535.971C536.045 419.869 536.189 420.227 536.403 420.536C536.616 420.845 536.888 421.085 537.219 421.256C537.56 421.427 537.933 421.512 538.339 421.512C538.744 421.512 539.117 421.437 539.459 421.288C539.8 421.139 540.088 420.925 540.323 420.648L541.635 421.816C541.155 422.285 540.637 422.627 540.083 422.84C539.528 423.053 538.915 423.16 538.243 423.16ZM536.003 418.248H540.211C540.147 417.864 540.013 417.539 539.811 417.272C539.619 416.995 539.373 416.781 539.075 416.632C538.787 416.483 538.456 416.408 538.083 416.408C537.741 416.408 537.421 416.483 537.123 416.632C536.835 416.781 536.595 416.995 536.403 417.272C536.211 417.539 536.077 417.864 536.003 418.248ZM543.965 423V421.416H545.901V416.504H543.965V414.92H547.917V416.872C548.194 416.179 548.562 415.661 549.021 415.32C549.479 414.968 550.002 414.792 550.589 414.792C550.834 414.792 551.037 414.813 551.197 414.856C551.367 414.888 551.565 414.947 551.789 415.032V416.856C551.565 416.76 551.319 416.691 551.053 416.648C550.786 416.595 550.525 416.568 550.269 416.568C549.767 416.568 549.309 416.685 548.893 416.92C548.477 417.155 548.151 417.491 547.917 417.928V421.416H549.965V423H543.965ZM562.944 423V421.192H565.744V413.608H562.944V411.8H570.656V413.608H567.872V421.192H570.656V423H562.944ZM572.794 423V414.92H574.81V416.104C575.428 415.229 576.25 414.792 577.274 414.792C577.818 414.792 578.298 414.915 578.714 415.16C579.13 415.395 579.455 415.725 579.69 416.152C579.924 416.579 580.042 417.075 580.042 417.64V423H578.042V418.216C578.042 417.661 577.887 417.224 577.578 416.904C577.279 416.573 576.874 416.408 576.362 416.408C576.052 416.408 575.764 416.472 575.498 416.6C575.242 416.728 575.012 416.92 574.81 417.176V423H572.794ZM582.34 426.344V414.92H584.276V415.864C584.564 415.523 584.894 415.261 585.268 415.08C585.641 414.899 586.052 414.808 586.5 414.808C587.172 414.808 587.78 414.995 588.324 415.368C588.878 415.731 589.316 416.227 589.635 416.856C589.966 417.475 590.132 418.179 590.132 418.968C590.132 419.747 589.966 420.451 589.635 421.08C589.316 421.709 588.878 422.211 588.324 422.584C587.769 422.947 587.15 423.128 586.468 423.128C586.052 423.128 585.662 423.048 585.299 422.888C584.937 422.717 584.617 422.488 584.34 422.2V426.344H582.34ZM586.02 421.496C586.446 421.496 586.82 421.389 587.14 421.176C587.46 420.963 587.71 420.664 587.892 420.28C588.073 419.896 588.164 419.459 588.164 418.968C588.164 418.467 588.073 418.029 587.892 417.656C587.71 417.272 587.46 416.973 587.14 416.76C586.82 416.547 586.446 416.44 586.02 416.44C585.689 416.44 585.38 416.504 585.092 416.632C584.804 416.76 584.553 416.941 584.34 417.176V420.744C584.553 420.979 584.804 421.165 585.092 421.304C585.38 421.432 585.689 421.496 586.02 421.496ZM594.701 423.128C594.157 423.128 593.677 423.011 593.261 422.776C592.845 422.531 592.52 422.195 592.285 421.768C592.051 421.331 591.933 420.835 591.933 420.28V414.92H593.949V419.704C593.949 420.248 594.099 420.691 594.397 421.032C594.696 421.363 595.101 421.528 595.613 421.528C595.933 421.528 596.221 421.464 596.477 421.336C596.733 421.197 596.963 421 597.165 420.744V414.92H599.181V423H597.165V421.816C596.547 422.691 595.725 423.128 594.701 423.128ZM606.631 423.16C605.586 423.16 604.796 422.931 604.263 422.472C603.73 422.013 603.463 421.336 603.463 420.44V416.504H600.935V414.92H603.463V412.696L605.463 412.28V414.92H608.791V416.504H605.463V420.056C605.463 420.557 605.58 420.915 605.815 421.128C606.05 421.341 606.423 421.448 606.935 421.448C607.202 421.448 607.479 421.427 607.767 421.384C608.066 421.331 608.412 421.245 608.807 421.128V422.792C608.476 422.899 608.114 422.984 607.719 423.048C607.335 423.123 606.972 423.16 606.631 423.16Z" fill="white"/>
<path d="M432 355C432 350.582 435.582 347 440 347H684C688.418 347 692 350.582 692 355V378C692 382.418 688.418 386 684 386H440C435.582 386 432 382.418 432 378V355Z" fill="white" fill-opacity="0.2"/>
<path d="M475.768 372L479.208 360.8H481.704L485.144 372H482.984L482.248 369.424H478.6L477.848 372H475.768ZM479.048 367.776H481.784L480.424 363.088L479.048 367.776ZM489.986 372.16C489.229 372.16 488.525 372.064 487.874 371.872C487.223 371.669 486.669 371.376 486.21 370.992L487.186 369.68C487.751 370.032 488.247 370.277 488.674 370.416C489.111 370.555 489.549 370.624 489.986 370.624C490.551 370.624 490.994 370.539 491.314 370.368C491.645 370.197 491.81 369.968 491.81 369.68C491.81 369.445 491.714 369.269 491.522 369.152C491.33 369.024 491.079 368.928 490.77 368.864C490.461 368.8 490.119 368.741 489.746 368.688C489.373 368.635 488.994 368.565 488.61 368.48C488.237 368.384 487.895 368.256 487.586 368.096C487.277 367.925 487.026 367.701 486.834 367.424C486.642 367.136 486.546 366.763 486.546 366.304C486.546 365.771 486.685 365.317 486.962 364.944C487.25 364.571 487.65 364.283 488.162 364.08C488.685 363.877 489.282 363.776 489.954 363.776C490.573 363.776 491.181 363.861 491.778 364.032C492.386 364.192 492.957 364.459 493.49 364.832L492.514 366.112C492.087 365.824 491.655 365.616 491.218 365.488C490.781 365.36 490.343 365.296 489.906 365.296C489.415 365.296 489.031 365.376 488.754 365.536C488.477 365.685 488.338 365.888 488.338 366.144C488.338 366.368 488.429 366.539 488.61 366.656C488.802 366.773 489.058 366.864 489.378 366.928C489.698 366.992 490.045 367.051 490.418 367.104C490.802 367.157 491.181 367.232 491.554 367.328C491.938 367.413 492.29 367.541 492.61 367.712C492.93 367.872 493.186 368.096 493.378 368.384C493.57 368.672 493.666 369.051 493.666 369.52C493.666 370.043 493.501 370.501 493.17 370.896C492.85 371.291 492.413 371.6 491.858 371.824C491.303 372.048 490.679 372.16 489.986 372.16ZM499.58 372.16C498.822 372.16 498.118 372.064 497.468 371.872C496.817 371.669 496.262 371.376 495.804 370.992L496.78 369.68C497.345 370.032 497.841 370.277 498.268 370.416C498.705 370.555 499.142 370.624 499.58 370.624C500.145 370.624 500.588 370.539 500.908 370.368C501.238 370.197 501.404 369.968 501.404 369.68C501.404 369.445 501.308 369.269 501.116 369.152C500.924 369.024 500.673 368.928 500.364 368.864C500.054 368.8 499.713 368.741 499.34 368.688C498.966 368.635 498.588 368.565 498.204 368.48C497.83 368.384 497.489 368.256 497.18 368.096C496.87 367.925 496.62 367.701 496.428 367.424C496.236 367.136 496.14 366.763 496.14 366.304C496.14 365.771 496.278 365.317 496.556 364.944C496.844 364.571 497.244 364.283 497.756 364.08C498.278 363.877 498.876 363.776 499.548 363.776C500.166 363.776 500.774 363.861 501.372 364.032C501.98 364.192 502.55 364.459 503.084 364.832L502.108 366.112C501.681 365.824 501.249 365.616 500.812 365.488C500.374 365.36 499.937 365.296 499.5 365.296C499.009 365.296 498.625 365.376 498.348 365.536C498.07 365.685 497.932 365.888 497.932 366.144C497.932 366.368 498.022 366.539 498.204 366.656C498.396 366.773 498.652 366.864 498.972 366.928C499.292 366.992 499.638 367.051 500.012 367.104C500.396 367.157 500.774 367.232 501.148 367.328C501.532 367.413 501.884 367.541 502.204 367.712C502.524 367.872 502.78 368.096 502.972 368.384C503.164 368.672 503.26 369.051 503.26 369.52C503.26 370.043 503.094 370.501 502.764 370.896C502.444 371.291 502.006 371.6 501.452 371.824C500.897 372.048 500.273 372.16 499.58 372.16ZM509.206 362.432C508.822 362.432 508.496 362.299 508.23 362.032C507.963 361.755 507.83 361.429 507.83 361.056C507.83 360.683 507.963 360.363 508.23 360.096C508.496 359.819 508.822 359.68 509.206 359.68C509.579 359.68 509.899 359.819 510.166 360.096C510.443 360.363 510.582 360.683 510.582 361.056C510.582 361.429 510.443 361.755 510.166 362.032C509.899 362.299 509.579 362.432 509.206 362.432ZM511.286 372.16C510.272 372.16 509.504 371.92 508.982 371.44C508.459 370.96 508.198 370.251 508.198 369.312V365.504H505.318V363.92H510.198V369.104C510.198 369.573 510.31 369.915 510.534 370.128C510.768 370.341 511.126 370.448 511.606 370.448C511.862 370.448 512.112 370.427 512.358 370.384C512.603 370.331 512.875 370.24 513.174 370.112V371.792C512.95 371.888 512.662 371.973 512.31 372.048C511.958 372.123 511.616 372.16 511.286 372.16ZM518.767 372.16C518.01 372.16 517.306 372.064 516.655 371.872C516.005 371.669 515.45 371.376 514.991 370.992L515.967 369.68C516.533 370.032 517.029 370.277 517.455 370.416C517.893 370.555 518.33 370.624 518.767 370.624C519.333 370.624 519.775 370.539 520.095 370.368C520.426 370.197 520.591 369.968 520.591 369.68C520.591 369.445 520.495 369.269 520.303 369.152C520.111 369.024 519.861 368.928 519.551 368.864C519.242 368.8 518.901 368.741 518.527 368.688C518.154 368.635 517.775 368.565 517.391 368.48C517.018 368.384 516.677 368.256 516.367 368.096C516.058 367.925 515.807 367.701 515.615 367.424C515.423 367.136 515.327 366.763 515.327 366.304C515.327 365.771 515.466 365.317 515.743 364.944C516.031 364.571 516.431 364.283 516.943 364.08C517.466 363.877 518.063 363.776 518.735 363.776C519.354 363.776 519.962 363.861 520.559 364.032C521.167 364.192 521.738 364.459 522.271 364.832L521.295 366.112C520.869 365.824 520.437 365.616 519.999 365.488C519.562 365.36 519.125 365.296 518.687 365.296C518.197 365.296 517.813 365.376 517.535 365.536C517.258 365.685 517.119 365.888 517.119 366.144C517.119 366.368 517.21 366.539 517.391 366.656C517.583 366.773 517.839 366.864 518.159 366.928C518.479 366.992 518.826 367.051 519.199 367.104C519.583 367.157 519.962 367.232 520.335 367.328C520.719 367.413 521.071 367.541 521.391 367.712C521.711 367.872 521.967 368.096 522.159 368.384C522.351 368.672 522.447 369.051 522.447 369.52C522.447 370.043 522.282 370.501 521.951 370.896C521.631 371.291 521.194 371.6 520.639 371.824C520.085 372.048 519.461 372.16 518.767 372.16ZM529.881 372.16C528.836 372.16 528.046 371.931 527.513 371.472C526.98 371.013 526.713 370.336 526.713 369.44V365.504H524.185V363.92H526.713V361.696L528.713 361.28V363.92H532.041V365.504H528.713V369.056C528.713 369.557 528.83 369.915 529.065 370.128C529.3 370.341 529.673 370.448 530.185 370.448C530.452 370.448 530.729 370.427 531.017 370.384C531.316 370.331 531.662 370.245 532.057 370.128V371.792C531.726 371.899 531.364 371.984 530.969 372.048C530.585 372.123 530.222 372.16 529.881 372.16ZM537.027 372.144C536.461 372.144 535.96 372.043 535.523 371.84C535.085 371.627 534.744 371.339 534.499 370.976C534.264 370.603 534.147 370.176 534.147 369.696C534.147 369.195 534.275 368.768 534.531 368.416C534.787 368.064 535.149 367.792 535.619 367.6C536.088 367.408 536.643 367.312 537.283 367.312C537.645 367.312 538.003 367.349 538.355 367.424C538.707 367.499 539.064 367.627 539.427 367.808V367.024C539.427 366.501 539.272 366.112 538.963 365.856C538.664 365.589 538.211 365.456 537.603 365.456C537.251 365.456 536.883 365.509 536.499 365.616C536.115 365.723 535.683 365.893 535.203 366.128L534.451 364.672C535.091 364.363 535.699 364.139 536.275 364C536.861 363.861 537.437 363.792 538.003 363.792C539.08 363.792 539.917 364.059 540.515 364.592C541.112 365.115 541.411 365.861 541.411 366.832V372H539.427V371.168C539.064 371.509 538.685 371.76 538.291 371.92C537.907 372.069 537.485 372.144 537.027 372.144ZM536.019 369.648C536.019 369.989 536.157 370.261 536.435 370.464C536.723 370.667 537.107 370.768 537.587 370.768C537.939 370.768 538.264 370.715 538.563 370.608C538.872 370.501 539.16 370.336 539.427 370.112V368.928C539.149 368.8 538.861 368.709 538.563 368.656C538.275 368.603 537.971 368.576 537.651 368.576C537.149 368.576 536.749 368.672 536.451 368.864C536.163 369.056 536.019 369.317 536.019 369.648ZM544.013 372V363.92H546.029V365.104C546.647 364.229 547.469 363.792 548.493 363.792C549.037 363.792 549.517 363.915 549.933 364.16C550.349 364.395 550.674 364.725 550.909 365.152C551.143 365.579 551.26 366.075 551.26 366.64V372H549.261V367.216C549.261 366.661 549.106 366.224 548.797 365.904C548.498 365.573 548.093 365.408 547.581 365.408C547.271 365.408 546.983 365.472 546.717 365.6C546.461 365.728 546.231 365.92 546.029 366.176V372H544.013ZM558.662 372.16C557.617 372.16 556.828 371.931 556.294 371.472C555.761 371.013 555.494 370.336 555.494 369.44V365.504H552.966V363.92H555.494V361.696L557.494 361.28V363.92H560.822V365.504H557.494V369.056C557.494 369.557 557.612 369.915 557.846 370.128C558.081 370.341 558.454 370.448 558.966 370.448C559.233 370.448 559.51 370.427 559.798 370.384C560.097 370.331 560.444 370.245 560.838 370.128V371.792C560.508 371.899 560.145 371.984 559.75 372.048C559.366 372.123 559.004 372.16 558.662 372.16ZM572.794 372V360.8H576.73C577.476 360.8 578.132 360.944 578.698 361.232C579.274 361.52 579.722 361.92 580.042 362.432C580.362 362.944 580.522 363.541 580.522 364.224C580.522 364.949 580.33 365.579 579.946 366.112C579.572 366.645 579.066 367.04 578.426 367.296L580.842 372H578.57L576.41 367.632H574.938V372H572.794ZM574.938 365.92H576.538C577.092 365.92 577.535 365.771 577.866 365.472C578.196 365.163 578.362 364.757 578.362 364.256C578.362 363.744 578.196 363.339 577.866 363.04C577.535 362.741 577.092 362.592 576.538 362.592H574.938V365.92ZM586.212 372.16C585.412 372.16 584.692 371.979 584.052 371.616C583.412 371.243 582.905 370.741 582.532 370.112C582.158 369.472 581.972 368.757 581.972 367.968C581.972 367.179 582.148 366.469 582.5 365.84C582.862 365.211 583.348 364.715 583.956 364.352C584.564 363.979 585.252 363.792 586.02 363.792C586.809 363.792 587.508 363.973 588.116 364.336C588.734 364.699 589.214 365.195 589.556 365.824C589.908 366.453 590.084 367.173 590.084 367.984V368.464H583.94C584.014 368.869 584.158 369.227 584.372 369.536C584.585 369.845 584.857 370.085 585.188 370.256C585.529 370.427 585.902 370.512 586.308 370.512C586.713 370.512 587.086 370.437 587.428 370.288C587.769 370.139 588.057 369.925 588.292 369.648L589.604 370.816C589.124 371.285 588.606 371.627 588.052 371.84C587.497 372.053 586.884 372.16 586.212 372.16ZM583.972 367.248H588.18C588.116 366.864 587.982 366.539 587.78 366.272C587.588 365.995 587.342 365.781 587.044 365.632C586.756 365.483 586.425 365.408 586.052 365.408C585.71 365.408 585.39 365.483 585.092 365.632C584.804 365.781 584.564 365.995 584.372 366.272C584.18 366.539 584.046 366.864 583.972 367.248ZM595.517 372.16C594.76 372.16 594.056 372.064 593.405 371.872C592.755 371.669 592.2 371.376 591.741 370.992L592.717 369.68C593.283 370.032 593.779 370.277 594.205 370.416C594.643 370.555 595.08 370.624 595.517 370.624C596.083 370.624 596.525 370.539 596.845 370.368C597.176 370.197 597.341 369.968 597.341 369.68C597.341 369.445 597.245 369.269 597.053 369.152C596.861 369.024 596.611 368.928 596.301 368.864C595.992 368.8 595.651 368.741 595.277 368.688C594.904 368.635 594.525 368.565 594.141 368.48C593.768 368.384 593.427 368.256 593.117 368.096C592.808 367.925 592.557 367.701 592.365 367.424C592.173 367.136 592.077 366.763 592.077 366.304C592.077 365.771 592.216 365.317 592.493 364.944C592.781 364.571 593.181 364.283 593.693 364.08C594.216 363.877 594.813 363.776 595.485 363.776C596.104 363.776 596.712 363.861 597.309 364.032C597.917 364.192 598.488 364.459 599.021 364.832L598.045 366.112C597.619 365.824 597.187 365.616 596.749 365.488C596.312 365.36 595.875 365.296 595.437 365.296C594.947 365.296 594.563 365.376 594.285 365.536C594.008 365.685 593.869 365.888 593.869 366.144C593.869 366.368 593.96 366.539 594.141 366.656C594.333 366.773 594.589 366.864 594.909 366.928C595.229 366.992 595.576 367.051 595.949 367.104C596.333 367.157 596.712 367.232 597.085 367.328C597.469 367.413 597.821 367.541 598.141 367.712C598.461 367.872 598.717 368.096 598.909 368.384C599.101 368.672 599.197 369.051 599.197 369.52C599.197 370.043 599.032 370.501 598.701 370.896C598.381 371.291 597.944 371.6 597.389 371.824C596.835 372.048 596.211 372.16 595.517 372.16ZM601.527 375.344V363.92H603.463V364.864C603.751 364.523 604.082 364.261 604.455 364.08C604.828 363.899 605.239 363.808 605.687 363.808C606.359 363.808 606.967 363.995 607.511 364.368C608.066 364.731 608.503 365.227 608.823 365.856C609.154 366.475 609.319 367.179 609.319 367.968C609.319 368.747 609.154 369.451 608.823 370.08C608.503 370.709 608.066 371.211 607.511 371.584C606.956 371.947 606.338 372.128 605.655 372.128C605.239 372.128 604.85 372.048 604.487 371.888C604.124 371.717 603.804 371.488 603.527 371.2V375.344H601.527ZM605.207 370.496C605.634 370.496 606.007 370.389 606.327 370.176C606.647 369.963 606.898 369.664 607.079 369.28C607.26 368.896 607.351 368.459 607.351 367.968C607.351 367.467 607.26 367.029 607.079 366.656C606.898 366.272 606.647 365.973 606.327 365.76C606.007 365.547 605.634 365.44 605.207 365.44C604.876 365.44 604.567 365.504 604.279 365.632C603.991 365.76 603.74 365.941 603.527 366.176V369.744C603.74 369.979 603.991 370.165 604.279 370.304C604.567 370.432 604.876 370.496 605.207 370.496ZM614.769 372.16C614.001 372.16 613.307 371.979 612.689 371.616C612.07 371.243 611.579 370.741 611.217 370.112C610.854 369.472 610.673 368.757 610.673 367.968C610.673 367.189 610.854 366.485 611.217 365.856C611.579 365.216 612.07 364.715 612.689 364.352C613.307 363.979 614.001 363.792 614.769 363.792C615.547 363.792 616.241 363.979 616.849 364.352C617.467 364.715 617.958 365.216 618.321 365.856C618.683 366.485 618.865 367.189 618.865 367.968C618.865 368.757 618.683 369.472 618.321 370.112C617.958 370.741 617.467 371.243 616.849 371.616C616.241 371.979 615.547 372.16 614.769 372.16ZM614.769 370.448C615.185 370.448 615.553 370.341 615.873 370.128C616.193 369.915 616.443 369.621 616.625 369.248C616.806 368.875 616.897 368.453 616.897 367.984C616.897 367.504 616.806 367.083 616.625 366.72C616.443 366.347 616.193 366.053 615.873 365.84C615.553 365.627 615.185 365.52 614.769 365.52C614.353 365.52 613.985 365.627 613.665 365.84C613.345 366.053 613.094 366.347 612.913 366.72C612.731 367.083 612.641 367.504 612.641 367.984C612.641 368.453 612.731 368.875 612.913 369.248C613.094 369.621 613.345 369.915 613.665 370.128C613.985 370.341 614.353 370.448 614.769 370.448ZM620.763 372V363.92H622.779V365.104C623.397 364.229 624.219 363.792 625.243 363.792C625.787 363.792 626.267 363.915 626.683 364.16C627.099 364.395 627.424 364.725 627.659 365.152C627.893 365.579 628.01 366.075 628.01 366.64V372H626.011V367.216C626.011 366.661 625.856 366.224 625.547 365.904C625.248 365.573 624.843 365.408 624.331 365.408C624.021 365.408 623.733 365.472 623.467 365.6C623.211 365.728 622.981 365.92 622.779 366.176V372H620.763ZM633.892 372.16C633.135 372.16 632.431 372.064 631.78 371.872C631.13 371.669 630.575 371.376 630.116 370.992L631.092 369.68C631.658 370.032 632.154 370.277 632.58 370.416C633.018 370.555 633.455 370.624 633.892 370.624C634.458 370.624 634.9 370.539 635.22 370.368C635.551 370.197 635.716 369.968 635.716 369.68C635.716 369.445 635.62 369.269 635.428 369.152C635.236 369.024 634.986 368.928 634.676 368.864C634.367 368.8 634.026 368.741 633.652 368.688C633.279 368.635 632.9 368.565 632.516 368.48C632.143 368.384 631.802 368.256 631.492 368.096C631.183 367.925 630.932 367.701 630.74 367.424C630.548 367.136 630.452 366.763 630.452 366.304C630.452 365.771 630.591 365.317 630.868 364.944C631.156 364.571 631.556 364.283 632.068 364.08C632.591 363.877 633.188 363.776 633.86 363.776C634.479 363.776 635.087 363.861 635.684 364.032C636.292 364.192 636.863 364.459 637.396 364.832L636.42 366.112C635.994 365.824 635.562 365.616 635.124 365.488C634.687 365.36 634.25 365.296 633.812 365.296C633.322 365.296 632.938 365.376 632.66 365.536C632.383 365.685 632.244 365.888 632.244 366.144C632.244 366.368 632.335 366.539 632.516 366.656C632.708 366.773 632.964 366.864 633.284 366.928C633.604 366.992 633.951 367.051 634.324 367.104C634.708 367.157 635.087 367.232 635.46 367.328C635.844 367.413 636.196 367.541 636.516 367.712C636.836 367.872 637.092 368.096 637.284 368.384C637.476 368.672 637.572 369.051 637.572 369.52C637.572 370.043 637.407 370.501 637.076 370.896C636.756 371.291 636.319 371.6 635.764 371.824C635.21 372.048 634.586 372.16 633.892 372.16ZM643.774 372.16C642.974 372.16 642.254 371.979 641.614 371.616C640.974 371.243 640.467 370.741 640.094 370.112C639.721 369.472 639.534 368.757 639.534 367.968C639.534 367.179 639.71 366.469 640.062 365.84C640.425 365.211 640.91 364.715 641.518 364.352C642.126 363.979 642.814 363.792 643.582 363.792C644.371 363.792 645.07 363.973 645.678 364.336C646.297 364.699 646.777 365.195 647.118 365.824C647.47 366.453 647.646 367.173 647.646 367.984V368.464H641.502C641.577 368.869 641.721 369.227 641.934 369.536C642.147 369.845 642.419 370.085 642.75 370.256C643.091 370.427 643.465 370.512 643.87 370.512C644.275 370.512 644.649 370.437 644.99 370.288C645.331 370.139 645.619 369.925 645.854 369.648L647.166 370.816C646.686 371.285 646.169 371.627 645.614 371.84C645.059 372.053 644.446 372.16 643.774 372.16ZM641.534 367.248H645.742C645.678 366.864 645.545 366.539 645.342 366.272C645.15 365.995 644.905 365.781 644.606 365.632C644.318 365.483 643.987 365.408 643.614 365.408C643.273 365.408 642.953 365.483 642.654 365.632C642.366 365.781 642.126 365.995 641.934 366.272C641.742 366.539 641.609 366.864 641.534 367.248Z" fill="white"/>
<path d="M432 469C432 464.582 435.582 461 440 461H684C688.418 461 692 464.582 692 469V492C692 496.418 688.418 500 684 500H440C435.582 500 432 496.418 432 492V469Z" fill="white" fill-opacity="0.2"/>
<path d="M475.768 486L479.208 474.8H481.704L485.144 486H482.984L482.248 483.424H478.6L477.848 486H475.768ZM479.048 481.776H481.784L480.424 477.088L479.048 481.776ZM489.986 486.16C489.229 486.16 488.525 486.064 487.874 485.872C487.223 485.669 486.669 485.376 486.21 484.992L487.186 483.68C487.751 484.032 488.247 484.277 488.674 484.416C489.111 484.555 489.549 484.624 489.986 484.624C490.551 484.624 490.994 484.539 491.314 484.368C491.645 484.197 491.81 483.968 491.81 483.68C491.81 483.445 491.714 483.269 491.522 483.152C491.33 483.024 491.079 482.928 490.77 482.864C490.461 482.8 490.119 482.741 489.746 482.688C489.373 482.635 488.994 482.565 488.61 482.48C488.237 482.384 487.895 482.256 487.586 482.096C487.277 481.925 487.026 481.701 486.834 481.424C486.642 481.136 486.546 480.763 486.546 480.304C486.546 479.771 486.685 479.317 486.962 478.944C487.25 478.571 487.65 478.283 488.162 478.08C488.685 477.877 489.282 477.776 489.954 477.776C490.573 477.776 491.181 477.861 491.778 478.032C492.386 478.192 492.957 478.459 493.49 478.832L492.514 480.112C492.087 479.824 491.655 479.616 491.218 479.488C490.781 479.36 490.343 479.296 489.906 479.296C489.415 479.296 489.031 479.376 488.754 479.536C488.477 479.685 488.338 479.888 488.338 480.144C488.338 480.368 488.429 480.539 488.61 480.656C488.802 480.773 489.058 480.864 489.378 480.928C489.698 480.992 490.045 481.051 490.418 481.104C490.802 481.157 491.181 481.232 491.554 481.328C491.938 481.413 492.29 481.541 492.61 481.712C492.93 481.872 493.186 482.096 493.378 482.384C493.57 482.672 493.666 483.051 493.666 483.52C493.666 484.043 493.501 484.501 493.17 484.896C492.85 485.291 492.413 485.6 491.858 485.824C491.303 486.048 490.679 486.16 489.986 486.16ZM499.58 486.16C498.822 486.16 498.118 486.064 497.468 485.872C496.817 485.669 496.262 485.376 495.804 484.992L496.78 483.68C497.345 484.032 497.841 484.277 498.268 484.416C498.705 484.555 499.142 484.624 499.58 484.624C500.145 484.624 500.588 484.539 500.908 484.368C501.238 484.197 501.404 483.968 501.404 483.68C501.404 483.445 501.308 483.269 501.116 483.152C500.924 483.024 500.673 482.928 500.364 482.864C500.054 482.8 499.713 482.741 499.34 482.688C498.966 482.635 498.588 482.565 498.204 482.48C497.83 482.384 497.489 482.256 497.18 482.096C496.87 481.925 496.62 481.701 496.428 481.424C496.236 481.136 496.14 480.763 496.14 480.304C496.14 479.771 496.278 479.317 496.556 478.944C496.844 478.571 497.244 478.283 497.756 478.08C498.278 477.877 498.876 477.776 499.548 477.776C500.166 477.776 500.774 477.861 501.372 478.032C501.98 478.192 502.55 478.459 503.084 478.832L502.108 480.112C501.681 479.824 501.249 479.616 500.812 479.488C500.374 479.36 499.937 479.296 499.5 479.296C499.009 479.296 498.625 479.376 498.348 479.536C498.07 479.685 497.932 479.888 497.932 480.144C497.932 480.368 498.022 480.539 498.204 480.656C498.396 480.773 498.652 480.864 498.972 480.928C499.292 480.992 499.638 481.051 500.012 481.104C500.396 481.157 500.774 481.232 501.148 481.328C501.532 481.413 501.884 481.541 502.204 481.712C502.524 481.872 502.78 482.096 502.972 482.384C503.164 482.672 503.26 483.051 503.26 483.52C503.26 484.043 503.094 484.501 502.764 484.896C502.444 485.291 502.006 485.6 501.452 485.824C500.897 486.048 500.273 486.16 499.58 486.16ZM509.206 476.432C508.822 476.432 508.496 476.299 508.23 476.032C507.963 475.755 507.83 475.429 507.83 475.056C507.83 474.683 507.963 474.363 508.23 474.096C508.496 473.819 508.822 473.68 509.206 473.68C509.579 473.68 509.899 473.819 510.166 474.096C510.443 474.363 510.582 474.683 510.582 475.056C510.582 475.429 510.443 475.755 510.166 476.032C509.899 476.299 509.579 476.432 509.206 476.432ZM511.286 486.16C510.272 486.16 509.504 485.92 508.982 485.44C508.459 484.96 508.198 484.251 508.198 483.312V479.504H505.318V477.92H510.198V483.104C510.198 483.573 510.31 483.915 510.534 484.128C510.768 484.341 511.126 484.448 511.606 484.448C511.862 484.448 512.112 484.427 512.358 484.384C512.603 484.331 512.875 484.24 513.174 484.112V485.792C512.95 485.888 512.662 485.973 512.31 486.048C511.958 486.123 511.616 486.16 511.286 486.16ZM518.767 486.16C518.01 486.16 517.306 486.064 516.655 485.872C516.005 485.669 515.45 485.376 514.991 484.992L515.967 483.68C516.533 484.032 517.029 484.277 517.455 484.416C517.893 484.555 518.33 484.624 518.767 484.624C519.333 484.624 519.775 484.539 520.095 484.368C520.426 484.197 520.591 483.968 520.591 483.68C520.591 483.445 520.495 483.269 520.303 483.152C520.111 483.024 519.861 482.928 519.551 482.864C519.242 482.8 518.901 482.741 518.527 482.688C518.154 482.635 517.775 482.565 517.391 482.48C517.018 482.384 516.677 482.256 516.367 482.096C516.058 481.925 515.807 481.701 515.615 481.424C515.423 481.136 515.327 480.763 515.327 480.304C515.327 479.771 515.466 479.317 515.743 478.944C516.031 478.571 516.431 478.283 516.943 478.08C517.466 477.877 518.063 477.776 518.735 477.776C519.354 477.776 519.962 477.861 520.559 478.032C521.167 478.192 521.738 478.459 522.271 478.832L521.295 480.112C520.869 479.824 520.437 479.616 519.999 479.488C519.562 479.36 519.125 479.296 518.687 479.296C518.197 479.296 517.813 479.376 517.535 479.536C517.258 479.685 517.119 479.888 517.119 480.144C517.119 480.368 517.21 480.539 517.391 480.656C517.583 480.773 517.839 480.864 518.159 480.928C518.479 480.992 518.826 481.051 519.199 481.104C519.583 481.157 519.962 481.232 520.335 481.328C520.719 481.413 521.071 481.541 521.391 481.712C521.711 481.872 521.967 482.096 522.159 482.384C522.351 482.672 522.447 483.051 522.447 483.52C522.447 484.043 522.282 484.501 521.951 484.896C521.631 485.291 521.194 485.6 520.639 485.824C520.085 486.048 519.461 486.16 518.767 486.16ZM529.881 486.16C528.836 486.16 528.046 485.931 527.513 485.472C526.98 485.013 526.713 484.336 526.713 483.44V479.504H524.185V477.92H526.713V475.696L528.713 475.28V477.92H532.041V479.504H528.713V483.056C528.713 483.557 528.83 483.915 529.065 484.128C529.3 484.341 529.673 484.448 530.185 484.448C530.452 484.448 530.729 484.427 531.017 484.384C531.316 484.331 531.662 484.245 532.057 484.128V485.792C531.726 485.899 531.364 485.984 530.969 486.048C530.585 486.123 530.222 486.16 529.881 486.16ZM537.027 486.144C536.461 486.144 535.96 486.043 535.523 485.84C535.085 485.627 534.744 485.339 534.499 484.976C534.264 484.603 534.147 484.176 534.147 483.696C534.147 483.195 534.275 482.768 534.531 482.416C534.787 482.064 535.149 481.792 535.619 481.6C536.088 481.408 536.643 481.312 537.283 481.312C537.645 481.312 538.003 481.349 538.355 481.424C538.707 481.499 539.064 481.627 539.427 481.808V481.024C539.427 480.501 539.272 480.112 538.963 479.856C538.664 479.589 538.211 479.456 537.603 479.456C537.251 479.456 536.883 479.509 536.499 479.616C536.115 479.723 535.683 479.893 535.203 480.128L534.451 478.672C535.091 478.363 535.699 478.139 536.275 478C536.861 477.861 537.437 477.792 538.003 477.792C539.08 477.792 539.917 478.059 540.515 478.592C541.112 479.115 541.411 479.861 541.411 480.832V486H539.427V485.168C539.064 485.509 538.685 485.76 538.291 485.92C537.907 486.069 537.485 486.144 537.027 486.144ZM536.019 483.648C536.019 483.989 536.157 484.261 536.435 484.464C536.723 484.667 537.107 484.768 537.587 484.768C537.939 484.768 538.264 484.715 538.563 484.608C538.872 484.501 539.16 484.336 539.427 484.112V482.928C539.149 482.8 538.861 482.709 538.563 482.656C538.275 482.603 537.971 482.576 537.651 482.576C537.149 482.576 536.749 482.672 536.451 482.864C536.163 483.056 536.019 483.317 536.019 483.648ZM544.013 486V477.92H546.029V479.104C546.647 478.229 547.469 477.792 548.493 477.792C549.037 477.792 549.517 477.915 549.933 478.16C550.349 478.395 550.674 478.725 550.909 479.152C551.143 479.579 551.26 480.075 551.26 480.64V486H549.261V481.216C549.261 480.661 549.106 480.224 548.797 479.904C548.498 479.573 548.093 479.408 547.581 479.408C547.271 479.408 546.983 479.472 546.717 479.6C546.461 479.728 546.231 479.92 546.029 480.176V486H544.013ZM558.662 486.16C557.617 486.16 556.828 485.931 556.294 485.472C555.761 485.013 555.494 484.336 555.494 483.44V479.504H552.966V477.92H555.494V475.696L557.494 475.28V477.92H560.822V479.504H557.494V483.056C557.494 483.557 557.612 483.915 557.846 484.128C558.081 484.341 558.454 484.448 558.966 484.448C559.233 484.448 559.51 484.427 559.798 484.384C560.097 484.331 560.444 484.245 560.838 484.128V485.792C560.508 485.899 560.145 485.984 559.75 486.048C559.366 486.123 559.004 486.16 558.662 486.16ZM572.794 486V474.8H576.73C577.476 474.8 578.132 474.944 578.698 475.232C579.274 475.52 579.722 475.92 580.042 476.432C580.362 476.944 580.522 477.541 580.522 478.224C580.522 478.949 580.33 479.579 579.946 480.112C579.572 480.645 579.066 481.04 578.426 481.296L580.842 486H578.57L576.41 481.632H574.938V486H572.794ZM574.938 479.92H576.538C577.092 479.92 577.535 479.771 577.866 479.472C578.196 479.163 578.362 478.757 578.362 478.256C578.362 477.744 578.196 477.339 577.866 477.04C577.535 476.741 577.092 476.592 576.538 476.592H574.938V479.92ZM586.212 486.16C585.412 486.16 584.692 485.979 584.052 485.616C583.412 485.243 582.905 484.741 582.532 484.112C582.158 483.472 581.972 482.757 581.972 481.968C581.972 481.179 582.148 480.469 582.5 479.84C582.862 479.211 583.348 478.715 583.956 478.352C584.564 477.979 585.252 477.792 586.02 477.792C586.809 477.792 587.508 477.973 588.116 478.336C588.734 478.699 589.214 479.195 589.556 479.824C589.908 480.453 590.084 481.173 590.084 481.984V482.464H583.94C584.014 482.869 584.158 483.227 584.372 483.536C584.585 483.845 584.857 484.085 585.188 484.256C585.529 484.427 585.902 484.512 586.308 484.512C586.713 484.512 587.086 484.437 587.428 484.288C587.769 484.139 588.057 483.925 588.292 483.648L589.604 484.816C589.124 485.285 588.606 485.627 588.052 485.84C587.497 486.053 586.884 486.16 586.212 486.16ZM583.972 481.248H588.18C588.116 480.864 587.982 480.539 587.78 480.272C587.588 479.995 587.342 479.781 587.044 479.632C586.756 479.483 586.425 479.408 586.052 479.408C585.71 479.408 585.39 479.483 585.092 479.632C584.804 479.781 584.564 479.995 584.372 480.272C584.18 480.539 584.046 480.864 583.972 481.248ZM595.517 486.16C594.76 486.16 594.056 486.064 593.405 485.872C592.755 485.669 592.2 485.376 591.741 484.992L592.717 483.68C593.283 484.032 593.779 484.277 594.205 484.416C594.643 484.555 595.08 484.624 595.517 484.624C596.083 484.624 596.525 484.539 596.845 484.368C597.176 484.197 597.341 483.968 597.341 483.68C597.341 483.445 597.245 483.269 597.053 483.152C596.861 483.024 596.611 482.928 596.301 482.864C595.992 482.8 595.651 482.741 595.277 482.688C594.904 482.635 594.525 482.565 594.141 482.48C593.768 482.384 593.427 482.256 593.117 482.096C592.808 481.925 592.557 481.701 592.365 481.424C592.173 481.136 592.077 480.763 592.077 480.304C592.077 479.771 592.216 479.317 592.493 478.944C592.781 478.571 593.181 478.283 593.693 478.08C594.216 477.877 594.813 477.776 595.485 477.776C596.104 477.776 596.712 477.861 597.309 478.032C597.917 478.192 598.488 478.459 599.021 478.832L598.045 480.112C597.619 479.824 597.187 479.616 596.749 479.488C596.312 479.36 595.875 479.296 595.437 479.296C594.947 479.296 594.563 479.376 594.285 479.536C594.008 479.685 593.869 479.888 593.869 480.144C593.869 480.368 593.96 480.539 594.141 480.656C594.333 480.773 594.589 480.864 594.909 480.928C595.229 480.992 595.576 481.051 595.949 481.104C596.333 481.157 596.712 481.232 597.085 481.328C597.469 481.413 597.821 481.541 598.141 481.712C598.461 481.872 598.717 482.096 598.909 482.384C599.101 482.672 599.197 483.051 599.197 483.52C599.197 484.043 599.032 484.501 598.701 484.896C598.381 485.291 597.944 485.6 597.389 485.824C596.835 486.048 596.211 486.16 595.517 486.16ZM601.527 489.344V477.92H603.463V478.864C603.751 478.523 604.082 478.261 604.455 478.08C604.828 477.899 605.239 477.808 605.687 477.808C606.359 477.808 606.967 477.995 607.511 478.368C608.066 478.731 608.503 479.227 608.823 479.856C609.154 480.475 609.319 481.179 609.319 481.968C609.319 482.747 609.154 483.451 608.823 484.08C608.503 484.709 608.066 485.211 607.511 485.584C606.956 485.947 606.338 486.128 605.655 486.128C605.239 486.128 604.85 486.048 604.487 485.888C604.124 485.717 603.804 485.488 603.527 485.2V489.344H601.527ZM605.207 484.496C605.634 484.496 606.007 484.389 606.327 484.176C606.647 483.963 606.898 483.664 607.079 483.28C607.26 482.896 607.351 482.459 607.351 481.968C607.351 481.467 607.26 481.029 607.079 480.656C606.898 480.272 606.647 479.973 606.327 479.76C606.007 479.547 605.634 479.44 605.207 479.44C604.876 479.44 604.567 479.504 604.279 479.632C603.991 479.76 603.74 479.941 603.527 480.176V483.744C603.74 483.979 603.991 484.165 604.279 484.304C604.567 484.432 604.876 484.496 605.207 484.496ZM614.769 486.16C614.001 486.16 613.307 485.979 612.689 485.616C612.07 485.243 611.579 484.741 611.217 484.112C610.854 483.472 610.673 482.757 610.673 481.968C610.673 481.189 610.854 480.485 611.217 479.856C611.579 479.216 612.07 478.715 612.689 478.352C613.307 477.979 614.001 477.792 614.769 477.792C615.547 477.792 616.241 477.979 616.849 478.352C617.467 478.715 617.958 479.216 618.321 479.856C618.683 480.485 618.865 481.189 618.865 481.968C618.865 482.757 618.683 483.472 618.321 484.112C617.958 484.741 617.467 485.243 616.849 485.616C616.241 485.979 615.547 486.16 614.769 486.16ZM614.769 484.448C615.185 484.448 615.553 484.341 615.873 484.128C616.193 483.915 616.443 483.621 616.625 483.248C616.806 482.875 616.897 482.453 616.897 481.984C616.897 481.504 616.806 481.083 616.625 480.72C616.443 480.347 616.193 480.053 615.873 479.84C615.553 479.627 615.185 479.52 614.769 479.52C614.353 479.52 613.985 479.627 613.665 479.84C613.345 480.053 613.094 480.347 612.913 480.72C612.731 481.083 612.641 481.504 612.641 481.984C612.641 482.453 612.731 482.875 612.913 483.248C613.094 483.621 613.345 483.915 613.665 484.128C613.985 484.341 614.353 484.448 614.769 484.448ZM620.763 486V477.92H622.779V479.104C623.397 478.229 624.219 477.792 625.243 477.792C625.787 477.792 626.267 477.915 626.683 478.16C627.099 478.395 627.424 478.725 627.659 479.152C627.893 479.579 628.01 480.075 628.01 480.64V486H626.011V481.216C626.011 480.661 625.856 480.224 625.547 479.904C625.248 479.573 624.843 479.408 624.331 479.408C624.021 479.408 623.733 479.472 623.467 479.6C623.211 479.728 622.981 479.92 622.779 480.176V486H620.763ZM633.892 486.16C633.135 486.16 632.431 486.064 631.78 485.872C631.13 485.669 630.575 485.376 630.116 484.992L631.092 483.68C631.658 484.032 632.154 484.277 632.58 484.416C633.018 484.555 633.455 484.624 633.892 484.624C634.458 484.624 634.9 484.539 635.22 484.368C635.551 484.197 635.716 483.968 635.716 483.68C635.716 483.445 635.62 483.269 635.428 483.152C635.236 483.024 634.986 482.928 634.676 482.864C634.367 482.8 634.026 482.741 633.652 482.688C633.279 482.635 632.9 482.565 632.516 482.48C632.143 482.384 631.802 482.256 631.492 482.096C631.183 481.925 630.932 481.701 630.74 481.424C630.548 481.136 630.452 480.763 630.452 480.304C630.452 479.771 630.591 479.317 630.868 478.944C631.156 478.571 631.556 478.283 632.068 478.08C632.591 477.877 633.188 477.776 633.86 477.776C634.479 477.776 635.087 477.861 635.684 478.032C636.292 478.192 636.863 478.459 637.396 478.832L636.42 480.112C635.994 479.824 635.562 479.616 635.124 479.488C634.687 479.36 634.25 479.296 633.812 479.296C633.322 479.296 632.938 479.376 632.66 479.536C632.383 479.685 632.244 479.888 632.244 480.144C632.244 480.368 632.335 480.539 632.516 480.656C632.708 480.773 632.964 480.864 633.284 480.928C633.604 480.992 633.951 481.051 634.324 481.104C634.708 481.157 635.087 481.232 635.46 481.328C635.844 481.413 636.196 481.541 636.516 481.712C636.836 481.872 637.092 482.096 637.284 482.384C637.476 482.672 637.572 483.051 637.572 483.52C637.572 484.043 637.407 484.501 637.076 484.896C636.756 485.291 636.319 485.6 635.764 485.824C635.21 486.048 634.586 486.16 633.892 486.16ZM643.774 486.16C642.974 486.16 642.254 485.979 641.614 485.616C640.974 485.243 640.467 484.741 640.094 484.112C639.721 483.472 639.534 482.757 639.534 481.968C639.534 481.179 639.71 480.469 640.062 479.84C640.425 479.211 640.91 478.715 641.518 478.352C642.126 477.979 642.814 477.792 643.582 477.792C644.371 477.792 645.07 477.973 645.678 478.336C646.297 478.699 646.777 479.195 647.118 479.824C647.47 480.453 647.646 481.173 647.646 481.984V482.464H641.502C641.577 482.869 641.721 483.227 641.934 483.536C642.147 483.845 642.419 484.085 642.75 484.256C643.091 484.427 643.465 484.512 643.87 484.512C644.275 484.512 644.649 484.437 644.99 484.288C645.331 484.139 645.619 483.925 645.854 483.648L647.166 484.816C646.686 485.285 646.169 485.627 645.614 485.84C645.059 486.053 644.446 486.16 643.774 486.16ZM641.534 481.248H645.742C645.678 480.864 645.545 480.539 645.342 480.272C645.15 479.995 644.905 479.781 644.606 479.632C644.318 479.483 643.987 479.408 643.614 479.408C643.273 479.408 642.953 479.483 642.654 479.632C642.366 479.781 642.126 479.995 641.934 480.272C641.742 480.539 641.609 480.864 641.534 481.248Z" fill="white"/>
<path d="M432 241C432 236.582 435.582 233 440 233H684C688.418 233 692 236.582 692 241V264C692 268.418 688.418 272 684 272H440C435.582 272 432 268.418 432 264V241Z" fill="white" fill-opacity="0.2"/>
<path d="M504.505 258.176C503.694 258.176 502.931 258.043 502.217 257.776C501.502 257.509 500.793 257.104 500.089 256.56L501.193 254.96C501.886 255.483 502.489 255.856 503.001 256.08C503.513 256.304 504.03 256.416 504.553 256.416C504.969 256.416 505.326 256.352 505.625 256.224C505.923 256.085 506.158 255.899 506.329 255.664C506.499 255.429 506.585 255.163 506.585 254.864C506.585 254.491 506.473 254.197 506.249 253.984C506.025 253.771 505.726 253.605 505.353 253.488C504.99 253.36 504.585 253.253 504.137 253.168C503.699 253.072 503.257 252.965 502.809 252.848C502.371 252.72 501.966 252.544 501.593 252.32C501.23 252.096 500.937 251.797 500.713 251.424C500.489 251.04 500.377 250.549 500.377 249.952C500.377 249.269 500.537 248.683 500.857 248.192C501.177 247.701 501.635 247.317 502.233 247.04C502.83 246.763 503.539 246.624 504.361 246.624C505.118 246.624 505.849 246.741 506.553 246.976C507.267 247.211 507.929 247.557 508.537 248.016L507.449 249.6C506.915 249.195 506.387 248.891 505.865 248.688C505.342 248.485 504.814 248.384 504.281 248.384C503.705 248.384 503.246 248.512 502.905 248.768C502.563 249.024 502.393 249.355 502.393 249.76C502.393 250.123 502.505 250.405 502.729 250.608C502.963 250.811 503.267 250.976 503.641 251.104C504.014 251.221 504.425 251.328 504.873 251.424C505.321 251.509 505.769 251.621 506.217 251.76C506.665 251.888 507.075 252.064 507.449 252.288C507.822 252.512 508.121 252.816 508.345 253.2C508.569 253.584 508.681 254.08 508.681 254.688C508.681 255.371 508.505 255.979 508.153 256.512C507.811 257.035 507.326 257.445 506.697 257.744C506.078 258.032 505.347 258.176 504.505 258.176ZM511.314 261.504C511.112 261.504 510.888 261.488 510.642 261.456C510.408 261.435 510.173 261.397 509.938 261.344V259.6C510.173 259.643 510.365 259.675 510.514 259.696C510.674 259.717 510.861 259.728 511.074 259.728C511.437 259.728 511.736 259.659 511.97 259.52C512.205 259.392 512.381 259.179 512.498 258.88L512.818 258.16L509.698 249.92H511.906L513.954 255.776L516.162 249.92H518.322L514.45 259.28C514.226 259.813 513.976 260.245 513.698 260.576C513.421 260.907 513.09 261.141 512.706 261.28C512.322 261.429 511.858 261.504 511.314 261.504ZM523.564 258.16C522.807 258.16 522.103 258.064 521.452 257.872C520.801 257.669 520.247 257.376 519.788 256.992L520.764 255.68C521.329 256.032 521.825 256.277 522.252 256.416C522.689 256.555 523.127 256.624 523.564 256.624C524.129 256.624 524.572 256.539 524.892 256.368C525.223 256.197 525.388 255.968 525.388 255.68C525.388 255.445 525.292 255.269 525.1 255.152C524.908 255.024 524.657 254.928 524.348 254.864C524.039 254.8 523.697 254.741 523.324 254.688C522.951 254.635 522.572 254.565 522.188 254.48C521.815 254.384 521.473 254.256 521.164 254.096C520.855 253.925 520.604 253.701 520.412 253.424C520.22 253.136 520.124 252.763 520.124 252.304C520.124 251.771 520.263 251.317 520.54 250.944C520.828 250.571 521.228 250.283 521.74 250.08C522.263 249.877 522.86 249.776 523.532 249.776C524.151 249.776 524.759 249.861 525.356 250.032C525.964 250.192 526.535 250.459 527.068 250.832L526.092 252.112C525.665 251.824 525.233 251.616 524.796 251.488C524.359 251.36 523.921 251.296 523.484 251.296C522.993 251.296 522.609 251.376 522.332 251.536C522.055 251.685 521.916 251.888 521.916 252.144C521.916 252.368 522.007 252.539 522.188 252.656C522.38 252.773 522.636 252.864 522.956 252.928C523.276 252.992 523.623 253.051 523.996 253.104C524.38 253.157 524.759 253.232 525.132 253.328C525.516 253.413 525.868 253.541 526.188 253.712C526.508 253.872 526.764 254.096 526.956 254.384C527.148 254.672 527.244 255.051 527.244 255.52C527.244 256.043 527.079 256.501 526.748 256.896C526.428 257.291 525.991 257.6 525.436 257.824C524.881 258.048 524.257 258.16 523.564 258.16ZM534.678 258.16C533.633 258.16 532.843 257.931 532.31 257.472C531.777 257.013 531.51 256.336 531.51 255.44V251.504H528.982V249.92H531.51V247.696L533.51 247.28V249.92H536.838V251.504H533.51V255.056C533.51 255.557 533.627 255.915 533.862 256.128C534.097 256.341 534.47 256.448 534.982 256.448C535.249 256.448 535.526 256.427 535.814 256.384C536.113 256.331 536.459 256.245 536.854 256.128V257.792C536.523 257.899 536.161 257.984 535.766 258.048C535.382 258.123 535.019 258.16 534.678 258.16ZM543.04 258.16C542.24 258.16 541.52 257.979 540.88 257.616C540.24 257.243 539.733 256.741 539.36 256.112C538.986 255.472 538.8 254.757 538.8 253.968C538.8 253.179 538.976 252.469 539.328 251.84C539.69 251.211 540.176 250.715 540.784 250.352C541.392 249.979 542.08 249.792 542.848 249.792C543.637 249.792 544.336 249.973 544.944 250.336C545.562 250.699 546.042 251.195 546.384 251.824C546.736 252.453 546.912 253.173 546.912 253.984V254.464H540.768C540.842 254.869 540.986 255.227 541.2 255.536C541.413 255.845 541.685 256.085 542.016 256.256C542.357 256.427 542.73 256.512 543.136 256.512C543.541 256.512 543.914 256.437 544.256 256.288C544.597 256.139 544.885 255.925 545.12 255.648L546.432 256.816C545.952 257.285 545.434 257.627 544.88 257.84C544.325 258.053 543.712 258.16 543.04 258.16ZM540.8 253.248H545.008C544.944 252.864 544.81 252.539 544.608 252.272C544.416 251.995 544.17 251.781 543.872 251.632C543.584 251.483 543.253 251.408 542.88 251.408C542.538 251.408 542.218 251.483 541.92 251.632C541.632 251.781 541.392 251.995 541.2 252.272C541.008 252.539 540.874 252.864 540.8 253.248ZM548.345 258V249.92H550.041V250.608C550.233 250.341 550.441 250.144 550.665 250.016C550.9 249.877 551.161 249.808 551.449 249.808C551.791 249.808 552.095 249.893 552.361 250.064C552.639 250.224 552.852 250.459 553.001 250.768C553.215 250.448 553.46 250.208 553.737 250.048C554.025 249.888 554.345 249.808 554.697 249.808C555.231 249.808 555.663 250 555.993 250.384C556.324 250.768 556.489 251.269 556.489 251.888V258H554.809V252.416C554.809 252.064 554.735 251.787 554.585 251.584C554.436 251.381 554.223 251.28 553.945 251.28C553.817 251.28 553.695 251.307 553.577 251.36C553.471 251.403 553.364 251.493 553.257 251.632C553.268 251.685 553.273 251.744 553.273 251.808C553.273 251.861 553.273 251.92 553.273 251.984V258H551.593V252.416C551.593 252.064 551.519 251.787 551.369 251.584C551.22 251.381 551.001 251.28 550.713 251.28C550.596 251.28 550.479 251.301 550.361 251.344C550.255 251.387 550.148 251.472 550.041 251.6V258H548.345ZM567.949 258V246.8H571.981C572.749 246.8 573.416 246.949 573.981 247.248C574.557 247.547 575 247.963 575.309 248.496C575.618 249.029 575.773 249.643 575.773 250.336C575.773 251.008 575.618 251.611 575.309 252.144C575 252.667 574.557 253.077 573.981 253.376C573.416 253.675 572.749 253.824 571.981 253.824H570.093V258H567.949ZM570.093 252.08H571.645C572.285 252.08 572.776 251.92 573.117 251.6C573.458 251.269 573.629 250.848 573.629 250.336C573.629 249.813 573.458 249.392 573.117 249.072C572.776 248.752 572.285 248.592 571.645 248.592H570.093V252.08ZM577.543 258V256.416H579.479V251.504H577.543V249.92H581.495V251.872C581.772 251.179 582.14 250.661 582.599 250.32C583.057 249.968 583.58 249.792 584.167 249.792C584.412 249.792 584.615 249.813 584.775 249.856C584.945 249.888 585.143 249.947 585.367 250.032V251.856C585.143 251.76 584.897 251.691 584.631 251.648C584.364 251.595 584.103 251.568 583.847 251.568C583.345 251.568 582.887 251.685 582.471 251.92C582.055 252.155 581.729 252.491 581.495 252.928V256.416H583.543V258H577.543ZM590.784 258.16C590.016 258.16 589.323 257.979 588.704 257.616C588.086 257.243 587.595 256.741 587.232 256.112C586.87 255.472 586.688 254.757 586.688 253.968C586.688 253.189 586.87 252.485 587.232 251.856C587.595 251.216 588.086 250.715 588.704 250.352C589.323 249.979 590.016 249.792 590.784 249.792C591.563 249.792 592.256 249.979 592.864 250.352C593.483 250.715 593.974 251.216 594.336 251.856C594.699 252.485 594.88 253.189 594.88 253.968C594.88 254.757 594.699 255.472 594.336 256.112C593.974 256.741 593.483 257.243 592.864 257.616C592.256 257.979 591.563 258.16 590.784 258.16ZM590.784 256.448C591.2 256.448 591.568 256.341 591.888 256.128C592.208 255.915 592.459 255.621 592.64 255.248C592.822 254.875 592.912 254.453 592.912 253.984C592.912 253.504 592.822 253.083 592.64 252.72C592.459 252.347 592.208 252.053 591.888 251.84C591.568 251.627 591.2 251.52 590.784 251.52C590.368 251.52 590 251.627 589.68 251.84C589.36 252.053 589.11 252.347 588.928 252.72C588.747 253.083 588.656 253.504 588.656 253.984C588.656 254.453 588.747 254.875 588.928 255.248C589.11 255.621 589.36 255.915 589.68 256.128C590 256.341 590.368 256.448 590.784 256.448ZM596.314 258V249.92H598.01V250.608C598.202 250.341 598.41 250.144 598.634 250.016C598.869 249.877 599.13 249.808 599.418 249.808C599.759 249.808 600.063 249.893 600.33 250.064C600.607 250.224 600.821 250.459 600.97 250.768C601.183 250.448 601.429 250.208 601.706 250.048C601.994 249.888 602.314 249.808 602.666 249.808C603.199 249.808 603.631 250 603.962 250.384C604.293 250.768 604.458 251.269 604.458 251.888V258H602.778V252.416C602.778 252.064 602.703 251.787 602.554 251.584C602.405 251.381 602.191 251.28 601.914 251.28C601.786 251.28 601.663 251.307 601.546 251.36C601.439 251.403 601.333 251.493 601.226 251.632C601.237 251.685 601.242 251.744 601.242 251.808C601.242 251.861 601.242 251.92 601.242 251.984V258H599.562V252.416C599.562 252.064 599.487 251.787 599.338 251.584C599.189 251.381 598.97 251.28 598.682 251.28C598.565 251.28 598.447 251.301 598.33 251.344C598.223 251.387 598.117 251.472 598.01 251.6V258H596.314ZM606.324 261.344V249.92H608.26V250.864C608.548 250.523 608.879 250.261 609.252 250.08C609.625 249.899 610.036 249.808 610.484 249.808C611.156 249.808 611.764 249.995 612.308 250.368C612.863 250.731 613.3 251.227 613.62 251.856C613.951 252.475 614.116 253.179 614.116 253.968C614.116 254.747 613.951 255.451 613.62 256.08C613.3 256.709 612.863 257.211 612.308 257.584C611.753 257.947 611.135 258.128 610.452 258.128C610.036 258.128 609.647 258.048 609.284 257.888C608.921 257.717 608.601 257.488 608.324 257.2V261.344H606.324ZM610.004 256.496C610.431 256.496 610.804 256.389 611.124 256.176C611.444 255.963 611.695 255.664 611.876 255.28C612.057 254.896 612.148 254.459 612.148 253.968C612.148 253.467 612.057 253.029 611.876 252.656C611.695 252.272 611.444 251.973 611.124 251.76C610.804 251.547 610.431 251.44 610.004 251.44C609.673 251.44 609.364 251.504 609.076 251.632C608.788 251.76 608.537 251.941 608.324 252.176V255.744C608.537 255.979 608.788 256.165 609.076 256.304C609.364 256.432 609.673 256.496 610.004 256.496ZM621.022 258.16C619.976 258.16 619.187 257.931 618.654 257.472C618.12 257.013 617.854 256.336 617.854 255.44V251.504H615.326V249.92H617.854V247.696L619.854 247.28V249.92H623.182V251.504H619.854V255.056C619.854 255.557 619.971 255.915 620.206 256.128C620.44 256.341 620.814 256.448 621.326 256.448C621.592 256.448 621.87 256.427 622.158 256.384C622.456 256.331 622.803 256.245 623.198 256.128V257.792C622.867 257.899 622.504 257.984 622.11 258.048C621.726 258.123 621.363 258.16 621.022 258.16Z" fill="white"/>
<path d="M764 292C764 287.582 767.582 284 772 284H1016C1020.42 284 1024 287.582 1024 292V315C1024 319.418 1020.42 323 1016 323H772C767.582 323 764 319.418 764 315V292Z" fill="white"/>
<path d="M880.985 309V297.8H883.129V307.192H888.457V309H880.985ZM890.579 309V297.8H892.723V307.192H898.051V309H890.579ZM899.565 309V297.8H901.901L903.613 302.024L905.293 297.8H907.629V309H905.789V300.728L903.581 306.024L901.373 300.728V309H899.565Z" fill="#080808"/>
<path d="M764 406C764 401.582 767.582 398 772 398H1016C1020.42 398 1024 401.582 1024 406V429C1024 433.418 1020.42 437 1016 437H772C767.582 437 764 433.418 764 429V406Z" fill="white"/>
<path d="M880.985 423V411.8H883.129V421.192H888.457V423H880.985ZM890.579 423V411.8H892.723V421.192H898.051V423H890.579ZM899.565 423V411.8H901.901L903.613 416.024L905.293 411.8H907.629V423H905.789V414.728L903.581 420.024L901.373 414.728V423H899.565Z" fill="#080808"/>
<path d="M691.293 366.293C690.902 366.683 690.902 367.317 691.293 367.707L697.657 374.071C698.047 374.462 698.681 374.462 699.071 374.071C699.462 373.681 699.462 373.047 699.071 372.657L693.414 367L699.071 361.343C699.462 360.953 699.462 360.319 699.071 359.929C698.681 359.538 698.047 359.538 697.657 359.929L691.293 366.293ZM893 323L892 323L892 359L893 359L894 359L894 323L893 323ZM885 367L885 366L692 366L692 367L692 368L885 368L885 367ZM893 359L892 359C892 362.866 888.866 366 885 366L885 367L885 368C889.971 368 894 363.971 894 359L893 359Z" fill="white"/>
<path d="M691.293 480.293C690.902 480.683 690.902 481.317 691.293 481.707L697.657 488.071C698.047 488.462 698.681 488.462 699.071 488.071C699.462 487.681 699.462 487.047 699.071 486.657L693.414 481L699.071 475.343C699.462 474.953 699.462 474.319 699.071 473.929C698.681 473.538 698.047 473.538 697.657 473.929L691.293 480.293ZM893 437L892 437L892 473L893 473L894 473L894 437L893 437ZM885 481L885 480L692 480L692 481L692 482L885 482L885 481ZM893 473L892 473C892 476.866 888.866 480 885 480L885 481L885 482C889.971 482 894 477.971 894 473L893 473Z" fill="white"/>
<path d="M764.707 309.707C765.098 309.317 765.098 308.683 764.707 308.293L758.343 301.929C757.953 301.538 757.319 301.538 756.929 301.929C756.538 302.319 756.538 302.953 756.929 303.343L762.586 309L756.929 314.657C756.538 315.047 756.538 315.681 756.929 316.071C757.319 316.462 757.953 316.462 758.343 316.071L764.707 309.707ZM764 309V308H708V309V310H764V309Z" fill="white"/>
<path d="M764.707 418.707C765.098 418.317 765.098 417.683 764.707 417.293L758.343 410.929C757.953 410.538 757.319 410.538 756.929 410.929C756.538 411.319 756.538 411.953 756.929 412.343L762.586 418L756.929 423.657C756.538 424.047 756.538 424.681 756.929 425.071C757.319 425.462 757.953 425.462 758.343 425.071L764.707 418.707ZM764 418V417H708V418V419H764V418Z" fill="white"/>
</g>
<defs>
<clipPath id="clip0_221_59">
<rect width="1440" height="720" fill="white"/>
</clipPath>
</defs>
</svg>
