<svg width="1440" height="720" viewBox="0 0 1440 720" fill="none" xmlns="http://www.w3.org/2000/svg">
<g clip-path="url(#clip0_221_381)">
<rect width="1440" height="720" fill="#080808"/>
<path d="M700 227C704.418 227 708 230.582 708 235L708 486C708 490.418 704.418 494 700 494L424 494C419.582 494 416 490.418 416 486L416 235C416 230.582 419.582 227 424 227L700 227Z" fill="white" fill-opacity="0.05"/>
<path d="M416 235L416.5 235C416.5 234.498 416.549 234.009 416.643 233.536L416.152 233.439L415.662 233.342C415.556 233.878 415.5 234.433 415.5 235L416 235ZM417.347 230.555L417.763 230.833C418.311 230.015 419.015 229.311 419.833 228.763L419.555 228.347L419.277 227.932C418.35 228.552 417.552 229.35 416.932 230.277L417.347 230.555ZM422.439 227.152L422.536 227.643C423.009 227.549 423.498 227.5 424 227.5L424 227L424 226.5C423.433 226.5 422.878 226.556 422.342 226.662L422.439 227.152ZM424 227L424 227.5L425.971 227.5L425.971 227L425.971 226.5L424 226.5L424 227ZM429.914 227L429.914 227.5L433.857 227.5L433.857 227L433.857 226.5L429.914 226.5L429.914 227ZM437.8 227L437.8 227.5L441.743 227.5L441.743 227L441.743 226.5L437.8 226.5L437.8 227ZM445.686 227L445.686 227.5L449.629 227.5L449.629 227L449.629 226.5L445.686 226.5L445.686 227ZM453.571 227L453.571 227.5L457.514 227.5L457.514 227L457.514 226.5L453.571 226.5L453.571 227ZM461.457 227L461.457 227.5L465.4 227.5L465.4 227L465.4 226.5L461.457 226.5L461.457 227ZM469.343 227L469.343 227.5L473.286 227.5L473.286 227L473.286 226.5L469.343 226.5L469.343 227ZM477.229 227L477.229 227.5L481.171 227.5L481.171 227L481.171 226.5L477.229 226.5L477.229 227ZM485.114 227L485.114 227.5L489.057 227.5L489.057 227L489.057 226.5L485.114 226.5L485.114 227ZM493 227L493 227.5L496.943 227.5L496.943 227L496.943 226.5L493 226.5L493 227ZM500.886 227L500.886 227.5L504.829 227.5L504.829 227L504.829 226.5L500.886 226.5L500.886 227ZM508.771 227L508.771 227.5L512.714 227.5L512.714 227L512.714 226.5L508.771 226.5L508.771 227ZM516.657 227L516.657 227.5L520.6 227.5L520.6 227L520.6 226.5L516.657 226.5L516.657 227ZM524.543 227L524.543 227.5L528.486 227.5L528.486 227L528.486 226.5L524.543 226.5L524.543 227ZM532.429 227L532.429 227.5L536.371 227.5L536.371 227L536.371 226.5L532.429 226.5L532.429 227ZM540.314 227L540.314 227.5L544.257 227.5L544.257 227L544.257 226.5L540.314 226.5L540.314 227ZM548.2 227L548.2 227.5L552.143 227.5L552.143 227L552.143 226.5L548.2 226.5L548.2 227ZM556.086 227L556.086 227.5L560.029 227.5L560.029 227L560.029 226.5L556.086 226.5L556.086 227ZM563.971 227L563.971 227.5L567.914 227.5L567.914 227L567.914 226.5L563.971 226.5L563.971 227ZM571.857 227L571.857 227.5L575.8 227.5L575.8 227L575.8 226.5L571.857 226.5L571.857 227ZM579.743 227L579.743 227.5L583.686 227.5L583.686 227L583.686 226.5L579.743 226.5L579.743 227ZM587.629 227L587.629 227.5L591.571 227.5L591.571 227L591.571 226.5L587.629 226.5L587.629 227ZM595.514 227L595.514 227.5L599.457 227.5L599.457 227L599.457 226.5L595.514 226.5L595.514 227ZM603.4 227L603.4 227.5L607.343 227.5L607.343 227L607.343 226.5L603.4 226.5L603.4 227ZM611.286 227L611.286 227.5L615.229 227.5L615.229 227L615.229 226.5L611.286 226.5L611.286 227ZM619.171 227L619.171 227.5L623.114 227.5L623.114 227L623.114 226.5L619.171 226.5L619.171 227ZM627.057 227L627.057 227.5L631 227.5L631 227L631 226.5L627.057 226.5L627.057 227ZM634.943 227L634.943 227.5L638.886 227.5L638.886 227L638.886 226.5L634.943 226.5L634.943 227ZM642.829 227L642.829 227.5L646.771 227.5L646.771 227L646.771 226.5L642.829 226.5L642.829 227ZM650.714 227L650.714 227.5L654.657 227.5L654.657 227L654.657 226.5L650.714 226.5L650.714 227ZM658.6 227L658.6 227.5L662.543 227.5L662.543 227L662.543 226.5L658.6 226.5L658.6 227ZM666.486 227L666.486 227.5L670.429 227.5L670.429 227L670.429 226.5L666.486 226.5L666.486 227ZM674.371 227L674.371 227.5L678.314 227.5L678.314 227L678.314 226.5L674.371 226.5L674.371 227ZM682.257 227L682.257 227.5L686.2 227.5L686.2 227L686.2 226.5L682.257 226.5L682.257 227ZM690.143 227L690.143 227.5L694.086 227.5L694.086 227L694.086 226.5L690.143 226.5L690.143 227ZM698.029 227L698.029 227.5L700 227.5L700 227L700 226.5L698.029 226.5L698.029 227ZM700 227L700 227.5C700.502 227.5 700.991 227.549 701.464 227.643L701.561 227.152L701.658 226.662C701.122 226.556 700.567 226.5 700 226.5L700 227ZM704.445 228.347L704.167 228.763C704.985 229.311 705.689 230.015 706.237 230.833L706.653 230.555L707.068 230.277C706.448 229.35 705.65 228.552 704.723 227.932L704.445 228.347ZM707.848 233.439L707.357 233.536C707.451 234.009 707.5 234.498 707.5 235L708 235L708.5 235C708.5 234.433 708.444 233.878 708.338 233.342L707.848 233.439ZM708 235L707.5 235L707.5 237.024L708 237.024L708.5 237.024L708.5 235L708 235ZM708 241.073L707.5 241.073L707.5 245.121L708 245.121L708.5 245.121L708.5 241.073L708 241.073ZM708 249.169L707.5 249.169L707.5 253.218L708 253.218L708.5 253.218L708.5 249.169L708 249.169ZM708 257.266L707.5 257.266L707.5 261.315L708 261.315L708.5 261.315L708.5 257.266L708 257.266ZM708 265.363L707.5 265.363L707.5 269.411L708 269.411L708.5 269.411L708.5 265.363L708 265.363ZM708 273.46L707.5 273.46L707.5 277.508L708 277.508L708.5 277.508L708.5 273.46L708 273.46ZM708 281.556L707.5 281.556L707.5 285.605L708 285.605L708.5 285.605L708.5 281.556L708 281.556ZM708 289.653L707.5 289.653L707.5 293.702L708 293.702L708.5 293.702L708.5 289.653L708 289.653ZM708 297.75L707.5 297.75L707.5 301.798L708 301.798L708.5 301.798L708.5 297.75L708 297.75ZM708 305.847L707.5 305.847L707.5 309.895L708 309.895L708.5 309.895L708.5 305.847L708 305.847ZM708 313.944L707.5 313.944L707.5 317.992L708 317.992L708.5 317.992L708.5 313.944L708 313.944ZM708 322.04L707.5 322.04L707.5 326.089L708 326.089L708.5 326.089L708.5 322.04L708 322.04ZM708 330.137L707.5 330.137L707.5 334.185L708 334.185L708.5 334.185L708.5 330.137L708 330.137ZM708 338.234L707.5 338.234L707.5 342.282L708 342.282L708.5 342.282L708.5 338.234L708 338.234ZM708 346.331L707.5 346.331L707.5 350.379L708 350.379L708.5 350.379L708.5 346.331L708 346.331ZM708 354.427L707.5 354.427L707.5 358.476L708 358.476L708.5 358.476L708.5 354.427L708 354.427ZM708 362.524L707.5 362.524L707.5 366.573L708 366.573L708.5 366.573L708.5 362.524L708 362.524ZM708 370.621L707.5 370.621L707.5 374.669L708 374.669L708.5 374.669L708.5 370.621L708 370.621ZM708 378.718L707.5 378.718L707.5 382.766L708 382.766L708.5 382.766L708.5 378.718L708 378.718ZM708 386.814L707.5 386.814L707.5 390.863L708 390.863L708.5 390.863L708.5 386.814L708 386.814ZM708 394.911L707.5 394.911L707.5 398.96L708 398.96L708.5 398.96L708.5 394.911L708 394.911ZM708 403.008L707.5 403.008L707.5 407.056L708 407.056L708.5 407.056L708.5 403.008L708 403.008ZM708 411.105L707.5 411.105L707.5 415.153L708 415.153L708.5 415.153L708.5 411.105L708 411.105ZM708 419.202L707.5 419.202L707.5 423.25L708 423.25L708.5 423.25L708.5 419.202L708 419.202ZM708 427.298L707.5 427.298L707.5 431.347L708 431.347L708.5 431.347L708.5 427.298L708 427.298ZM708 435.395L707.5 435.395L707.5 439.444L708 439.444L708.5 439.444L708.5 435.395L708 435.395ZM708 443.492L707.5 443.492L707.5 447.54L708 447.54L708.5 447.54L708.5 443.492L708 443.492ZM708 451.589L707.5 451.589L707.5 455.637L708 455.637L708.5 455.637L708.5 451.589L708 451.589ZM708 459.685L707.5 459.685L707.5 463.734L708 463.734L708.5 463.734L708.5 459.685L708 459.685ZM708 467.782L707.5 467.782L707.5 471.831L708 471.831L708.5 471.831L708.5 467.782L708 467.782ZM708 475.879L707.5 475.879L707.5 479.927L708 479.927L708.5 479.927L708.5 475.879L708 475.879ZM708 483.976L707.5 483.976L707.5 486L708 486L708.5 486L708.5 483.976L708 483.976ZM708 486L707.5 486C707.5 486.502 707.451 486.991 707.357 487.464L707.848 487.561L708.338 487.658C708.444 487.122 708.5 486.567 708.5 486L708 486ZM706.653 490.445L706.237 490.167C705.689 490.985 704.985 491.689 704.167 492.237L704.445 492.653L704.723 493.068C705.65 492.448 706.448 491.65 707.068 490.723L706.653 490.445ZM701.561 493.848L701.464 493.357C700.991 493.451 700.502 493.5 700 493.5L700 494L700 494.5C700.567 494.5 701.122 494.444 701.658 494.338L701.561 493.848ZM700 494L700 493.5L698.029 493.5L698.029 494L698.029 494.5L700 494.5L700 494ZM694.086 494L694.086 493.5L690.143 493.5L690.143 494L690.143 494.5L694.086 494.5L694.086 494ZM686.2 494L686.2 493.5L682.257 493.5L682.257 494L682.257 494.5L686.2 494.5L686.2 494ZM678.314 494L678.314 493.5L674.371 493.5L674.371 494L674.371 494.5L678.314 494.5L678.314 494ZM670.429 494L670.429 493.5L666.486 493.5L666.486 494L666.486 494.5L670.429 494.5L670.429 494ZM662.543 494L662.543 493.5L658.6 493.5L658.6 494L658.6 494.5L662.543 494.5L662.543 494ZM654.657 494L654.657 493.5L650.714 493.5L650.714 494L650.714 494.5L654.657 494.5L654.657 494ZM646.771 494L646.771 493.5L642.829 493.5L642.829 494L642.829 494.5L646.771 494.5L646.771 494ZM638.886 494L638.886 493.5L634.943 493.5L634.943 494L634.943 494.5L638.886 494.5L638.886 494ZM631 494L631 493.5L627.057 493.5L627.057 494L627.057 494.5L631 494.5L631 494ZM623.114 494L623.114 493.5L619.171 493.5L619.171 494L619.171 494.5L623.114 494.5L623.114 494ZM615.229 494L615.229 493.5L611.286 493.5L611.286 494L611.286 494.5L615.229 494.5L615.229 494ZM607.343 494L607.343 493.5L603.4 493.5L603.4 494L603.4 494.5L607.343 494.5L607.343 494ZM599.457 494L599.457 493.5L595.514 493.5L595.514 494L595.514 494.5L599.457 494.5L599.457 494ZM591.571 494L591.571 493.5L587.629 493.5L587.629 494L587.629 494.5L591.571 494.5L591.571 494ZM583.686 494L583.686 493.5L579.743 493.5L579.743 494L579.743 494.5L583.686 494.5L583.686 494ZM575.8 494L575.8 493.5L571.857 493.5L571.857 494L571.857 494.5L575.8 494.5L575.8 494ZM567.914 494L567.914 493.5L563.971 493.5L563.971 494L563.971 494.5L567.914 494.5L567.914 494ZM560.029 494L560.029 493.5L556.086 493.5L556.086 494L556.086 494.5L560.029 494.5L560.029 494ZM552.143 494L552.143 493.5L548.2 493.5L548.2 494L548.2 494.5L552.143 494.5L552.143 494ZM544.257 494L544.257 493.5L540.314 493.5L540.314 494L540.314 494.5L544.257 494.5L544.257 494ZM536.371 494L536.371 493.5L532.429 493.5L532.429 494L532.429 494.5L536.371 494.5L536.371 494ZM528.486 494L528.486 493.5L524.543 493.5L524.543 494L524.543 494.5L528.486 494.5L528.486 494ZM520.6 494L520.6 493.5L516.657 493.5L516.657 494L516.657 494.5L520.6 494.5L520.6 494ZM512.714 494L512.714 493.5L508.771 493.5L508.771 494L508.771 494.5L512.714 494.5L512.714 494ZM504.829 494L504.829 493.5L500.886 493.5L500.886 494L500.886 494.5L504.829 494.5L504.829 494ZM496.943 494L496.943 493.5L493 493.5L493 494L493 494.5L496.943 494.5L496.943 494ZM489.057 494L489.057 493.5L485.114 493.5L485.114 494L485.114 494.5L489.057 494.5L489.057 494ZM481.171 494L481.171 493.5L477.229 493.5L477.229 494L477.229 494.5L481.171 494.5L481.171 494ZM473.286 494L473.286 493.5L469.343 493.5L469.343 494L469.343 494.5L473.286 494.5L473.286 494ZM465.4 494L465.4 493.5L461.457 493.5L461.457 494L461.457 494.5L465.4 494.5L465.4 494ZM457.514 494L457.514 493.5L453.571 493.5L453.571 494L453.571 494.5L457.514 494.5L457.514 494ZM449.629 494L449.629 493.5L445.686 493.5L445.686 494L445.686 494.5L449.629 494.5L449.629 494ZM441.743 494L441.743 493.5L437.8 493.5L437.8 494L437.8 494.5L441.743 494.5L441.743 494ZM433.857 494L433.857 493.5L429.914 493.5L429.914 494L429.914 494.5L433.857 494.5L433.857 494ZM425.971 494L425.971 493.5L424 493.5L424 494L424 494.5L425.971 494.5L425.971 494ZM424 494L424 493.5C423.498 493.5 423.009 493.451 422.536 493.357L422.439 493.848L422.342 494.338C422.878 494.444 423.433 494.5 424 494.5L424 494ZM419.555 492.653L419.833 492.237C419.015 491.689 418.311 490.985 417.763 490.167L417.347 490.445L416.932 490.723C417.552 491.65 418.35 492.448 419.277 493.068L419.555 492.653ZM416.152 487.561L416.643 487.464C416.549 486.991 416.5 486.502 416.5 486L416 486L415.5 486C415.5 486.567 415.556 487.122 415.662 487.658L416.152 487.561ZM416 486L416.5 486L416.5 483.976L416 483.976L415.5 483.976L415.5 486L416 486ZM416 479.927L416.5 479.927L416.5 475.879L416 475.879L415.5 475.879L415.5 479.927L416 479.927ZM416 471.831L416.5 471.831L416.5 467.782L416 467.782L415.5 467.782L415.5 471.831L416 471.831ZM416 463.734L416.5 463.734L416.5 459.685L416 459.685L415.5 459.685L415.5 463.734L416 463.734ZM416 455.637L416.5 455.637L416.5 451.589L416 451.589L415.5 451.589L415.5 455.637L416 455.637ZM416 447.54L416.5 447.54L416.5 443.492L416 443.492L415.5 443.492L415.5 447.54L416 447.54ZM416 439.444L416.5 439.444L416.5 435.395L416 435.395L415.5 435.395L415.5 439.444L416 439.444ZM416 431.347L416.5 431.347L416.5 427.298L416 427.298L415.5 427.298L415.5 431.347L416 431.347ZM416 423.25L416.5 423.25L416.5 419.202L416 419.202L415.5 419.202L415.5 423.25L416 423.25ZM416 415.153L416.5 415.153L416.5 411.105L416 411.105L415.5 411.105L415.5 415.153L416 415.153ZM416 407.056L416.5 407.056L416.5 403.008L416 403.008L415.5 403.008L415.5 407.056L416 407.056ZM416 398.96L416.5 398.96L416.5 394.911L416 394.911L415.5 394.911L415.5 398.96L416 398.96ZM416 390.863L416.5 390.863L416.5 386.815L416 386.815L415.5 386.815L415.5 390.863L416 390.863ZM416 382.766L416.5 382.766L416.5 378.718L416 378.718L415.5 378.718L415.5 382.766L416 382.766ZM416 374.669L416.5 374.669L416.5 370.621L416 370.621L415.5 370.621L415.5 374.669L416 374.669ZM416 366.573L416.5 366.573L416.5 362.524L416 362.524L415.5 362.524L415.5 366.573L416 366.573ZM416 358.476L416.5 358.476L416.5 354.427L416 354.427L415.5 354.427L415.5 358.476L416 358.476ZM416 350.379L416.5 350.379L416.5 346.331L416 346.331L415.5 346.331L415.5 350.379L416 350.379ZM416 342.282L416.5 342.282L416.5 338.234L416 338.234L415.5 338.234L415.5 342.282L416 342.282ZM416 334.185L416.5 334.185L416.5 330.137L416 330.137L415.5 330.137L415.5 334.185L416 334.185ZM416 326.089L416.5 326.089L416.5 322.04L416 322.04L415.5 322.04L415.5 326.089L416 326.089ZM416 317.992L416.5 317.992L416.5 313.944L416 313.944L415.5 313.944L415.5 317.992L416 317.992ZM416 309.895L416.5 309.895L416.5 305.847L416 305.847L415.5 305.847L415.5 309.895L416 309.895ZM416 301.798L416.5 301.798L416.5 297.75L416 297.75L415.5 297.75L415.5 301.798L416 301.798ZM416 293.702L416.5 293.702L416.5 289.653L416 289.653L415.5 289.653L415.5 293.702L416 293.702ZM416 285.605L416.5 285.605L416.5 281.556L416 281.556L415.5 281.556L415.5 285.605L416 285.605ZM416 277.508L416.5 277.508L416.5 273.46L416 273.46L415.5 273.46L415.5 277.508L416 277.508ZM416 269.411L416.5 269.411L416.5 265.363L416 265.363L415.5 265.363L415.5 269.411L416 269.411ZM416 261.315L416.5 261.315L416.5 257.266L416 257.266L415.5 257.266L415.5 261.315L416 261.315ZM416 253.218L416.5 253.218L416.5 249.169L416 249.169L415.5 249.169L415.5 253.218L416 253.218ZM416 245.121L416.5 245.121L416.5 241.073L416 241.073L415.5 241.073L415.5 245.121L416 245.121ZM416 237.024L416.5 237.024L416.5 235L416 235L415.5 235L415.5 237.024L416 237.024Z" fill="white"/>
<path d="M432 298C432 293.582 435.582 290 440 290H684C688.419 290 692 293.582 692 298V321C692 325.418 688.419 329 684 329H440C435.582 329 432 325.418 432 321V298Z" stroke="#E66A32" stroke-dasharray="2 2"/>
<path d="M518.832 315.176C518.021 315.176 517.312 315.005 516.704 314.664C516.106 314.323 515.642 313.843 515.312 313.224C514.981 312.595 514.816 311.859 514.816 311.016V303.8H516.944V311.016C516.944 311.699 517.114 312.243 517.456 312.648C517.797 313.053 518.256 313.256 518.832 313.256C519.408 313.256 519.866 313.053 520.208 312.648C520.549 312.243 520.72 311.699 520.72 311.016V303.8H522.848V311.016C522.848 311.859 522.682 312.595 522.352 313.224C522.021 313.843 521.557 314.323 520.96 314.664C520.362 315.005 519.653 315.176 518.832 315.176ZM528.361 315.16C527.604 315.16 526.9 315.064 526.249 314.872C525.599 314.669 525.044 314.376 524.585 313.992L525.561 312.68C526.127 313.032 526.623 313.277 527.049 313.416C527.487 313.555 527.924 313.624 528.361 313.624C528.927 313.624 529.369 313.539 529.689 313.368C530.02 313.197 530.185 312.968 530.185 312.68C530.185 312.445 530.089 312.269 529.897 312.152C529.705 312.024 529.455 311.928 529.145 311.864C528.836 311.8 528.495 311.741 528.121 311.688C527.748 311.635 527.369 311.565 526.985 311.48C526.612 311.384 526.271 311.256 525.961 311.096C525.652 310.925 525.401 310.701 525.209 310.424C525.017 310.136 524.921 309.763 524.921 309.304C524.921 308.771 525.06 308.317 525.337 307.944C525.625 307.571 526.025 307.283 526.537 307.08C527.06 306.877 527.657 306.776 528.329 306.776C528.948 306.776 529.556 306.861 530.153 307.032C530.761 307.192 531.332 307.459 531.865 307.832L530.889 309.112C530.463 308.824 530.031 308.616 529.593 308.488C529.156 308.36 528.719 308.296 528.281 308.296C527.791 308.296 527.407 308.376 527.129 308.536C526.852 308.685 526.713 308.888 526.713 309.144C526.713 309.368 526.804 309.539 526.985 309.656C527.177 309.773 527.433 309.864 527.753 309.928C528.073 309.992 528.42 310.051 528.793 310.104C529.177 310.157 529.556 310.232 529.929 310.328C530.313 310.413 530.665 310.541 530.985 310.712C531.305 310.872 531.561 311.096 531.753 311.384C531.945 311.672 532.041 312.051 532.041 312.52C532.041 313.043 531.876 313.501 531.545 313.896C531.225 314.291 530.788 314.6 530.233 314.824C529.679 315.048 529.055 315.16 528.361 315.16ZM538.243 315.16C537.443 315.16 536.723 314.979 536.083 314.616C535.443 314.243 534.936 313.741 534.563 313.112C534.19 312.472 534.003 311.757 534.003 310.968C534.003 310.179 534.179 309.469 534.531 308.84C534.894 308.211 535.379 307.715 535.987 307.352C536.595 306.979 537.283 306.792 538.051 306.792C538.84 306.792 539.539 306.973 540.147 307.336C540.766 307.699 541.246 308.195 541.587 308.824C541.939 309.453 542.115 310.173 542.115 310.984V311.464H535.971C536.046 311.869 536.19 312.227 536.403 312.536C536.616 312.845 536.888 313.085 537.219 313.256C537.56 313.427 537.934 313.512 538.339 313.512C538.744 313.512 539.118 313.437 539.459 313.288C539.8 313.139 540.088 312.925 540.323 312.648L541.635 313.816C541.155 314.285 540.638 314.627 540.083 314.84C539.528 315.053 538.915 315.16 538.243 315.16ZM536.003 310.248H540.211C540.147 309.864 540.014 309.539 539.811 309.272C539.619 308.995 539.374 308.781 539.075 308.632C538.787 308.483 538.456 308.408 538.083 308.408C537.742 308.408 537.422 308.483 537.123 308.632C536.835 308.781 536.595 308.995 536.403 309.272C536.211 309.539 536.078 309.864 536.003 310.248ZM543.965 315V313.416H545.901V308.504H543.965V306.92H547.917V308.872C548.194 308.179 548.562 307.661 549.021 307.32C549.48 306.968 550.002 306.792 550.589 306.792C550.834 306.792 551.037 306.813 551.197 306.856C551.368 306.888 551.565 306.947 551.789 307.032V308.856C551.565 308.76 551.32 308.691 551.053 308.648C550.786 308.595 550.525 308.568 550.269 308.568C549.768 308.568 549.309 308.685 548.893 308.92C548.477 309.155 548.152 309.491 547.917 309.928V313.416H549.965V315H543.965ZM562.944 315V313.192H565.744V305.608H562.944V303.8H570.656V305.608H567.872V313.192H570.656V315H562.944ZM572.794 315V306.92H574.81V308.104C575.429 307.229 576.25 306.792 577.274 306.792C577.818 306.792 578.298 306.915 578.714 307.16C579.13 307.395 579.455 307.725 579.69 308.152C579.925 308.579 580.042 309.075 580.042 309.64V315H578.042V310.216C578.042 309.661 577.887 309.224 577.578 308.904C577.279 308.573 576.874 308.408 576.362 308.408C576.053 308.408 575.765 308.472 575.498 308.6C575.242 308.728 575.013 308.92 574.81 309.176V315H572.794ZM582.34 318.344V306.92H584.276V307.864C584.564 307.523 584.895 307.261 585.268 307.08C585.641 306.899 586.052 306.808 586.5 306.808C587.172 306.808 587.78 306.995 588.324 307.368C588.879 307.731 589.316 308.227 589.636 308.856C589.967 309.475 590.132 310.179 590.132 310.968C590.132 311.747 589.967 312.451 589.636 313.08C589.316 313.709 588.879 314.211 588.324 314.584C587.769 314.947 587.151 315.128 586.468 315.128C586.052 315.128 585.663 315.048 585.3 314.888C584.937 314.717 584.617 314.488 584.34 314.2V318.344H582.34ZM586.02 313.496C586.447 313.496 586.82 313.389 587.14 313.176C587.46 312.963 587.711 312.664 587.892 312.28C588.073 311.896 588.164 311.459 588.164 310.968C588.164 310.467 588.073 310.029 587.892 309.656C587.711 309.272 587.46 308.973 587.14 308.76C586.82 308.547 586.447 308.44 586.02 308.44C585.689 308.44 585.38 308.504 585.092 308.632C584.804 308.76 584.553 308.941 584.34 309.176V312.744C584.553 312.979 584.804 313.165 585.092 313.304C585.38 313.432 585.689 313.496 586.02 313.496ZM594.702 315.128C594.158 315.128 593.678 315.011 593.262 314.776C592.846 314.531 592.52 314.195 592.286 313.768C592.051 313.331 591.934 312.835 591.934 312.28V306.92H593.95V311.704C593.95 312.248 594.099 312.691 594.398 313.032C594.696 313.363 595.102 313.528 595.614 313.528C595.934 313.528 596.222 313.464 596.478 313.336C596.734 313.197 596.963 313 597.166 312.744V306.92H599.182V315H597.166V313.816C596.547 314.691 595.726 315.128 594.702 315.128ZM606.631 315.16C605.586 315.16 604.797 314.931 604.263 314.472C603.73 314.013 603.463 313.336 603.463 312.44V308.504H600.935V306.92H603.463V304.696L605.463 304.28V306.92H608.791V308.504H605.463V312.056C605.463 312.557 605.581 312.915 605.815 313.128C606.05 313.341 606.423 313.448 606.935 313.448C607.202 313.448 607.479 313.427 607.767 313.384C608.066 313.331 608.413 313.245 608.807 313.128V314.792C608.477 314.899 608.114 314.984 607.719 315.048C607.335 315.123 606.973 315.16 606.631 315.16Z" fill="white"/>
<path d="M432 349C432 344.582 435.582 341 440 341H684C688.419 341 692 344.582 692 349V372C692 376.418 688.419 380 684 380H440C435.582 380 432 376.418 432 372V349Z" stroke="#E66A32" stroke-dasharray="2 2"/>
<path d="M499.772 366.176C498.972 366.176 498.236 365.952 497.564 365.504C496.903 365.056 496.375 364.405 495.98 363.552C495.585 362.688 495.388 361.637 495.388 360.4C495.388 359.163 495.585 358.117 495.98 357.264C496.375 356.4 496.903 355.744 497.564 355.296C498.236 354.848 498.972 354.624 499.772 354.624C500.444 354.624 501.057 354.768 501.612 355.056C502.167 355.344 502.641 355.76 503.036 356.304C503.441 356.848 503.735 357.515 503.916 358.304L502.012 358.816C501.873 358.069 501.601 357.504 501.196 357.12C500.791 356.725 500.332 356.528 499.82 356.528C499.393 356.528 499.004 356.672 498.652 356.96C498.311 357.237 498.039 357.664 497.836 358.24C497.633 358.805 497.532 359.525 497.532 360.4C497.532 361.264 497.633 361.984 497.836 362.56C498.039 363.136 498.311 363.568 498.652 363.856C499.004 364.133 499.393 364.272 499.82 364.272C500.332 364.272 500.791 364.08 501.196 363.696C501.601 363.301 501.873 362.731 502.012 361.984L503.916 362.496C503.735 363.275 503.441 363.941 503.036 364.496C502.641 365.04 502.167 365.456 501.612 365.744C501.057 366.032 500.444 366.176 499.772 366.176ZM509.238 366.16C508.47 366.16 507.777 365.979 507.158 365.616C506.539 365.243 506.049 364.741 505.686 364.112C505.323 363.472 505.142 362.757 505.142 361.968C505.142 361.189 505.323 360.485 505.686 359.856C506.049 359.216 506.539 358.715 507.158 358.352C507.777 357.979 508.47 357.792 509.238 357.792C510.017 357.792 510.71 357.979 511.318 358.352C511.937 358.715 512.427 359.216 512.79 359.856C513.153 360.485 513.334 361.189 513.334 361.968C513.334 362.757 513.153 363.472 512.79 364.112C512.427 364.741 511.937 365.243 511.318 365.616C510.71 365.979 510.017 366.16 509.238 366.16ZM509.238 364.448C509.654 364.448 510.022 364.341 510.342 364.128C510.662 363.915 510.913 363.621 511.094 363.248C511.275 362.875 511.366 362.453 511.366 361.984C511.366 361.504 511.275 361.083 511.094 360.72C510.913 360.347 510.662 360.053 510.342 359.84C510.022 359.627 509.654 359.52 509.238 359.52C508.822 359.52 508.454 359.627 508.134 359.84C507.814 360.053 507.563 360.347 507.382 360.72C507.201 361.083 507.11 361.504 507.11 361.984C507.11 362.453 507.201 362.875 507.382 363.248C507.563 363.621 507.814 363.915 508.134 364.128C508.454 364.341 508.822 364.448 509.238 364.448ZM514.768 366V357.92H516.464V358.608C516.656 358.341 516.864 358.144 517.088 358.016C517.322 357.877 517.584 357.808 517.872 357.808C518.213 357.808 518.517 357.893 518.784 358.064C519.061 358.224 519.274 358.459 519.424 358.768C519.637 358.448 519.882 358.208 520.16 358.048C520.448 357.888 520.768 357.808 521.12 357.808C521.653 357.808 522.085 358 522.416 358.384C522.746 358.768 522.912 359.269 522.912 359.888V366H521.232V360.416C521.232 360.064 521.157 359.787 521.008 359.584C520.858 359.381 520.645 359.28 520.368 359.28C520.24 359.28 520.117 359.307 520 359.36C519.893 359.403 519.786 359.493 519.68 359.632C519.69 359.685 519.696 359.744 519.696 359.808C519.696 359.861 519.696 359.92 519.696 359.984V366H518.016V360.416C518.016 360.064 517.941 359.787 517.792 359.584C517.642 359.381 517.424 359.28 517.136 359.28C517.018 359.28 516.901 359.301 516.784 359.344C516.677 359.387 516.57 359.472 516.464 359.6V366H514.768ZM524.361 366V357.92H526.057V358.608C526.249 358.341 526.457 358.144 526.681 358.016C526.916 357.877 527.177 357.808 527.465 357.808C527.807 357.808 528.111 357.893 528.377 358.064C528.655 358.224 528.868 358.459 529.017 358.768C529.231 358.448 529.476 358.208 529.753 358.048C530.041 357.888 530.361 357.808 530.713 357.808C531.247 357.808 531.679 358 532.009 358.384C532.34 358.768 532.505 359.269 532.505 359.888V366H530.825V360.416C530.825 360.064 530.751 359.787 530.601 359.584C530.452 359.381 530.239 359.28 529.961 359.28C529.833 359.28 529.711 359.307 529.593 359.36C529.487 359.403 529.38 359.493 529.273 359.632C529.284 359.685 529.289 359.744 529.289 359.808C529.289 359.861 529.289 359.92 529.289 359.984V366H527.609V360.416C527.609 360.064 527.535 359.787 527.385 359.584C527.236 359.381 527.017 359.28 526.729 359.28C526.612 359.28 526.495 359.301 526.377 359.344C526.271 359.387 526.164 359.472 526.057 359.6V366H524.361ZM537.027 366.144C536.462 366.144 535.96 366.043 535.523 365.84C535.086 365.627 534.744 365.339 534.499 364.976C534.264 364.603 534.147 364.176 534.147 363.696C534.147 363.195 534.275 362.768 534.531 362.416C534.787 362.064 535.15 361.792 535.619 361.6C536.088 361.408 536.643 361.312 537.283 361.312C537.646 361.312 538.003 361.349 538.355 361.424C538.707 361.499 539.064 361.627 539.427 361.808V361.024C539.427 360.501 539.272 360.112 538.963 359.856C538.664 359.589 538.211 359.456 537.603 359.456C537.251 359.456 536.883 359.509 536.499 359.616C536.115 359.723 535.683 359.893 535.203 360.128L534.451 358.672C535.091 358.363 535.699 358.139 536.275 358C536.862 357.861 537.438 357.792 538.003 357.792C539.08 357.792 539.918 358.059 540.515 358.592C541.112 359.115 541.411 359.861 541.411 360.832V366H539.427V365.168C539.064 365.509 538.686 365.76 538.291 365.92C537.907 366.069 537.486 366.144 537.027 366.144ZM536.019 363.648C536.019 363.989 536.158 364.261 536.435 364.464C536.723 364.667 537.107 364.768 537.587 364.768C537.939 364.768 538.264 364.715 538.563 364.608C538.872 364.501 539.16 364.336 539.427 364.112V362.928C539.15 362.8 538.862 362.709 538.563 362.656C538.275 362.603 537.971 362.576 537.651 362.576C537.15 362.576 536.75 362.672 536.451 362.864C536.163 363.056 536.019 363.317 536.019 363.648ZM544.013 366V357.92H546.029V359.104C546.648 358.229 547.469 357.792 548.493 357.792C549.037 357.792 549.517 357.915 549.933 358.16C550.349 358.395 550.674 358.725 550.909 359.152C551.144 359.579 551.261 360.075 551.261 360.64V366H549.261V361.216C549.261 360.661 549.106 360.224 548.797 359.904C548.498 359.573 548.093 359.408 547.581 359.408C547.272 359.408 546.984 359.472 546.717 359.6C546.461 359.728 546.232 359.92 546.029 360.176V366H544.013ZM556.695 366.128C556.023 366.128 555.409 365.947 554.855 365.584C554.311 365.211 553.873 364.709 553.543 364.08C553.223 363.451 553.063 362.747 553.063 361.968C553.063 361.179 553.223 360.475 553.543 359.856C553.873 359.227 554.316 358.731 554.871 358.368C555.425 357.995 556.044 357.808 556.727 357.808C557.143 357.808 557.527 357.888 557.879 358.048C558.241 358.208 558.561 358.437 558.839 358.736V354.528L560.855 354.208V366H558.903V365.104C558.625 365.435 558.3 365.691 557.927 365.872C557.553 366.043 557.143 366.128 556.695 366.128ZM557.175 364.496C557.505 364.496 557.815 364.432 558.103 364.304C558.391 364.176 558.636 363.995 558.839 363.76V360.176C558.636 359.941 558.385 359.76 558.087 359.632C557.799 359.504 557.495 359.44 557.175 359.44C556.748 359.44 556.375 359.547 556.055 359.76C555.735 359.973 555.484 360.272 555.303 360.656C555.121 361.029 555.031 361.467 555.031 361.968C555.031 362.459 555.121 362.896 555.303 363.28C555.484 363.664 555.735 363.963 556.055 364.176C556.375 364.389 556.748 364.496 557.175 364.496ZM572.794 366V354.8H576.73C577.477 354.8 578.133 354.944 578.698 355.232C579.274 355.52 579.722 355.92 580.042 356.432C580.362 356.944 580.522 357.541 580.522 358.224C580.522 358.949 580.33 359.579 579.946 360.112C579.573 360.645 579.066 361.04 578.426 361.296L580.842 366H578.57L576.41 361.632H574.938V366H572.794ZM574.938 359.92H576.538C577.093 359.92 577.535 359.771 577.866 359.472C578.197 359.163 578.362 358.757 578.362 358.256C578.362 357.744 578.197 357.339 577.866 357.04C577.535 356.741 577.093 356.592 576.538 356.592H574.938V359.92ZM586.212 366.16C585.412 366.16 584.692 365.979 584.052 365.616C583.412 365.243 582.905 364.741 582.532 364.112C582.159 363.472 581.972 362.757 581.972 361.968C581.972 361.179 582.148 360.469 582.5 359.84C582.863 359.211 583.348 358.715 583.956 358.352C584.564 357.979 585.252 357.792 586.02 357.792C586.809 357.792 587.508 357.973 588.116 358.336C588.735 358.699 589.215 359.195 589.556 359.824C589.908 360.453 590.084 361.173 590.084 361.984V362.464H583.94C584.015 362.869 584.159 363.227 584.372 363.536C584.585 363.845 584.857 364.085 585.188 364.256C585.529 364.427 585.903 364.512 586.308 364.512C586.713 364.512 587.087 364.437 587.428 364.288C587.769 364.139 588.057 363.925 588.292 363.648L589.604 364.816C589.124 365.285 588.607 365.627 588.052 365.84C587.497 366.053 586.884 366.16 586.212 366.16ZM583.972 361.248H588.18C588.116 360.864 587.983 360.539 587.78 360.272C587.588 359.995 587.343 359.781 587.044 359.632C586.756 359.483 586.425 359.408 586.052 359.408C585.711 359.408 585.391 359.483 585.092 359.632C584.804 359.781 584.564 359.995 584.372 360.272C584.18 360.539 584.047 360.864 583.972 361.248ZM595.518 366.16C594.76 366.16 594.056 366.064 593.406 365.872C592.755 365.669 592.2 365.376 591.742 364.992L592.718 363.68C593.283 364.032 593.779 364.277 594.206 364.416C594.643 364.555 595.08 364.624 595.518 364.624C596.083 364.624 596.526 364.539 596.846 364.368C597.176 364.197 597.342 363.968 597.342 363.68C597.342 363.445 597.246 363.269 597.054 363.152C596.862 363.024 596.611 362.928 596.302 362.864C595.992 362.8 595.651 362.741 595.278 362.688C594.904 362.635 594.526 362.565 594.142 362.48C593.768 362.384 593.427 362.256 593.118 362.096C592.808 361.925 592.558 361.701 592.366 361.424C592.174 361.136 592.078 360.763 592.078 360.304C592.078 359.771 592.216 359.317 592.494 358.944C592.782 358.571 593.182 358.283 593.694 358.08C594.216 357.877 594.814 357.776 595.486 357.776C596.104 357.776 596.712 357.861 597.31 358.032C597.918 358.192 598.488 358.459 599.022 358.832L598.046 360.112C597.619 359.824 597.187 359.616 596.75 359.488C596.312 359.36 595.875 359.296 595.438 359.296C594.947 359.296 594.563 359.376 594.286 359.536C594.008 359.685 593.87 359.888 593.87 360.144C593.87 360.368 593.96 360.539 594.142 360.656C594.334 360.773 594.59 360.864 594.91 360.928C595.23 360.992 595.576 361.051 595.95 361.104C596.334 361.157 596.712 361.232 597.086 361.328C597.47 361.413 597.822 361.541 598.142 361.712C598.462 361.872 598.718 362.096 598.91 362.384C599.102 362.672 599.198 363.051 599.198 363.52C599.198 364.043 599.032 364.501 598.702 364.896C598.382 365.291 597.944 365.6 597.39 365.824C596.835 366.048 596.211 366.16 595.518 366.16ZM604.295 366.128C603.751 366.128 603.271 366.011 602.855 365.776C602.439 365.531 602.114 365.195 601.879 364.768C601.645 364.331 601.527 363.835 601.527 363.28V357.92H603.543V362.704C603.543 363.248 603.693 363.691 603.991 364.032C604.29 364.363 604.695 364.528 605.207 364.528C605.527 364.528 605.815 364.464 606.071 364.336C606.327 364.197 606.557 364 606.759 363.744V357.92H608.775V366H606.759V364.816C606.141 365.691 605.319 366.128 604.295 366.128ZM616.673 366.16C615.66 366.16 614.892 365.92 614.369 365.44C613.846 364.96 613.585 364.251 613.585 363.312V355.952H610.721V354.368H615.601V363.104C615.601 363.573 615.713 363.915 615.937 364.128C616.161 364.341 616.513 364.448 616.993 364.448C617.249 364.448 617.5 364.427 617.745 364.384C617.99 364.331 618.262 364.24 618.561 364.112V365.792C618.337 365.888 618.049 365.973 617.697 366.048C617.345 366.123 617.004 366.16 616.673 366.16ZM625.819 366.16C624.774 366.16 623.984 365.931 623.451 365.472C622.918 365.013 622.651 364.336 622.651 363.44V359.504H620.123V357.92H622.651V355.696L624.651 355.28V357.92H627.979V359.504H624.651V363.056C624.651 363.557 624.768 363.915 625.003 364.128C625.238 364.341 625.611 364.448 626.123 364.448C626.39 364.448 626.667 364.427 626.955 364.384C627.254 364.331 627.6 364.245 627.995 364.128V365.792C627.664 365.899 627.302 365.984 626.907 366.048C626.523 366.123 626.16 366.16 625.819 366.16Z" fill="white"/>
<path d="M432 400C432 395.582 435.582 392 440 392H684C688.419 392 692 395.582 692 400V423C692 427.418 688.419 431 684 431H440C435.582 431 432 427.418 432 423V400Z" fill="white" fill-opacity="0.2"/>
<path d="M518.832 417.176C518.021 417.176 517.312 417.005 516.704 416.664C516.106 416.323 515.642 415.843 515.312 415.224C514.981 414.595 514.816 413.859 514.816 413.016V405.8H516.944V413.016C516.944 413.699 517.114 414.243 517.456 414.648C517.797 415.053 518.256 415.256 518.832 415.256C519.408 415.256 519.866 415.053 520.208 414.648C520.549 414.243 520.72 413.699 520.72 413.016V405.8H522.848V413.016C522.848 413.859 522.682 414.595 522.352 415.224C522.021 415.843 521.557 416.323 520.96 416.664C520.362 417.005 519.653 417.176 518.832 417.176ZM528.361 417.16C527.604 417.16 526.9 417.064 526.249 416.872C525.599 416.669 525.044 416.376 524.585 415.992L525.561 414.68C526.127 415.032 526.623 415.277 527.049 415.416C527.487 415.555 527.924 415.624 528.361 415.624C528.927 415.624 529.369 415.539 529.689 415.368C530.02 415.197 530.185 414.968 530.185 414.68C530.185 414.445 530.089 414.269 529.897 414.152C529.705 414.024 529.455 413.928 529.145 413.864C528.836 413.8 528.495 413.741 528.121 413.688C527.748 413.635 527.369 413.565 526.985 413.48C526.612 413.384 526.271 413.256 525.961 413.096C525.652 412.925 525.401 412.701 525.209 412.424C525.017 412.136 524.921 411.763 524.921 411.304C524.921 410.771 525.06 410.317 525.337 409.944C525.625 409.571 526.025 409.283 526.537 409.08C527.06 408.877 527.657 408.776 528.329 408.776C528.948 408.776 529.556 408.861 530.153 409.032C530.761 409.192 531.332 409.459 531.865 409.832L530.889 411.112C530.463 410.824 530.031 410.616 529.593 410.488C529.156 410.36 528.719 410.296 528.281 410.296C527.791 410.296 527.407 410.376 527.129 410.536C526.852 410.685 526.713 410.888 526.713 411.144C526.713 411.368 526.804 411.539 526.985 411.656C527.177 411.773 527.433 411.864 527.753 411.928C528.073 411.992 528.42 412.051 528.793 412.104C529.177 412.157 529.556 412.232 529.929 412.328C530.313 412.413 530.665 412.541 530.985 412.712C531.305 412.872 531.561 413.096 531.753 413.384C531.945 413.672 532.041 414.051 532.041 414.52C532.041 415.043 531.876 415.501 531.545 415.896C531.225 416.291 530.788 416.6 530.233 416.824C529.679 417.048 529.055 417.16 528.361 417.16ZM538.243 417.16C537.443 417.16 536.723 416.979 536.083 416.616C535.443 416.243 534.936 415.741 534.563 415.112C534.19 414.472 534.003 413.757 534.003 412.968C534.003 412.179 534.179 411.469 534.531 410.84C534.894 410.211 535.379 409.715 535.987 409.352C536.595 408.979 537.283 408.792 538.051 408.792C538.84 408.792 539.539 408.973 540.147 409.336C540.766 409.699 541.246 410.195 541.587 410.824C541.939 411.453 542.115 412.173 542.115 412.984V413.464H535.971C536.046 413.869 536.19 414.227 536.403 414.536C536.616 414.845 536.888 415.085 537.219 415.256C537.56 415.427 537.934 415.512 538.339 415.512C538.744 415.512 539.118 415.437 539.459 415.288C539.8 415.139 540.088 414.925 540.323 414.648L541.635 415.816C541.155 416.285 540.638 416.627 540.083 416.84C539.528 417.053 538.915 417.16 538.243 417.16ZM536.003 412.248H540.211C540.147 411.864 540.014 411.539 539.811 411.272C539.619 410.995 539.374 410.781 539.075 410.632C538.787 410.483 538.456 410.408 538.083 410.408C537.742 410.408 537.422 410.483 537.123 410.632C536.835 410.781 536.595 410.995 536.403 411.272C536.211 411.539 536.078 411.864 536.003 412.248ZM543.965 417V415.416H545.901V410.504H543.965V408.92H547.917V410.872C548.194 410.179 548.562 409.661 549.021 409.32C549.48 408.968 550.002 408.792 550.589 408.792C550.834 408.792 551.037 408.813 551.197 408.856C551.368 408.888 551.565 408.947 551.789 409.032V410.856C551.565 410.76 551.32 410.691 551.053 410.648C550.786 410.595 550.525 410.568 550.269 410.568C549.768 410.568 549.309 410.685 548.893 410.92C548.477 411.155 548.152 411.491 547.917 411.928V415.416H549.965V417H543.965ZM562.944 417V415.192H565.744V407.608H562.944V405.8H570.656V407.608H567.872V415.192H570.656V417H562.944ZM572.794 417V408.92H574.81V410.104C575.429 409.229 576.25 408.792 577.274 408.792C577.818 408.792 578.298 408.915 578.714 409.16C579.13 409.395 579.455 409.725 579.69 410.152C579.925 410.579 580.042 411.075 580.042 411.64V417H578.042V412.216C578.042 411.661 577.887 411.224 577.578 410.904C577.279 410.573 576.874 410.408 576.362 410.408C576.053 410.408 575.765 410.472 575.498 410.6C575.242 410.728 575.013 410.92 574.81 411.176V417H572.794ZM582.34 420.344V408.92H584.276V409.864C584.564 409.523 584.895 409.261 585.268 409.08C585.641 408.899 586.052 408.808 586.5 408.808C587.172 408.808 587.78 408.995 588.324 409.368C588.879 409.731 589.316 410.227 589.636 410.856C589.967 411.475 590.132 412.179 590.132 412.968C590.132 413.747 589.967 414.451 589.636 415.08C589.316 415.709 588.879 416.211 588.324 416.584C587.769 416.947 587.151 417.128 586.468 417.128C586.052 417.128 585.663 417.048 585.3 416.888C584.937 416.717 584.617 416.488 584.34 416.2V420.344H582.34ZM586.02 415.496C586.447 415.496 586.82 415.389 587.14 415.176C587.46 414.963 587.711 414.664 587.892 414.28C588.073 413.896 588.164 413.459 588.164 412.968C588.164 412.467 588.073 412.029 587.892 411.656C587.711 411.272 587.46 410.973 587.14 410.76C586.82 410.547 586.447 410.44 586.02 410.44C585.689 410.44 585.38 410.504 585.092 410.632C584.804 410.76 584.553 410.941 584.34 411.176V414.744C584.553 414.979 584.804 415.165 585.092 415.304C585.38 415.432 585.689 415.496 586.02 415.496ZM594.702 417.128C594.158 417.128 593.678 417.011 593.262 416.776C592.846 416.531 592.52 416.195 592.286 415.768C592.051 415.331 591.934 414.835 591.934 414.28V408.92H593.95V413.704C593.95 414.248 594.099 414.691 594.398 415.032C594.696 415.363 595.102 415.528 595.614 415.528C595.934 415.528 596.222 415.464 596.478 415.336C596.734 415.197 596.963 415 597.166 414.744V408.92H599.182V417H597.166V415.816C596.547 416.691 595.726 417.128 594.702 417.128ZM606.631 417.16C605.586 417.16 604.797 416.931 604.263 416.472C603.73 416.013 603.463 415.336 603.463 414.44V410.504H600.935V408.92H603.463V406.696L605.463 406.28V408.92H608.791V410.504H605.463V414.056C605.463 414.557 605.581 414.915 605.815 415.128C606.05 415.341 606.423 415.448 606.935 415.448C607.202 415.448 607.479 415.427 607.767 415.384C608.066 415.331 608.413 415.245 608.807 415.128V416.792C608.477 416.899 608.114 416.984 607.719 417.048C607.335 417.123 606.973 417.16 606.631 417.16Z" fill="white"/>
<path d="M432 247C432 242.582 435.582 239 440 239H684C688.419 239 692 242.582 692 247V270C692 274.418 688.419 278 684 278H440C435.582 278 432 274.418 432 270V247Z" fill="white" fill-opacity="0.2"/>
<path d="M470.927 264.176C470.116 264.176 469.354 264.043 468.639 263.776C467.924 263.509 467.215 263.104 466.511 262.56L467.615 260.96C468.308 261.483 468.911 261.856 469.423 262.08C469.935 262.304 470.452 262.416 470.975 262.416C471.391 262.416 471.748 262.352 472.047 262.224C472.346 262.085 472.58 261.899 472.751 261.664C472.922 261.429 473.007 261.163 473.007 260.864C473.007 260.491 472.895 260.197 472.671 259.984C472.447 259.771 472.148 259.605 471.775 259.488C471.412 259.36 471.007 259.253 470.559 259.168C470.122 259.072 469.679 258.965 469.231 258.848C468.794 258.72 468.388 258.544 468.015 258.32C467.652 258.096 467.359 257.797 467.135 257.424C466.911 257.04 466.799 256.549 466.799 255.952C466.799 255.269 466.959 254.683 467.279 254.192C467.599 253.701 468.058 253.317 468.655 253.04C469.252 252.763 469.962 252.624 470.783 252.624C471.54 252.624 472.271 252.741 472.975 252.976C473.69 253.211 474.351 253.557 474.959 254.016L473.871 255.6C473.338 255.195 472.81 254.891 472.287 254.688C471.764 254.485 471.236 254.384 470.703 254.384C470.127 254.384 469.668 254.512 469.327 254.768C468.986 255.024 468.815 255.355 468.815 255.76C468.815 256.123 468.927 256.405 469.151 256.608C469.386 256.811 469.69 256.976 470.063 257.104C470.436 257.221 470.847 257.328 471.295 257.424C471.743 257.509 472.191 257.621 472.639 257.76C473.087 257.888 473.498 258.064 473.871 258.288C474.244 258.512 474.543 258.816 474.767 259.2C474.991 259.584 475.103 260.08 475.103 260.688C475.103 261.371 474.927 261.979 474.575 262.512C474.234 263.035 473.748 263.445 473.119 263.744C472.5 264.032 471.77 264.176 470.927 264.176ZM477.737 267.504C477.534 267.504 477.31 267.488 477.065 267.456C476.83 267.435 476.595 267.397 476.361 267.344V265.6C476.595 265.643 476.787 265.675 476.937 265.696C477.097 265.717 477.283 265.728 477.497 265.728C477.859 265.728 478.158 265.659 478.393 265.52C478.627 265.392 478.803 265.179 478.921 264.88L479.241 264.16L476.121 255.92H478.329L480.377 261.776L482.585 255.92H484.745L480.873 265.28C480.649 265.813 480.398 266.245 480.121 266.576C479.843 266.907 479.513 267.141 479.129 267.28C478.745 267.429 478.281 267.504 477.737 267.504ZM489.986 264.16C489.229 264.16 488.525 264.064 487.874 263.872C487.224 263.669 486.669 263.376 486.21 262.992L487.186 261.68C487.752 262.032 488.248 262.277 488.674 262.416C489.112 262.555 489.549 262.624 489.986 262.624C490.552 262.624 490.994 262.539 491.314 262.368C491.645 262.197 491.81 261.968 491.81 261.68C491.81 261.445 491.714 261.269 491.522 261.152C491.33 261.024 491.08 260.928 490.77 260.864C490.461 260.8 490.12 260.741 489.746 260.688C489.373 260.635 488.994 260.565 488.61 260.48C488.237 260.384 487.896 260.256 487.586 260.096C487.277 259.925 487.026 259.701 486.834 259.424C486.642 259.136 486.546 258.763 486.546 258.304C486.546 257.771 486.685 257.317 486.962 256.944C487.25 256.571 487.65 256.283 488.162 256.08C488.685 255.877 489.282 255.776 489.954 255.776C490.573 255.776 491.181 255.861 491.778 256.032C492.386 256.192 492.957 256.459 493.49 256.832L492.514 258.112C492.088 257.824 491.656 257.616 491.218 257.488C490.781 257.36 490.344 257.296 489.906 257.296C489.416 257.296 489.032 257.376 488.754 257.536C488.477 257.685 488.338 257.888 488.338 258.144C488.338 258.368 488.429 258.539 488.61 258.656C488.802 258.773 489.058 258.864 489.378 258.928C489.698 258.992 490.045 259.051 490.418 259.104C490.802 259.157 491.181 259.232 491.554 259.328C491.938 259.413 492.29 259.541 492.61 259.712C492.93 259.872 493.186 260.096 493.378 260.384C493.57 260.672 493.666 261.051 493.666 261.52C493.666 262.043 493.501 262.501 493.17 262.896C492.85 263.291 492.413 263.6 491.858 263.824C491.304 264.048 490.68 264.16 489.986 264.16ZM501.1 264.16C500.055 264.16 499.265 263.931 498.732 263.472C498.199 263.013 497.932 262.336 497.932 261.44V257.504H495.404V255.92H497.932V253.696L499.932 253.28V255.92H503.26V257.504H499.932V261.056C499.932 261.557 500.049 261.915 500.284 262.128C500.519 262.341 500.892 262.448 501.404 262.448C501.671 262.448 501.948 262.427 502.236 262.384C502.535 262.331 502.881 262.245 503.276 262.128V263.792C502.945 263.899 502.583 263.984 502.188 264.048C501.804 264.123 501.441 264.16 501.1 264.16ZM509.462 264.16C508.662 264.16 507.942 263.979 507.302 263.616C506.662 263.243 506.155 262.741 505.782 262.112C505.409 261.472 505.222 260.757 505.222 259.968C505.222 259.179 505.398 258.469 505.75 257.84C506.113 257.211 506.598 256.715 507.206 256.352C507.814 255.979 508.502 255.792 509.27 255.792C510.059 255.792 510.758 255.973 511.366 256.336C511.985 256.699 512.465 257.195 512.806 257.824C513.158 258.453 513.334 259.173 513.334 259.984V260.464H507.19C507.265 260.869 507.409 261.227 507.622 261.536C507.835 261.845 508.107 262.085 508.438 262.256C508.779 262.427 509.153 262.512 509.558 262.512C509.963 262.512 510.337 262.437 510.678 262.288C511.019 262.139 511.307 261.925 511.542 261.648L512.854 262.816C512.374 263.285 511.857 263.627 511.302 263.84C510.747 264.053 510.134 264.16 509.462 264.16ZM507.222 259.248H511.43C511.366 258.864 511.233 258.539 511.03 258.272C510.838 257.995 510.593 257.781 510.294 257.632C510.006 257.483 509.675 257.408 509.302 257.408C508.961 257.408 508.641 257.483 508.342 257.632C508.054 257.781 507.814 257.995 507.622 258.272C507.43 258.539 507.297 258.864 507.222 259.248ZM514.768 264V255.92H516.464V256.608C516.656 256.341 516.864 256.144 517.088 256.016C517.322 255.877 517.584 255.808 517.872 255.808C518.213 255.808 518.517 255.893 518.784 256.064C519.061 256.224 519.274 256.459 519.424 256.768C519.637 256.448 519.882 256.208 520.16 256.048C520.448 255.888 520.768 255.808 521.12 255.808C521.653 255.808 522.085 256 522.416 256.384C522.746 256.768 522.912 257.269 522.912 257.888V264H521.232V258.416C521.232 258.064 521.157 257.787 521.008 257.584C520.858 257.381 520.645 257.28 520.368 257.28C520.24 257.28 520.117 257.307 520 257.36C519.893 257.403 519.786 257.493 519.68 257.632C519.69 257.685 519.696 257.744 519.696 257.808C519.696 257.861 519.696 257.92 519.696 257.984V264H518.016V258.416C518.016 258.064 517.941 257.787 517.792 257.584C517.642 257.381 517.424 257.28 517.136 257.28C517.018 257.28 516.901 257.301 516.784 257.344C516.677 257.387 516.57 257.472 516.464 257.6V264H514.768ZM534.371 264V252.8H538.403C539.171 252.8 539.838 252.949 540.403 253.248C540.979 253.547 541.422 253.963 541.731 254.496C542.04 255.029 542.195 255.643 542.195 256.336C542.195 257.008 542.04 257.611 541.731 258.144C541.422 258.667 540.979 259.077 540.403 259.376C539.838 259.675 539.171 259.824 538.403 259.824H536.515V264H534.371ZM536.515 258.08H538.067C538.707 258.08 539.198 257.92 539.539 257.6C539.88 257.269 540.051 256.848 540.051 256.336C540.051 255.813 539.88 255.392 539.539 255.072C539.198 254.752 538.707 254.592 538.067 254.592H536.515V258.08ZM543.965 264V262.416H545.901V257.504H543.965V255.92H547.917V257.872C548.194 257.179 548.562 256.661 549.021 256.32C549.48 255.968 550.002 255.792 550.589 255.792C550.834 255.792 551.037 255.813 551.197 255.856C551.368 255.888 551.565 255.947 551.789 256.032V257.856C551.565 257.76 551.32 257.691 551.053 257.648C550.786 257.595 550.525 257.568 550.269 257.568C549.768 257.568 549.309 257.685 548.893 257.92C548.477 258.155 548.152 258.491 547.917 258.928V262.416H549.965V264H543.965ZM557.207 264.16C556.439 264.16 555.745 263.979 555.127 263.616C554.508 263.243 554.017 262.741 553.655 262.112C553.292 261.472 553.111 260.757 553.111 259.968C553.111 259.189 553.292 258.485 553.655 257.856C554.017 257.216 554.508 256.715 555.127 256.352C555.745 255.979 556.439 255.792 557.207 255.792C557.985 255.792 558.679 255.979 559.287 256.352C559.905 256.715 560.396 257.216 560.759 257.856C561.121 258.485 561.303 259.189 561.303 259.968C561.303 260.757 561.121 261.472 560.759 262.112C560.396 262.741 559.905 263.243 559.287 263.616C558.679 263.979 557.985 264.16 557.207 264.16ZM557.207 262.448C557.623 262.448 557.991 262.341 558.311 262.128C558.631 261.915 558.881 261.621 559.063 261.248C559.244 260.875 559.335 260.453 559.335 259.984C559.335 259.504 559.244 259.083 559.063 258.72C558.881 258.347 558.631 258.053 558.311 257.84C557.991 257.627 557.623 257.52 557.207 257.52C556.791 257.52 556.423 257.627 556.103 257.84C555.783 258.053 555.532 258.347 555.351 258.72C555.169 259.083 555.079 259.504 555.079 259.984C555.079 260.453 555.169 260.875 555.351 261.248C555.532 261.621 555.783 261.915 556.103 262.128C556.423 262.341 556.791 262.448 557.207 262.448ZM562.736 264V255.92H564.432V256.608C564.624 256.341 564.832 256.144 565.056 256.016C565.291 255.877 565.552 255.808 565.84 255.808C566.182 255.808 566.486 255.893 566.752 256.064C567.03 256.224 567.243 256.459 567.392 256.768C567.606 256.448 567.851 256.208 568.128 256.048C568.416 255.888 568.736 255.808 569.088 255.808C569.622 255.808 570.054 256 570.384 256.384C570.715 256.768 570.88 257.269 570.88 257.888V264H569.2V258.416C569.2 258.064 569.126 257.787 568.976 257.584C568.827 257.381 568.614 257.28 568.336 257.28C568.208 257.28 568.086 257.307 567.968 257.36C567.862 257.403 567.755 257.493 567.648 257.632C567.659 257.685 567.664 257.744 567.664 257.808C567.664 257.861 567.664 257.92 567.664 257.984V264H565.984V258.416C565.984 258.064 565.91 257.787 565.76 257.584C565.611 257.381 565.392 257.28 565.104 257.28C564.987 257.28 564.87 257.301 564.752 257.344C564.646 257.387 564.539 257.472 564.432 257.6V264H562.736ZM572.746 267.344V255.92H574.682V256.864C574.97 256.523 575.301 256.261 575.674 256.08C576.047 255.899 576.458 255.808 576.906 255.808C577.578 255.808 578.186 255.995 578.73 256.368C579.285 256.731 579.722 257.227 580.042 257.856C580.373 258.475 580.538 259.179 580.538 259.968C580.538 260.747 580.373 261.451 580.042 262.08C579.722 262.709 579.285 263.211 578.73 263.584C578.175 263.947 577.557 264.128 576.874 264.128C576.458 264.128 576.069 264.048 575.706 263.888C575.343 263.717 575.023 263.488 574.746 263.2V267.344H572.746ZM576.426 262.496C576.853 262.496 577.226 262.389 577.546 262.176C577.866 261.963 578.117 261.664 578.298 261.28C578.479 260.896 578.57 260.459 578.57 259.968C578.57 259.467 578.479 259.029 578.298 258.656C578.117 258.272 577.866 257.973 577.546 257.76C577.226 257.547 576.853 257.44 576.426 257.44C576.095 257.44 575.786 257.504 575.498 257.632C575.21 257.76 574.959 257.941 574.746 258.176V261.744C574.959 261.979 575.21 262.165 575.498 262.304C575.786 262.432 576.095 262.496 576.426 262.496ZM587.444 264.16C586.399 264.16 585.609 263.931 585.076 263.472C584.543 263.013 584.276 262.336 584.276 261.44V257.504H581.748V255.92H584.276V253.696L586.276 253.28V255.92H589.604V257.504H586.276V261.056C586.276 261.557 586.393 261.915 586.628 262.128C586.863 262.341 587.236 262.448 587.748 262.448C588.015 262.448 588.292 262.427 588.58 262.384C588.879 262.331 589.225 262.245 589.62 262.128V263.792C589.289 263.899 588.927 263.984 588.532 264.048C588.148 264.123 587.785 264.16 587.444 264.16ZM604.279 264.176C603.586 264.176 602.978 264.048 602.455 263.792C601.933 263.525 601.522 263.157 601.223 262.688C600.935 262.208 600.791 261.648 600.791 261.008C600.791 260.4 600.935 259.856 601.223 259.376C601.522 258.885 601.981 258.421 602.599 257.984C602.279 257.515 602.045 257.077 601.895 256.672C601.746 256.256 601.671 255.835 601.671 255.408C601.671 254.875 601.794 254.4 602.039 253.984C602.295 253.568 602.647 253.237 603.095 252.992C603.543 252.747 604.045 252.624 604.599 252.624C605.133 252.624 605.607 252.736 606.023 252.96C606.439 253.173 606.765 253.467 606.999 253.84C607.245 254.203 607.367 254.629 607.367 255.12C607.367 255.504 607.287 255.867 607.127 256.208C606.978 256.549 606.727 256.885 606.375 257.216C606.023 257.547 605.559 257.893 604.983 258.256C605.282 258.587 605.607 258.939 605.959 259.312C606.322 259.685 606.695 260.064 607.079 260.448C607.218 260.139 607.346 259.797 607.463 259.424C607.581 259.051 607.682 258.651 607.767 258.224L609.415 258.496C609.287 259.104 609.127 259.669 608.935 260.192C608.754 260.704 608.546 261.173 608.311 261.6C608.674 261.909 608.983 262.176 609.239 262.4C609.495 262.613 609.735 262.805 609.959 262.976L608.775 264.272C608.519 264.059 608.263 263.851 608.007 263.648C607.751 263.435 607.49 263.211 607.223 262.976C606.818 263.371 606.365 263.669 605.863 263.872C605.373 264.075 604.845 264.176 604.279 264.176ZM603.383 255.376C603.383 255.643 603.437 255.915 603.543 256.192C603.661 256.459 603.831 256.763 604.055 257.104C604.45 256.869 604.765 256.651 604.999 256.448C605.234 256.235 605.399 256.027 605.495 255.824C605.602 255.621 605.655 255.403 605.655 255.168C605.655 254.848 605.549 254.581 605.335 254.368C605.122 254.155 604.861 254.048 604.551 254.048C604.21 254.048 603.927 254.171 603.703 254.416C603.49 254.651 603.383 254.971 603.383 255.376ZM602.551 260.896C602.551 261.44 602.717 261.872 603.047 262.192C603.378 262.512 603.826 262.672 604.391 262.672C604.701 262.672 604.999 262.608 605.287 262.48C605.575 262.341 605.837 262.144 606.071 261.888C605.623 261.451 605.186 261.008 604.759 260.56C604.343 260.101 603.938 259.648 603.543 259.2C603.202 259.467 602.951 259.739 602.791 260.016C602.631 260.293 602.551 260.587 602.551 260.896ZM623.307 264V254.608H619.899V252.8H628.827V254.608H625.435V264H623.307ZM633.957 264.16C633.189 264.16 632.495 263.979 631.877 263.616C631.258 263.243 630.767 262.741 630.405 262.112C630.042 261.472 629.861 260.757 629.861 259.968C629.861 259.189 630.042 258.485 630.405 257.856C630.767 257.216 631.258 256.715 631.877 256.352C632.495 255.979 633.189 255.792 633.957 255.792C634.735 255.792 635.429 255.979 636.037 256.352C636.655 256.715 637.146 257.216 637.509 257.856C637.871 258.485 638.053 259.189 638.053 259.968C638.053 260.757 637.871 261.472 637.509 262.112C637.146 262.741 636.655 263.243 636.037 263.616C635.429 263.979 634.735 264.16 633.957 264.16ZM633.957 262.448C634.373 262.448 634.741 262.341 635.061 262.128C635.381 261.915 635.631 261.621 635.813 261.248C635.994 260.875 636.085 260.453 636.085 259.984C636.085 259.504 635.994 259.083 635.813 258.72C635.631 258.347 635.381 258.053 635.061 257.84C634.741 257.627 634.373 257.52 633.957 257.52C633.541 257.52 633.173 257.627 632.853 257.84C632.533 258.053 632.282 258.347 632.101 258.72C631.919 259.083 631.829 259.504 631.829 259.984C631.829 260.453 631.919 260.875 632.101 261.248C632.282 261.621 632.533 261.915 632.853 262.128C633.173 262.341 633.541 262.448 633.957 262.448ZM643.55 264.16C642.782 264.16 642.089 263.979 641.47 263.616C640.852 263.243 640.361 262.741 639.998 262.112C639.636 261.472 639.454 260.757 639.454 259.968C639.454 259.189 639.636 258.485 639.998 257.856C640.361 257.216 640.852 256.715 641.47 256.352C642.089 255.979 642.782 255.792 643.55 255.792C644.329 255.792 645.022 255.979 645.63 256.352C646.249 256.715 646.74 257.216 647.102 257.856C647.465 258.485 647.646 259.189 647.646 259.968C647.646 260.757 647.465 261.472 647.102 262.112C646.74 262.741 646.249 263.243 645.63 263.616C645.022 263.979 644.329 264.16 643.55 264.16ZM643.55 262.448C643.966 262.448 644.334 262.341 644.654 262.128C644.974 261.915 645.225 261.621 645.406 261.248C645.588 260.875 645.678 260.453 645.678 259.984C645.678 259.504 645.588 259.083 645.406 258.72C645.225 258.347 644.974 258.053 644.654 257.84C644.334 257.627 643.966 257.52 643.55 257.52C643.134 257.52 642.766 257.627 642.446 257.84C642.126 258.053 641.876 258.347 641.694 258.72C641.513 259.083 641.422 259.504 641.422 259.984C641.422 260.453 641.513 260.875 641.694 261.248C641.876 261.621 642.126 261.915 642.446 262.128C642.766 262.341 643.134 262.448 643.55 262.448ZM655.048 264.16C654.035 264.16 653.267 263.92 652.744 263.44C652.221 262.96 651.96 262.251 651.96 261.312V253.952H649.096V252.368H653.976V261.104C653.976 261.573 654.088 261.915 654.312 262.128C654.536 262.341 654.888 262.448 655.368 262.448C655.624 262.448 655.875 262.427 656.12 262.384C656.365 262.331 656.637 262.24 656.936 262.112V263.792C656.712 263.888 656.424 263.973 656.072 264.048C655.72 264.123 655.379 264.16 655.048 264.16Z" fill="white"/>
<path d="M432 451C432 446.582 435.582 443 440 443H684C688.419 443 692 446.582 692 451V474C692 478.418 688.419 482 684 482H440C435.582 482 432 478.418 432 474V451Z" fill="white" fill-opacity="0.2"/>
<path d="M475.769 468L479.209 456.8H481.705L485.145 468H482.985L482.249 465.424H478.601L477.849 468H475.769ZM479.049 463.776H481.785L480.425 459.088L479.049 463.776ZM489.986 468.16C489.229 468.16 488.525 468.064 487.874 467.872C487.224 467.669 486.669 467.376 486.21 466.992L487.186 465.68C487.752 466.032 488.248 466.277 488.674 466.416C489.112 466.555 489.549 466.624 489.986 466.624C490.552 466.624 490.994 466.539 491.314 466.368C491.645 466.197 491.81 465.968 491.81 465.68C491.81 465.445 491.714 465.269 491.522 465.152C491.33 465.024 491.08 464.928 490.77 464.864C490.461 464.8 490.12 464.741 489.746 464.688C489.373 464.635 488.994 464.565 488.61 464.48C488.237 464.384 487.896 464.256 487.586 464.096C487.277 463.925 487.026 463.701 486.834 463.424C486.642 463.136 486.546 462.763 486.546 462.304C486.546 461.771 486.685 461.317 486.962 460.944C487.25 460.571 487.65 460.283 488.162 460.08C488.685 459.877 489.282 459.776 489.954 459.776C490.573 459.776 491.181 459.861 491.778 460.032C492.386 460.192 492.957 460.459 493.49 460.832L492.514 462.112C492.088 461.824 491.656 461.616 491.218 461.488C490.781 461.36 490.344 461.296 489.906 461.296C489.416 461.296 489.032 461.376 488.754 461.536C488.477 461.685 488.338 461.888 488.338 462.144C488.338 462.368 488.429 462.539 488.61 462.656C488.802 462.773 489.058 462.864 489.378 462.928C489.698 462.992 490.045 463.051 490.418 463.104C490.802 463.157 491.181 463.232 491.554 463.328C491.938 463.413 492.29 463.541 492.61 463.712C492.93 463.872 493.186 464.096 493.378 464.384C493.57 464.672 493.666 465.051 493.666 465.52C493.666 466.043 493.501 466.501 493.17 466.896C492.85 467.291 492.413 467.6 491.858 467.824C491.304 468.048 490.68 468.16 489.986 468.16ZM499.58 468.16C498.823 468.16 498.119 468.064 497.468 467.872C496.817 467.669 496.263 467.376 495.804 466.992L496.78 465.68C497.345 466.032 497.841 466.277 498.268 466.416C498.705 466.555 499.143 466.624 499.58 466.624C500.145 466.624 500.588 466.539 500.908 466.368C501.239 466.197 501.404 465.968 501.404 465.68C501.404 465.445 501.308 465.269 501.116 465.152C500.924 465.024 500.673 464.928 500.364 464.864C500.055 464.8 499.713 464.741 499.34 464.688C498.967 464.635 498.588 464.565 498.204 464.48C497.831 464.384 497.489 464.256 497.18 464.096C496.871 463.925 496.62 463.701 496.428 463.424C496.236 463.136 496.14 462.763 496.14 462.304C496.14 461.771 496.279 461.317 496.556 460.944C496.844 460.571 497.244 460.283 497.756 460.08C498.279 459.877 498.876 459.776 499.548 459.776C500.167 459.776 500.775 459.861 501.372 460.032C501.98 460.192 502.551 460.459 503.084 460.832L502.108 462.112C501.681 461.824 501.249 461.616 500.812 461.488C500.375 461.36 499.937 461.296 499.5 461.296C499.009 461.296 498.625 461.376 498.348 461.536C498.071 461.685 497.932 461.888 497.932 462.144C497.932 462.368 498.023 462.539 498.204 462.656C498.396 462.773 498.652 462.864 498.972 462.928C499.292 462.992 499.639 463.051 500.012 463.104C500.396 463.157 500.775 463.232 501.148 463.328C501.532 463.413 501.884 463.541 502.204 463.712C502.524 463.872 502.78 464.096 502.972 464.384C503.164 464.672 503.26 465.051 503.26 465.52C503.26 466.043 503.095 466.501 502.764 466.896C502.444 467.291 502.007 467.6 501.452 467.824C500.897 468.048 500.273 468.16 499.58 468.16ZM509.206 458.432C508.822 458.432 508.497 458.299 508.23 458.032C507.963 457.755 507.83 457.429 507.83 457.056C507.83 456.683 507.963 456.363 508.23 456.096C508.497 455.819 508.822 455.68 509.206 455.68C509.579 455.68 509.899 455.819 510.166 456.096C510.443 456.363 510.582 456.683 510.582 457.056C510.582 457.429 510.443 457.755 510.166 458.032C509.899 458.299 509.579 458.432 509.206 458.432ZM511.286 468.16C510.273 468.16 509.505 467.92 508.982 467.44C508.459 466.96 508.198 466.251 508.198 465.312V461.504H505.318V459.92H510.198V465.104C510.198 465.573 510.31 465.915 510.534 466.128C510.769 466.341 511.126 466.448 511.606 466.448C511.862 466.448 512.113 466.427 512.358 466.384C512.603 466.331 512.875 466.24 513.174 466.112V467.792C512.95 467.888 512.662 467.973 512.31 468.048C511.958 468.123 511.617 468.16 511.286 468.16ZM518.768 468.16C518.01 468.16 517.306 468.064 516.656 467.872C516.005 467.669 515.45 467.376 514.992 466.992L515.968 465.68C516.533 466.032 517.029 466.277 517.456 466.416C517.893 466.555 518.33 466.624 518.768 466.624C519.333 466.624 519.776 466.539 520.096 466.368C520.426 466.197 520.592 465.968 520.592 465.68C520.592 465.445 520.496 465.269 520.304 465.152C520.112 465.024 519.861 464.928 519.552 464.864C519.242 464.8 518.901 464.741 518.528 464.688C518.154 464.635 517.776 464.565 517.392 464.48C517.018 464.384 516.677 464.256 516.368 464.096C516.058 463.925 515.808 463.701 515.616 463.424C515.424 463.136 515.328 462.763 515.328 462.304C515.328 461.771 515.466 461.317 515.744 460.944C516.032 460.571 516.432 460.283 516.944 460.08C517.466 459.877 518.064 459.776 518.736 459.776C519.354 459.776 519.962 459.861 520.56 460.032C521.168 460.192 521.738 460.459 522.272 460.832L521.296 462.112C520.869 461.824 520.437 461.616 520 461.488C519.562 461.36 519.125 461.296 518.688 461.296C518.197 461.296 517.813 461.376 517.536 461.536C517.258 461.685 517.12 461.888 517.12 462.144C517.12 462.368 517.21 462.539 517.392 462.656C517.584 462.773 517.84 462.864 518.16 462.928C518.48 462.992 518.826 463.051 519.2 463.104C519.584 463.157 519.962 463.232 520.336 463.328C520.72 463.413 521.072 463.541 521.392 463.712C521.712 463.872 521.968 464.096 522.16 464.384C522.352 464.672 522.448 465.051 522.448 465.52C522.448 466.043 522.282 466.501 521.952 466.896C521.632 467.291 521.194 467.6 520.64 467.824C520.085 468.048 519.461 468.16 518.768 468.16ZM529.881 468.16C528.836 468.16 528.047 467.931 527.513 467.472C526.98 467.013 526.713 466.336 526.713 465.44V461.504H524.185V459.92H526.713V457.696L528.713 457.28V459.92H532.041V461.504H528.713V465.056C528.713 465.557 528.831 465.915 529.065 466.128C529.3 466.341 529.673 466.448 530.185 466.448C530.452 466.448 530.729 466.427 531.017 466.384C531.316 466.331 531.663 466.245 532.057 466.128V467.792C531.727 467.899 531.364 467.984 530.969 468.048C530.585 468.123 530.223 468.16 529.881 468.16ZM537.027 468.144C536.462 468.144 535.96 468.043 535.523 467.84C535.086 467.627 534.744 467.339 534.499 466.976C534.264 466.603 534.147 466.176 534.147 465.696C534.147 465.195 534.275 464.768 534.531 464.416C534.787 464.064 535.15 463.792 535.619 463.6C536.088 463.408 536.643 463.312 537.283 463.312C537.646 463.312 538.003 463.349 538.355 463.424C538.707 463.499 539.064 463.627 539.427 463.808V463.024C539.427 462.501 539.272 462.112 538.963 461.856C538.664 461.589 538.211 461.456 537.603 461.456C537.251 461.456 536.883 461.509 536.499 461.616C536.115 461.723 535.683 461.893 535.203 462.128L534.451 460.672C535.091 460.363 535.699 460.139 536.275 460C536.862 459.861 537.438 459.792 538.003 459.792C539.08 459.792 539.918 460.059 540.515 460.592C541.112 461.115 541.411 461.861 541.411 462.832V468H539.427V467.168C539.064 467.509 538.686 467.76 538.291 467.92C537.907 468.069 537.486 468.144 537.027 468.144ZM536.019 465.648C536.019 465.989 536.158 466.261 536.435 466.464C536.723 466.667 537.107 466.768 537.587 466.768C537.939 466.768 538.264 466.715 538.563 466.608C538.872 466.501 539.16 466.336 539.427 466.112V464.928C539.15 464.8 538.862 464.709 538.563 464.656C538.275 464.603 537.971 464.576 537.651 464.576C537.15 464.576 536.75 464.672 536.451 464.864C536.163 465.056 536.019 465.317 536.019 465.648ZM544.013 468V459.92H546.029V461.104C546.648 460.229 547.469 459.792 548.493 459.792C549.037 459.792 549.517 459.915 549.933 460.16C550.349 460.395 550.674 460.725 550.909 461.152C551.144 461.579 551.261 462.075 551.261 462.64V468H549.261V463.216C549.261 462.661 549.106 462.224 548.797 461.904C548.498 461.573 548.093 461.408 547.581 461.408C547.272 461.408 546.984 461.472 546.717 461.6C546.461 461.728 546.232 461.92 546.029 462.176V468H544.013ZM558.663 468.16C557.617 468.16 556.828 467.931 556.295 467.472C555.761 467.013 555.495 466.336 555.495 465.44V461.504H552.967V459.92H555.495V457.696L557.495 457.28V459.92H560.823V461.504H557.495V465.056C557.495 465.557 557.612 465.915 557.847 466.128C558.081 466.341 558.455 466.448 558.967 466.448C559.233 466.448 559.511 466.427 559.799 466.384C560.097 466.331 560.444 466.245 560.839 466.128V467.792C560.508 467.899 560.145 467.984 559.751 468.048C559.367 468.123 559.004 468.16 558.663 468.16ZM572.794 468V456.8H576.73C577.477 456.8 578.133 456.944 578.698 457.232C579.274 457.52 579.722 457.92 580.042 458.432C580.362 458.944 580.522 459.541 580.522 460.224C580.522 460.949 580.33 461.579 579.946 462.112C579.573 462.645 579.066 463.04 578.426 463.296L580.842 468H578.57L576.41 463.632H574.938V468H572.794ZM574.938 461.92H576.538C577.093 461.92 577.535 461.771 577.866 461.472C578.197 461.163 578.362 460.757 578.362 460.256C578.362 459.744 578.197 459.339 577.866 459.04C577.535 458.741 577.093 458.592 576.538 458.592H574.938V461.92ZM586.212 468.16C585.412 468.16 584.692 467.979 584.052 467.616C583.412 467.243 582.905 466.741 582.532 466.112C582.159 465.472 581.972 464.757 581.972 463.968C581.972 463.179 582.148 462.469 582.5 461.84C582.863 461.211 583.348 460.715 583.956 460.352C584.564 459.979 585.252 459.792 586.02 459.792C586.809 459.792 587.508 459.973 588.116 460.336C588.735 460.699 589.215 461.195 589.556 461.824C589.908 462.453 590.084 463.173 590.084 463.984V464.464H583.94C584.015 464.869 584.159 465.227 584.372 465.536C584.585 465.845 584.857 466.085 585.188 466.256C585.529 466.427 585.903 466.512 586.308 466.512C586.713 466.512 587.087 466.437 587.428 466.288C587.769 466.139 588.057 465.925 588.292 465.648L589.604 466.816C589.124 467.285 588.607 467.627 588.052 467.84C587.497 468.053 586.884 468.16 586.212 468.16ZM583.972 463.248H588.18C588.116 462.864 587.983 462.539 587.78 462.272C587.588 461.995 587.343 461.781 587.044 461.632C586.756 461.483 586.425 461.408 586.052 461.408C585.711 461.408 585.391 461.483 585.092 461.632C584.804 461.781 584.564 461.995 584.372 462.272C584.18 462.539 584.047 462.864 583.972 463.248ZM595.518 468.16C594.76 468.16 594.056 468.064 593.406 467.872C592.755 467.669 592.2 467.376 591.742 466.992L592.718 465.68C593.283 466.032 593.779 466.277 594.206 466.416C594.643 466.555 595.08 466.624 595.518 466.624C596.083 466.624 596.526 466.539 596.846 466.368C597.176 466.197 597.342 465.968 597.342 465.68C597.342 465.445 597.246 465.269 597.054 465.152C596.862 465.024 596.611 464.928 596.302 464.864C595.992 464.8 595.651 464.741 595.278 464.688C594.904 464.635 594.526 464.565 594.142 464.48C593.768 464.384 593.427 464.256 593.118 464.096C592.808 463.925 592.558 463.701 592.366 463.424C592.174 463.136 592.078 462.763 592.078 462.304C592.078 461.771 592.216 461.317 592.494 460.944C592.782 460.571 593.182 460.283 593.694 460.08C594.216 459.877 594.814 459.776 595.486 459.776C596.104 459.776 596.712 459.861 597.31 460.032C597.918 460.192 598.488 460.459 599.022 460.832L598.046 462.112C597.619 461.824 597.187 461.616 596.75 461.488C596.312 461.36 595.875 461.296 595.438 461.296C594.947 461.296 594.563 461.376 594.286 461.536C594.008 461.685 593.87 461.888 593.87 462.144C593.87 462.368 593.96 462.539 594.142 462.656C594.334 462.773 594.59 462.864 594.91 462.928C595.23 462.992 595.576 463.051 595.95 463.104C596.334 463.157 596.712 463.232 597.086 463.328C597.47 463.413 597.822 463.541 598.142 463.712C598.462 463.872 598.718 464.096 598.91 464.384C599.102 464.672 599.198 465.051 599.198 465.52C599.198 466.043 599.032 466.501 598.702 466.896C598.382 467.291 597.944 467.6 597.39 467.824C596.835 468.048 596.211 468.16 595.518 468.16ZM601.527 471.344V459.92H603.463V460.864C603.751 460.523 604.082 460.261 604.455 460.08C604.829 459.899 605.239 459.808 605.687 459.808C606.359 459.808 606.967 459.995 607.511 460.368C608.066 460.731 608.503 461.227 608.823 461.856C609.154 462.475 609.319 463.179 609.319 463.968C609.319 464.747 609.154 465.451 608.823 466.08C608.503 466.709 608.066 467.211 607.511 467.584C606.957 467.947 606.338 468.128 605.655 468.128C605.239 468.128 604.85 468.048 604.487 467.888C604.125 467.717 603.805 467.488 603.527 467.2V471.344H601.527ZM605.207 466.496C605.634 466.496 606.007 466.389 606.327 466.176C606.647 465.963 606.898 465.664 607.079 465.28C607.261 464.896 607.351 464.459 607.351 463.968C607.351 463.467 607.261 463.029 607.079 462.656C606.898 462.272 606.647 461.973 606.327 461.76C606.007 461.547 605.634 461.44 605.207 461.44C604.877 461.44 604.567 461.504 604.279 461.632C603.991 461.76 603.741 461.941 603.527 462.176V465.744C603.741 465.979 603.991 466.165 604.279 466.304C604.567 466.432 604.877 466.496 605.207 466.496ZM614.769 468.16C614.001 468.16 613.308 467.979 612.689 467.616C612.07 467.243 611.58 466.741 611.217 466.112C610.854 465.472 610.673 464.757 610.673 463.968C610.673 463.189 610.854 462.485 611.217 461.856C611.58 461.216 612.07 460.715 612.689 460.352C613.308 459.979 614.001 459.792 614.769 459.792C615.548 459.792 616.241 459.979 616.849 460.352C617.468 460.715 617.958 461.216 618.321 461.856C618.684 462.485 618.865 463.189 618.865 463.968C618.865 464.757 618.684 465.472 618.321 466.112C617.958 466.741 617.468 467.243 616.849 467.616C616.241 467.979 615.548 468.16 614.769 468.16ZM614.769 466.448C615.185 466.448 615.553 466.341 615.873 466.128C616.193 465.915 616.444 465.621 616.625 465.248C616.806 464.875 616.897 464.453 616.897 463.984C616.897 463.504 616.806 463.083 616.625 462.72C616.444 462.347 616.193 462.053 615.873 461.84C615.553 461.627 615.185 461.52 614.769 461.52C614.353 461.52 613.985 461.627 613.665 461.84C613.345 462.053 613.094 462.347 612.913 462.72C612.732 463.083 612.641 463.504 612.641 463.984C612.641 464.453 612.732 464.875 612.913 465.248C613.094 465.621 613.345 465.915 613.665 466.128C613.985 466.341 614.353 466.448 614.769 466.448ZM620.763 468V459.92H622.779V461.104C623.398 460.229 624.219 459.792 625.243 459.792C625.787 459.792 626.267 459.915 626.683 460.16C627.099 460.395 627.424 460.725 627.659 461.152C627.894 461.579 628.011 462.075 628.011 462.64V468H626.011V463.216C626.011 462.661 625.856 462.224 625.547 461.904C625.248 461.573 624.843 461.408 624.331 461.408C624.022 461.408 623.734 461.472 623.467 461.6C623.211 461.728 622.982 461.92 622.779 462.176V468H620.763ZM633.893 468.16C633.135 468.16 632.431 468.064 631.781 467.872C631.13 467.669 630.575 467.376 630.117 466.992L631.093 465.68C631.658 466.032 632.154 466.277 632.581 466.416C633.018 466.555 633.455 466.624 633.893 466.624C634.458 466.624 634.901 466.539 635.221 466.368C635.551 466.197 635.717 465.968 635.717 465.68C635.717 465.445 635.621 465.269 635.429 465.152C635.237 465.024 634.986 464.928 634.677 464.864C634.367 464.8 634.026 464.741 633.653 464.688C633.279 464.635 632.901 464.565 632.517 464.48C632.143 464.384 631.802 464.256 631.493 464.096C631.183 463.925 630.933 463.701 630.741 463.424C630.549 463.136 630.453 462.763 630.453 462.304C630.453 461.771 630.591 461.317 630.869 460.944C631.157 460.571 631.557 460.283 632.069 460.08C632.591 459.877 633.189 459.776 633.861 459.776C634.479 459.776 635.087 459.861 635.685 460.032C636.293 460.192 636.863 460.459 637.397 460.832L636.421 462.112C635.994 461.824 635.562 461.616 635.125 461.488C634.687 461.36 634.25 461.296 633.813 461.296C633.322 461.296 632.938 461.376 632.661 461.536C632.383 461.685 632.245 461.888 632.245 462.144C632.245 462.368 632.335 462.539 632.517 462.656C632.709 462.773 632.965 462.864 633.285 462.928C633.605 462.992 633.951 463.051 634.325 463.104C634.709 463.157 635.087 463.232 635.461 463.328C635.845 463.413 636.197 463.541 636.517 463.712C636.837 463.872 637.093 464.096 637.285 464.384C637.477 464.672 637.573 465.051 637.573 465.52C637.573 466.043 637.407 466.501 637.077 466.896C636.757 467.291 636.319 467.6 635.765 467.824C635.21 468.048 634.586 468.16 633.893 468.16ZM643.774 468.16C642.974 468.16 642.254 467.979 641.614 467.616C640.974 467.243 640.468 466.741 640.094 466.112C639.721 465.472 639.534 464.757 639.534 463.968C639.534 463.179 639.71 462.469 640.062 461.84C640.425 461.211 640.91 460.715 641.518 460.352C642.126 459.979 642.814 459.792 643.582 459.792C644.372 459.792 645.07 459.973 645.678 460.336C646.297 460.699 646.777 461.195 647.118 461.824C647.47 462.453 647.646 463.173 647.646 463.984V464.464H641.502C641.577 464.869 641.721 465.227 641.934 465.536C642.148 465.845 642.42 466.085 642.75 466.256C643.092 466.427 643.465 466.512 643.87 466.512C644.276 466.512 644.649 466.437 644.99 466.288C645.332 466.139 645.62 465.925 645.854 465.648L647.166 466.816C646.686 467.285 646.169 467.627 645.614 467.84C645.06 468.053 644.446 468.16 643.774 468.16ZM641.534 463.248H645.742C645.678 462.864 645.545 462.539 645.342 462.272C645.15 461.995 644.905 461.781 644.606 461.632C644.318 461.483 643.988 461.408 643.614 461.408C643.273 461.408 642.953 461.483 642.654 461.632C642.366 461.781 642.126 461.995 641.934 462.272C641.742 462.539 641.609 462.864 641.534 463.248Z" fill="white"/>
<path d="M764 298C764 293.582 767.582 290 772 290H1016C1020.42 290 1024 293.582 1024 298V321C1024 325.418 1020.42 329 1016 329H772C767.582 329 764 325.418 764 321V298Z" fill="#E66A32"/>
<path d="M822.178 315.176C821.378 315.176 820.642 314.952 819.97 314.504C819.309 314.056 818.781 313.405 818.386 312.552C817.991 311.688 817.794 310.637 817.794 309.4C817.794 308.163 817.991 307.117 818.386 306.264C818.781 305.4 819.309 304.744 819.97 304.296C820.642 303.848 821.378 303.624 822.178 303.624C822.85 303.624 823.463 303.768 824.018 304.056C824.573 304.344 825.047 304.76 825.442 305.304C825.847 305.848 826.141 306.515 826.322 307.304L824.418 307.816C824.279 307.069 824.007 306.504 823.602 306.12C823.197 305.725 822.738 305.528 822.226 305.528C821.799 305.528 821.41 305.672 821.058 305.96C820.717 306.237 820.445 306.664 820.242 307.24C820.039 307.805 819.938 308.525 819.938 309.4C819.938 310.264 820.039 310.984 820.242 311.56C820.445 312.136 820.717 312.568 821.058 312.856C821.41 313.133 821.799 313.272 822.226 313.272C822.738 313.272 823.197 313.08 823.602 312.696C824.007 312.301 824.279 311.731 824.418 310.984L826.322 311.496C826.141 312.275 825.847 312.941 825.442 313.496C825.047 314.04 824.573 314.456 824.018 314.744C823.463 315.032 822.85 315.176 822.178 315.176ZM831.644 315.16C830.876 315.16 830.182 314.979 829.564 314.616C828.945 314.243 828.454 313.741 828.092 313.112C827.729 312.472 827.548 311.757 827.548 310.968C827.548 310.189 827.729 309.485 828.092 308.856C828.454 308.216 828.945 307.715 829.564 307.352C830.182 306.979 830.876 306.792 831.644 306.792C832.422 306.792 833.116 306.979 833.724 307.352C834.342 307.715 834.833 308.216 835.196 308.856C835.558 309.485 835.74 310.189 835.74 310.968C835.74 311.757 835.558 312.472 835.196 313.112C834.833 313.741 834.342 314.243 833.724 314.616C833.116 314.979 832.422 315.16 831.644 315.16ZM831.644 313.448C832.06 313.448 832.428 313.341 832.748 313.128C833.068 312.915 833.318 312.621 833.5 312.248C833.681 311.875 833.772 311.453 833.772 310.984C833.772 310.504 833.681 310.083 833.5 309.72C833.318 309.347 833.068 309.053 832.748 308.84C832.428 308.627 832.06 308.52 831.644 308.52C831.228 308.52 830.86 308.627 830.54 308.84C830.22 309.053 829.969 309.347 829.788 309.72C829.606 310.083 829.516 310.504 829.516 310.984C829.516 311.453 829.606 311.875 829.788 312.248C829.969 312.621 830.22 312.915 830.54 313.128C830.86 313.341 831.228 313.448 831.644 313.448ZM837.174 315V306.92H838.87V307.608C839.062 307.341 839.27 307.144 839.494 307.016C839.728 306.877 839.99 306.808 840.278 306.808C840.619 306.808 840.923 306.893 841.19 307.064C841.467 307.224 841.68 307.459 841.83 307.768C842.043 307.448 842.288 307.208 842.566 307.048C842.854 306.888 843.174 306.808 843.526 306.808C844.059 306.808 844.491 307 844.822 307.384C845.152 307.768 845.318 308.269 845.318 308.888V315H843.638V309.416C843.638 309.064 843.563 308.787 843.414 308.584C843.264 308.381 843.051 308.28 842.774 308.28C842.646 308.28 842.523 308.307 842.406 308.36C842.299 308.403 842.192 308.493 842.086 308.632C842.096 308.685 842.102 308.744 842.102 308.808C842.102 308.861 842.102 308.92 842.102 308.984V315H840.422V309.416C840.422 309.064 840.347 308.787 840.198 308.584C840.048 308.381 839.83 308.28 839.542 308.28C839.424 308.28 839.307 308.301 839.19 308.344C839.083 308.387 838.976 308.472 838.87 308.6V315H837.174ZM846.767 315V306.92H848.463V307.608C848.655 307.341 848.863 307.144 849.087 307.016C849.322 306.877 849.583 306.808 849.871 306.808C850.213 306.808 850.517 306.893 850.783 307.064C851.061 307.224 851.274 307.459 851.423 307.768C851.637 307.448 851.882 307.208 852.159 307.048C852.447 306.888 852.767 306.808 853.119 306.808C853.653 306.808 854.085 307 854.415 307.384C854.746 307.768 854.911 308.269 854.911 308.888V315H853.231V309.416C853.231 309.064 853.157 308.787 853.007 308.584C852.858 308.381 852.645 308.28 852.367 308.28C852.239 308.28 852.117 308.307 851.999 308.36C851.893 308.403 851.786 308.493 851.679 308.632C851.69 308.685 851.695 308.744 851.695 308.808C851.695 308.861 851.695 308.92 851.695 308.984V315H850.015V309.416C850.015 309.064 849.941 308.787 849.791 308.584C849.642 308.381 849.423 308.28 849.135 308.28C849.018 308.28 848.901 308.301 848.783 308.344C848.677 308.387 848.57 308.472 848.463 308.6V315H846.767ZM859.433 315.144C858.868 315.144 858.366 315.043 857.929 314.84C857.492 314.627 857.15 314.339 856.905 313.976C856.67 313.603 856.553 313.176 856.553 312.696C856.553 312.195 856.681 311.768 856.937 311.416C857.193 311.064 857.556 310.792 858.025 310.6C858.494 310.408 859.049 310.312 859.689 310.312C860.052 310.312 860.409 310.349 860.761 310.424C861.113 310.499 861.47 310.627 861.833 310.808V310.024C861.833 309.501 861.678 309.112 861.369 308.856C861.07 308.589 860.617 308.456 860.009 308.456C859.657 308.456 859.289 308.509 858.905 308.616C858.521 308.723 858.089 308.893 857.609 309.128L856.857 307.672C857.497 307.363 858.105 307.139 858.681 307C859.268 306.861 859.844 306.792 860.409 306.792C861.486 306.792 862.324 307.059 862.921 307.592C863.518 308.115 863.817 308.861 863.817 309.832V315H861.833V314.168C861.47 314.509 861.092 314.76 860.697 314.92C860.313 315.069 859.892 315.144 859.433 315.144ZM858.425 312.648C858.425 312.989 858.564 313.261 858.841 313.464C859.129 313.667 859.513 313.768 859.993 313.768C860.345 313.768 860.67 313.715 860.969 313.608C861.278 313.501 861.566 313.336 861.833 313.112V311.928C861.556 311.8 861.268 311.709 860.969 311.656C860.681 311.603 860.377 311.576 860.057 311.576C859.556 311.576 859.156 311.672 858.857 311.864C858.569 312.056 858.425 312.317 858.425 312.648ZM866.419 315V306.92H868.435V308.104C869.053 307.229 869.875 306.792 870.899 306.792C871.443 306.792 871.923 306.915 872.339 307.16C872.755 307.395 873.08 307.725 873.315 308.152C873.549 308.579 873.667 309.075 873.667 309.64V315H871.667V310.216C871.667 309.661 871.512 309.224 871.203 308.904C870.904 308.573 870.499 308.408 869.987 308.408C869.677 308.408 869.389 308.472 869.123 308.6C868.867 308.728 868.637 308.92 868.435 309.176V315H866.419ZM879.101 315.128C878.429 315.128 877.815 314.947 877.261 314.584C876.717 314.211 876.279 313.709 875.949 313.08C875.629 312.451 875.469 311.747 875.469 310.968C875.469 310.179 875.629 309.475 875.949 308.856C876.279 308.227 876.722 307.731 877.277 307.368C877.831 306.995 878.45 306.808 879.133 306.808C879.549 306.808 879.933 306.888 880.285 307.048C880.647 307.208 880.967 307.437 881.245 307.736V303.528L883.26 303.208V315H881.309V314.104C881.031 314.435 880.706 314.691 880.333 314.872C879.959 315.043 879.549 315.128 879.101 315.128ZM879.581 313.496C879.911 313.496 880.221 313.432 880.509 313.304C880.797 313.176 881.042 312.995 881.245 312.76V309.176C881.042 308.941 880.791 308.76 880.493 308.632C880.205 308.504 879.901 308.44 879.581 308.44C879.154 308.44 878.781 308.547 878.461 308.76C878.141 308.973 877.89 309.272 877.709 309.656C877.527 310.029 877.437 310.467 877.437 310.968C877.437 311.459 877.527 311.896 877.709 312.28C877.89 312.664 878.141 312.963 878.461 313.176C878.781 313.389 879.154 313.496 879.581 313.496ZM895.2 315V303.8H899.136C899.883 303.8 900.539 303.944 901.104 304.232C901.68 304.52 902.128 304.92 902.448 305.432C902.768 305.944 902.928 306.541 902.928 307.224C902.928 307.949 902.736 308.579 902.352 309.112C901.979 309.645 901.472 310.04 900.832 310.296L903.248 315H900.976L898.816 310.632H897.344V315H895.2ZM897.344 308.92H898.944C899.499 308.92 899.941 308.771 900.272 308.472C900.603 308.163 900.768 307.757 900.768 307.256C900.768 306.744 900.603 306.339 900.272 306.04C899.941 305.741 899.499 305.592 898.944 305.592H897.344V308.92ZM908.618 315.16C907.818 315.16 907.098 314.979 906.458 314.616C905.818 314.243 905.311 313.741 904.938 313.112C904.564 312.472 904.378 311.757 904.378 310.968C904.378 310.179 904.554 309.469 904.906 308.84C905.268 308.211 905.754 307.715 906.362 307.352C906.97 306.979 907.658 306.792 908.426 306.792C909.215 306.792 909.914 306.973 910.522 307.336C911.14 307.699 911.62 308.195 911.962 308.824C912.314 309.453 912.49 310.173 912.49 310.984V311.464H906.346C906.42 311.869 906.564 312.227 906.778 312.536C906.991 312.845 907.263 313.085 907.594 313.256C907.935 313.427 908.308 313.512 908.714 313.512C909.119 313.512 909.492 313.437 909.834 313.288C910.175 313.139 910.463 312.925 910.698 312.648L912.01 313.816C911.53 314.285 911.012 314.627 910.458 314.84C909.903 315.053 909.29 315.16 908.618 315.16ZM906.378 310.248H910.586C910.522 309.864 910.388 309.539 910.186 309.272C909.994 308.995 909.748 308.781 909.45 308.632C909.162 308.483 908.831 308.408 908.458 308.408C908.116 308.408 907.796 308.483 907.498 308.632C907.21 308.781 906.97 308.995 906.778 309.272C906.586 309.539 906.452 309.864 906.378 310.248ZM917.86 318.504C917.273 318.504 916.697 318.435 916.132 318.296C915.577 318.168 915.06 317.981 914.58 317.736L915.268 316.264C915.737 316.488 916.174 316.653 916.58 316.76C916.985 316.877 917.385 316.936 917.78 316.936C919.017 316.936 919.636 316.365 919.636 315.224V314.056C919.358 314.376 919.022 314.627 918.628 314.808C918.233 314.979 917.812 315.064 917.364 315.064C916.713 315.064 916.121 314.883 915.588 314.52C915.054 314.147 914.628 313.651 914.308 313.032C913.998 312.403 913.844 311.709 913.844 310.952C913.844 310.184 914.004 309.496 914.324 308.888C914.654 308.269 915.097 307.779 915.652 307.416C916.206 307.043 916.825 306.856 917.508 306.856C917.924 306.856 918.313 306.941 918.676 307.112C919.049 307.272 919.374 307.507 919.652 307.816V306.92H921.635V315.224C921.635 316.28 921.31 317.091 920.66 317.656C920.02 318.221 919.086 318.504 917.86 318.504ZM917.956 313.432C918.297 313.432 918.606 313.368 918.884 313.24C919.172 313.101 919.422 312.915 919.636 312.68V309.24C919.422 308.995 919.166 308.808 918.868 308.68C918.58 308.552 918.276 308.488 917.956 308.488C917.529 308.488 917.156 308.595 916.836 308.808C916.516 309.021 916.265 309.315 916.084 309.688C915.902 310.061 915.812 310.488 915.812 310.968C915.812 311.437 915.902 311.859 916.084 312.232C916.276 312.605 916.526 312.899 916.836 313.112C917.156 313.325 917.529 313.432 917.956 313.432ZM927.549 305.432C927.165 305.432 926.84 305.299 926.573 305.032C926.307 304.755 926.173 304.429 926.173 304.056C926.173 303.683 926.307 303.363 926.573 303.096C926.84 302.819 927.165 302.68 927.549 302.68C927.923 302.68 928.243 302.819 928.509 303.096C928.787 303.363 928.925 303.683 928.925 304.056C928.925 304.429 928.787 304.755 928.509 305.032C928.243 305.299 927.923 305.432 927.549 305.432ZM929.629 315.16C928.616 315.16 927.848 314.92 927.325 314.44C926.803 313.96 926.541 313.251 926.541 312.312V308.504H923.661V306.92H928.541V312.104C928.541 312.573 928.653 312.915 928.877 313.128C929.112 313.341 929.469 313.448 929.949 313.448C930.205 313.448 930.456 313.427 930.701 313.384C930.947 313.331 931.219 313.24 931.517 313.112V314.792C931.293 314.888 931.005 314.973 930.653 315.048C930.301 315.123 929.96 315.16 929.629 315.16ZM937.111 315.16C936.354 315.16 935.65 315.064 934.999 314.872C934.348 314.669 933.794 314.376 933.335 313.992L934.311 312.68C934.876 313.032 935.372 313.277 935.799 313.416C936.236 313.555 936.674 313.624 937.111 313.624C937.676 313.624 938.119 313.539 938.439 313.368C938.77 313.197 938.935 312.968 938.935 312.68C938.935 312.445 938.839 312.269 938.647 312.152C938.455 312.024 938.204 311.928 937.895 311.864C937.586 311.8 937.244 311.741 936.871 311.688C936.498 311.635 936.119 311.565 935.735 311.48C935.362 311.384 935.02 311.256 934.711 311.096C934.402 310.925 934.151 310.701 933.959 310.424C933.767 310.136 933.671 309.763 933.671 309.304C933.671 308.771 933.81 308.317 934.087 307.944C934.375 307.571 934.775 307.283 935.287 307.08C935.81 306.877 936.407 306.776 937.079 306.776C937.698 306.776 938.306 306.861 938.903 307.032C939.511 307.192 940.082 307.459 940.615 307.832L939.639 309.112C939.212 308.824 938.78 308.616 938.343 308.488C937.906 308.36 937.468 308.296 937.031 308.296C936.54 308.296 936.156 308.376 935.879 308.536C935.602 308.685 935.463 308.888 935.463 309.144C935.463 309.368 935.554 309.539 935.735 309.656C935.927 309.773 936.183 309.864 936.503 309.928C936.823 309.992 937.17 310.051 937.543 310.104C937.927 310.157 938.306 310.232 938.679 310.328C939.063 310.413 939.415 310.541 939.735 310.712C940.055 310.872 940.311 311.096 940.503 311.384C940.695 311.672 940.791 312.051 940.791 312.52C940.791 313.043 940.626 313.501 940.295 313.896C939.975 314.291 939.538 314.6 938.983 314.824C938.428 315.048 937.804 315.16 937.111 315.16ZM948.225 315.16C947.179 315.16 946.39 314.931 945.857 314.472C945.323 314.013 945.057 313.336 945.057 312.44V308.504H942.529V306.92H945.057V304.696L947.057 304.28V306.92H950.385V308.504H947.057V312.056C947.057 312.557 947.174 312.915 947.409 313.128C947.643 313.341 948.017 313.448 948.529 313.448C948.795 313.448 949.073 313.427 949.361 313.384C949.659 313.331 950.006 313.245 950.401 313.128V314.792C950.07 314.899 949.707 314.984 949.313 315.048C948.929 315.123 948.566 315.16 948.225 315.16ZM952.715 315V313.416H954.651V308.504H952.715V306.92H956.667V308.872C956.944 308.179 957.312 307.661 957.771 307.32C958.229 306.968 958.752 306.792 959.339 306.792C959.584 306.792 959.787 306.813 959.947 306.856C960.117 306.888 960.315 306.947 960.539 307.032V308.856C960.315 308.76 960.069 308.691 959.803 308.648C959.536 308.595 959.275 308.568 959.019 308.568C958.517 308.568 958.059 308.685 957.643 308.92C957.227 309.155 956.901 309.491 956.667 309.928V313.416H958.715V315H952.715ZM963.236 318.504C963.034 318.504 962.81 318.488 962.564 318.456C962.33 318.435 962.095 318.397 961.86 318.344V316.6C962.095 316.643 962.287 316.675 962.436 316.696C962.596 316.717 962.783 316.728 962.996 316.728C963.359 316.728 963.658 316.659 963.892 316.52C964.127 316.392 964.303 316.179 964.42 315.88L964.74 315.16L961.62 306.92H963.828L965.876 312.776L968.084 306.92H970.244L966.372 316.28C966.148 316.813 965.898 317.245 965.62 317.576C965.343 317.907 965.012 318.141 964.628 318.28C964.244 318.429 963.78 318.504 963.236 318.504Z" fill="#080808"/>
<path d="M764 400C764 395.582 767.582 392 772 392H1016C1020.42 392 1024 395.582 1024 400V474C1024 478.418 1020.42 482 1016 482H772C767.582 482 764 478.418 764 474V400Z" fill="white"/>
<path d="M804.235 442.5V431.3H806.379V440.692H811.707V442.5H804.235ZM813.829 442.5V431.3H815.973V440.692H821.301V442.5H813.829ZM822.815 442.5V431.3H825.151L826.863 435.524L828.543 431.3H830.879V442.5H829.039V434.228L826.831 439.524L824.623 434.228V442.5H822.815ZM845.138 442.676C844.445 442.676 843.837 442.548 843.314 442.292C842.792 442.025 842.381 441.657 842.082 441.188C841.794 440.708 841.65 440.148 841.65 439.508C841.65 438.9 841.794 438.356 842.082 437.876C842.381 437.385 842.84 436.921 843.458 436.484C843.138 436.015 842.904 435.577 842.754 435.172C842.605 434.756 842.53 434.335 842.53 433.908C842.53 433.375 842.653 432.9 842.898 432.484C843.154 432.068 843.506 431.737 843.954 431.492C844.402 431.247 844.904 431.124 845.458 431.124C845.992 431.124 846.466 431.236 846.882 431.46C847.298 431.673 847.624 431.967 847.858 432.34C848.104 432.703 848.226 433.129 848.226 433.62C848.226 434.004 848.146 434.367 847.986 434.708C847.837 435.049 847.586 435.385 847.234 435.716C846.882 436.047 846.418 436.393 845.842 436.756C846.141 437.087 846.466 437.439 846.818 437.812C847.181 438.185 847.554 438.564 847.938 438.948C848.077 438.639 848.205 438.297 848.322 437.924C848.44 437.551 848.541 437.151 848.626 436.724L850.274 436.996C850.146 437.604 849.986 438.169 849.794 438.692C849.613 439.204 849.405 439.673 849.17 440.1C849.533 440.409 849.842 440.676 850.098 440.9C850.354 441.113 850.594 441.305 850.818 441.476L849.634 442.772C849.378 442.559 849.122 442.351 848.866 442.148C848.61 441.935 848.349 441.711 848.082 441.476C847.677 441.871 847.224 442.169 846.722 442.372C846.232 442.575 845.704 442.676 845.138 442.676ZM844.242 433.876C844.242 434.143 844.296 434.415 844.402 434.692C844.52 434.959 844.69 435.263 844.914 435.604C845.309 435.369 845.624 435.151 845.858 434.948C846.093 434.735 846.258 434.527 846.354 434.324C846.461 434.121 846.514 433.903 846.514 433.668C846.514 433.348 846.408 433.081 846.194 432.868C845.981 432.655 845.72 432.548 845.41 432.548C845.069 432.548 844.786 432.671 844.562 432.916C844.349 433.151 844.242 433.471 844.242 433.876ZM843.41 439.396C843.41 439.94 843.576 440.372 843.906 440.692C844.237 441.012 844.685 441.172 845.25 441.172C845.56 441.172 845.858 441.108 846.146 440.98C846.434 440.841 846.696 440.644 846.93 440.388C846.482 439.951 846.045 439.508 845.618 439.06C845.202 438.601 844.797 438.148 844.402 437.7C844.061 437.967 843.81 438.239 843.65 438.516C843.49 438.793 843.41 439.087 843.41 439.396ZM864.166 442.5V433.108H860.758V431.3H869.686V433.108H866.294V442.5H864.166ZM874.816 442.66C874.048 442.66 873.354 442.479 872.736 442.116C872.117 441.743 871.626 441.241 871.264 440.612C870.901 439.972 870.72 439.257 870.72 438.468C870.72 437.689 870.901 436.985 871.264 436.356C871.626 435.716 872.117 435.215 872.736 434.852C873.354 434.479 874.048 434.292 874.816 434.292C875.594 434.292 876.288 434.479 876.896 434.852C877.514 435.215 878.005 435.716 878.368 436.356C878.73 436.985 878.912 437.689 878.912 438.468C878.912 439.257 878.73 439.972 878.368 440.612C878.005 441.241 877.514 441.743 876.896 442.116C876.288 442.479 875.594 442.66 874.816 442.66ZM874.816 440.948C875.232 440.948 875.6 440.841 875.92 440.628C876.24 440.415 876.49 440.121 876.672 439.748C876.853 439.375 876.944 438.953 876.944 438.484C876.944 438.004 876.853 437.583 876.672 437.22C876.49 436.847 876.24 436.553 875.92 436.34C875.6 436.127 875.232 436.02 874.816 436.02C874.4 436.02 874.032 436.127 873.712 436.34C873.392 436.553 873.141 436.847 872.96 437.22C872.778 437.583 872.688 438.004 872.688 438.484C872.688 438.953 872.778 439.375 872.96 439.748C873.141 440.121 873.392 440.415 873.712 440.628C874.032 440.841 874.4 440.948 874.816 440.948ZM884.409 442.66C883.641 442.66 882.948 442.479 882.329 442.116C881.711 441.743 881.22 441.241 880.857 440.612C880.495 439.972 880.313 439.257 880.313 438.468C880.313 437.689 880.495 436.985 880.857 436.356C881.22 435.716 881.711 435.215 882.329 434.852C882.948 434.479 883.641 434.292 884.409 434.292C885.188 434.292 885.881 434.479 886.489 434.852C887.108 435.215 887.599 435.716 887.961 436.356C888.324 436.985 888.505 437.689 888.505 438.468C888.505 439.257 888.324 439.972 887.961 440.612C887.599 441.241 887.108 441.743 886.489 442.116C885.881 442.479 885.188 442.66 884.409 442.66ZM884.409 440.948C884.825 440.948 885.193 440.841 885.513 440.628C885.833 440.415 886.084 440.121 886.265 439.748C886.447 439.375 886.537 438.953 886.537 438.484C886.537 438.004 886.447 437.583 886.265 437.22C886.084 436.847 885.833 436.553 885.513 436.34C885.193 436.127 884.825 436.02 884.409 436.02C883.993 436.02 883.625 436.127 883.305 436.34C882.985 436.553 882.735 436.847 882.553 437.22C882.372 437.583 882.281 438.004 882.281 438.484C882.281 438.953 882.372 439.375 882.553 439.748C882.735 440.121 882.985 440.415 883.305 440.628C883.625 440.841 883.993 440.948 884.409 440.948ZM895.907 442.66C894.894 442.66 894.126 442.42 893.603 441.94C893.08 441.46 892.819 440.751 892.819 439.812V432.452H889.955V430.868H894.835V439.604C894.835 440.073 894.947 440.415 895.171 440.628C895.395 440.841 895.747 440.948 896.227 440.948C896.483 440.948 896.734 440.927 896.979 440.884C897.224 440.831 897.496 440.74 897.795 440.612V442.292C897.571 442.388 897.283 442.473 896.931 442.548C896.579 442.623 896.238 442.66 895.907 442.66ZM909.719 442.5V431.3H917.175V433.108H911.863V435.972H915.271V437.732H911.863V440.692H917.239V442.5H909.719ZM918.496 442.5L921.6 438.388L918.576 434.42H920.928L922.816 437.012L924.736 434.42H926.992L923.936 438.404L927.072 442.5H924.72L922.72 439.78L920.736 442.5H918.496ZM932.602 442.66C931.802 442.66 931.082 442.479 930.442 442.116C929.802 441.743 929.295 441.241 928.922 440.612C928.549 439.972 928.362 439.257 928.362 438.468C928.362 437.679 928.538 436.969 928.89 436.34C929.253 435.711 929.738 435.215 930.346 434.852C930.954 434.479 931.642 434.292 932.41 434.292C933.199 434.292 933.898 434.473 934.506 434.836C935.125 435.199 935.605 435.695 935.946 436.324C936.298 436.953 936.474 437.673 936.474 438.484V438.964H930.33C930.405 439.369 930.549 439.727 930.762 440.036C930.975 440.345 931.247 440.585 931.578 440.756C931.919 440.927 932.293 441.012 932.698 441.012C933.103 441.012 933.477 440.937 933.818 440.788C934.159 440.639 934.447 440.425 934.682 440.148L935.994 441.316C935.514 441.785 934.997 442.127 934.442 442.34C933.887 442.553 933.274 442.66 932.602 442.66ZM930.362 437.748H934.57C934.506 437.364 934.373 437.039 934.17 436.772C933.978 436.495 933.733 436.281 933.434 436.132C933.146 435.983 932.815 435.908 932.442 435.908C932.101 435.908 931.781 435.983 931.482 436.132C931.194 436.281 930.954 436.495 930.762 436.772C930.57 437.039 930.437 437.364 930.362 437.748ZM942.212 442.66C941.401 442.66 940.671 442.479 940.02 442.116C939.38 441.743 938.873 441.241 938.5 440.612C938.127 439.972 937.94 439.257 937.94 438.468C937.94 437.689 938.127 436.985 938.5 436.356C938.873 435.716 939.38 435.215 940.02 434.852C940.671 434.479 941.401 434.292 942.212 434.292C943.012 434.292 943.737 434.468 944.388 434.82C945.039 435.161 945.545 435.62 945.908 436.196L944.372 437.284C944.169 436.9 943.876 436.596 943.492 436.372C943.108 436.148 942.681 436.036 942.212 436.036C941.775 436.036 941.385 436.143 941.044 436.356C940.703 436.569 940.431 436.857 940.228 437.22C940.025 437.583 939.924 438.004 939.924 438.484C939.924 438.953 940.025 439.375 940.228 439.748C940.431 440.111 940.703 440.399 941.044 440.612C941.385 440.825 941.775 440.932 942.212 440.932C942.681 440.932 943.108 440.82 943.492 440.596C943.876 440.361 944.169 440.052 944.372 439.668L945.908 440.756C945.545 441.332 945.039 441.796 944.388 442.148C943.737 442.489 943.012 442.66 942.212 442.66ZM953.022 442.66C951.976 442.66 951.187 442.431 950.654 441.972C950.12 441.513 949.854 440.836 949.854 439.94V436.004H947.326V434.42H949.854V432.196L951.854 431.78V434.42H955.182V436.004H951.854V439.556C951.854 440.057 951.971 440.415 952.206 440.628C952.44 440.841 952.814 440.948 953.326 440.948C953.592 440.948 953.87 440.927 954.158 440.884C954.456 440.831 954.803 440.745 955.198 440.628V442.292C954.867 442.399 954.504 442.484 954.11 442.548C953.726 442.623 953.363 442.66 953.022 442.66ZM961.127 432.932C960.743 432.932 960.418 432.799 960.151 432.532C959.885 432.255 959.751 431.929 959.751 431.556C959.751 431.183 959.885 430.863 960.151 430.596C960.418 430.319 960.743 430.18 961.127 430.18C961.501 430.18 961.821 430.319 962.087 430.596C962.365 430.863 962.503 431.183 962.503 431.556C962.503 431.929 962.365 432.255 962.087 432.532C961.821 432.799 961.501 432.932 961.127 432.932ZM963.207 442.66C962.194 442.66 961.426 442.42 960.903 441.94C960.381 441.46 960.119 440.751 960.119 439.812V436.004H957.239V434.42H962.119V439.604C962.119 440.073 962.231 440.415 962.455 440.628C962.69 440.841 963.047 440.948 963.527 440.948C963.783 440.948 964.034 440.927 964.279 440.884C964.525 440.831 964.797 440.74 965.095 440.612V442.292C964.871 442.388 964.583 442.473 964.231 442.548C963.879 442.623 963.538 442.66 963.207 442.66ZM970.753 442.66C969.985 442.66 969.292 442.479 968.673 442.116C968.054 441.743 967.564 441.241 967.201 440.612C966.838 439.972 966.657 439.257 966.657 438.468C966.657 437.689 966.838 436.985 967.201 436.356C967.564 435.716 968.054 435.215 968.673 434.852C969.292 434.479 969.985 434.292 970.753 434.292C971.532 434.292 972.225 434.479 972.833 434.852C973.452 435.215 973.942 435.716 974.305 436.356C974.668 436.985 974.849 437.689 974.849 438.468C974.849 439.257 974.668 439.972 974.305 440.612C973.942 441.241 973.452 441.743 972.833 442.116C972.225 442.479 971.532 442.66 970.753 442.66ZM970.753 440.948C971.169 440.948 971.537 440.841 971.857 440.628C972.177 440.415 972.428 440.121 972.609 439.748C972.79 439.375 972.881 438.953 972.881 438.484C972.881 438.004 972.79 437.583 972.609 437.22C972.428 436.847 972.177 436.553 971.857 436.34C971.537 436.127 971.169 436.02 970.753 436.02C970.337 436.02 969.969 436.127 969.649 436.34C969.329 436.553 969.078 436.847 968.897 437.22C968.716 437.583 968.625 438.004 968.625 438.484C968.625 438.953 968.716 439.375 968.897 439.748C969.078 440.121 969.329 440.415 969.649 440.628C969.969 440.841 970.337 440.948 970.753 440.948ZM976.747 442.5V434.42H978.763V435.604C979.382 434.729 980.203 434.292 981.227 434.292C981.771 434.292 982.251 434.415 982.667 434.66C983.083 434.895 983.408 435.225 983.643 435.652C983.878 436.079 983.995 436.575 983.995 437.14V442.5H981.995V437.716C981.995 437.161 981.84 436.724 981.531 436.404C981.232 436.073 980.827 435.908 980.315 435.908C980.006 435.908 979.718 435.972 979.451 436.1C979.195 436.228 978.966 436.42 978.763 436.676V442.5H976.747Z" fill="#080808"/>
<path d="M764.707 414.707C765.098 414.317 765.098 413.683 764.707 413.293L758.343 406.929C757.953 406.538 757.319 406.538 756.929 406.929C756.538 407.319 756.538 407.953 756.929 408.343L762.586 414L756.929 419.657C756.538 420.047 756.538 420.681 756.929 421.071C757.319 421.462 757.953 421.462 758.343 421.071L764.707 414.707ZM764 414V413H708V414V415H764V414Z" fill="white"/>
<path d="M764.707 310.707C765.098 310.317 765.098 309.683 764.707 309.293L758.343 302.929C757.953 302.538 757.319 302.538 756.929 302.929C756.538 303.319 756.538 303.953 756.929 304.343L762.586 310L756.929 315.657C756.538 316.047 756.538 316.681 756.929 317.071C757.319 317.462 757.953 317.462 758.343 317.071L764.707 310.707ZM764 310L764 309L692 309L692 310L692 311L764 311L764 310Z" fill="white"/>
<path d="M691.293 461.293C690.902 461.683 690.902 462.317 691.293 462.707L697.657 469.071C698.047 469.462 698.681 469.462 699.071 469.071C699.462 468.681 699.462 468.047 699.071 467.657L693.414 462L699.071 456.343C699.462 455.953 699.462 455.319 699.071 454.929C698.681 454.538 698.047 454.538 697.657 454.929L691.293 461.293ZM764 462L764 461L692 461L692 462L692 463L764 463L764 462Z" fill="white"/>
<path d="M691.293 360.293C690.902 360.683 690.902 361.317 691.293 361.707L697.657 368.071C698.047 368.462 698.681 368.462 699.071 368.071C699.462 367.681 699.462 367.047 699.071 366.657L693.414 361L699.071 355.343C699.462 354.953 699.462 354.319 699.071 353.929C698.681 353.538 698.047 353.538 697.657 353.929L691.293 360.293ZM894 329L893 329L893 353L894 353L895 353L895 329L894 329ZM886 361L886 360L692 360L692 361L692 362L886 362L886 361ZM894 353L893 353C893 356.866 889.866 360 886 360L886 361L886 362C890.971 362 895 357.971 895 353L894 353Z" fill="white"/>
</g>
<defs>
<clipPath id="clip0_221_381">
<rect width="1440" height="720" fill="white"/>
</clipPath>
</defs>
</svg>
