<svg width="1440" height="720" viewBox="0 0 1440 720" fill="none" xmlns="http://www.w3.org/2000/svg">
<g clip-path="url(#clip0_221_684)">
<rect width="1440" height="720" fill="#080808"/>
<path d="M399 350C399 345.582 402.582 342 407 342H651C655.418 342 659 345.582 659 350V424C659 428.418 655.418 432 651 432H407C402.582 432 399 428.418 399 424V350Z" fill="white"/>
<path d="M505.147 392.676C504.347 392.676 503.611 392.452 502.939 392.004C502.277 391.556 501.749 390.905 501.355 390.052C500.96 389.188 500.763 388.137 500.763 386.9C500.763 385.663 500.96 384.617 501.355 383.764C501.749 382.9 502.277 382.244 502.939 381.796C503.611 381.348 504.347 381.124 505.147 381.124C505.819 381.124 506.432 381.268 506.987 381.556C507.541 381.844 508.016 382.26 508.411 382.804C508.816 383.348 509.109 384.015 509.291 384.804L507.387 385.316C507.248 384.569 506.976 384.004 506.571 383.62C506.165 383.225 505.707 383.028 505.195 383.028C504.768 383.028 504.379 383.172 504.027 383.46C503.685 383.737 503.413 384.164 503.211 384.74C503.008 385.305 502.907 386.025 502.907 386.9C502.907 387.764 503.008 388.484 503.211 389.06C503.413 389.636 503.685 390.068 504.027 390.356C504.379 390.633 504.768 390.772 505.195 390.772C505.707 390.772 506.165 390.58 506.571 390.196C506.976 389.801 507.248 389.231 507.387 388.484L509.291 388.996C509.109 389.775 508.816 390.441 508.411 390.996C508.016 391.54 507.541 391.956 506.987 392.244C506.432 392.532 505.819 392.676 505.147 392.676ZM514.613 392.66C513.845 392.66 513.151 392.479 512.533 392.116C511.914 391.743 511.423 391.241 511.061 390.612C510.698 389.972 510.517 389.257 510.517 388.468C510.517 387.689 510.698 386.985 511.061 386.356C511.423 385.716 511.914 385.215 512.533 384.852C513.151 384.479 513.845 384.292 514.613 384.292C515.391 384.292 516.085 384.479 516.693 384.852C517.311 385.215 517.802 385.716 518.165 386.356C518.527 386.985 518.709 387.689 518.709 388.468C518.709 389.257 518.527 389.972 518.165 390.612C517.802 391.241 517.311 391.743 516.693 392.116C516.085 392.479 515.391 392.66 514.613 392.66ZM514.613 390.948C515.029 390.948 515.397 390.841 515.717 390.628C516.037 390.415 516.287 390.121 516.469 389.748C516.65 389.375 516.741 388.953 516.741 388.484C516.741 388.004 516.65 387.583 516.469 387.22C516.287 386.847 516.037 386.553 515.717 386.34C515.397 386.127 515.029 386.02 514.613 386.02C514.197 386.02 513.829 386.127 513.509 386.34C513.189 386.553 512.938 386.847 512.757 387.22C512.575 387.583 512.485 388.004 512.485 388.484C512.485 388.953 512.575 389.375 512.757 389.748C512.938 390.121 513.189 390.415 513.509 390.628C513.829 390.841 514.197 390.948 514.613 390.948ZM520.606 392.5V384.42H522.622V385.604C523.241 384.729 524.062 384.292 525.086 384.292C525.63 384.292 526.11 384.415 526.526 384.66C526.942 384.895 527.268 385.225 527.502 385.652C527.737 386.079 527.854 386.575 527.854 387.14V392.5H525.854V387.716C525.854 387.161 525.7 386.724 525.39 386.404C525.092 386.073 524.686 385.908 524.174 385.908C523.865 385.908 523.577 385.972 523.31 386.1C523.054 386.228 522.825 386.42 522.622 386.676V392.5H520.606ZM532.216 392.5V386.004H529.688V384.42H532.216V383.3C532.216 381.327 533.336 380.34 535.576 380.34C535.885 380.34 536.216 380.372 536.568 380.436C536.931 380.489 537.261 380.564 537.56 380.66V382.372C537.165 382.233 536.824 382.148 536.536 382.116C536.259 382.073 535.976 382.052 535.688 382.052C535.176 382.052 534.803 382.164 534.568 382.388C534.333 382.612 534.216 382.996 534.216 383.54V384.42H537.56V386.004H534.216V392.5H532.216ZM543.362 382.932C542.978 382.932 542.652 382.799 542.386 382.532C542.119 382.255 541.986 381.929 541.986 381.556C541.986 381.183 542.119 380.863 542.386 380.596C542.652 380.319 542.978 380.18 543.362 380.18C543.735 380.18 544.055 380.319 544.322 380.596C544.599 380.863 544.738 381.183 544.738 381.556C544.738 381.929 544.599 382.255 544.322 382.532C544.055 382.799 543.735 382.932 543.362 382.932ZM545.442 392.66C544.428 392.66 543.66 392.42 543.138 391.94C542.615 391.46 542.354 390.751 542.354 389.812V386.004H539.474V384.42H544.354V389.604C544.354 390.073 544.466 390.415 544.69 390.628C544.924 390.841 545.282 390.948 545.762 390.948C546.018 390.948 546.268 390.927 546.514 390.884C546.759 390.831 547.031 390.74 547.33 390.612V392.292C547.106 392.388 546.818 392.473 546.466 392.548C546.114 392.623 545.772 392.66 545.442 392.66ZM552.86 396.004C552.273 396.004 551.697 395.935 551.132 395.796C550.577 395.668 550.06 395.481 549.58 395.236L550.268 393.764C550.737 393.988 551.174 394.153 551.58 394.26C551.985 394.377 552.385 394.436 552.78 394.436C554.017 394.436 554.636 393.865 554.636 392.724V391.556C554.358 391.876 554.022 392.127 553.628 392.308C553.233 392.479 552.812 392.564 552.364 392.564C551.713 392.564 551.121 392.383 550.588 392.02C550.054 391.647 549.628 391.151 549.308 390.532C548.998 389.903 548.844 389.209 548.844 388.452C548.844 387.684 549.004 386.996 549.324 386.388C549.654 385.769 550.097 385.279 550.652 384.916C551.206 384.543 551.825 384.356 552.508 384.356C552.924 384.356 553.313 384.441 553.676 384.612C554.049 384.772 554.374 385.007 554.652 385.316V384.42H556.635V392.724C556.635 393.78 556.31 394.591 555.66 395.156C555.02 395.721 554.086 396.004 552.86 396.004ZM552.956 390.932C553.297 390.932 553.606 390.868 553.884 390.74C554.172 390.601 554.422 390.415 554.636 390.18V386.74C554.422 386.495 554.166 386.308 553.868 386.18C553.58 386.052 553.276 385.988 552.956 385.988C552.529 385.988 552.156 386.095 551.836 386.308C551.516 386.521 551.265 386.815 551.084 387.188C550.902 387.561 550.812 387.988 550.812 388.468C550.812 388.937 550.902 389.359 551.084 389.732C551.276 390.105 551.526 390.399 551.836 390.612C552.156 390.825 552.529 390.932 552.956 390.932Z" fill="#080808"/>
<path d="M731 296C731 291.582 734.582 288 739 288H983C987.418 288 991 291.582 991 296V319C991 323.418 987.418 327 983 327H739C734.582 327 731 323.418 731 319V296Z" fill="#E66A32"/>
<path d="M798.772 313.176C797.972 313.176 797.236 312.952 796.564 312.504C795.902 312.056 795.374 311.405 794.98 310.552C794.585 309.688 794.388 308.637 794.388 307.4C794.388 306.163 794.585 305.117 794.98 304.264C795.374 303.4 795.902 302.744 796.564 302.296C797.236 301.848 797.972 301.624 798.772 301.624C799.444 301.624 800.057 301.768 800.612 302.056C801.166 302.344 801.641 302.76 802.036 303.304C802.441 303.848 802.734 304.515 802.916 305.304L801.012 305.816C800.873 305.069 800.601 304.504 800.196 304.12C799.79 303.725 799.332 303.528 798.82 303.528C798.393 303.528 798.004 303.672 797.652 303.96C797.31 304.237 797.038 304.664 796.836 305.24C796.633 305.805 796.532 306.525 796.532 307.4C796.532 308.264 796.633 308.984 796.836 309.56C797.038 310.136 797.31 310.568 797.652 310.856C798.004 311.133 798.393 311.272 798.82 311.272C799.332 311.272 799.79 311.08 800.196 310.696C800.601 310.301 800.873 309.731 801.012 308.984L802.916 309.496C802.734 310.275 802.441 310.941 802.036 311.496C801.641 312.04 801.166 312.456 800.612 312.744C800.057 313.032 799.444 313.176 798.772 313.176ZM808.238 313.16C807.47 313.16 806.776 312.979 806.158 312.616C805.539 312.243 805.048 311.741 804.686 311.112C804.323 310.472 804.142 309.757 804.142 308.968C804.142 308.189 804.323 307.485 804.686 306.856C805.048 306.216 805.539 305.715 806.158 305.352C806.776 304.979 807.47 304.792 808.238 304.792C809.016 304.792 809.71 304.979 810.318 305.352C810.936 305.715 811.427 306.216 811.79 306.856C812.152 307.485 812.334 308.189 812.334 308.968C812.334 309.757 812.152 310.472 811.79 311.112C811.427 311.741 810.936 312.243 810.318 312.616C809.71 312.979 809.016 313.16 808.238 313.16ZM808.238 311.448C808.654 311.448 809.022 311.341 809.342 311.128C809.662 310.915 809.912 310.621 810.094 310.248C810.275 309.875 810.366 309.453 810.366 308.984C810.366 308.504 810.275 308.083 810.094 307.72C809.912 307.347 809.662 307.053 809.342 306.84C809.022 306.627 808.654 306.52 808.238 306.52C807.822 306.52 807.454 306.627 807.134 306.84C806.814 307.053 806.563 307.347 806.382 307.72C806.2 308.083 806.11 308.504 806.11 308.984C806.11 309.453 806.2 309.875 806.382 310.248C806.563 310.621 806.814 310.915 807.134 311.128C807.454 311.341 807.822 311.448 808.238 311.448ZM814.231 313V304.92H816.247V306.104C816.866 305.229 817.687 304.792 818.711 304.792C819.255 304.792 819.735 304.915 820.151 305.16C820.567 305.395 820.893 305.725 821.127 306.152C821.362 306.579 821.479 307.075 821.479 307.64V313H819.479V308.216C819.479 307.661 819.325 307.224 819.015 306.904C818.717 306.573 818.311 306.408 817.799 306.408C817.49 306.408 817.202 306.472 816.935 306.6C816.679 306.728 816.45 306.92 816.247 307.176V313H814.231ZM825.841 313V306.504H823.313V304.92H825.841V303.8C825.841 301.827 826.961 300.84 829.201 300.84C829.51 300.84 829.841 300.872 830.193 300.936C830.556 300.989 830.886 301.064 831.185 301.16V302.872C830.79 302.733 830.449 302.648 830.161 302.616C829.884 302.573 829.601 302.552 829.313 302.552C828.801 302.552 828.428 302.664 828.193 302.888C827.958 303.112 827.841 303.496 827.841 304.04V304.92H831.185V306.504H827.841V313H825.841ZM836.987 303.432C836.603 303.432 836.277 303.299 836.011 303.032C835.744 302.755 835.611 302.429 835.611 302.056C835.611 301.683 835.744 301.363 836.011 301.096C836.277 300.819 836.603 300.68 836.987 300.68C837.36 300.68 837.68 300.819 837.947 301.096C838.224 301.363 838.363 301.683 838.363 302.056C838.363 302.429 838.224 302.755 837.947 303.032C837.68 303.299 837.36 303.432 836.987 303.432ZM839.067 313.16C838.053 313.16 837.285 312.92 836.763 312.44C836.24 311.96 835.979 311.251 835.979 310.312V306.504H833.099V304.92H837.979V310.104C837.979 310.573 838.091 310.915 838.315 311.128C838.549 311.341 838.907 311.448 839.387 311.448C839.643 311.448 839.893 311.427 840.139 311.384C840.384 311.331 840.656 311.24 840.955 311.112V312.792C840.731 312.888 840.443 312.973 840.091 313.048C839.739 313.123 839.397 313.16 839.067 313.16ZM846.485 316.504C845.898 316.504 845.322 316.435 844.757 316.296C844.202 316.168 843.685 315.981 843.205 315.736L843.893 314.264C844.362 314.488 844.799 314.653 845.205 314.76C845.61 314.877 846.01 314.936 846.405 314.936C847.642 314.936 848.261 314.365 848.261 313.224V312.056C847.983 312.376 847.647 312.627 847.253 312.808C846.858 312.979 846.437 313.064 845.989 313.064C845.338 313.064 844.746 312.883 844.213 312.52C843.679 312.147 843.253 311.651 842.933 311.032C842.623 310.403 842.469 309.709 842.469 308.952C842.469 308.184 842.629 307.496 842.949 306.888C843.279 306.269 843.722 305.779 844.277 305.416C844.831 305.043 845.45 304.856 846.133 304.856C846.549 304.856 846.938 304.941 847.301 305.112C847.674 305.272 847.999 305.507 848.277 305.816V304.92H850.26V313.224C850.26 314.28 849.935 315.091 849.285 315.656C848.645 316.221 847.711 316.504 846.485 316.504ZM846.581 311.432C846.922 311.432 847.231 311.368 847.509 311.24C847.797 311.101 848.047 310.915 848.261 310.68V307.24C848.047 306.995 847.791 306.808 847.493 306.68C847.205 306.552 846.901 306.488 846.581 306.488C846.154 306.488 845.781 306.595 845.461 306.808C845.141 307.021 844.89 307.315 844.709 307.688C844.527 308.061 844.437 308.488 844.437 308.968C844.437 309.437 844.527 309.859 844.709 310.232C844.901 310.605 845.151 310.899 845.461 311.112C845.781 311.325 846.154 311.432 846.581 311.432ZM862.536 313L861.24 301.8H863.096L863.736 308.792L865.064 301.8H866.6L867.944 308.728L868.568 301.8H870.36L869.08 313H867.192L865.816 305.496L864.424 313H862.536ZM874.402 313.144C873.836 313.144 873.335 313.043 872.898 312.84C872.46 312.627 872.119 312.339 871.874 311.976C871.639 311.603 871.522 311.176 871.522 310.696C871.522 310.195 871.65 309.768 871.906 309.416C872.162 309.064 872.524 308.792 872.994 308.6C873.463 308.408 874.018 308.312 874.658 308.312C875.02 308.312 875.378 308.349 875.73 308.424C876.082 308.499 876.439 308.627 876.802 308.808V308.024C876.802 307.501 876.647 307.112 876.338 306.856C876.039 306.589 875.586 306.456 874.978 306.456C874.626 306.456 874.258 306.509 873.874 306.616C873.49 306.723 873.058 306.893 872.578 307.128L871.826 305.672C872.466 305.363 873.074 305.139 873.65 305C874.236 304.861 874.812 304.792 875.378 304.792C876.455 304.792 877.292 305.059 877.89 305.592C878.487 306.115 878.786 306.861 878.786 307.832V313H876.802V312.168C876.439 312.509 876.06 312.76 875.666 312.92C875.282 313.069 874.86 313.144 874.402 313.144ZM873.394 310.648C873.394 310.989 873.532 311.261 873.81 311.464C874.098 311.667 874.482 311.768 874.962 311.768C875.314 311.768 875.639 311.715 875.938 311.608C876.247 311.501 876.535 311.336 876.802 311.112V309.928C876.524 309.8 876.236 309.709 875.938 309.656C875.65 309.603 875.346 309.576 875.026 309.576C874.524 309.576 874.124 309.672 873.826 309.864C873.538 310.056 873.394 310.317 873.394 310.648ZM886.444 313.16C885.398 313.16 884.609 312.931 884.076 312.472C883.542 312.013 883.276 311.336 883.276 310.44V306.504H880.748V304.92H883.276V302.696L885.276 302.28V304.92H888.604V306.504H885.276V310.056C885.276 310.557 885.393 310.915 885.628 311.128C885.862 311.341 886.236 311.448 886.748 311.448C887.014 311.448 887.292 311.427 887.58 311.384C887.878 311.331 888.225 311.245 888.62 311.128V312.792C888.289 312.899 887.926 312.984 887.532 313.048C887.148 313.123 886.785 313.16 886.444 313.16ZM894.821 313.16C894.011 313.16 893.28 312.979 892.629 312.616C891.989 312.243 891.483 311.741 891.109 311.112C890.736 310.472 890.549 309.757 890.549 308.968C890.549 308.189 890.736 307.485 891.109 306.856C891.483 306.216 891.989 305.715 892.629 305.352C893.28 304.979 894.011 304.792 894.821 304.792C895.621 304.792 896.347 304.968 896.997 305.32C897.648 305.661 898.155 306.12 898.517 306.696L896.981 307.784C896.779 307.4 896.485 307.096 896.101 306.872C895.717 306.648 895.291 306.536 894.821 306.536C894.384 306.536 893.995 306.643 893.653 306.856C893.312 307.069 893.04 307.357 892.837 307.72C892.635 308.083 892.533 308.504 892.533 308.984C892.533 309.453 892.635 309.875 892.837 310.248C893.04 310.611 893.312 310.899 893.653 311.112C893.995 311.325 894.384 311.432 894.821 311.432C895.291 311.432 895.717 311.32 896.101 311.096C896.485 310.861 896.779 310.552 896.981 310.168L898.517 311.256C898.155 311.832 897.648 312.296 896.997 312.648C896.347 312.989 895.621 313.16 894.821 313.16ZM900.575 313V301.544L902.591 301.208V306.104C903.21 305.229 904.031 304.792 905.055 304.792C905.599 304.792 906.079 304.915 906.495 305.16C906.911 305.395 907.236 305.725 907.471 306.152C907.706 306.579 907.823 307.075 907.823 307.64V313H905.823V308.216C905.823 307.661 905.668 307.224 905.359 306.904C905.06 306.573 904.655 306.408 904.143 306.408C903.834 306.408 903.546 306.472 903.279 306.6C903.023 306.728 902.794 306.92 902.591 307.176V313H900.575ZM913.993 313.16C913.193 313.16 912.473 312.979 911.833 312.616C911.193 312.243 910.686 311.741 910.313 311.112C909.939 310.472 909.753 309.757 909.753 308.968C909.753 308.179 909.929 307.469 910.281 306.84C910.643 306.211 911.129 305.715 911.737 305.352C912.345 304.979 913.033 304.792 913.801 304.792C914.59 304.792 915.289 304.973 915.897 305.336C916.515 305.699 916.995 306.195 917.337 306.824C917.689 307.453 917.865 308.173 917.865 308.984V309.464H911.721C911.795 309.869 911.939 310.227 912.153 310.536C912.366 310.845 912.638 311.085 912.969 311.256C913.31 311.427 913.683 311.512 914.089 311.512C914.494 311.512 914.867 311.437 915.209 311.288C915.55 311.139 915.838 310.925 916.073 310.648L917.385 311.816C916.905 312.285 916.387 312.627 915.833 312.84C915.278 313.053 914.665 313.16 913.993 313.16ZM911.753 308.248H915.961C915.897 307.864 915.763 307.539 915.561 307.272C915.369 306.995 915.123 306.781 914.825 306.632C914.537 306.483 914.206 306.408 913.833 306.408C913.491 306.408 913.171 306.483 912.873 306.632C912.585 306.781 912.345 306.995 912.153 307.272C911.961 307.539 911.827 307.864 911.753 308.248ZM919.715 313V311.416H921.651V306.504H919.715V304.92H923.667V306.872C923.944 306.179 924.312 305.661 924.771 305.32C925.229 304.968 925.752 304.792 926.339 304.792C926.584 304.792 926.787 304.813 926.947 304.856C927.117 304.888 927.315 304.947 927.539 305.032V306.856C927.315 306.76 927.069 306.691 926.803 306.648C926.536 306.595 926.275 306.568 926.019 306.568C925.517 306.568 925.059 306.685 924.643 306.92C924.227 307.155 923.901 307.491 923.667 307.928V311.416H925.715V313H919.715Z" fill="#080808"/>
<path d="M731 350C731 345.582 734.582 342 739 342H983C987.418 342 991 345.582 991 350V373C991 377.418 987.418 381 983 381H739C734.582 381 731 377.418 731 373V350Z" fill="white"/>
<path d="M789.29 367.16C788.479 367.16 787.749 366.979 787.098 366.616C786.458 366.243 785.951 365.741 785.578 365.112C785.205 364.472 785.018 363.757 785.018 362.968C785.018 362.189 785.205 361.485 785.578 360.856C785.951 360.216 786.458 359.715 787.098 359.352C787.749 358.979 788.479 358.792 789.29 358.792C790.09 358.792 790.815 358.968 791.466 359.32C792.117 359.661 792.623 360.12 792.986 360.696L791.45 361.784C791.247 361.4 790.954 361.096 790.57 360.872C790.186 360.648 789.759 360.536 789.29 360.536C788.853 360.536 788.463 360.643 788.122 360.856C787.781 361.069 787.509 361.357 787.306 361.72C787.103 362.083 787.002 362.504 787.002 362.984C787.002 363.453 787.103 363.875 787.306 364.248C787.509 364.611 787.781 364.899 788.122 365.112C788.463 365.325 788.853 365.432 789.29 365.432C789.759 365.432 790.186 365.32 790.57 365.096C790.954 364.861 791.247 364.552 791.45 364.168L792.986 365.256C792.623 365.832 792.117 366.296 791.466 366.648C790.815 366.989 790.09 367.16 789.29 367.16ZM798.644 367.16C797.876 367.16 797.182 366.979 796.564 366.616C795.945 366.243 795.454 365.741 795.092 365.112C794.729 364.472 794.548 363.757 794.548 362.968C794.548 362.189 794.729 361.485 795.092 360.856C795.454 360.216 795.945 359.715 796.564 359.352C797.182 358.979 797.876 358.792 798.644 358.792C799.422 358.792 800.116 358.979 800.724 359.352C801.342 359.715 801.833 360.216 802.196 360.856C802.558 361.485 802.74 362.189 802.74 362.968C802.74 363.757 802.558 364.472 802.196 365.112C801.833 365.741 801.342 366.243 800.724 366.616C800.116 366.979 799.422 367.16 798.644 367.16ZM798.644 365.448C799.06 365.448 799.428 365.341 799.748 365.128C800.068 364.915 800.318 364.621 800.5 364.248C800.681 363.875 800.772 363.453 800.772 362.984C800.772 362.504 800.681 362.083 800.5 361.72C800.318 361.347 800.068 361.053 799.748 360.84C799.428 360.627 799.06 360.52 798.644 360.52C798.228 360.52 797.86 360.627 797.54 360.84C797.22 361.053 796.969 361.347 796.788 361.72C796.606 362.083 796.516 362.504 796.516 362.984C796.516 363.453 796.606 363.875 796.788 364.248C796.969 364.621 797.22 364.915 797.54 365.128C797.86 365.341 798.228 365.448 798.644 365.448ZM804.638 367V358.92H806.654V360.104C807.272 359.229 808.094 358.792 809.118 358.792C809.662 358.792 810.142 358.915 810.558 359.16C810.974 359.395 811.299 359.725 811.534 360.152C811.768 360.579 811.885 361.075 811.885 361.64V367H809.886V362.216C809.886 361.661 809.731 361.224 809.422 360.904C809.123 360.573 808.718 360.408 808.206 360.408C807.896 360.408 807.608 360.472 807.342 360.6C807.086 360.728 806.856 360.92 806.654 361.176V367H804.638ZM816.247 367V360.504H813.719V358.92H816.247V357.8C816.247 355.827 817.367 354.84 819.607 354.84C819.917 354.84 820.247 354.872 820.599 354.936C820.962 354.989 821.293 355.064 821.591 355.16V356.872C821.197 356.733 820.855 356.648 820.567 356.616C820.29 356.573 820.007 356.552 819.719 356.552C819.207 356.552 818.834 356.664 818.599 356.888C818.365 357.112 818.247 357.496 818.247 358.04V358.92H821.591V360.504H818.247V367H816.247ZM827.393 357.432C827.009 357.432 826.684 357.299 826.417 357.032C826.15 356.755 826.017 356.429 826.017 356.056C826.017 355.683 826.15 355.363 826.417 355.096C826.684 354.819 827.009 354.68 827.393 354.68C827.766 354.68 828.086 354.819 828.353 355.096C828.63 355.363 828.769 355.683 828.769 356.056C828.769 356.429 828.63 356.755 828.353 357.032C828.086 357.299 827.766 357.432 827.393 357.432ZM829.473 367.16C828.46 367.16 827.692 366.92 827.169 366.44C826.646 365.96 826.385 365.251 826.385 364.312V360.504H823.505V358.92H828.385V364.104C828.385 364.573 828.497 364.915 828.721 365.128C828.956 365.341 829.313 365.448 829.793 365.448C830.049 365.448 830.3 365.427 830.545 365.384C830.79 365.331 831.062 365.24 831.361 365.112V366.792C831.137 366.888 830.849 366.973 830.497 367.048C830.145 367.123 829.804 367.16 829.473 367.16ZM836.891 370.504C836.304 370.504 835.728 370.435 835.163 370.296C834.608 370.168 834.091 369.981 833.611 369.736L834.299 368.264C834.768 368.488 835.205 368.653 835.611 368.76C836.016 368.877 836.416 368.936 836.811 368.936C838.048 368.936 838.667 368.365 838.667 367.224V366.056C838.389 366.376 838.053 366.627 837.659 366.808C837.264 366.979 836.843 367.064 836.395 367.064C835.744 367.064 835.152 366.883 834.619 366.52C834.085 366.147 833.659 365.651 833.339 365.032C833.029 364.403 832.875 363.709 832.875 362.952C832.875 362.184 833.035 361.496 833.355 360.888C833.685 360.269 834.128 359.779 834.683 359.416C835.237 359.043 835.856 358.856 836.539 358.856C836.955 358.856 837.344 358.941 837.707 359.112C838.08 359.272 838.405 359.507 838.683 359.816V358.92H840.667V367.224C840.667 368.28 840.341 369.091 839.691 369.656C839.051 370.221 838.117 370.504 836.891 370.504ZM836.987 365.432C837.328 365.432 837.637 365.368 837.915 365.24C838.203 365.101 838.453 364.915 838.667 364.68V361.24C838.453 360.995 838.197 360.808 837.899 360.68C837.611 360.552 837.307 360.488 836.987 360.488C836.56 360.488 836.187 360.595 835.867 360.808C835.547 361.021 835.296 361.315 835.115 361.688C834.933 362.061 834.843 362.488 834.843 362.968C834.843 363.437 834.933 363.859 835.115 364.232C835.307 364.605 835.557 364.899 835.867 365.112C836.187 365.325 836.56 365.432 836.987 365.432ZM846.613 367.16C846.207 367.16 845.866 367.021 845.589 366.744C845.311 366.456 845.173 366.115 845.173 365.72C845.173 365.325 845.311 364.989 845.589 364.712C845.866 364.435 846.207 364.296 846.613 364.296C847.018 364.296 847.359 364.435 847.637 364.712C847.914 364.989 848.053 365.325 848.053 365.72C848.053 366.115 847.914 366.456 847.637 366.744C847.359 367.021 847.018 367.16 846.613 367.16ZM855.326 367.128C854.782 367.128 854.302 367.011 853.886 366.776C853.47 366.531 853.145 366.195 852.91 365.768C852.676 365.331 852.558 364.835 852.558 364.28V358.92H854.574V363.704C854.574 364.248 854.724 364.691 855.022 365.032C855.321 365.363 855.726 365.528 856.238 365.528C856.558 365.528 856.846 365.464 857.102 365.336C857.358 365.197 857.588 365 857.79 364.744V358.92H859.806V367H857.79V365.816C857.172 366.691 856.35 367.128 855.326 367.128ZM865.736 367.16C864.979 367.16 864.275 367.064 863.624 366.872C862.973 366.669 862.419 366.376 861.96 365.992L862.936 364.68C863.501 365.032 863.997 365.277 864.424 365.416C864.861 365.555 865.299 365.624 865.736 365.624C866.301 365.624 866.744 365.539 867.064 365.368C867.395 365.197 867.56 364.968 867.56 364.68C867.56 364.445 867.464 364.269 867.272 364.152C867.08 364.024 866.829 363.928 866.52 363.864C866.211 363.8 865.869 363.741 865.496 363.688C865.123 363.635 864.744 363.565 864.36 363.48C863.987 363.384 863.645 363.256 863.336 363.096C863.027 362.925 862.776 362.701 862.584 362.424C862.392 362.136 862.296 361.763 862.296 361.304C862.296 360.771 862.435 360.317 862.712 359.944C863 359.571 863.4 359.283 863.912 359.08C864.435 358.877 865.032 358.776 865.704 358.776C866.323 358.776 866.931 358.861 867.528 359.032C868.136 359.192 868.707 359.459 869.24 359.832L868.264 361.112C867.837 360.824 867.405 360.616 866.968 360.488C866.531 360.36 866.093 360.296 865.656 360.296C865.165 360.296 864.781 360.376 864.504 360.536C864.227 360.685 864.088 360.888 864.088 361.144C864.088 361.368 864.179 361.539 864.36 361.656C864.552 361.773 864.808 361.864 865.128 361.928C865.448 361.992 865.795 362.051 866.168 362.104C866.552 362.157 866.931 362.232 867.304 362.328C867.688 362.413 868.04 362.541 868.36 362.712C868.68 362.872 868.936 363.096 869.128 363.384C869.32 363.672 869.416 364.051 869.416 364.52C869.416 365.043 869.251 365.501 868.92 365.896C868.6 366.291 868.163 366.6 867.608 366.824C867.053 367.048 866.429 367.16 865.736 367.16ZM875.618 367.16C874.818 367.16 874.098 366.979 873.458 366.616C872.818 366.243 872.311 365.741 871.938 365.112C871.564 364.472 871.378 363.757 871.378 362.968C871.378 362.179 871.554 361.469 871.906 360.84C872.268 360.211 872.754 359.715 873.362 359.352C873.97 358.979 874.658 358.792 875.426 358.792C876.215 358.792 876.914 358.973 877.522 359.336C878.14 359.699 878.62 360.195 878.962 360.824C879.314 361.453 879.49 362.173 879.49 362.984V363.464H873.346C873.42 363.869 873.564 364.227 873.778 364.536C873.991 364.845 874.263 365.085 874.594 365.256C874.935 365.427 875.308 365.512 875.714 365.512C876.119 365.512 876.492 365.437 876.834 365.288C877.175 365.139 877.463 364.925 877.698 364.648L879.01 365.816C878.53 366.285 878.012 366.627 877.458 366.84C876.903 367.053 876.29 367.16 875.618 367.16ZM873.378 362.248H877.586C877.522 361.864 877.388 361.539 877.186 361.272C876.994 360.995 876.748 360.781 876.45 360.632C876.162 360.483 875.831 360.408 875.458 360.408C875.116 360.408 874.796 360.483 874.498 360.632C874.21 360.781 873.97 360.995 873.778 361.272C873.586 361.539 873.452 361.864 873.378 362.248ZM881.34 367V365.416H883.276V360.504H881.34V358.92H885.292V360.872C885.569 360.179 885.937 359.661 886.396 359.32C886.854 358.968 887.377 358.792 887.964 358.792C888.209 358.792 888.412 358.813 888.572 358.856C888.742 358.888 888.94 358.947 889.164 359.032V360.856C888.94 360.76 888.694 360.691 888.428 360.648C888.161 360.595 887.9 360.568 887.644 360.568C887.142 360.568 886.684 360.685 886.268 360.92C885.852 361.155 885.526 361.491 885.292 361.928V365.416H887.34V367H881.34ZM894.581 367.16C894.176 367.16 893.835 367.021 893.557 366.744C893.28 366.456 893.141 366.115 893.141 365.72C893.141 365.325 893.28 364.989 893.557 364.712C893.835 364.435 894.176 364.296 894.581 364.296C894.987 364.296 895.328 364.435 895.605 364.712C895.883 364.989 896.021 365.325 896.021 365.72C896.021 366.115 895.883 366.456 895.605 366.744C895.328 367.021 894.987 367.16 894.581 367.16ZM901.455 370.504C901.252 370.504 901.028 370.488 900.783 370.456C900.548 370.435 900.314 370.397 900.079 370.344V368.6C900.314 368.643 900.506 368.675 900.655 368.696C900.815 368.717 901.002 368.728 901.215 368.728C901.578 368.728 901.876 368.659 902.111 368.52C902.346 368.392 902.522 368.179 902.639 367.88L902.959 367.16L899.839 358.92H902.047L904.095 364.776L906.303 358.92H908.463L904.591 368.28C904.367 368.813 904.116 369.245 903.839 369.576C903.562 369.907 903.231 370.141 902.847 370.28C902.463 370.429 901.999 370.504 901.455 370.504ZM912.777 367.144C912.211 367.144 911.71 367.043 911.273 366.84C910.835 366.627 910.494 366.339 910.249 365.976C910.014 365.603 909.897 365.176 909.897 364.696C909.897 364.195 910.025 363.768 910.281 363.416C910.537 363.064 910.899 362.792 911.369 362.6C911.838 362.408 912.393 362.312 913.033 362.312C913.395 362.312 913.753 362.349 914.105 362.424C914.457 362.499 914.814 362.627 915.177 362.808V362.024C915.177 361.501 915.022 361.112 914.713 360.856C914.414 360.589 913.961 360.456 913.353 360.456C913.001 360.456 912.633 360.509 912.249 360.616C911.865 360.723 911.433 360.893 910.953 361.128L910.201 359.672C910.841 359.363 911.449 359.139 912.025 359C912.611 358.861 913.187 358.792 913.753 358.792C914.83 358.792 915.667 359.059 916.265 359.592C916.862 360.115 917.161 360.861 917.161 361.832V367H915.177V366.168C914.814 366.509 914.435 366.76 914.041 366.92C913.657 367.069 913.235 367.144 912.777 367.144ZM911.769 364.648C911.769 364.989 911.907 365.261 912.185 365.464C912.473 365.667 912.857 365.768 913.337 365.768C913.689 365.768 914.014 365.715 914.313 365.608C914.622 365.501 914.91 365.336 915.177 365.112V363.928C914.899 363.8 914.611 363.709 914.313 363.656C914.025 363.603 913.721 363.576 913.401 363.576C912.899 363.576 912.499 363.672 912.201 363.864C911.913 364.056 911.769 364.317 911.769 364.648ZM919.299 367V358.92H920.995V359.608C921.187 359.341 921.395 359.144 921.619 359.016C921.853 358.877 922.115 358.808 922.403 358.808C922.744 358.808 923.048 358.893 923.315 359.064C923.592 359.224 923.805 359.459 923.955 359.768C924.168 359.448 924.413 359.208 924.691 359.048C924.979 358.888 925.299 358.808 925.651 358.808C926.184 358.808 926.616 359 926.947 359.384C927.277 359.768 927.443 360.269 927.443 360.888V367H925.763V361.416C925.763 361.064 925.688 360.787 925.539 360.584C925.389 360.381 925.176 360.28 924.899 360.28C924.771 360.28 924.648 360.307 924.531 360.36C924.424 360.403 924.317 360.493 924.211 360.632C924.221 360.685 924.227 360.744 924.227 360.808C924.227 360.861 924.227 360.92 924.227 360.984V367H922.547V361.416C922.547 361.064 922.472 360.787 922.323 360.584C922.173 360.381 921.955 360.28 921.667 360.28C921.549 360.28 921.432 360.301 921.315 360.344C921.208 360.387 921.101 360.472 920.995 360.6V367H919.299ZM934.86 367.16C933.847 367.16 933.079 366.92 932.556 366.44C932.034 365.96 931.772 365.251 931.772 364.312V356.952H928.908V355.368H933.788V364.104C933.788 364.573 933.9 364.915 934.124 365.128C934.348 365.341 934.7 365.448 935.18 365.448C935.436 365.448 935.687 365.427 935.932 365.384C936.178 365.331 936.45 365.24 936.748 365.112V366.792C936.524 366.888 936.236 366.973 935.884 367.048C935.532 367.123 935.191 367.16 934.86 367.16Z" fill="#080808"/>
<path d="M731 401C731 396.582 734.582 393 739 393H983C987.418 393 991 396.582 991 401V424C991 428.418 987.418 432 983 432H739C734.582 432 731 428.418 731 424V401Z" fill="white"/>
<path d="M774.899 418.16C774.089 418.16 773.358 417.979 772.707 417.616C772.067 417.243 771.561 416.741 771.187 416.112C770.814 415.472 770.627 414.757 770.627 413.968C770.627 413.189 770.814 412.485 771.187 411.856C771.561 411.216 772.067 410.715 772.707 410.352C773.358 409.979 774.089 409.792 774.899 409.792C775.699 409.792 776.425 409.968 777.075 410.32C777.726 410.661 778.233 411.12 778.595 411.696L777.059 412.784C776.857 412.4 776.563 412.096 776.179 411.872C775.795 411.648 775.369 411.536 774.899 411.536C774.462 411.536 774.073 411.643 773.731 411.856C773.39 412.069 773.118 412.357 772.915 412.72C772.713 413.083 772.611 413.504 772.611 413.984C772.611 414.453 772.713 414.875 772.915 415.248C773.118 415.611 773.39 415.899 773.731 416.112C774.073 416.325 774.462 416.432 774.899 416.432C775.369 416.432 775.795 416.32 776.179 416.096C776.563 415.861 776.857 415.552 777.059 415.168L778.595 416.256C778.233 416.832 777.726 417.296 777.075 417.648C776.425 417.989 775.699 418.16 774.899 418.16ZM784.253 418.16C783.485 418.16 782.792 417.979 782.173 417.616C781.554 417.243 781.064 416.741 780.701 416.112C780.338 415.472 780.157 414.757 780.157 413.968C780.157 413.189 780.338 412.485 780.701 411.856C781.064 411.216 781.554 410.715 782.173 410.352C782.792 409.979 783.485 409.792 784.253 409.792C785.032 409.792 785.725 409.979 786.333 410.352C786.952 410.715 787.442 411.216 787.805 411.856C788.168 412.485 788.349 413.189 788.349 413.968C788.349 414.757 788.168 415.472 787.805 416.112C787.442 416.741 786.952 417.243 786.333 417.616C785.725 417.979 785.032 418.16 784.253 418.16ZM784.253 416.448C784.669 416.448 785.037 416.341 785.357 416.128C785.677 415.915 785.928 415.621 786.109 415.248C786.29 414.875 786.381 414.453 786.381 413.984C786.381 413.504 786.29 413.083 786.109 412.72C785.928 412.347 785.677 412.053 785.357 411.84C785.037 411.627 784.669 411.52 784.253 411.52C783.837 411.52 783.469 411.627 783.149 411.84C782.829 412.053 782.578 412.347 782.397 412.72C782.216 413.083 782.125 413.504 782.125 413.984C782.125 414.453 782.216 414.875 782.397 415.248C782.578 415.621 782.829 415.915 783.149 416.128C783.469 416.341 783.837 416.448 784.253 416.448ZM790.247 418V409.92H792.263V411.104C792.882 410.229 793.703 409.792 794.727 409.792C795.271 409.792 795.751 409.915 796.167 410.16C796.583 410.395 796.908 410.725 797.143 411.152C797.378 411.579 797.495 412.075 797.495 412.64V418H795.495V413.216C795.495 412.661 795.34 412.224 795.031 411.904C794.732 411.573 794.327 411.408 793.815 411.408C793.506 411.408 793.218 411.472 792.951 411.6C792.695 411.728 792.466 411.92 792.263 412.176V418H790.247ZM801.857 418V411.504H799.329V409.92H801.857V408.8C801.857 406.827 802.977 405.84 805.217 405.84C805.526 405.84 805.857 405.872 806.209 405.936C806.571 405.989 806.902 406.064 807.201 406.16V407.872C806.806 407.733 806.465 407.648 806.177 407.616C805.899 407.573 805.617 407.552 805.329 407.552C804.817 407.552 804.443 407.664 804.209 407.888C803.974 408.112 803.857 408.496 803.857 409.04V409.92H807.201V411.504H803.857V418H801.857ZM813.002 408.432C812.618 408.432 812.293 408.299 812.026 408.032C811.76 407.755 811.626 407.429 811.626 407.056C811.626 406.683 811.76 406.363 812.026 406.096C812.293 405.819 812.618 405.68 813.002 405.68C813.376 405.68 813.696 405.819 813.962 406.096C814.24 406.363 814.378 406.683 814.378 407.056C814.378 407.429 814.24 407.755 813.962 408.032C813.696 408.299 813.376 408.432 813.002 408.432ZM815.082 418.16C814.069 418.16 813.301 417.92 812.778 417.44C812.256 416.96 811.994 416.251 811.994 415.312V411.504H809.114V409.92H813.994V415.104C813.994 415.573 814.106 415.915 814.33 416.128C814.565 416.341 814.922 416.448 815.402 416.448C815.658 416.448 815.909 416.427 816.154 416.384C816.4 416.331 816.672 416.24 816.97 416.112V417.792C816.746 417.888 816.458 417.973 816.106 418.048C815.754 418.123 815.413 418.16 815.082 418.16ZM822.5 421.504C821.913 421.504 821.337 421.435 820.772 421.296C820.217 421.168 819.7 420.981 819.22 420.736L819.908 419.264C820.377 419.488 820.815 419.653 821.22 419.76C821.625 419.877 822.025 419.936 822.42 419.936C823.657 419.936 824.276 419.365 824.276 418.224V417.056C823.999 417.376 823.663 417.627 823.268 417.808C822.873 417.979 822.452 418.064 822.004 418.064C821.353 418.064 820.761 417.883 820.228 417.52C819.695 417.147 819.268 416.651 818.948 416.032C818.639 415.403 818.484 414.709 818.484 413.952C818.484 413.184 818.644 412.496 818.964 411.888C819.295 411.269 819.737 410.779 820.292 410.416C820.847 410.043 821.465 409.856 822.148 409.856C822.564 409.856 822.953 409.941 823.316 410.112C823.689 410.272 824.015 410.507 824.292 410.816V409.92H826.276V418.224C826.276 419.28 825.951 420.091 825.3 420.656C824.66 421.221 823.727 421.504 822.5 421.504ZM822.596 416.432C822.937 416.432 823.247 416.368 823.524 416.24C823.812 416.101 824.063 415.915 824.276 415.68V412.24C824.063 411.995 823.807 411.808 823.508 411.68C823.22 411.552 822.916 411.488 822.596 411.488C822.169 411.488 821.796 411.595 821.476 411.808C821.156 412.021 820.905 412.315 820.724 412.688C820.543 413.061 820.452 413.488 820.452 413.968C820.452 414.437 820.543 414.859 820.724 415.232C820.916 415.605 821.167 415.899 821.476 416.112C821.796 416.325 822.169 416.432 822.596 416.432ZM832.222 418.16C831.817 418.16 831.475 418.021 831.198 417.744C830.921 417.456 830.782 417.115 830.782 416.72C830.782 416.325 830.921 415.989 831.198 415.712C831.475 415.435 831.817 415.296 832.222 415.296C832.627 415.296 832.969 415.435 833.246 415.712C833.523 415.989 833.662 416.325 833.662 416.72C833.662 417.115 833.523 417.456 833.246 417.744C832.969 418.021 832.627 418.16 832.222 418.16ZM838.168 418V416.416H840.104V411.504H838.168V409.92H842.12V411.872C842.397 411.179 842.765 410.661 843.224 410.32C843.682 409.968 844.205 409.792 844.792 409.792C845.037 409.792 845.24 409.813 845.4 409.856C845.57 409.888 845.768 409.947 845.992 410.032V411.856C845.768 411.76 845.522 411.691 845.256 411.648C844.989 411.595 844.728 411.568 844.472 411.568C843.97 411.568 843.512 411.685 843.096 411.92C842.68 412.155 842.354 412.491 842.12 412.928V416.416H844.168V418H838.168ZM850.529 418.128C849.985 418.128 849.505 418.011 849.089 417.776C848.673 417.531 848.348 417.195 848.113 416.768C847.879 416.331 847.761 415.835 847.761 415.28V409.92H849.777V414.704C849.777 415.248 849.927 415.691 850.225 416.032C850.524 416.363 850.929 416.528 851.441 416.528C851.761 416.528 852.049 416.464 852.305 416.336C852.561 416.197 852.791 416 852.993 415.744V409.92H855.009V418H852.993V416.816C852.375 417.691 851.553 418.128 850.529 418.128ZM857.403 418V409.92H859.419V411.104C860.038 410.229 860.859 409.792 861.883 409.792C862.427 409.792 862.907 409.915 863.323 410.16C863.739 410.395 864.064 410.725 864.299 411.152C864.534 411.579 864.651 412.075 864.651 412.64V418H862.651V413.216C862.651 412.661 862.496 412.224 862.187 411.904C861.888 411.573 861.483 411.408 860.971 411.408C860.662 411.408 860.374 411.472 860.107 411.6C859.851 411.728 859.622 411.92 859.419 412.176V418H857.403ZM872.053 418.16C871.008 418.16 870.218 417.931 869.685 417.472C869.152 417.013 868.885 416.336 868.885 415.44V411.504H866.357V409.92H868.885V407.696L870.885 407.28V409.92H874.213V411.504H870.885V415.056C870.885 415.557 871.002 415.915 871.237 416.128C871.472 416.341 871.845 416.448 872.357 416.448C872.624 416.448 872.901 416.427 873.189 416.384C873.488 416.331 873.834 416.245 874.229 416.128V417.792C873.898 417.899 873.536 417.984 873.141 418.048C872.757 418.123 872.394 418.16 872.053 418.16ZM880.159 408.432C879.775 408.432 879.449 408.299 879.183 408.032C878.916 407.755 878.783 407.429 878.783 407.056C878.783 406.683 878.916 406.363 879.183 406.096C879.449 405.819 879.775 405.68 880.159 405.68C880.532 405.68 880.852 405.819 881.119 406.096C881.396 406.363 881.535 406.683 881.535 407.056C881.535 407.429 881.396 407.755 881.119 408.032C880.852 408.299 880.532 408.432 880.159 408.432ZM882.239 418.16C881.225 418.16 880.457 417.92 879.935 417.44C879.412 416.96 879.151 416.251 879.151 415.312V411.504H876.271V409.92H881.151V415.104C881.151 415.573 881.263 415.915 881.487 416.128C881.721 416.341 882.079 416.448 882.559 416.448C882.815 416.448 883.065 416.427 883.311 416.384C883.556 416.331 883.828 416.24 884.127 416.112V417.792C883.903 417.888 883.615 417.973 883.263 418.048C882.911 418.123 882.569 418.16 882.239 418.16ZM885.72 418V409.92H887.416V410.608C887.608 410.341 887.816 410.144 888.04 410.016C888.275 409.877 888.536 409.808 888.824 409.808C889.166 409.808 889.47 409.893 889.736 410.064C890.014 410.224 890.227 410.459 890.376 410.768C890.59 410.448 890.835 410.208 891.112 410.048C891.4 409.888 891.72 409.808 892.072 409.808C892.606 409.808 893.038 410 893.368 410.384C893.699 410.768 893.864 411.269 893.864 411.888V418H892.184V412.416C892.184 412.064 892.11 411.787 891.96 411.584C891.811 411.381 891.598 411.28 891.32 411.28C891.192 411.28 891.07 411.307 890.952 411.36C890.846 411.403 890.739 411.493 890.632 411.632C890.643 411.685 890.648 411.744 890.648 411.808C890.648 411.861 890.648 411.92 890.648 411.984V418H888.968V412.416C888.968 412.064 888.894 411.787 888.744 411.584C888.595 411.381 888.376 411.28 888.088 411.28C887.971 411.28 887.854 411.301 887.736 411.344C887.63 411.387 887.523 411.472 887.416 411.6V418H885.72ZM899.602 418.16C898.802 418.16 898.082 417.979 897.442 417.616C896.802 417.243 896.295 416.741 895.922 416.112C895.549 415.472 895.362 414.757 895.362 413.968C895.362 413.179 895.538 412.469 895.89 411.84C896.253 411.211 896.738 410.715 897.346 410.352C897.954 409.979 898.642 409.792 899.41 409.792C900.199 409.792 900.898 409.973 901.506 410.336C902.125 410.699 902.605 411.195 902.946 411.824C903.298 412.453 903.474 413.173 903.474 413.984V414.464H897.33C897.405 414.869 897.549 415.227 897.762 415.536C897.975 415.845 898.247 416.085 898.578 416.256C898.919 416.427 899.293 416.512 899.698 416.512C900.103 416.512 900.477 416.437 900.818 416.288C901.159 416.139 901.447 415.925 901.682 415.648L902.994 416.816C902.514 417.285 901.997 417.627 901.442 417.84C900.887 418.053 900.274 418.16 899.602 418.16ZM897.362 413.248H901.57C901.506 412.864 901.373 412.539 901.17 412.272C900.978 411.995 900.733 411.781 900.434 411.632C900.146 411.483 899.815 411.408 899.442 411.408C899.101 411.408 898.781 411.483 898.482 411.632C898.194 411.781 897.954 411.995 897.762 412.272C897.57 412.539 897.437 412.864 897.362 413.248ZM908.972 418.16C908.567 418.16 908.225 418.021 907.948 417.744C907.671 417.456 907.532 417.115 907.532 416.72C907.532 416.325 907.671 415.989 907.948 415.712C908.225 415.435 908.567 415.296 908.972 415.296C909.377 415.296 909.719 415.435 909.996 415.712C910.273 415.989 910.412 416.325 910.412 416.72C910.412 417.115 910.273 417.456 909.996 417.744C909.719 418.021 909.377 418.16 908.972 418.16ZM915.846 421.504C915.643 421.504 915.419 421.488 915.174 421.456C914.939 421.435 914.704 421.397 914.47 421.344V419.6C914.704 419.643 914.896 419.675 915.046 419.696C915.206 419.717 915.392 419.728 915.606 419.728C915.968 419.728 916.267 419.659 916.502 419.52C916.736 419.392 916.912 419.179 917.03 418.88L917.35 418.16L914.23 409.92H916.438L918.486 415.776L920.694 409.92H922.854L918.982 419.28C918.758 419.813 918.507 420.245 918.23 420.576C917.952 420.907 917.622 421.141 917.238 421.28C916.854 421.429 916.39 421.504 915.846 421.504ZM927.167 418.144C926.602 418.144 926.101 418.043 925.663 417.84C925.226 417.627 924.885 417.339 924.639 416.976C924.405 416.603 924.287 416.176 924.287 415.696C924.287 415.195 924.415 414.768 924.671 414.416C924.927 414.064 925.29 413.792 925.759 413.6C926.229 413.408 926.783 413.312 927.423 413.312C927.786 413.312 928.143 413.349 928.495 413.424C928.847 413.499 929.205 413.627 929.567 413.808V413.024C929.567 412.501 929.413 412.112 929.103 411.856C928.805 411.589 928.351 411.456 927.743 411.456C927.391 411.456 927.023 411.509 926.639 411.616C926.255 411.723 925.823 411.893 925.343 412.128L924.591 410.672C925.231 410.363 925.839 410.139 926.415 410C927.002 409.861 927.578 409.792 928.143 409.792C929.221 409.792 930.058 410.059 930.655 410.592C931.253 411.115 931.551 411.861 931.551 412.832V418H929.567V417.168C929.205 417.509 928.826 417.76 928.431 417.92C928.047 418.069 927.626 418.144 927.167 418.144ZM926.159 415.648C926.159 415.989 926.298 416.261 926.575 416.464C926.863 416.667 927.247 416.768 927.727 416.768C928.079 416.768 928.405 416.715 928.703 416.608C929.013 416.501 929.301 416.336 929.567 416.112V414.928C929.29 414.8 929.002 414.709 928.703 414.656C928.415 414.603 928.111 414.576 927.791 414.576C927.29 414.576 926.89 414.672 926.591 414.864C926.303 415.056 926.159 415.317 926.159 415.648ZM933.689 418V409.92H935.385V410.608C935.577 410.341 935.785 410.144 936.009 410.016C936.244 409.877 936.505 409.808 936.793 409.808C937.134 409.808 937.438 409.893 937.705 410.064C937.982 410.224 938.196 410.459 938.345 410.768C938.558 410.448 938.804 410.208 939.081 410.048C939.369 409.888 939.689 409.808 940.041 409.808C940.574 409.808 941.006 410 941.337 410.384C941.668 410.768 941.833 411.269 941.833 411.888V418H940.153V412.416C940.153 412.064 940.078 411.787 939.929 411.584C939.78 411.381 939.566 411.28 939.289 411.28C939.161 411.28 939.038 411.307 938.921 411.36C938.814 411.403 938.708 411.493 938.601 411.632C938.612 411.685 938.617 411.744 938.617 411.808C938.617 411.861 938.617 411.92 938.617 411.984V418H936.937V412.416C936.937 412.064 936.862 411.787 936.713 411.584C936.564 411.381 936.345 411.28 936.057 411.28C935.94 411.28 935.822 411.301 935.705 411.344C935.598 411.387 935.492 411.472 935.385 411.6V418H933.689ZM949.251 418.16C948.238 418.16 947.47 417.92 946.947 417.44C946.424 416.96 946.163 416.251 946.163 415.312V407.952H943.299V406.368H948.179V415.104C948.179 415.573 948.291 415.915 948.515 416.128C948.739 416.341 949.091 416.448 949.571 416.448C949.827 416.448 950.078 416.427 950.323 416.384C950.568 416.331 950.84 416.24 951.139 416.112V417.792C950.915 417.888 950.627 417.973 950.275 418.048C949.923 418.123 949.582 418.16 949.251 418.16Z" fill="#080808"/>
<path d="M658.293 363.707C657.902 363.317 657.902 362.683 658.293 362.293L664.657 355.929C665.047 355.538 665.681 355.538 666.071 355.929C666.462 356.319 666.462 356.953 666.071 357.343L660.414 363L666.071 368.657C666.462 369.047 666.462 369.681 666.071 370.071C665.681 370.462 665.047 370.462 664.657 370.071L658.293 363.707ZM731 308L731 309L716.655 309L716.655 308L716.655 307L731 307L731 308ZM708.655 316L709.655 316L709.655 355L708.655 355L707.655 355L707.655 316L708.655 316ZM700.655 363L700.655 364L659 364L659 363L659 362L700.655 362L700.655 363ZM708.655 355L709.655 355C709.655 359.971 705.626 364 700.655 364L700.655 363L700.655 362C704.521 362 707.655 358.866 707.655 355L708.655 355ZM716.655 308L716.655 309C712.789 309 709.655 312.134 709.655 316L708.655 316L707.655 316C707.655 311.029 711.685 307 716.655 307L716.655 308Z" fill="white"/>
<path d="M990.293 307.293C989.902 307.683 989.902 308.317 990.293 308.707L996.657 315.071C997.047 315.462 997.681 315.462 998.071 315.071C998.462 314.681 998.462 314.047 998.071 313.657L992.414 308L998.071 302.343C998.462 301.953 998.462 301.319 998.071 300.929C997.681 300.538 997.047 300.538 996.657 300.929L990.293 307.293ZM991 360L991 361L1033 361L1033 360L1033 359L991 359L991 360ZM1041 352L1042 352L1042 316L1041 316L1040 316L1040 352L1041 352ZM1033 308L1033 307L991 307L991 308L991 309L1033 309L1033 308ZM1041 316L1042 316C1042 311.029 1037.97 307 1033 307L1033 308L1033 309C1036.87 309 1040 312.134 1040 316L1041 316ZM1033 360L1033 361C1037.97 361 1042 356.971 1042 352L1041 352L1040 352C1040 355.866 1036.87 359 1033 359L1033 360Z" fill="white"/>
<path d="M990.293 307.293C989.902 307.683 989.902 308.317 990.293 308.707L996.657 315.071C997.047 315.462 997.681 315.462 998.071 315.071C998.462 314.681 998.462 314.047 998.071 313.657L992.414 308L998.071 302.343C998.462 301.953 998.462 301.319 998.071 300.929C997.681 300.538 997.047 300.538 996.657 300.929L990.293 307.293ZM991 413L991 414L1033 414L1033 413L1033 412L991 412L991 413ZM1041 405L1042 405L1042 316L1041 316L1040 316L1040 405L1041 405ZM1033 308L1033 307L991 307L991 308L991 309L1033 309L1033 308ZM1041 316L1042 316C1042 311.029 1037.97 307 1033 307L1033 308L1033 309C1036.87 309 1040 312.134 1040 316L1041 316ZM1033 413L1033 414C1037.97 414 1042 409.971 1042 405L1041 405L1040 405C1040 408.866 1036.87 412 1033 412L1033 413Z" fill="white"/>
<path d="M731.707 413.717C732.098 413.326 732.098 412.693 731.707 412.303L725.343 405.939C724.953 405.548 724.319 405.548 723.929 405.939C723.538 406.329 723.538 406.962 723.929 407.353L729.586 413.01L723.929 418.667C723.538 419.057 723.538 419.69 723.929 420.081C724.319 420.471 724.953 420.471 725.343 420.081L731.707 413.717ZM731 413.01L731 412.01L659 412.01L659 413.01L659 414.01L731 414.01L731 413.01Z" fill="white"/>
</g>
<defs>
<clipPath id="clip0_221_684">
<rect width="1440" height="720" fill="white"/>
</clipPath>
</defs>
</svg>
